<svg xmlns="http://www.w3.org/2000/svg" viewBox="0 0 324.5 59.4" xml:space="preserve"><defs><style>.cls-1{fill:transparent}.cls-2{fill:#ff4069;}</style></defs><title>bredbandskollen</title><g id="Layer_2" data-name="Layer 2"><rect class="cls-1" width="324.5" height="59.9"/></g><g id="Layer_1" data-name="Layer 1"><path d="M6.8,0H17.4c4.6,0,9.7,2.1,9.7,8.2a7,7,0,0,1-3.4,6,8.39,8.39,0,0,1,4.9,7.4c0,5.7-4.8,8.8-9.9,8.8H6.8ZM17.9,12.2c2.1,0,4.2-.8,4.2-3.7,0-2.4-2-3.6-4.6-3.6H12.3v7.3Zm.9,13c2.8,0,4.4-1.4,4.4-4.2,0-2.2-1.8-4-4.7-4H12.2v8.2Z"/><path d="M32.5,8.9h5.1v3.6a6.25,6.25,0,0,1,5.8-4.1,5.43,5.43,0,0,1,3.9,1.5l-2.4,4.3a3.86,3.86,0,0,0-2.3-.7c-2.5,0-5,2.3-5,7.8v9.1H32.5Z"/><path d="M47.1,19.8c0-5.6,3.3-11.3,10.5-11.3,7.5,0,10,6,10,10.9a7.42,7.42,0,0,1-.2,2.1H52.7c.5,2.8,2,4.7,5.4,4.7a6.53,6.53,0,0,0,5.2-2.3l3.6,3.2A11.19,11.19,0,0,1,58,31C50.6,30.9,47.1,25.5,47.1,19.8Zm15.4-2.2a3.5,3.5,0,0,0-.2-1.4,4.56,4.56,0,0,0-4.7-3.4c-3.1,0-4.5,2-5,4.7h9.9Z"/><path d="M70.2,19.7c0-5.9,3.3-11.2,9.2-11.2a7.82,7.82,0,0,1,6.1,2.6V0h5.3V30.4H86L85.8,28a7.55,7.55,0,0,1-6.2,2.9C73.5,30.9,70.2,25.7,70.2,19.7Zm15.8,0c0-3.6-1.6-6.4-5.2-6.4s-5.3,2.9-5.3,6.4,1.6,6.4,5.3,6.4S86,23.3,86,19.7Z"/><path d="M101,28.3v2.2H95.6V0H101V11.1a7.6,7.6,0,0,1,6-2.6c6,0,9.3,5.2,9.3,11.2s-3.3,11.2-9.2,11.2A8.14,8.14,0,0,1,101,28.3Zm10-8.6c0-3.6-1.6-6.4-5.2-6.4s-5.2,2.8-5.2,6.4,1.7,6.3,5.3,6.3S111,23.2,111,19.7Z"/><path d="M137.6,17.4V30.5h-4.3l-.3-2.9a8.14,8.14,0,0,1-6.7,3.3c-4.4,0-7.8-2.5-7.8-7,0-4.7,3.7-6.2,8.6-6.2h5.8c-.1-3.2-1-4.5-4.5-4.5a6,6,0,0,0-5.1,3l-4-2.9a10.5,10.5,0,0,1,9-4.7C134.2,8.5,137.6,12.1,137.6,17.4Zm-4.7,4.2v-.2h-5.6c-2.4,0-3.5,1.2-3.5,2.6s1.1,2.4,3.5,2.4a5.39,5.39,0,0,0,5.6-4.8Z"/><path d="M141.7,8.9h5.2v2.5a7.87,7.87,0,0,1,6.3-2.9c5.6,0,7.9,4.6,7.9,9.1V30.5h-5.2V18.2c0-2.8-1.4-4.9-4.1-4.9-3,0-4.8,1.6-4.8,5.3V30.4h-5.2l-.1-21.5Z"/><path d="M164.3,19.7c0-5.9,3.3-11.2,9.2-11.2a7.82,7.82,0,0,1,6.1,2.6V0h5.3V30.4H180l-.2-2.4a7.55,7.55,0,0,1-6.2,2.9C167.6,30.9,164.3,25.7,164.3,19.7Zm15.8,0c0-3.6-1.6-6.4-5.2-6.4s-5.2,2.9-5.2,6.4,1.6,6.4,5.2,6.4S180.1,23.3,180.1,19.7Z"/><path d="M188,24.8l4.1-1.8c.6,1.5,1.7,3.5,4.6,3.5,2.4,0,3.5-1.4,3.5-2.6,0-3.6-10.8-1.2-10.8-8.8,0-4.5,3.8-6.7,8-6.7a9.08,9.08,0,0,1,8.2,4.7l-4.1,2.2a4.62,4.62,0,0,0-4.3-2.7c-1.7,0-2.8.8-2.8,1.9,0,3.2,10.9,1.3,10.9,9.2,0,5-4.3,7.2-8.4,7.2A9.25,9.25,0,0,1,188,24.8Z"/><path d="M209,0h5.2V17.9L222.3,9h6.8L221,17.3l8.9,13.2h-6.2l-6.3-10-3.3,3.7v6.3H209Z"/><path d="M229.7,19.6a11,11,0,1,1,22,0c0,6.1-4.4,11.2-11,11.2a10.94,10.94,0,0,1-11.1-10.7A.74.74,0,0,0,229.7,19.6Zm16.5,0c0-3.5-1.6-6.6-5.6-6.6s-5.6,3.1-5.6,6.6,1.6,6.7,5.6,6.7S246.2,23.1,246.2,19.6Z"/><path d="M255.1,26.1V0h5.3V24.7c0,1,.7,1.4,1.7,1.4.5,0,1-.1,1.4-.1v4.4a17,17,0,0,1-3.9.4C257.2,30.9,255.1,29.9,255.1,26.1Z"/><path d="M266.7,26.1V0h5.2V24.7c0,1,.7,1.4,1.7,1.4.5,0,1-.1,1.4-.1v4.4a17,17,0,0,1-3.9.4C268.7,30.9,266.7,29.9,266.7,26.1Z"/><path d="M276.5,19.8c0-5.6,3.3-11.3,10.5-11.3,7.5,0,10,6,10,10.9a7.42,7.42,0,0,1-.2,2.1H282c.5,2.8,2,4.7,5.4,4.7a6.53,6.53,0,0,0,5.2-2.3l3.6,3.2a11.13,11.13,0,0,1-8.8,3.9C280,30.9,276.5,25.5,276.5,19.8Zm15.3-2.2a4.59,4.59,0,0,0-4.48-4.7H287c-3.1,0-4.5,2-5,4.7Z"/><path d="M299.7,8.9H305v2.5a7.87,7.87,0,0,1,6.3-2.9c5.6,0,7.9,4.6,7.9,9.1V30.5H314V18.2c0-2.8-1.4-4.9-4.1-4.9-3,0-4.8,1.6-4.8,5.3V30.4h-5.2Z"/><polygon class="cls-2" points="215.1 44.9 215.1 49.7 212.9 49.7 212.9 52.2 210.7 52.2 210.7 54.6 208.5 54.6 208.5 57 206.3 57 206.3 59.4 203.9 59.4 203.9 57 201.7 57 201.7 54.6 199.6 54.6 199.6 52.2 197.4 52.2 197.4 49.7 195.2 49.7 195.2 44.9 197.4 44.9 197.4 42.5 203.9 42.5 203.9 44.9 206.3 44.9 206.3 42.5 212.9 42.5 212.9 44.9 215.1 44.9"/><polygon class="cls-1" points="212.2 46.5 212.2 48.1 209.2 48.1 209.2 44.9 210.8 44.9 210.8 46.5 212.2 46.5"/><path d="M98.8,53.7c0,2-1.9,3.5-4.5,3.5s-4.6-1.5-4.7-3.8v-.1h1.9v.1c.2,1.8,1.6,2.1,2.8,2.1S97,55,97,53.7c0-.9-.5-1.4-1.7-1.8L93,51.2c-2-.6-3-1.7-3-3.4s1.8-3.3,4.2-3.3c2.6,0,4.2,1.3,4.4,3.6v.1H96.8v-.1c-.1-1.3-1-1.9-2.5-1.9s-2.3.6-2.3,1.6.4,1.4,1.8,1.8l1.9.5a6.94,6.94,0,0,1,2.3,1A6.08,6.08,0,0,1,98.8,53.7Z"/><polygon points="108.4 44.9 108.4 46.6 104.9 46.6 104.9 57 103 57 103 46.6 99.5 46.6 99.5 44.9 108.4 44.9"/><polygon points="122.5 46.6 122.5 50 127.7 50 127.7 51.7 122.5 51.7 122.5 57 120.6 57 120.6 44.9 128.1 44.9 128.1 46.6 122.5 46.6"/><polygon points="138.7 44.9 138.7 46.6 135.2 46.6 135.2 57 133.2 57 133.2 46.6 129.7 46.6 129.7 44.9 138.7 44.9"/><polygon points="142.2 46.6 142.2 50 147.6 50 147.6 51.7 142.2 51.7 142.2 55.3 148.4 55.3 148.4 57 140.3 57 140.3 44.9 148.4 44.9 148.4 46.6 142.2 46.6"/><polygon points="157.6 55.3 157.6 57 150.4 57 150.4 44.9 152.3 44.9 152.3 55.3 157.6 55.3"/><path d="M167.8,53.7c0,2-1.9,3.5-4.5,3.5s-4.6-1.5-4.7-3.8v-.1h1.9v.1c.2,1.8,1.6,2.1,2.8,2.1s2.7-.5,2.7-1.8c0-.9-.5-1.4-1.7-1.8l-2.3-.7c-2-.6-2.9-1.7-2.9-3.4s1.8-3.3,4.2-3.3c2.6,0,4.2,1.3,4.4,3.6v.1h-1.9v-.1c-.1-1.3-1-1.9-2.5-1.9s-2.3.6-2.3,1.6.4,1.4,1.8,1.8l1.9.5C166.2,50.7,167.8,51.4,167.8,53.7Z"/><polygon points="172 46.6 172 50 177.4 50 177.4 51.7 172 51.7 172 55.3 178.2 55.3 178.2 57 170.1 57 170.1 44.9 178.2 44.9 178.2 46.6 172 46.6"/><polygon points="189.7 44.9 189.7 57 187.1 57 182.6 47.7 182.4 47.4 182.4 57 180.5 57 180.5 44.9 183.1 44.9 187.8 54.5 187.8 44.9 189.7 44.9"/><polygon points="115.4 46.6 115.4 55.3 118.4 55.3 118.4 57.1 110.4 57.1 110.4 55.3 113.5 55.3 113.5 46.6 110.4 46.6 110.4 44.9 118.4 44.9 118.4 46.6 115.4 46.6"/><polygon points="24.6 44.9 24.6 57 22 57 17.5 47.7 17.3 47.4 17.3 57 15.4 57 15.4 44.9 18 44.9 22.7 54.5 22.7 44.9 24.6 44.9"/><polygon points="35.2 44.9 35.2 46.6 31.7 46.6 31.7 57 29.8 57 29.8 46.6 26.3 46.6 26.3 44.9 35.2 44.9"/><polygon points="38.8 46.6 38.8 50 44.2 50 44.2 51.7 38.8 51.7 38.8 55.3 45 55.3 45 57 36.9 57 36.9 44.9 45 44.9 45 46.6 38.8 46.6"/><path d="M52.9,51.9h0a2.62,2.62,0,0,0,1.8-.9,3.45,3.45,0,0,0,.9-2.6,3.47,3.47,0,0,0-.9-2.6,3.86,3.86,0,0,0-2.9-.9H47.2V57h1.9V52h1.8l2.8,5h2.2Zm-3.8-1.6V46.6h3.3a1.06,1.06,0,0,1,1.19.91.28.28,0,0,1,0,.09h0v1.5a1.13,1.13,0,0,1-1.06,1.2H49.1Z"/><polygon points="67.2 44.9 67.2 57 64.7 57 60.1 47.7 59.9 47.4 59.9 57 58.1 57 58.1 44.9 60.6 44.9 65.4 54.5 65.4 44.9 67.2 44.9"/><polygon points="71.8 46.6 71.8 50 77.2 50 77.2 51.7 71.8 51.7 71.8 55.3 78 55.3 78 57 69.9 57 69.9 44.9 78 44.9 78 46.6 71.8 46.6"/><polygon points="88.8 44.9 88.8 46.6 85.2 46.6 85.2 57 83.3 57 83.3 46.6 79.8 46.6 79.8 44.9 88.8 44.9"/><polygon points="10 46.6 10 55.2 13.1 55.2 13.1 57 5 57 5 55.2 8.1 55.2 8.1 46.6 5 46.6 5 44.9 13.1 44.9 13.1 46.6 10 46.6"/></g></svg>
