<svg xmlns="http://www.w3.org/2000/svg" viewBox="0 0 324.5 59.41" width="324.5px" height="59.41px" xml:space="preserve"><defs><style>.cls-1{fill:transparent}.cls-2{fill:#ff4069;}</style></defs><title>bredbandskollen</title><g id="Layer_2" data-name="Layer 2"><rect class="cls-1" width="324.5" height="59.41"/></g><g id="Lager_1" data-name="Lager 1"><path d="M6.83,0H17.39C22,0,27.12,2.11,27.12,8.2a6.87,6.87,0,0,1-3.38,6,8.45,8.45,0,0,1,4.89,7.45c0,5.66-4.76,8.83-9.93,8.83H6.83ZM17.9,12.25c2.13,0,4.2-.75,4.2-3.74,0-2.37-2-3.58-4.63-3.58H12.3v7.32Zm.89,13c2.82,0,4.45-1.36,4.45-4.22,0-2.18-1.81-4-4.67-4H12.3v8.25Z"/><path d="M32.46,8.91h5.12v3.62a6.13,6.13,0,0,1,5.77-4.07A5.5,5.5,0,0,1,47.29,10L44.9,14.32a4.26,4.26,0,0,0-2.34-.73c-2.46,0-5,2.28-5,7.75v9.09h-5.1Z"/><path d="M47.14,19.75c0-5.6,3.28-11.29,10.55-11.29,7.54,0,10,6,10,10.86a8.42,8.42,0,0,1-.2,2.06H52.7c.45,2.82,2,4.72,5.38,4.72a6.56,6.56,0,0,0,5.17-2.28L66.87,27A11.21,11.21,0,0,1,58,30.86C50.63,30.86,47.14,25.54,47.14,19.75ZM62.5,17.59a4.72,4.72,0,0,0-.17-1.35,4.47,4.47,0,0,0-4.68-3.36c-3.1,0-4.46,2-4.95,4.71Z"/><path d="M70.2,19.66c0-5.94,3.28-11.2,9.24-11.2a7.79,7.79,0,0,1,6.12,2.61V0H90.9V30.43H86L85.77,28a7.49,7.49,0,0,1-6.24,2.87C73.48,30.86,70.2,25.67,70.2,19.66Zm15.81,0c0-3.62-1.59-6.44-5.21-6.44s-5.26,2.87-5.26,6.44,1.64,6.44,5.26,6.44S86,23.32,86,19.66Z"/><path d="M101,28.27v2.16H95.55V0H101V11.07a7.6,7.6,0,0,1,6-2.61c6,0,9.31,5.21,9.31,11.2s-3.26,11.2-9.22,11.2A7.76,7.76,0,0,1,101,28.27Zm10-8.61c0-3.57-1.62-6.44-5.24-6.44s-5.25,2.78-5.25,6.44S102.19,26,105.8,26,111,23.24,111,19.66Z"/><path d="M137.64,17.38V30.43h-4.32L133,27.56a8,8,0,0,1-6.72,3.3c-4.41,0-7.81-2.54-7.81-7,0-4.68,3.74-6.23,8.57-6.23h5.83c-.1-3.18-1-4.54-4.48-4.54a5.76,5.76,0,0,0-5.06,3l-4-2.91a10.52,10.52,0,0,1,9-4.72C134.2,8.46,137.64,12.12,137.64,17.38Zm-4.75,4.18v-.18h-5.56c-2.39,0-3.49,1.25-3.49,2.61s1.14,2.43,3.49,2.43A5.46,5.46,0,0,0,132.89,21.56Z"/><path d="M141.66,8.91h5.25v2.5a8.15,8.15,0,0,1,6.31-2.95c5.64,0,7.86,4.55,7.86,9.05V30.43h-5.25V18.18c0-2.83-1.43-4.87-4.12-4.87-3,0-4.8,1.59-4.8,5.34V30.43h-5.25Z"/><path d="M164.32,19.66c0-5.94,3.27-11.2,9.24-11.2a7.77,7.77,0,0,1,6.11,2.61V0H185V30.43h-4.89L179.89,28a7.52,7.52,0,0,1-6.25,2.87C167.59,30.86,164.32,25.67,164.32,19.66Zm15.8,0c0-3.62-1.59-6.44-5.21-6.44s-5.25,2.87-5.25,6.44,1.63,6.44,5.25,6.44S180.12,23.32,180.12,19.66Z"/><path d="M188,24.83,192.14,23c.58,1.55,1.73,3.53,4.59,3.53,2.43,0,3.49-1.42,3.49-2.56,0-3.62-10.81-1.19-10.81-8.79,0-4.54,3.83-6.7,8-6.7a9,9,0,0,1,8.16,4.68l-4.07,2.21a4.66,4.66,0,0,0-4.27-2.73c-1.72,0-2.77.84-2.77,1.85,0,3.25,10.94,1.31,10.94,9.22,0,5-4.33,7.17-8.4,7.17A9.25,9.25,0,0,1,188,24.83Z"/><path d="M209,0h5.25V17.85l8.12-8.94h6.83l-8.06,8.34,8.94,13.18h-6.2l-6.31-10-3.32,3.66V30.4H209Z"/><path d="M229.66,19.62a11,11,0,1,1,22.05,0c0,6.09-4.37,11.24-11,11.24a10.89,10.89,0,0,1-11.05-10.72A4.51,4.51,0,0,1,229.66,19.62Zm16.58,0c0-3.53-1.57-6.61-5.55-6.61s-5.56,3.08-5.56,6.61,1.6,6.72,5.56,6.72S246.24,23.15,246.24,19.62Z"/><path d="M255.14,26.14V0h5.26V24.7c0,1,.66,1.44,1.72,1.44a10,10,0,0,0,1.44-.13v4.42a22.4,22.4,0,0,1-3.92.43C257.17,30.86,255.14,29.93,255.14,26.14Z"/><path d="M266.69,26.14V0h5.25V24.7c0,1,.67,1.44,1.73,1.44a10,10,0,0,0,1.44-.13v4.42a22.4,22.4,0,0,1-3.92.43C268.71,30.86,266.69,29.93,266.69,26.14Z"/><path d="M276.47,19.75c0-5.6,3.27-11.29,10.55-11.29,7.54,0,10,6,10,10.86a8.93,8.93,0,0,1-.19,2.06H282c.46,2.82,2,4.72,5.39,4.72a6.56,6.56,0,0,0,5.17-2.28L296.19,27a11.22,11.22,0,0,1-8.83,3.88C280,30.86,276.47,25.54,276.47,19.75Zm15.35-2.16a4.72,4.72,0,0,0-.17-1.35A4.43,4.43,0,0,0,287,12.88c-3.1,0-4.46,2-5,4.71Z"/><path d="M299.71,8.91H305v2.5a8.15,8.15,0,0,1,6.31-2.95c5.64,0,7.86,4.55,7.86,9.05V30.43h-5.25V18.18c0-2.83-1.42-4.87-4.12-4.87-2.95,0-4.8,1.59-4.8,5.34V30.43h-5.25Z"/><polygon class="cls-2" points="215.06 44.9 215.06 49.74 212.87 49.74 212.87 52.16 210.68 52.16 210.68 54.57 208.49 54.57 208.49 56.99 206.3 56.99 206.3 59.41 203.93 59.41 203.93 56.99 201.74 56.99 201.74 54.57 199.55 54.57 199.55 52.16 197.36 52.16 197.36 49.74 195.17 49.74 195.17 44.9 197.36 44.9 197.36 42.48 203.93 42.48 203.93 44.9 206.3 44.9 206.3 42.48 212.87 42.48 212.87 44.9 215.06 44.9"/><polygon class="cls-1" points="212.24 46.53 212.24 48.1 209.2 48.1 209.2 44.9 210.75 44.9 210.75 46.53 212.24 46.53"/><path d="M98.76,53.73c0,2-1.9,3.52-4.53,3.52s-4.56-1.46-4.74-3.82V53.3h1.9v.11c.19,1.77,1.62,2.14,2.79,2.14s2.67-.46,2.67-1.79c0-.92-.5-1.43-1.71-1.77l-2.31-.65c-2-.56-3-1.65-3-3.44s1.76-3.26,4.18-3.26c2.59,0,4.19,1.31,4.39,3.6v.13H96.56v-.12c-.12-1.27-1-1.92-2.49-1.92s-2.31.6-2.31,1.57.44,1.41,1.81,1.79l1.89.53a5.78,5.78,0,0,1,2.26,1.05A3,3,0,0,1,98.76,53.73Z"/><polygon points="108.44 44.9 108.44 46.63 104.89 46.63 104.89 57 102.99 57 102.99 46.63 99.46 46.63 99.46 44.9 108.44 44.9"/><polygon points="122.53 46.63 122.53 49.96 127.72 49.96 127.72 51.7 122.53 51.7 122.53 57 120.63 57 120.63 44.9 128.14 44.9 128.14 46.63 122.53 46.63"/><polygon points="138.69 44.9 138.69 46.63 135.16 46.63 135.16 57 133.25 57 133.25 46.63 129.72 46.63 129.72 44.9 138.69 44.9"/><polygon points="142.19 46.63 142.19 49.96 147.59 49.96 147.59 51.7 142.19 51.7 142.19 55.26 148.4 55.26 148.4 57 140.29 57 140.29 44.9 148.4 44.9 148.4 46.63 142.19 46.63"/><polygon points="157.62 55.26 157.62 57 150.35 57 150.35 44.9 152.26 44.9 152.26 55.26 157.62 55.26"/><path d="M167.82,53.73c0,2-1.91,3.52-4.53,3.52s-4.55-1.46-4.74-3.82V53.3h1.9v.11c.2,1.77,1.63,2.14,2.8,2.14s2.66-.46,2.66-1.79c0-.92-.49-1.43-1.69-1.77l-2.33-.65c-2-.56-2.94-1.65-2.94-3.44s1.76-3.26,4.18-3.26c2.6,0,4.2,1.31,4.39,3.6v.13h-1.91v-.12c-.11-1.27-1-1.92-2.49-1.92s-2.31.6-2.31,1.57.44,1.41,1.81,1.79l1.89.53C166.16,50.66,167.82,51.41,167.82,53.73Z"/><polygon points="171.96 46.63 171.96 49.96 177.36 49.96 177.36 51.7 171.96 51.7 171.96 55.26 178.16 55.26 178.16 57 170.05 57 170.05 44.9 178.16 44.9 178.16 46.63 171.96 46.63"/><polygon points="189.69 44.9 189.69 57 187.15 57 182.56 47.73 182.39 47.37 182.39 57 180.54 57 180.54 44.9 183.07 44.9 187.84 54.47 187.84 44.9 189.69 44.9"/><polygon points="115.37 46.63 115.37 55.35 118.43 55.35 118.43 57.08 110.36 57.08 110.36 55.35 113.47 55.35 113.47 46.63 110.36 46.63 110.36 44.9 118.43 44.9 118.43 46.63 115.37 46.63"/><polygon points="24.57 44.9 24.57 56.99 22.03 56.99 17.45 47.72 17.28 47.37 17.28 56.99 15.42 56.99 15.42 44.9 17.96 44.9 22.71 54.46 22.71 44.9 24.57 44.9"/><polygon points="35.24 44.9 35.24 46.62 31.7 46.62 31.7 56.99 29.79 56.99 29.79 46.62 26.26 46.62 26.26 44.9 35.24 44.9"/><polygon points="38.84 46.62 38.84 49.96 44.24 49.96 44.24 51.69 38.84 51.69 38.84 55.26 45.04 55.26 45.04 56.99 36.94 56.99 36.94 44.9 45.04 44.9 45.04 46.62 38.84 46.62"/><path d="M52.91,51.91H53A3.07,3.07,0,0,0,54.76,51a3.46,3.46,0,0,0,.89-2.59,3.44,3.44,0,0,0-.93-2.64,4.12,4.12,0,0,0-2.91-.88H47.23V57h1.91V52h1.75l2.75,5h2.18Zm-3.77-1.59v-3.7h3.29a1.11,1.11,0,0,1,1.23,1v1.51a1.16,1.16,0,0,1-1.09,1.23H49.14Z"/><polygon points="67.23 44.9 67.23 56.99 64.69 56.99 60.11 47.72 59.94 47.37 59.94 56.99 58.08 56.99 58.08 44.9 60.62 44.9 65.37 54.47 65.37 44.9 67.23 44.9"/><polygon points="71.82 46.62 71.82 49.96 77.22 49.96 77.22 51.69 71.82 51.69 71.82 55.26 78.01 55.26 78.01 56.99 69.92 56.99 69.92 44.9 78.01 44.9 78.01 46.62 71.82 46.62"/><polygon points="88.75 44.9 88.75 46.62 85.22 46.62 85.22 56.99 83.32 56.99 83.32 46.62 79.78 46.62 79.78 44.9 88.75 44.9"/><polygon points="10 46.62 10 55.23 13.06 55.23 13.06 56.96 5 56.96 5 55.23 8.09 55.23 8.09 46.62 5 46.62 5 44.9 13.06 44.9 13.06 46.62 10 46.62"/></g></svg>
