<?xml version="1.0" encoding="utf-8"?>
<!-- Generator: Adobe Illustrator 23.0.1, SVG Export Plug-In . SVG Version: 6.00 Build 0)  -->
<svg version="1.1" id="Layer_1" xmlns="http://www.w3.org/2000/svg" xmlns:xlink="http://www.w3.org/1999/xlink" x="0px" y="0px"
	 viewBox="0 0 324.5 59.4" style="enable-background:new 0 0 324.5 59.4;" xml:space="preserve" width="324.5px" height="59.41px">
<style type="text/css">
	.st0{fill:none;}
	.st1{fill:#FF4069;}
	.st2{fill:#FFFFFF;}
</style>
<title>bredbandskollen</title>
<g>
	<rect class="st0" width="324.5" height="59.4"/>
</g>
<g id="Lager_1">
	<path d="M6.8,0h10.6c4.6,0,9.7,2.1,9.7,8.2c0,2.5-1.3,4.7-3.4,6c2.9,1.4,4.8,4.2,4.9,7.4c0,5.7-4.8,8.8-9.9,8.8H6.8V0z M17.9,12.2
		c2.1,0,4.2-0.8,4.2-3.7c0-2.4-2-3.6-4.6-3.6h-5.2v7.3H17.9z M18.8,25.2c2.8,0,4.4-1.4,4.4-4.2c0-2.2-1.8-4-4.7-4h-6.3v8.2
		L18.8,25.2z"/>
	<path d="M32.5,8.9h5.1v3.6c0.9-2.4,3.2-4.1,5.8-4.1c1.5,0,2.9,0.5,3.9,1.5l-2.4,4.3c-0.7-0.5-1.5-0.7-2.3-0.7c-2.5,0-5,2.3-5,7.8
		v9.1h-5.1L32.5,8.9z"/>
	<path d="M47.1,19.8c0-5.6,3.3-11.3,10.5-11.3c7.5,0,10,6,10,10.9c0,0.7,0,1.4-0.2,2.1H52.7c0.5,2.8,2,4.7,5.4,4.7
		c2,0.1,3.9-0.8,5.2-2.3l3.6,3.2c-2.2,2.6-5.5,4-8.9,3.9C50.6,30.9,47.1,25.5,47.1,19.8z M62.5,17.6c0-0.5,0-0.9-0.2-1.4
		c-0.5-2.1-2.5-3.5-4.7-3.4c-3.1,0-4.5,2-5,4.7H62.5z"/>
	<path d="M70.2,19.7c0-5.9,3.3-11.2,9.2-11.2c2.3-0.1,4.6,0.9,6.1,2.6V0h5.3v30.4H86L85.8,28c-1.5,1.9-3.8,3-6.2,2.9
		C73.5,30.9,70.2,25.7,70.2,19.7z M86,19.7c0-3.6-1.6-6.4-5.2-6.4s-5.3,2.9-5.3,6.4s1.6,6.4,5.3,6.4S86,23.3,86,19.7L86,19.7z"/>
	<path d="M101,28.3v2.2h-5.4V0h5.4v11.1c1.5-1.7,3.7-2.7,6-2.6c6,0,9.3,5.2,9.3,11.2s-3.3,11.2-9.2,11.2
		C104.8,30.9,102.5,30,101,28.3z M111,19.7c0-3.6-1.6-6.4-5.2-6.4s-5.2,2.8-5.2,6.4s1.7,6.3,5.3,6.3S111,23.2,111,19.7z"/>
	<path d="M137.6,17.4v13.1h-4.3l-0.3-2.9c-1.6,2.1-4.1,3.4-6.7,3.3c-4.4,0-7.8-2.5-7.8-7c0-4.7,3.7-6.2,8.6-6.2h5.8
		c-0.1-3.2-1-4.5-4.5-4.5c-2.1,0-4,1.1-5.1,3l-4-2.9c2-3,5.4-4.8,9-4.7C134.2,8.5,137.6,12.1,137.6,17.4z M132.9,21.6v-0.2h-5.6
		c-2.4,0-3.5,1.2-3.5,2.6s1.1,2.4,3.5,2.4C130.2,26.5,132.6,24.4,132.9,21.6z"/>
	<path d="M141.7,8.9h5.2v2.5c1.6-1.9,3.9-3,6.3-2.9c5.6,0,7.9,4.6,7.9,9.1v12.9h-5.2V18.2c0-2.8-1.4-4.9-4.1-4.9
		c-3,0-4.8,1.6-4.8,5.3v11.8h-5.2V8.9z"/>
	<path d="M164.3,19.7c0-5.9,3.3-11.2,9.2-11.2c2.3-0.1,4.6,0.9,6.1,2.6V0h5.3v30.4h-4.9l-0.2-2.4c-1.5,1.9-3.8,3-6.2,2.9
		C167.6,30.9,164.3,25.7,164.3,19.7z M180.1,19.7c0-3.6-1.6-6.4-5.2-6.4s-5.2,2.9-5.2,6.4s1.6,6.4,5.2,6.4S180.1,23.3,180.1,19.7
		L180.1,19.7z"/>
	<path d="M188,24.8l4.1-1.8c0.6,1.5,1.7,3.5,4.6,3.5c2.4,0,3.5-1.4,3.5-2.6c0-3.6-10.8-1.2-10.8-8.8c0-4.5,3.8-6.7,8-6.7
		c3.4-0.1,6.5,1.7,8.2,4.7l-4.1,2.2c-0.8-1.7-2.4-2.7-4.3-2.7c-1.7,0-2.8,0.8-2.8,1.9c0,3.2,10.9,1.3,10.9,9.2c0,5-4.3,7.2-8.4,7.2
		C193,31,189.4,28.6,188,24.8z"/>
	<path d="M209,0h5.2v17.9l8.1-8.9h6.8l-8.1,8.3l8.9,13.2h-6.2l-6.3-10l-3.3,3.7v6.3H209V0z"/>
	<path d="M229.7,19.6c0-6.1,4.9-11,11-11c6.1,0,11,4.9,11,11c0,6.1-4.4,11.2-11,11.2c-6,0.1-11-4.7-11.1-10.7
		C229.7,20,229.7,19.8,229.7,19.6z M246.2,19.6c0-3.5-1.6-6.6-5.6-6.6s-5.6,3.1-5.6,6.6s1.6,6.7,5.6,6.7S246.2,23.1,246.2,19.6z"/>
	<path d="M255.1,26.1V0h5.3v24.7c0,1,0.7,1.4,1.7,1.4c0.5,0,1-0.1,1.4-0.1v4.4c-1.3,0.3-2.6,0.4-3.9,0.4
		C257.2,30.9,255.1,29.9,255.1,26.1z"/>
	<path d="M266.7,26.1V0h5.2v24.7c0,1,0.7,1.4,1.7,1.4c0.5,0,1-0.1,1.4-0.1v4.4c-1.3,0.3-2.6,0.4-3.9,0.4
		C268.7,30.9,266.7,29.9,266.7,26.1z"/>
	<path d="M276.5,19.8c0-5.6,3.3-11.3,10.5-11.3c7.5,0,10,6,10,10.9c0,0.7,0,1.4-0.2,2.1H282c0.5,2.8,2,4.7,5.4,4.7
		c2,0.1,3.9-0.8,5.2-2.3l3.6,3.2c-2.2,2.6-5.5,4-8.8,3.9C280,30.9,276.5,25.5,276.5,19.8z M291.8,17.6c0-0.5,0-0.9-0.2-1.4
		c-0.5-2.1-2.5-3.5-4.6-3.4c-3.1,0-4.5,2-5,4.7H291.8z"/>
	<path d="M299.7,8.9h5.3v2.5c1.6-1.9,3.9-3,6.3-2.9c5.6,0,7.9,4.6,7.9,9.1v12.9h-5.2V18.2c0-2.8-1.4-4.9-4.1-4.9
		c-3,0-4.8,1.6-4.8,5.3v11.8h-5.2L299.7,8.9z"/>
	<polygon class="st1" points="215.1,44.9 215.1,49.7 212.9,49.7 212.9,52.2 210.7,52.2 210.7,54.6 208.5,54.6 208.5,57 206.3,57
		206.3,59.4 203.9,59.4 203.9,57 201.7,57 201.7,54.6 199.6,54.6 199.6,52.2 197.4,52.2 197.4,49.7 195.2,49.7 195.2,44.9
		197.4,44.9 197.4,42.5 203.9,42.5 203.9,44.9 206.3,44.9 206.3,42.5 212.9,42.5 212.9,44.9 	"/>
	<polygon class="st2" points="212.2,46.5 212.2,48.1 209.2,48.1 209.2,44.9 210.8,44.9 210.8,46.5 	"/>
	<path d="M98.8,53.7c0,2-1.9,3.5-4.5,3.5s-4.6-1.5-4.7-3.8v-0.1h1.9v0.1c0.2,1.8,1.6,2.1,2.8,2.1s2.7-0.5,2.7-1.8
		c0-0.9-0.5-1.4-1.7-1.8l-2.3-0.7c-2-0.6-3-1.7-3-3.4s1.8-3.3,4.2-3.3c2.6,0,4.2,1.3,4.4,3.6v0.1h-1.8v-0.1c-0.1-1.3-1-1.9-2.5-1.9
		s-2.3,0.6-2.3,1.6s0.4,1.4,1.8,1.8l1.9,0.5c0.8,0.2,1.6,0.5,2.3,1C98.4,51.9,98.8,52.8,98.8,53.7z"/>
	<polygon points="108.4,44.9 108.4,46.6 104.9,46.6 104.9,57 103,57 103,46.6 99.5,46.6 99.5,44.9 	"/>
	<polygon points="122.5,46.6 122.5,50 127.7,50 127.7,51.7 122.5,51.7 122.5,57 120.6,57 120.6,44.9 128.1,44.9 128.1,46.6 	"/>
	<polygon points="138.7,44.9 138.7,46.6 135.2,46.6 135.2,57 133.2,57 133.2,46.6 129.7,46.6 129.7,44.9 	"/>
	<polygon points="142.2,46.6 142.2,50 147.6,50 147.6,51.7 142.2,51.7 142.2,55.3 148.4,55.3 148.4,57 140.3,57 140.3,44.9
		148.4,44.9 148.4,46.6 	"/>
	<polygon points="157.6,55.3 157.6,57 150.4,57 150.4,44.9 152.3,44.9 152.3,55.3 	"/>
	<path d="M167.8,53.7c0,2-1.9,3.5-4.5,3.5s-4.6-1.5-4.7-3.8v-0.1h1.9v0.1c0.2,1.8,1.6,2.1,2.8,2.1s2.7-0.5,2.7-1.8
		c0-0.9-0.5-1.4-1.7-1.8l-2.3-0.7c-2-0.6-2.9-1.7-2.9-3.4s1.8-3.3,4.2-3.3c2.6,0,4.2,1.3,4.4,3.6v0.1h-1.9v-0.1
		c-0.1-1.3-1-1.9-2.5-1.9s-2.3,0.6-2.3,1.6s0.4,1.4,1.8,1.8l1.9,0.5C166.2,50.7,167.8,51.4,167.8,53.7z"/>
	<polygon points="172,46.6 172,50 177.4,50 177.4,51.7 172,51.7 172,55.3 178.2,55.3 178.2,57 170.1,57 170.1,44.9 178.2,44.9
		178.2,46.6 	"/>
	<polygon points="189.7,44.9 189.7,57 187.1,57 182.6,47.7 182.4,47.4 182.4,57 180.5,57 180.5,44.9 183.1,44.9 187.8,54.5
		187.8,44.9 	"/>
	<polygon points="115.4,46.6 115.4,55.3 118.4,55.3 118.4,57.1 110.4,57.1 110.4,55.3 113.5,55.3 113.5,46.6 110.4,46.6 110.4,44.9
		118.4,44.9 118.4,46.6 	"/>
	<polygon points="24.6,44.9 24.6,57 22,57 17.5,47.7 17.3,47.4 17.3,57 15.4,57 15.4,44.9 18,44.9 22.7,54.5 22.7,44.9 	"/>
	<polygon points="35.2,44.9 35.2,46.6 31.7,46.6 31.7,57 29.8,57 29.8,46.6 26.3,46.6 26.3,44.9 	"/>
	<polygon points="38.8,46.6 38.8,50 44.2,50 44.2,51.7 38.8,51.7 38.8,55.3 45,55.3 45,57 36.9,57 36.9,44.9 45,44.9 45,46.6 	"/>
	<path d="M52.9,51.9L52.9,51.9c0.8-0.1,1.4-0.4,1.8-0.9c0.6-0.7,1-1.6,0.9-2.6c0.1-1-0.3-1.9-0.9-2.6c-0.8-0.7-1.9-1-2.9-0.9h-4.6
		V57h1.9v-5h1.8l2.8,5h2.2L52.9,51.9z M49.1,50.3v-3.7h3.3c0.6-0.1,1.2,0.4,1.2,1c0,0,0,0,0,0v1.5c0,0.6-0.4,1.2-1.1,1.2
		c0,0,0,0,0,0L49.1,50.3L49.1,50.3z"/>
	<polygon points="67.2,44.9 67.2,57 64.7,57 60.1,47.7 59.9,47.4 59.9,57 58.1,57 58.1,44.9 60.6,44.9 65.4,54.5 65.4,44.9 	"/>
	<polygon points="71.8,46.6 71.8,50 77.2,50 77.2,51.7 71.8,51.7 71.8,55.3 78,55.3 78,57 69.9,57 69.9,44.9 78,44.9 78,46.6 	"/>
	<polygon points="88.8,44.9 88.8,46.6 85.2,46.6 85.2,57 83.3,57 83.3,46.6 79.8,46.6 79.8,44.9 	"/>
	<polygon points="10,46.6 10,55.2 13.1,55.2 13.1,57 5,57 5,55.2 8.1,55.2 8.1,46.6 5,46.6 5,44.9 13.1,44.9 13.1,46.6 	"/>
</g>
</svg>
