<?xml version="1.0" encoding="utf-8"?>
<!-- Generator: Adobe Illustrator 23.0.3, SVG Export Plug-In . SVG Version: 6.00 Build 0)  -->
<svg version="1.1" id="Layer_1" xmlns="http://www.w3.org/2000/svg" xmlns:xlink="http://www.w3.org/1999/xlink" x="0px" y="0px"
	 viewBox="0 0 324 60" style="enable-background:new 0 0 324 60;" xml:space="preserve"  width="324px" height="60px">
<style type="text/css">
	.st0{fill:none;}
	.st1{fill:#FF4069;}
	.st2{fill:#FFFFFF;}
</style>
<title>bredbandskollen</title>
<g>
	<rect class="st0" width="324" height="60"/>
</g>
<g>
	<path d="M4.8,0h10.6c4.6,0,9.8,2.1,9.8,8.3c0,2.5-1.3,4.8-3.4,6.1c2.9,1.4,4.8,4.3,4.9,7.5c0,5.7-4.8,8.9-10,8.9H4.8V0z M15.9,12.4
		c2.1,0,4.2-0.8,4.2-3.8c0-2.4-2-3.6-4.6-3.6h-5.2v7.4C10.3,12.4,15.9,12.4,15.9,12.4z M16.8,25.5c2.8,0,4.5-1.4,4.5-4.3
		c0-2.2-1.8-4-4.7-4h-6.3v8.3H16.8z M30.5,9h5.1v3.7c0.9-2.5,3.2-4.1,5.8-4.1c1.5,0,2.9,0.5,4,1.6L43,14.5c-0.7-0.5-1.5-0.7-2.3-0.7
		c-2.5,0-5,2.3-5,7.8v9.2h-5.1L30.5,9z M45.3,19.9c0-5.7,3.3-11.4,10.6-11.4c7.6,0,10,6.1,10,11c0,0.7,0,1.4-0.2,2.1H50.8
		c0.5,2.8,2,4.8,5.4,4.8c2,0.1,3.9-0.8,5.2-2.3l3.6,3.2c-2.2,2.6-5.5,4-8.9,3.9C48.8,31.2,45.3,25.8,45.3,19.9z M60.7,17.8
		c0-0.5-0.1-0.9-0.2-1.4C60,14.3,58,12.8,55.8,13c-3.1,0-4.5,2-5,4.8H60.7z M68.4,19.9c0-6,3.3-11.3,9.3-11.3
		c2.3-0.1,4.6,0.9,6.1,2.6V0h5.4v30.7h-4.9L84,28.3c-1.5,1.9-3.8,3-6.3,2.9C71.7,31.2,68.4,25.9,68.4,19.9z M84.2,19.9
		c0-3.7-1.6-6.5-5.2-6.5s-5.3,2.9-5.3,6.5s1.6,6.5,5.3,6.5C82.6,26.4,84.2,23.6,84.2,19.9z M99.3,28.6v2.2h-5.5V0h5.5v11.2
		c1.5-1.8,3.7-2.7,6-2.6c6,0,9.3,5.3,9.3,11.3s-3.3,11.3-9.2,11.3C103,31.3,100.8,30.3,99.3,28.6z M109.3,19.9
		c0-3.6-1.6-6.5-5.3-6.5c-3.6,0-5.3,2.8-5.3,6.5s1.7,6.4,5.3,6.4C107.7,26.3,109.3,23.5,109.3,19.9z M136,17.6v13.2h-4.3l-0.3-2.9
		c-1.6,2.2-4.1,3.4-6.7,3.3c-4.4,0-7.8-2.6-7.8-7.1c0-4.7,3.7-6.3,8.6-6.3h5.8c-0.1-3.2-1-4.6-4.5-4.6c-2.1,0-4.1,1.2-5.1,3l-4-2.9
		c2-3,5.4-4.8,9-4.8C132.5,8.5,136,12.2,136,17.6z M131.2,21.8v-0.2h-5.6c-2.4,0-3.5,1.3-3.5,2.6s1.1,2.5,3.5,2.5
		C128.5,26.8,130.9,24.6,131.2,21.8z M140,9h5.3v2.5c1.6-1.9,3.9-3,6.3-3c5.7,0,7.9,4.6,7.9,9.1v13h-5.3V18.4c0-2.9-1.4-4.9-4.1-4.9
		c-3,0-4.8,1.6-4.8,5.4v11.9H140V9z M162.7,19.9c0-6,3.3-11.3,9.3-11.3c2.3-0.1,4.6,0.9,6.1,2.6V0h5.3v30.7h-4.9l-0.2-2.5
		c-1.5,1.9-3.8,3-6.3,2.9C166,31.2,162.7,25.9,162.7,19.9L162.7,19.9z M178.6,19.9c0-3.7-1.6-6.5-5.2-6.5s-5.3,2.9-5.3,6.5
		s1.6,6.5,5.3,6.5C177,26.4,178.6,23.6,178.6,19.9z M186.5,25.1l4.2-1.8c0.6,1.6,1.7,3.6,4.6,3.6c2.4,0,3.5-1.4,3.5-2.6
		c0-3.7-10.8-1.2-10.8-8.9c0-4.6,3.8-6.8,8-6.8c3.4-0.1,6.6,1.7,8.2,4.7l-4.1,2.2c-0.8-1.7-2.4-2.8-4.3-2.8c-1.7,0-2.8,0.8-2.8,1.9
		c0,3.3,11,1.3,11,9.3c0,5-4.3,7.2-8.4,7.2C191.5,31.3,187.9,28.9,186.5,25.1L186.5,25.1z M207.5,0h5.3v18l8.1-9h6.8l-8.1,8.4
		l9,13.3h-6.2l-6.3-10.1l-3.3,3.7v6.4h-5.3C207.5,30.7,207.5,0,207.5,0z M228.3,19.8c0-6.1,4.9-11.1,11.1-11.1
		c6.1,0,11.1,5,11.1,11.1c0,6.2-4.4,11.4-11,11.4S228.3,26,228.3,19.8L228.3,19.8z M244.9,19.8c0-3.6-1.6-6.7-5.6-6.7
		s-5.6,3.1-5.6,6.7s1.6,6.8,5.6,6.8S244.9,23.4,244.9,19.8z M253.8,26.4V0h5.3v24.9c0,1,0.7,1.5,1.7,1.5c0.5,0,1-0.1,1.4-0.1v4.5
		c-1.3,0.3-2.6,0.4-3.9,0.4C255.8,31.2,253.8,30.2,253.8,26.4L253.8,26.4z M265.4,26.4V0h5.3v24.9c0,1,0.7,1.5,1.7,1.5
		c0.5,0,1-0.1,1.4-0.1v4.5c-1.3,0.3-2.6,0.4-3.9,0.4C267.4,31.2,265.4,30.2,265.4,26.4z M275.2,19.9c0-5.7,3.3-11.4,10.6-11.4
		c7.6,0,10,6.1,10,11c0,0.7,0,1.4-0.2,2.1h-14.9c0.5,2.8,2,4.8,5.4,4.8c2,0.1,3.9-0.8,5.2-2.3l3.6,3.2c-2.2,2.6-5.5,4-8.9,3.9
		C278.7,31.2,275.2,25.8,275.2,19.9L275.2,19.9z M290.6,17.8c0-0.5,0-0.9-0.2-1.4c-0.5-2.1-2.5-3.6-4.7-3.4c-3.1,0-4.5,2-5,4.8
		H290.6L290.6,17.8z M298.5,9h5.3v2.5c1.6-1.9,3.9-3,6.3-3c5.7,0,7.9,4.6,7.9,9.1v13h-5.3V18.4c0-2.9-1.4-4.9-4.1-4.9
		c-3,0-4.8,1.6-4.8,5.4v11.9h-5.3C298.5,30.8,298.5,9,298.5,9z"/>
	<path class="st1" d="M214.6,45.3v4.9h-2.2v2.4h-2.2V55H208v2.4h-2.2V60h-2.4v-2.4h-2.2v-2.4H199v-2.4h-2.2v-2.4h-2.2v-4.9h2.2v-2.4
		h6.6v2.4h2.4v-2.4h6.6v2.4h2.2V45.3z"/>
	<path class="st2" d="M211.8,47v1.6h-3v-3.2h1.6V47H211.8z"/>
	<path d="M98,54.3c0,2-1.9,3.6-4.5,3.6s-4.6-1.5-4.8-3.9v-0.1h1.9V54c0.2,1.8,1.6,2.2,2.8,2.2c1.2,0,2.7-0.5,2.7-1.8
		c0-0.9-0.5-1.4-1.7-1.8l-2.3-0.7c-2-0.6-3-1.7-3-3.5s1.8-3.3,4.2-3.3c2.6,0,4.2,1.3,4.4,3.6v0.1h-1.8v-0.1c-0.1-1.3-1-1.9-2.5-1.9
		s-2.3,0.6-2.3,1.6s0.4,1.4,1.8,1.8l1.9,0.5c0.8,0.2,1.6,0.5,2.3,1.1C97.7,52.4,98.1,53.3,98,54.3z M107.7,45.3V47h-3.6v10.5h-1.9
		V47.1h-3.5v-1.7L107.7,45.3L107.7,45.3z M121.8,47.1v3.4h5.2v1.8h-5.2v5.4h-1.9V45.3h7.5V47L121.8,47.1L121.8,47.1z M138,45.3V47
		h-3.5v10.5h-1.9V47.1H129v-1.7L138,45.3L138,45.3z M141.6,47.1v3.4h5.4v1.8h-5.4v3.6h6.2v1.8h-8.1V45.3h8.1V47L141.6,47.1
		L141.6,47.1z M157,55.8v1.8h-7.3V45.3h1.9v10.5H157L157,55.8z M167.3,54.3c0,2-1.9,3.6-4.5,3.6s-4.6-1.5-4.8-3.9v-0.1h1.9V54
		c0.2,1.8,1.6,2.2,2.8,2.2s2.7-0.5,2.7-1.8c0-0.9-0.5-1.4-1.7-1.8l-2.3-0.7c-2-0.6-2.9-1.7-2.9-3.5s1.8-3.3,4.2-3.3
		c2.6,0,4.2,1.3,4.4,3.6v0.1H165v-0.1c-0.1-1.3-1-1.9-2.5-1.9s-2.3,0.6-2.3,1.6s0.4,1.4,1.8,1.8l1.9,0.5
		C165.6,51.2,167.3,51.9,167.3,54.3L167.3,54.3z M171.4,47.1v3.4h5.4v1.8h-5.4v3.6h6.2v1.8h-8.1V45.3h8.1V47L171.4,47.1L171.4,47.1z
		 M189.2,45.3v12.2h-2.5l-4.6-9.4l-0.2-0.4v9.7H180V45.3h2.5l4.8,9.7v-9.7H189.2L189.2,45.3z M114.7,47.1v8.8h3.1v1.7h-8.1v-1.7h3.1
		v-8.8h-3.1v-1.7h8.1v1.7H114.7z M23.6,45.3v12.2h-2.5l-4.6-9.4l-0.2-0.4v9.7h-1.9V45.3H17l4.8,9.7v-9.7H23.6L23.6,45.3z M34.3,45.3
		V47h-3.5v10.5h-1.9V47.1h-3.5v-1.7L34.3,45.3L34.3,45.3z M37.9,47.1v3.4h5.4v1.7h-5.4v3.6h6.2v1.7H36V45.3h8.1V47
		C44.1,47.1,37.9,47.1,37.9,47.1L37.9,47.1z M52,52.4L52,52.4c0.8-0.1,1.4-0.4,1.8-0.9c0.6-0.7,1-1.7,0.9-2.6c0.1-1-0.3-2-0.9-2.7
		c-0.8-0.7-1.9-1-2.9-0.9h-4.6v12.2h1.9v-5H50v0.1l2.8,5H55C55,57.6,52,52.4,52,52.4z M48.3,50.8v-3.7h3.3c0.6-0.1,1.2,0.4,1.2,1
		v1.5c0,0.6-0.4,1.2-1.1,1.2H48.3z M66.4,45.3v12.2h-2.5l-4.6-9.4l-0.2-0.4v9.7h-1.9V45.3h2.5l4.8,9.7v-9.7
		C64.5,45.3,66.4,45.3,66.4,45.3z M71,47.1v3.4h5.4v1.7H71v3.6h6.2v1.7h-8.1V45.3h8.1V47C77.2,47.1,71,47.1,71,47.1z M88,45.3V47
		h-3.5v10.5h-1.9V47.1H79v-1.7L88,45.3L88,45.3z M9,47.1v8.7h3.1v1.7H4v-1.7h3.1v-8.7H4v-1.7h8.1v1.7H9z"/>
</g>
</svg>
