<?xml version="1.0" encoding="utf-8"?>
<!-- Generator: Adobe Illustrator 23.0.3, SVG Export Plug-In . SVG Version: 6.00 Build 0)  -->
<svg version="1.1" id="Layer_1" xmlns="http://www.w3.org/2000/svg" xmlns:xlink="http://www.w3.org/1999/xlink" x="0px" y="0px"
	 viewBox="0 0 324 60" style="enable-background:new 0 0 324 60;" xml:space="preserve" width="324px" height="60px">
<style type="text/css">
	.st0{fill:none;}
	.st1{fill:#FF4069;}
	.st2{fill:#FFFFFF;}
</style>
<title>digitalalektioner</title>
<g>
	<rect class="st0" width="324" height="60"/>
</g>
<g id="Lager_1">
	<path d="M1.8,0.2h8.8c10.4,0,15.9,5.6,15.9,15.6c0,9.6-5.6,15.1-15.9,15.1H1.8V0.2z M10.1,25.8c6.7,0,10.9-2.6,10.9-10.3
		c0-7.2-2.9-10.3-10.4-10.3H7.3v20.5H10.1z"/>
	<path d="M29.9,0.2h5.5V5h-5.5C29.9,5,29.9,0.2,29.9,0.2z M30.1,9.2h5.2v21.6h-5.2C30.1,30.8,30.1,9.2,30.1,9.2z"/>
	<path d="M59.5,33.8c0,4.9-4.2,7.2-9.5,7.2c-6.8,0-10.3-3.3-10.3-7.8c0-0.3,0-0.6,0.1-0.9l2.5-2.1c-1.4-0.9-2.2-2.5-2.1-4.2
		c0-1.7,0.7-3.3,2-4.4c-1.2-1.4-1.8-3.1-1.8-5c0-4.7,4.1-8,8.8-8c1.8,0,3.5,0.5,5.1,1.4l3.3-2.8l2.7,3.3l-3.1,2.5
		c0.6,1.1,0.9,2.4,0.9,3.7c0,4.8-4,8-8.7,8c-1.4,0-2.8-0.3-4.1-0.9c-0.4,0.2-0.7,0.7-0.6,1.2c0,1.8,2.6,1.8,6.5,2.3
		C55.2,28,59.5,28.9,59.5,33.8z M54.5,34.4c0-1.6-1.7-2-5.3-2.4c-1.3-0.1-2.5-0.2-3.8-0.5l-1.2,1.9l0.1,0.6c0.6,2.1,2.9,2.9,5.5,2.9
		C52.7,37,54.5,36.2,54.5,34.4L54.5,34.4z M45.7,16.7c0,2.2,1.2,3.8,3.6,3.8c1.9,0.1,3.5-1.4,3.6-3.3c0-0.2,0-0.3,0-0.5
		c0-2.2-1.2-3.9-3.5-3.9S45.8,14.5,45.7,16.7L45.7,16.7z"/>
	<path d="M63.1,0.2h5.5V5h-5.5C63.1,5,63.1,0.2,63.1,0.2z M63.2,9.2h5.2v21.6h-5.2V9.2z"/>
	<path d="M75.7,24.9V13.6h-3.5V9.2h3.6V3.8L81,0v9.2h5.4v4.4H81V24c0,2.1,1,2.7,2.4,2.7c1,0,2.1-0.3,3-0.8v4.8
		c-1.3,0.4-2.6,0.6-3.9,0.6C78.2,31.2,75.7,28.8,75.7,24.9z"/>
	<path d="M107.8,17.7v13.1h-4.3l-0.3-2.8c-1.6,2.1-4.1,3.3-6.7,3.3c-4.4,0-7.8-2.5-7.8-7c0-4.7,3.7-6.2,8.6-6.2h5.8
		c-0.1-3.2-1-4.6-4.5-4.6c-2.1,0-4,1.2-5.1,3l-4-2.9c2-3,5.4-4.8,9-4.7C104.3,8.8,107.8,12.4,107.8,17.7z M103,21.9v-0.2h-5.6
		c-2.4,0-3.5,1.2-3.5,2.6c0,1.4,1.1,2.4,3.5,2.4C100.3,26.9,102.7,24.8,103,21.9L103,21.9z"/>
	<path d="M111.6,26.5V0.2h5.2v24.9c0,1,0.7,1.4,1.7,1.4c0.5,0,1,0,1.4-0.1v4.4c-1.3,0.3-2.6,0.4-3.9,0.4
		C113.6,31.2,111.6,30.3,111.6,26.5z"/>
	<path d="M141.4,17.7v13.1h-4.3l-0.3-2.8c-1.6,2.1-4.1,3.3-6.7,3.3c-4.4,0-7.8-2.5-7.8-7c0-4.7,3.8-6.2,8.6-6.2h5.8
		c-0.1-3.2-1.1-4.6-4.5-4.6c-2.1,0-4,1.2-5.1,3l-4-2.9c2-3,5.4-4.8,9-4.7C137.9,8.8,141.4,12.4,141.4,17.7z M136.6,21.9v-0.2H131
		c-2.4,0-3.5,1.2-3.5,2.6c0,1.4,1.1,2.4,3.5,2.4C133.9,26.9,136.3,24.8,136.6,21.9z"/>
	<path d="M154.1,26.5V0.2h5.2v24.9c0,1,0.7,1.4,1.7,1.4c0.5,0,1-0.1,1.4-0.1v4.4c-1.3,0.3-2.6,0.4-3.9,0.4
		C156.2,31.2,154.1,30.3,154.1,26.5z"/>
	<path d="M164.7,20.1c0-5.6,3.3-11.4,10.6-11.4c7.5,0,10,6,10,10.9c0,0.7,0,1.4-0.2,2.1h-14.8c0.4,2.8,2,4.7,5.4,4.7
		c2,0.1,3.9-0.8,5.2-2.3l3.6,3.2c-2.2,2.5-5.5,3.9-8.8,3.8C168.2,31.2,164.7,26,164.7,20.1z M180.1,17.9c0-0.5,0-0.9-0.2-1.4
		c-0.5-2.1-2.5-3.5-4.7-3.4c-3.1,0-4.5,2-4.9,4.7h9.8V17.9z"/>
	<path d="M188.3,0.2h5.2v17.9l8.1-9h6.8l-8,8.4l8.9,13.3h-6.2l-6.3-10.1l-3.3,3.7v6.3h-5.2V0.2z"/>
	<path d="M213.3,24.9V13.6h-3.5V9.2h3.6V3.8l5.2-3.8v9.2h5.4v4.4h-5.4V24c0,2.1,1,2.7,2.4,2.7c1,0,2.1-0.3,3-0.8v4.8
		c-1.3,0.4-2.6,0.6-3.9,0.6C215.9,31.2,213.3,28.8,213.3,24.9z"/>
	<path d="M228.6,0.2h5.5V5h-5.5V0.2z M228.7,9.2h5.3v21.6h-5.3V9.2z"/>
	<path d="M237.6,19.9c0-6.1,4.9-11.1,11-11.1s11,4.9,11,11.1s-4.4,11.3-11,11.3c-6,0.1-11-4.7-11.1-10.8l0,0
		C237.6,20.2,237.6,20.1,237.6,19.9z M254.2,19.9c0-3.5-1.6-6.6-5.6-6.6s-5.6,3.1-5.6,6.6s1.6,6.7,5.6,6.7S254.2,23.6,254.2,19.9z"
		/>
	<path d="M262.6,9.2h5.2v2.5c1.6-1.9,3.9-3,6.3-2.9c5.6,0,7.9,4.5,7.9,9.1v13.1h-5.2V18.5c0-2.8-1.4-4.9-4.1-4.9
		c-3,0-4.8,1.6-4.8,5.3v11.9h-5.3V9.2z"/>
	<path d="M285.2,20.1c0-5.6,3.3-11.4,10.5-11.4c7.5,0,10,6,10,10.9c0,0.7,0,1.4-0.2,2.1h-14.8c0.5,2.8,2,4.7,5.4,4.7
		c2,0.1,3.9-0.8,5.2-2.3l3.6,3.2c-2.2,2.5-5.5,3.9-8.8,3.8C288.7,31.2,285.2,26,285.2,20.1z M300.4,17.9c0-0.5-0.1-0.9-0.2-1.4
		c-0.5-2.1-2.5-3.5-4.7-3.4c-3.1,0-4.5,2-5,4.7h9.9V17.9z"/>
	<path d="M309.2,9.2h5.1v3.6c0.9-2.4,3.2-4.1,5.8-4.1c1.5,0,2.9,0.5,3.9,1.6l-2.4,4.3c-0.7-0.5-1.5-0.7-2.4-0.7c-2.5,0-5,2.3-5,7.9
		v9.2h-5.1L309.2,9.2z"/>
	<polygon class="st1" points="209.8,45.4 209.8,50.3 207.6,50.3 207.6,52.8 205.4,52.8 205.4,55.2 203.2,55.2 203.2,57.6 201,57.6
		201,60 198.6,60 198.6,57.6 196.4,57.6 196.4,55.2 194.3,55.2 194.3,52.8 192.1,52.8 192.1,50.3 189.9,50.3 189.9,45.4 192.1,45.4
		192.1,43 198.6,43 198.6,45.4 201,45.4 201,43 207.6,43 207.6,45.4 	"/>
	<polygon class="st2" points="206.9,47.1 206.9,48.6 203.9,48.6 203.9,45.4 205.5,45.4 205.5,47.1 	"/>
	<path d="M93.7,54.4c0,2-1.9,3.5-4.5,3.5s-4.6-1.4-4.7-3.8V54h1.9v0.1c0.2,1.8,1.6,2.2,2.8,2.2s2.7-0.5,2.7-1.8
		c0-0.9-0.5-1.4-1.7-1.8l-2.3-0.7c-2-0.6-3-1.7-3-3.4s1.8-3.3,4.2-3.3c2.6,0,4.2,1.3,4.4,3.6v0.1h-1.8v-0.1c-0.1-1.3-1-1.9-2.5-1.9
		s-2.3,0.6-2.3,1.6c0,1,0.4,1.4,1.8,1.8l1.9,0.5c0.8,0.2,1.6,0.5,2.3,1C93.3,52.4,93.7,53.4,93.7,54.4z"/>
	<polygon points="103.2,45.4 103.2,47.2 99.7,47.2 99.7,57.6 97.8,57.6 97.8,47.2 94.4,47.2 94.4,45.4 	"/>
	<polygon points="117.3,47.2 117.3,50.5 122.5,50.5 122.5,52.2 117.3,52.2 117.3,57.6 115.4,57.6 115.4,45.4 122.9,45.4 122.9,47.2
			"/>
	<polygon points="133.5,45.4 133.5,47.2 130,47.2 130,57.6 128,57.6 128,47.2 124.5,47.2 124.5,45.4 	"/>
	<polygon points="137,47.2 137,50.5 142.4,50.5 142.4,52.2 137,52.2 137,55.9 143.2,55.9 143.2,57.6 135.1,57.6 135.1,45.4
		143.2,45.4 143.2,47.2 	"/>
	<polygon points="152.4,55.9 152.4,57.6 145.2,57.6 145.2,45.4 147.1,45.4 147.1,55.9 	"/>
	<path d="M162.5,54.4c0,2-1.9,3.5-4.5,3.5c-2.6,0-4.6-1.5-4.7-3.8V54h1.9v0.1c0.2,1.8,1.6,2.2,2.8,2.2s2.7-0.5,2.7-1.8
		c0-0.9-0.5-1.4-1.7-1.8l-2.3-0.7c-2-0.6-2.9-1.7-2.9-3.4s1.8-3.3,4.2-3.3c2.6,0,4.2,1.3,4.4,3.6v0.1h-1.9v-0.1
		c-0.1-1.3-1-1.9-2.5-1.9c-1.5,0-2.3,0.6-2.3,1.6c0,1,0.4,1.4,1.8,1.8l1.9,0.5C161,51.2,162.5,51.9,162.5,54.4z"/>
	<polygon points="166.7,47.2 166.7,50.5 172.1,50.5 172.1,52.2 166.7,52.2 166.7,55.9 172.9,55.9 172.9,57.6 164.8,57.6 164.8,45.4
		172.9,45.4 172.9,47.2 	"/>
	<polygon points="184.4,45.4 184.4,57.6 181.8,57.6 177.3,48.3 177.1,47.9 177.1,57.6 175.2,57.6 175.2,45.4 177.8,45.4 182.5,55.1
		182.5,45.4 	"/>
	<polygon points="110.2,47.2 110.2,56 113.2,56 113.2,57.7 105.2,57.7 105.2,56 108.3,56 108.3,47.2 105.2,47.2 105.2,45.4
		113.2,45.4 113.2,47.2 	"/>
	<polygon points="19.6,45.4 19.6,57.6 17,57.6 12.4,48.3 12.3,47.9 12.3,57.6 10.4,57.6 10.4,45.4 13,45.4 17.7,55.1 17.7,45.4 	"/>
	<polygon points="30.2,45.4 30.2,47.1 26.7,47.1 26.7,57.6 24.8,57.6 24.8,47.1 21.3,47.1 21.3,45.4 	"/>
	<polygon points="33.7,47.1 33.7,50.5 39.1,50.5 39.1,52.2 33.7,52.2 33.7,55.9 39.9,55.9 39.9,57.6 31.9,57.6 31.9,45.4 39.9,45.4
		39.9,47.1 	"/>
	<path d="M47.8,52.4L47.8,52.4c0.7-0.1,1.3-0.4,1.8-0.9c0.6-0.7,1-1.6,0.9-2.6c0.1-1-0.3-1.9-0.9-2.6c-0.8-0.7-1.9-1-2.9-0.9h-4.5
		v12.2h1.9v-5h1.8l2.8,5h2.2L47.8,52.4z M44,50.9v-3.8h3.3c0.6-0.1,1.2,0.4,1.2,1l0,0l0,0c0,0.1,0,0.1,0,0.2v1.3
		c0,0.6-0.4,1.2-1.1,1.2l0,0h-0.1L44,50.9z"/>
	<polygon points="62.1,45.4 62.1,57.6 59.6,57.6 55,48.3 54.8,47.9 54.8,57.6 53,57.6 53,45.4 55.5,45.4 60.3,55.1 60.3,45.4 	"/>
	<polygon points="66.7,47.1 66.7,50.5 72.1,50.5 72.1,52.2 66.7,52.2 66.7,55.9 72.9,55.9 72.9,57.6 64.8,57.6 64.8,45.4 72.9,45.4
		72.9,47.1 	"/>
	<polygon points="83.7,45.4 83.7,47.1 80.1,47.1 80.1,57.6 78.2,57.6 78.2,47.1 74.7,47.1 74.7,45.4 	"/>
	<polygon points="5,47.1 5,55.9 8.1,55.9 8.1,57.6 0,57.6 0,55.9 3.1,55.9 3.1,47.1 0,47.1 0,45.4 8.1,45.4 8.1,47.1 	"/>
</g>
</svg>
