<svg xmlns="http://www.w3.org/2000/svg" viewBox="0 0 324.5 59.6" width="324.5px" height="59.6px" xml:space="preserve"><defs><style>.cls-1{fill:transparent}.cls-2{fill:#ff4069;}</style></defs><title>digitalalektioner</title><g id="Layer_2" data-name="Layer 2"><rect class="cls-1" width="324.5" height="59.9"/></g><g id="Layer_1" data-name="Layer 1"><path d="M1.8.2h8.8C20.9.2,26.4,5.8,26.4,15.6c0,9.5-5.6,15-15.9,15H1.8Zm8.3,25.4C16.8,25.6,21,23,21,15.4,21,8.2,18.1,5.2,10.6,5.2H7.3V25.6Z"/><path d="M29.9.2h5.5V5H29.9Zm.2,8.9h5.2V30.6H30.1Z"/><path d="M59.6,33.6c0,4.9-4.2,7.2-9.5,7.2-6.8,0-10.3-3.3-10.3-7.7a2.74,2.74,0,0,1,.1-.9l2.5-2.1a4.64,4.64,0,0,1-2.1-4.2,5.69,5.69,0,0,1,2-4.4,7.5,7.5,0,0,1-1.8-5c0-4.7,4.1-7.9,8.8-7.9A10.29,10.29,0,0,1,54.4,10l3.3-2.8,2.7,3.3L57.2,13a8,8,0,0,1,.9,3.8c0,4.8-4,7.9-8.7,7.9a11.55,11.55,0,0,1-4.1-.8,1.14,1.14,0,0,0-.6,1.2c0,1.8,2.6,1.8,6.5,2.3C55.3,27.8,59.6,28.7,59.6,33.6Zm-5,.6c0-1.6-1.7-2-5.3-2.4a25.5,25.5,0,0,1-3.8-.5l-1.2,1.9.1.6c.6,2.2,2.9,2.9,5.5,2.9C52.8,36.7,54.6,35.9,54.6,34.2ZM45.8,16.6c0,2.2,1.2,3.8,3.6,3.8A3.47,3.47,0,0,0,53,17.1v-.5c0-2.2-1.2-3.9-3.5-3.9S45.9,14.3,45.8,16.6Z"/><path d="M63.2.2h5.5V5H63.2Zm.1,8.9h5.2V30.6H63.3Z"/><path d="M75.8,24.7V13.5H72.3V9.1h3.6V3.8L81.1,0V9.1h5.4v4.4H81.1V23.7c0,2.1,1,2.7,2.4,2.7a6.43,6.43,0,0,0,3-.8v4.8a10.55,10.55,0,0,1-3.9.6C78.3,31,75.8,28.6,75.8,24.7Z"/><path d="M108,17.5V30.6h-4.3l-.3-2.9A8.45,8.45,0,0,1,96.7,31c-4.4,0-7.8-2.5-7.8-7,0-4.7,3.7-6.2,8.6-6.2h5.8c-.1-3.2-1-4.6-4.5-4.6a6,6,0,0,0-5.1,3l-4-2.9a10.5,10.5,0,0,1,9-4.7C104.5,8.6,108,12.3,108,17.5Zm-4.8,4.2v-.2H97.6c-2.4,0-3.5,1.2-3.5,2.6s1.1,2.4,3.5,2.4A5.31,5.31,0,0,0,103.2,21.7Z"/><path d="M111.8,26.3V.2H117V24.9c0,1,.7,1.4,1.7,1.4a6,6,0,0,0,1.4-.1v4.4a17,17,0,0,1-3.9.4C113.8,31,111.8,30.1,111.8,26.3Z"/><path d="M141.6,17.5V30.6h-4.3l-.3-2.9a8.45,8.45,0,0,1-6.7,3.3c-4.4,0-7.8-2.5-7.8-7,0-4.7,3.8-6.2,8.6-6.2h5.8c-.1-3.2-1.1-4.6-4.5-4.6a6,6,0,0,0-5.1,3l-4-2.9a10.5,10.5,0,0,1,9-4.7C138.1,8.6,141.6,12.3,141.6,17.5Zm-4.8,4.2v-.2h-5.6c-2.4,0-3.5,1.2-3.5,2.6s1.1,2.4,3.5,2.4A5.31,5.31,0,0,0,136.8,21.7Z"/><path d="M154.3,26.3V.2h5.2V24.9c0,1,.7,1.4,1.7,1.4a6,6,0,0,0,1.4-.1v4.4a17,17,0,0,1-3.9.4C156.4,31,154.3,30.1,154.3,26.3Z"/><path d="M165,19.9c0-5.6,3.3-11.3,10.6-11.3,7.5,0,10,6,10,10.9a7.42,7.42,0,0,1-.2,2.1H170.6c.4,2.8,2,4.7,5.4,4.7a6.53,6.53,0,0,0,5.2-2.3l3.6,3.2A11,11,0,0,1,176,31C168.5,31,165,25.7,165,19.9Zm15.4-2.1A4.54,4.54,0,0,0,176,13.1h-.44c-3.1,0-4.5,2-4.9,4.7Z"/><path d="M188.6.2h5.2V18l8.1-8.9h6.8l-8,8.3,8.9,13.2h-6.2l-6.3-10-3.3,3.7v6.3h-5.2Z"/><path d="M213.6,24.7V13.5h-3.5V9.1h3.6V3.8L218.9,0V9.1h5.4v4.4h-5.4V23.7c0,2.1,1,2.7,2.4,2.7a6.43,6.43,0,0,0,3-.8v4.8a10.55,10.55,0,0,1-3.9.6C216.2,31,213.6,28.6,213.6,24.7Z"/><path d="M229,.2h5.5V5H229Zm.1,8.9h5.3V30.6h-5.3Z"/><path d="M238,19.8a11,11,0,0,1,22,0c0,6.1-4.4,11.2-11,11.2a10.94,10.94,0,0,1-11.1-10.7A.87.87,0,0,0,238,19.8Zm16.6,0c0-3.5-1.6-6.6-5.6-6.6s-5.6,3.1-5.6,6.6,1.6,6.7,5.6,6.7S254.6,23.3,254.6,19.8Z"/><path d="M263,9.1h5.2v2.5a7.87,7.87,0,0,1,6.3-2.9c5.6,0,7.9,4.5,7.9,9v13h-5.2V18.4c0-2.8-1.4-4.9-4.1-4.9-3,0-4.8,1.6-4.8,5.3V30.6H263Z"/><path d="M285.6,19.9c0-5.6,3.3-11.3,10.5-11.3,7.5,0,10,6,10,10.9a7.42,7.42,0,0,1-.2,2.1H291.1c.5,2.8,2,4.7,5.4,4.7a6.53,6.53,0,0,0,5.2-2.3l3.6,3.2a11,11,0,0,1-8.8,3.8C289.1,31,285.6,25.7,285.6,19.9Zm15.3-2.1a6.66,6.66,0,0,0-.2-1.4A4.56,4.56,0,0,0,296,13c-3.1,0-4.5,2-5,4.7h9.9Z"/><path d="M309.7,9.1h5.1v3.6a6.25,6.25,0,0,1,5.8-4.1,5.12,5.12,0,0,1,3.9,1.6l-2.4,4.3a4,4,0,0,0-2.4-.7c-2.5,0-5,2.3-5,7.8v9.1h-5.1Z"/><polygon class="cls-2" points="210.1 45.1 210.1 49.9 207.9 49.9 207.9 52.3 205.7 52.3 205.7 54.8 203.5 54.8 203.5 57.2 201.3 57.2 201.3 59.6 198.9 59.6 198.9 57.2 196.7 57.2 196.7 54.8 194.6 54.8 194.6 52.3 192.4 52.3 192.4 49.9 190.2 49.9 190.2 45.1 192.4 45.1 192.4 42.7 198.9 42.7 198.9 45.1 201.3 45.1 201.3 42.7 207.9 42.7 207.9 45.1 210.1 45.1"/><polygon class="cls-1" points="207.2 46.7 207.2 48.3 204.2 48.3 204.2 45.1 205.8 45.1 205.8 46.7 207.2 46.7"/><path d="M93.8,53.9c0,2-1.9,3.5-4.5,3.5s-4.6-1.4-4.7-3.8v-.1h1.9v.1c.2,1.8,1.6,2.2,2.8,2.2S92,55.3,92,54c0-.9-.5-1.4-1.7-1.8L88,51.5c-2-.6-3-1.7-3-3.4s1.8-3.3,4.2-3.3c2.6,0,4.2,1.3,4.4,3.6v.1H91.8v-.1c-.1-1.3-1-1.9-2.5-1.9s-2.3.6-2.3,1.6.4,1.4,1.8,1.8l1.9.5a6.94,6.94,0,0,1,2.3,1A5.27,5.27,0,0,1,93.8,53.9Z"/><polygon points="103.4 45.1 103.4 46.8 99.9 46.8 99.9 57.2 98 57.2 98 46.8 94.5 46.8 94.5 45.1 103.4 45.1"/><polygon points="117.5 46.8 117.5 50.2 122.7 50.2 122.7 51.9 117.5 51.9 117.5 57.2 115.6 57.2 115.6 45.1 123.1 45.1 123.1 46.8 117.5 46.8"/><polygon points="133.7 45.1 133.7 46.8 130.2 46.8 130.2 57.2 128.2 57.2 128.2 46.8 124.7 46.8 124.7 45.1 133.7 45.1"/><polygon points="137.2 46.8 137.2 50.2 142.6 50.2 142.6 51.9 137.2 51.9 137.2 55.5 143.4 55.5 143.4 57.2 135.3 57.2 135.3 45.1 143.4 45.1 143.4 46.8 137.2 46.8"/><polygon points="152.6 55.5 152.6 57.2 145.4 57.2 145.4 45.1 147.3 45.1 147.3 55.5 152.6 55.5"/><path d="M162.8,53.9c0,2-1.9,3.5-4.5,3.5s-4.6-1.5-4.7-3.8v-.1h1.9v.1c.2,1.8,1.6,2.2,2.8,2.2s2.7-.5,2.7-1.8c0-.9-.5-1.4-1.7-1.8l-2.3-.7c-2-.6-2.9-1.7-2.9-3.4s1.8-3.3,4.2-3.3c2.6,0,4.2,1.3,4.4,3.6v.1h-1.9v-.1c-.1-1.3-1-1.9-2.5-1.9s-2.3.6-2.3,1.6.4,1.4,1.8,1.8l1.9.5C161.2,50.8,162.8,51.6,162.8,53.9Z"/><polygon points="167 46.8 167 50.2 172.4 50.2 172.4 51.9 167 51.9 167 55.5 173.2 55.5 173.2 57.2 165.1 57.2 165.1 45.1 173.2 45.1 173.2 46.8 167 46.8"/><polygon points="184.7 45.1 184.7 57.2 182.1 57.2 177.6 47.9 177.4 47.6 177.4 57.2 175.5 57.2 175.5 45.1 178.1 45.1 182.8 54.7 182.8 45.1 184.7 45.1"/><polygon points="110.4 46.8 110.4 55.5 113.4 55.5 113.4 57.3 105.4 57.3 105.4 55.5 108.5 55.5 108.5 46.8 105.4 46.8 105.4 45.1 113.4 45.1 113.4 46.8 110.4 46.8"/><polygon points="19.6 45.1 19.6 57.2 17 57.2 12.4 47.9 12.3 47.6 12.3 57.2 10.4 57.2 10.4 45.1 13 45.1 17.7 54.7 17.7 45.1 19.6 45.1"/><polygon points="30.2 45.1 30.2 46.8 26.7 46.8 26.7 57.2 24.8 57.2 24.8 46.8 21.3 46.8 21.3 45.1 30.2 45.1"/><polygon points="33.8 46.8 33.8 50.2 39.2 50.2 39.2 51.9 33.8 51.9 33.8 55.5 40 55.5 40 57.2 31.9 57.2 31.9 45.1 40 45.1 40 46.8 33.8 46.8"/><path d="M47.9,52.1h0a3.1,3.1,0,0,0,1.8-.9,3.47,3.47,0,0,0,.9-2.6,3.1,3.1,0,0,0-.9-2.6,3.86,3.86,0,0,0-2.9-.9H42.2V57.2h1.9v-5h1.8l2.8,5h2.2Zm-3.8-1.6V46.8h3.3a1.06,1.06,0,0,1,1.19.91.28.28,0,0,1,0,.09h0v1.5a1.13,1.13,0,0,1-1.06,1.2H44.1Z"/><polygon points="62.2 45.1 62.2 57.2 59.7 57.2 55.1 47.9 54.9 47.6 54.9 57.2 53.1 57.2 53.1 45.1 55.6 45.1 60.4 54.7 60.4 45.1 62.2 45.1"/><polygon points="66.8 46.8 66.8 50.2 72.2 50.2 72.2 51.9 66.8 51.9 66.8 55.5 73 55.5 73 57.2 64.9 57.2 64.9 45.1 73 45.1 73 46.8 66.8 46.8"/><polygon points="83.8 45.1 83.8 46.8 80.2 46.8 80.2 57.2 78.3 57.2 78.3 46.8 74.8 46.8 74.8 45.1 83.8 45.1"/><polygon points="5 46.8 5 55.4 8.1 55.4 8.1 57.2 0 57.2 0 55.4 3.1 55.4 3.1 46.8 0 46.8 0 45.1 8.1 45.1 8.1 46.8 5 46.8"/></g></svg>
