<?xml version="1.0" encoding="utf-8"?>
<!-- Generator: Adobe Illustrator 23.0.1, SVG Export Plug-In . SVG Version: 6.00 Build 0)  -->
<svg version="1.1" id="Layer_1" xmlns="http://www.w3.org/2000/svg" xmlns:xlink="http://www.w3.org/1999/xlink" x="0px" y="0px"
	 viewBox="0 0 324.5 59.9" style="enable-background:new 0 0 324.5 59.9;" xml:space="preserve">
<style type="text/css">
	.st0{fill:none;}
	.st1{fill:#FF4069;}
	.st2{fill:#FFFFFF;}
</style>
<title>digitalalektioner</title>
<g>
	<rect class="st0" width="324.5" height="59.9"/>
</g>
<g id="Lager_1">
	<path d="M1.8,0.4h8.8C21,0.4,26.5,6,26.5,15.9c0,9.5-5.6,15-15.9,15H1.8V0.4z M10.1,25.8c6.7,0,10.9-2.6,10.9-10.2
		c0-7.2-2.9-10.2-10.4-10.2H7.3v20.4H10.1z"/>
	<path d="M29.9,0.4h5.5v4.8h-5.5V0.4z M30.1,9.3h5.2v21.5h-5.2V9.3z"/>
	<path d="M59.6,33.8c0,4.9-4.2,7.2-9.5,7.2c-6.8,0-10.3-3.3-10.3-7.7c0-0.3,0-0.6,0.1-0.9l2.5-2.1c-1.4-0.9-2.2-2.5-2.1-4.2
		c0-1.7,0.7-3.3,2-4.4c-1.2-1.4-1.8-3.1-1.8-5c0-4.7,4.1-7.9,8.8-7.9c1.8,0,3.5,0.5,5.1,1.4l3.3-2.8l2.7,3.3l-3.1,2.5
		c0.6,1.1,0.9,2.4,0.9,3.7c0,4.8-4,7.9-8.7,7.9c-1.4,0-2.8-0.3-4.1-0.9c-0.4,0.2-0.7,0.7-0.6,1.2c0,1.8,2.6,1.8,6.5,2.3
		C55.3,28,59.6,28.9,59.6,33.8z M54.6,34.4c0-1.6-1.7-2-5.3-2.4c-1.3-0.1-2.5-0.2-3.8-0.5l-1.2,1.9l0.1,0.6c0.6,2.1,2.9,2.9,5.5,2.9
		C52.8,37,54.6,36.2,54.6,34.4L54.6,34.4z M45.8,16.8c0,2.2,1.2,3.8,3.6,3.8c1.9,0.1,3.5-1.4,3.6-3.3c0-0.2,0-0.3,0-0.5
		c0-2.2-1.2-3.9-3.5-3.9S45.9,14.6,45.8,16.8L45.8,16.8z"/>
	<path d="M63.2,0.4h5.5v4.8h-5.5V0.4z M63.3,9.3h5.2v21.5h-5.2V9.3z"/>
	<path d="M75.8,24.9V13.7h-3.5V9.3h3.6V4l5.2-3.8v9.1h5.4v4.4h-5.4V24c0,2.1,1,2.7,2.4,2.7c1,0,2.1-0.3,3-0.8v4.8
		c-1.3,0.4-2.6,0.6-3.9,0.6C78.3,31.2,75.8,28.8,75.8,24.9z"/>
	<path d="M108,17.8v13h-4.3l-0.3-2.8c-1.6,2.1-4.1,3.3-6.7,3.3c-4.4,0-7.8-2.5-7.8-7c0-4.7,3.7-6.2,8.6-6.2h5.8
		c-0.1-3.2-1-4.6-4.5-4.6c-2.1,0-4,1.2-5.1,3l-4-2.9c2-3,5.4-4.8,9-4.7C104.5,8.9,108,12.5,108,17.8z M103.2,22v-0.2h-5.6
		c-2.4,0-3.5,1.2-3.5,2.6s1.1,2.4,3.5,2.4C100.5,26.9,102.9,24.8,103.2,22L103.2,22z"/>
	<path d="M111.8,26.5V0.4h5.2v24.7c0,1,0.7,1.4,1.7,1.4c0.5,0,1,0,1.4-0.1v4.4c-1.3,0.3-2.6,0.4-3.9,0.4
		C113.8,31.2,111.8,30.3,111.8,26.5z"/>
	<path d="M141.6,17.8v13h-4.3l-0.3-2.8c-1.6,2.1-4.1,3.3-6.7,3.3c-4.4,0-7.8-2.5-7.8-7c0-4.7,3.8-6.2,8.6-6.2h5.8
		c-0.1-3.2-1.1-4.6-4.5-4.6c-2.1,0-4,1.2-5.1,3l-4-2.9c2-3,5.4-4.8,9-4.7C138.1,8.9,141.6,12.5,141.6,17.8z M136.8,22v-0.2h-5.6
		c-2.4,0-3.5,1.2-3.5,2.6s1.1,2.4,3.5,2.4C134.1,26.9,136.5,24.8,136.8,22z"/>
	<path d="M154.3,26.5V0.4h5.2v24.7c0,1,0.7,1.4,1.7,1.4c0.5,0,1-0.1,1.4-0.1v4.4c-1.3,0.3-2.6,0.4-3.9,0.4
		C156.4,31.2,154.3,30.3,154.3,26.5z"/>
	<path d="M165,20.2c0-5.6,3.3-11.3,10.6-11.3c7.5,0,10,6,10,10.8c0,0.7,0,1.4-0.2,2.1h-14.8c0.4,2.8,2,4.7,5.4,4.7
		c2,0.1,3.9-0.8,5.2-2.3l3.6,3.2c-2.2,2.5-5.5,3.9-8.8,3.8C168.5,31.2,165,26,165,20.2z M180.4,18c0-0.5,0-0.9-0.2-1.4
		c-0.5-2.1-2.5-3.5-4.7-3.4c-3.1,0-4.5,2-4.9,4.7H180.4z"/>
	<path d="M188.6,0.4h5.2v17.8l8.1-8.9h6.8l-8,8.3l8.9,13.2h-6.2l-6.3-10l-3.3,3.7v6.3h-5.2L188.6,0.4z"/>
	<path d="M213.6,24.9V13.7h-3.5V9.3h3.6V4l5.2-3.8v9.1h5.4v4.4h-5.4V24c0,2.1,1,2.7,2.4,2.7c1,0,2.1-0.3,3-0.8v4.8
		c-1.3,0.4-2.6,0.6-3.9,0.6C216.2,31.2,213.6,28.8,213.6,24.9z"/>
	<path d="M229,0.4h5.5v4.8H229V0.4z M229.1,9.3h5.3v21.5h-5.3V9.3z"/>
	<path d="M238,20c0-6.1,4.9-11,11-11s11,4.9,11,11c0,6.1-4.4,11.2-11,11.2c-6,0.1-11-4.7-11.1-10.7c0,0,0,0,0,0
		C238,20.3,238,20.2,238,20z M254.6,20c0-3.5-1.6-6.6-5.6-6.6s-5.6,3.1-5.6,6.6s1.6,6.7,5.6,6.7S254.6,23.6,254.6,20z"/>
	<path d="M263,9.3h5.2v2.5c1.6-1.9,3.9-3,6.3-2.9c5.6,0,7.9,4.5,7.9,9v13h-5.2V18.6c0-2.8-1.4-4.9-4.1-4.9c-3,0-4.8,1.6-4.8,5.3
		v11.8H263V9.3z"/>
	<path d="M285.6,20.2c0-5.6,3.3-11.3,10.5-11.3c7.5,0,10,6,10,10.8c0,0.7,0,1.4-0.2,2.1h-14.8c0.5,2.8,2,4.7,5.4,4.7
		c2,0.1,3.9-0.8,5.2-2.3l3.6,3.2c-2.2,2.5-5.5,3.9-8.8,3.8C289.1,31.2,285.6,26,285.6,20.2z M300.9,18c0-0.5-0.1-0.9-0.2-1.4
		c-0.5-2.1-2.5-3.5-4.7-3.4c-3.1,0-4.5,2-5,4.7H300.9z"/>
	<path d="M309.7,9.3h5.1v3.6c0.9-2.4,3.2-4.1,5.8-4.1c1.5,0,2.9,0.5,3.9,1.6l-2.4,4.3c-0.7-0.5-1.5-0.7-2.4-0.7c-2.5,0-5,2.3-5,7.8
		v9.1h-5.1L309.7,9.3z"/>
	<polygon class="st1" points="210.1,45.3 210.1,50.2 207.9,50.2 207.9,52.6 205.7,52.6 205.7,55 203.5,55 203.5,57.4 201.3,57.4 
		201.3,59.8 198.9,59.8 198.9,57.4 196.7,57.4 196.7,55 194.6,55 194.6,52.6 192.4,52.6 192.4,50.2 190.2,50.2 190.2,45.3 
		192.4,45.3 192.4,42.9 198.9,42.9 198.9,45.3 201.3,45.3 201.3,42.9 207.9,42.9 207.9,45.3 	"/>
	<polygon class="st2" points="207.2,47 207.2,48.5 204.2,48.5 204.2,45.3 205.8,45.3 205.8,47 	"/>
	<path d="M93.8,54.2c0,2-1.9,3.5-4.5,3.5s-4.6-1.4-4.7-3.8v-0.1h1.9v0.1c0.2,1.8,1.6,2.2,2.8,2.2s2.7-0.5,2.7-1.8
		c0-0.9-0.5-1.4-1.7-1.8l-2.3-0.7c-2-0.6-3-1.7-3-3.4s1.8-3.3,4.2-3.3c2.6,0,4.2,1.3,4.4,3.6v0.1h-1.8v-0.1c-0.1-1.3-1-1.9-2.5-1.9
		s-2.3,0.6-2.3,1.6s0.4,1.4,1.8,1.8l1.9,0.5c0.8,0.2,1.6,0.5,2.3,1C93.4,52.3,93.8,53.2,93.8,54.2z"/>
	<polygon points="103.4,45.3 103.4,47.1 99.9,47.1 99.9,57.4 98,57.4 98,47.1 94.5,47.1 94.5,45.3 	"/>
	<polygon points="117.5,47.1 117.5,50.4 122.7,50.4 122.7,52.1 117.5,52.1 117.5,57.4 115.6,57.4 115.6,45.3 123.1,45.3 123.1,47.1 
			"/>
	<polygon points="133.7,45.3 133.7,47.1 130.2,47.1 130.2,57.4 128.2,57.4 128.2,47.1 124.7,47.1 124.7,45.3 	"/>
	<polygon points="137.2,47.1 137.2,50.4 142.6,50.4 142.6,52.1 137.2,52.1 137.2,55.7 143.4,55.7 143.4,57.4 135.3,57.4 135.3,45.3 
		143.4,45.3 143.4,47.1 	"/>
	<polygon points="152.6,55.7 152.6,57.4 145.4,57.4 145.4,45.3 147.3,45.3 147.3,55.7 	"/>
	<path d="M162.8,54.2c0,2-1.9,3.5-4.5,3.5s-4.6-1.5-4.7-3.8v-0.1h1.9v0.1c0.2,1.8,1.6,2.2,2.8,2.2s2.7-0.5,2.7-1.8
		c0-0.9-0.5-1.4-1.7-1.8l-2.3-0.7c-2-0.6-2.9-1.7-2.9-3.4s1.8-3.3,4.2-3.3c2.6,0,4.2,1.3,4.4,3.6v0.1h-1.9v-0.1
		c-0.1-1.3-1-1.9-2.5-1.9s-2.3,0.6-2.3,1.6s0.4,1.4,1.8,1.8l1.9,0.5C161.2,51.1,162.8,51.8,162.8,54.2z"/>
	<polygon points="167,47.1 167,50.4 172.4,50.4 172.4,52.1 167,52.1 167,55.7 173.2,55.7 173.2,57.4 165.1,57.4 165.1,45.3 
		173.2,45.3 173.2,47.1 	"/>
	<polygon points="184.7,45.3 184.7,57.4 182.1,57.4 177.6,48.2 177.4,47.8 177.4,57.4 175.5,57.4 175.5,45.3 178.1,45.3 182.8,54.9 
		182.8,45.3 	"/>
	<polygon points="110.4,47.1 110.4,55.8 113.4,55.8 113.4,57.5 105.4,57.5 105.4,55.8 108.5,55.8 108.5,47.1 105.4,47.1 105.4,45.3 
		113.4,45.3 113.4,47.1 	"/>
	<polygon points="19.6,45.3 19.6,57.4 17,57.4 12.4,48.2 12.3,47.8 12.3,57.4 10.4,57.4 10.4,45.3 13,45.3 17.7,54.9 17.7,45.3 	"/>
	<polygon points="30.2,45.3 30.2,47 26.7,47 26.7,57.4 24.8,57.4 24.8,47 21.3,47 21.3,45.3 	"/>
	<polygon points="33.8,47 33.8,50.4 39.2,50.4 39.2,52.1 33.8,52.1 33.8,55.7 40,55.7 40,57.4 31.9,57.4 31.9,45.3 40,45.3 40,47 	
		"/>
	<path d="M47.9,52.3L47.9,52.3c0.7-0.1,1.3-0.4,1.8-0.9c0.6-0.7,1-1.6,0.9-2.6c0.1-1-0.3-1.9-0.9-2.6c-0.8-0.7-1.9-1-2.9-0.9h-4.5
		v12.1h1.9v-5h1.8l2.8,5h2.2L47.9,52.3z M44.1,50.8V47h3.3c0.6-0.1,1.2,0.4,1.2,1c0,0,0,0,0,0l0,0c0,0.1,0,0.1,0,0.2v1.3
		c0,0.6-0.4,1.2-1.1,1.2c0,0,0,0,0,0h-0.1L44.1,50.8z"/>
	<polygon points="62.2,45.3 62.2,57.4 59.7,57.4 55.1,48.2 54.9,47.8 54.9,57.4 53.1,57.4 53.1,45.3 55.6,45.3 60.4,54.9 60.4,45.3 
			"/>
	<polygon points="66.8,47 66.8,50.4 72.2,50.4 72.2,52.1 66.8,52.1 66.8,55.7 73,55.7 73,57.4 64.9,57.4 64.9,45.3 73,45.3 73,47 	
		"/>
	<polygon points="83.8,45.3 83.8,47 80.2,47 80.2,57.4 78.3,57.4 78.3,47 74.8,47 74.8,45.3 	"/>
	<polygon points="5,47 5,55.7 8.1,55.7 8.1,57.4 0,57.4 0,55.7 3.1,55.7 3.1,47 0,47 0,45.3 8.1,45.3 8.1,47 	"/>
</g>
</svg>
