<svg xmlns="http://www.w3.org/2000/svg" viewBox="0 0 324.5 59.9" width="324.5px" height="59.9px" xml:space="preserve"><defs><style>.cls-1{fill:transparent}.cls-2{fill:#ff4069;}</style></defs><title>digitalalektioner</title><g id="Layer_2" data-name="Layer 2"><rect class="cls-1" width="324.5" height="59.9"/></g><g id="Lager_1" data-name="Lager 1"><path d="M1.83.41h8.83C21,.41,26.49,6,26.49,15.85c0,9.48-5.64,15-15.87,15H1.83Zm8.25,25.41C16.8,25.82,21,23.24,21,15.62,21,8.4,18.07,5.43,10.58,5.43H7.3V25.82Z"/><path d="M29.93.41h5.51V5.24H29.93Zm.13,8.92h5.25V30.84H30.06Z"/><path d="M59.57,33.83c0,4.87-4.17,7.2-9.51,7.2-6.79,0-10.32-3.26-10.32-7.67a3.63,3.63,0,0,1,.09-.93l2.49-2.11a4.74,4.74,0,0,1-2.11-4.2,5.54,5.54,0,0,1,2-4.39,7.72,7.72,0,0,1-1.79-4.95c0-4.67,4.07-7.9,8.83-7.9a9.79,9.79,0,0,1,5.09,1.36l3.3-2.82,2.73,3.34-3.12,2.52A7.65,7.65,0,0,1,58.17,17c0,4.8-4,7.86-8.74,7.86A10.25,10.25,0,0,1,45.34,24a1.25,1.25,0,0,0-.62,1.19c0,1.76,2.64,1.81,6.48,2.28C55.27,28,59.57,28.9,59.57,33.83Zm-5,.59c0-1.64-1.68-2-5.26-2.4a36.43,36.43,0,0,1-3.76-.47l-1.17,1.94.13.58C45.14,36.22,47.38,37,50,37c2.81,0,4.62-.84,4.62-2.56Zm-8.74-17.6c0,2.2,1.25,3.79,3.57,3.79A3.45,3.45,0,0,0,53,17.33a2.9,2.9,0,0,0,0-.51c0-2.2-1.22-3.88-3.53-3.88s-3.61,1.62-3.61,3.88Z"/><path d="M63.2.41h5.51V5.24H63.2Zm.13,8.92h5.25V30.84H63.33Z"/><path d="M75.82,24.9V13.72H72.35V9.33h3.56V4L81.07.24V9.33h5.39v4.39H81.07V24c0,2.07,1,2.67,2.39,2.67a7.66,7.66,0,0,0,3-.77v4.75a12.16,12.16,0,0,1-3.92.65C78.34,31.24,75.82,28.82,75.82,24.9Z"/><path d="M108,17.79V30.84h-4.33L103.35,28a8.11,8.11,0,0,1-6.74,3.26c-4.41,0-7.81-2.54-7.81-7,0-4.67,3.74-6.22,8.57-6.22h5.83c-.11-3.19-1-4.55-4.48-4.55a5.77,5.77,0,0,0-5.06,3l-4-2.91a10.51,10.51,0,0,1,9-4.71C104.54,8.88,108,12.54,108,17.79ZM103.24,22v-.2H97.67c-2.39,0-3.49,1.24-3.49,2.6s1.14,2.43,3.49,2.43A5.45,5.45,0,0,0,103.22,22Z"/><path d="M111.78,26.55V.41H117v24.7c0,1,.67,1.44,1.72,1.44a11.65,11.65,0,0,0,1.45-.12v4.41a22.4,22.4,0,0,1-3.92.43C113.8,31.24,111.78,30.34,111.78,26.55Z"/><path d="M141.58,17.79V30.84h-4.33L136.93,28a8.09,8.09,0,0,1-6.72,3.26c-4.41,0-7.82-2.54-7.82-7,0-4.67,3.75-6.22,8.58-6.22h5.83c-.11-3.19-1.05-4.55-4.48-4.55a5.77,5.77,0,0,0-5.06,3l-4-2.91a10.51,10.51,0,0,1,9-4.71C138.14,8.88,141.58,12.54,141.58,17.79ZM136.82,22v-.2h-5.55c-2.39,0-3.49,1.24-3.49,2.6s1.14,2.43,3.49,2.43A5.45,5.45,0,0,0,136.82,22Z"/><path d="M154.34,26.55V.41h5.25v24.7c0,1,.67,1.44,1.73,1.44a11.65,11.65,0,0,0,1.44-.12v4.41a22.4,22.4,0,0,1-3.92.43C156.36,31.24,154.34,30.34,154.34,26.55Z"/><path d="M165,20.16c0-5.6,3.27-11.28,10.55-11.28,7.54,0,10,6,10,10.85a8.45,8.45,0,0,1-.19,2.07h-14.8c.45,2.82,2,4.71,5.38,4.71a6.55,6.55,0,0,0,5.17-2.27l3.62,3.16a11.24,11.24,0,0,1-8.83,3.84C168.49,31.24,165,26,165,20.16ZM180.35,18a4.79,4.79,0,0,0-.17-1.36,4.43,4.43,0,0,0-4.67-3.36c-3.1,0-4.46,2-4.95,4.72Z"/><path d="M188.64.41h5.25V18.24L202,9.33h6.82l-8,8.33,8.94,13.18h-6.2l-6.31-10-3.32,3.66v6.34h-5.25Z"/><path d="M213.64,24.9V13.72h-3.47V9.33h3.55V4L218.89.24V9.33h5.39v4.39h-5.39V24c0,2.07,1,2.67,2.39,2.67a7.66,7.66,0,0,0,3-.77v4.75a12.16,12.16,0,0,1-3.92.65C216.16,31.24,213.64,28.82,213.64,24.9Z"/><path d="M229,.41h5.51V5.24H229Zm.13,8.92h5.26V30.84h-5.26Z"/><path d="M238,20a11,11,0,0,1,22.06,0c0,6.09-4.38,11.24-11,11.24A10.89,10.89,0,0,1,238,20.51,4.34,4.34,0,0,1,238,20Zm16.59,0c0-3.53-1.58-6.61-5.56-6.61s-5.56,3.08-5.56,6.61,1.6,6.72,5.56,6.72S254.59,23.56,254.59,20Z"/><path d="M263,9.33h5.25v2.5a8.15,8.15,0,0,1,6.31-2.95c5.64,0,7.86,4.54,7.86,9v13h-5.25V18.59c0-2.82-1.42-4.87-4.12-4.87-2.95,0-4.8,1.59-4.8,5.34V30.84H263Z"/><path d="M285.57,20.16c0-5.6,3.28-11.28,10.55-11.28,7.54,0,10,6,10,10.85a8.46,8.46,0,0,1-.2,2.07H291.13c.45,2.82,2,4.71,5.38,4.71a6.55,6.55,0,0,0,5.17-2.27l3.62,3.16a11.24,11.24,0,0,1-8.83,3.84C289.06,31.24,285.57,26,285.57,20.16ZM300.93,18a4.46,4.46,0,0,0-.18-1.36,4.43,4.43,0,0,0-4.67-3.36c-3.1,0-4.46,2-4.95,4.72Z"/><path d="M309.69,9.33h5.13v3.61a6.12,6.12,0,0,1,5.77-4.06,5.5,5.5,0,0,1,3.94,1.55l-2.39,4.3a4.18,4.18,0,0,0-2.35-.73c-2.45,0-5,2.28-5,7.75v9.09H309.7Z"/><polygon class="cls-2" points="210.06 45.32 210.06 50.17 207.87 50.17 207.87 52.59 205.68 52.59 205.68 55 203.49 55 203.49 57.42 201.3 57.42 201.3 59.84 198.93 59.84 198.93 57.42 196.74 57.42 196.74 55 194.55 55 194.55 52.59 192.36 52.59 192.36 50.17 190.17 50.17 190.17 45.32 192.36 45.32 192.36 42.91 198.93 42.91 198.93 45.32 201.3 45.32 201.3 42.91 207.87 42.91 207.87 45.32 210.06 45.32"/><polygon class="cls-1" points="207.24 46.96 207.24 48.53 204.2 48.53 204.2 45.33 205.75 45.33 205.75 46.96 207.24 46.96"/><path d="M93.76,54.16c0,2-1.9,3.52-4.53,3.52s-4.56-1.44-4.74-3.82v-.14h1.9v.11C86.58,55.61,88,56,89.18,56s2.67-.46,2.67-1.79c0-.92-.5-1.43-1.71-1.77l-2.31-.65c-2-.56-3-1.65-3-3.44s1.76-3.27,4.18-3.27c2.59,0,4.19,1.32,4.39,3.61v.13H91.56V48.7c-.12-1.27-1-1.92-2.49-1.92s-2.31.6-2.31,1.57.44,1.41,1.81,1.79l1.89.53a5.78,5.78,0,0,1,2.26,1A3,3,0,0,1,93.76,54.16Z"/><polygon points="103.44 45.33 103.44 47.06 99.89 47.06 99.89 57.43 97.99 57.43 97.99 47.06 94.46 47.06 94.46 45.33 103.44 45.33"/><polygon points="117.53 47.06 117.53 50.39 122.72 50.39 122.72 52.12 117.53 52.12 117.53 57.43 115.63 57.43 115.63 45.33 123.14 45.33 123.14 47.06 117.53 47.06"/><polygon points="133.69 45.33 133.69 47.06 130.16 47.06 130.16 57.43 128.25 57.43 128.25 47.06 124.72 47.06 124.72 45.33 133.69 45.33"/><polygon points="137.19 47.06 137.19 50.39 142.59 50.39 142.59 52.12 137.19 52.12 137.19 55.69 143.4 55.69 143.4 57.43 135.29 57.43 135.29 45.33 143.4 45.33 143.4 47.06 137.19 47.06"/><polygon points="152.62 55.69 152.62 57.43 145.35 57.43 145.35 45.33 147.26 45.33 147.26 55.69 152.62 55.69"/><path d="M162.82,54.16c0,2-1.91,3.52-4.53,3.52s-4.55-1.46-4.74-3.82v-.14h1.9v.11c.2,1.78,1.63,2.15,2.8,2.15s2.66-.46,2.66-1.79c0-.92-.49-1.43-1.69-1.77l-2.33-.65c-2-.56-2.94-1.65-2.94-3.44s1.76-3.27,4.18-3.27c2.6,0,4.2,1.32,4.39,3.61v.13h-1.91v-.12c-.11-1.27-1-1.92-2.49-1.92s-2.31.6-2.31,1.57.44,1.41,1.81,1.79l1.89.53C161.16,51.09,162.82,51.84,162.82,54.16Z"/><polygon points="166.96 47.06 166.96 50.39 172.36 50.39 172.36 52.12 166.96 52.12 166.96 55.69 173.16 55.69 173.16 57.43 165.05 57.43 165.05 45.33 173.16 45.33 173.16 47.06 166.96 47.06"/><polygon points="184.69 45.33 184.69 57.43 182.15 57.43 177.56 48.15 177.39 47.8 177.39 57.43 175.54 57.43 175.54 45.33 178.07 45.33 182.84 54.9 182.84 45.33 184.69 45.33"/><polygon points="110.37 47.06 110.37 55.78 113.43 55.78 113.43 57.51 105.36 57.51 105.36 55.78 108.47 55.78 108.47 47.06 105.36 47.06 105.36 45.33 113.43 45.33 113.43 47.06 110.37 47.06"/><polygon points="19.57 45.33 19.57 57.42 17.03 57.42 12.45 48.15 12.28 47.8 12.28 57.42 10.42 57.42 10.42 45.33 12.96 45.33 17.71 54.89 17.71 45.33 19.57 45.33"/><polygon points="30.24 45.33 30.24 47.05 26.7 47.05 26.7 57.42 24.79 57.42 24.79 47.05 21.26 47.05 21.26 45.33 30.24 45.33"/><polygon points="33.84 47.05 33.84 50.39 39.24 50.39 39.24 52.12 33.84 52.12 33.84 55.69 40.04 55.69 40.04 57.42 31.94 57.42 31.94 45.33 40.04 45.33 40.04 47.05 33.84 47.05"/><path d="M47.91,52.34H48a3.24,3.24,0,0,0,1.72-.88,3.48,3.48,0,0,0,.89-2.59,3.4,3.4,0,0,0-.93-2.63,4.12,4.12,0,0,0-2.91-.88H42.23V57.42h1.91v-5h1.75l2.75,5h2.18Zm-3.77-1.59v-3.7h3.29a1.11,1.11,0,0,1,1.23,1v0a.74.74,0,0,1,0,.21v1.3a1.16,1.16,0,0,1-1.09,1.23h-.14Z"/><polygon points="62.23 45.33 62.23 57.42 59.69 57.42 55.11 48.15 54.94 47.8 54.94 57.42 53.08 57.42 53.08 45.33 55.62 45.33 60.37 54.89 60.37 45.33 62.23 45.33"/><polygon points="66.82 47.05 66.82 50.39 72.22 50.39 72.22 52.12 66.82 52.12 66.82 55.69 73.01 55.69 73.01 57.42 64.92 57.42 64.92 45.33 73.01 45.33 73.01 47.05 66.82 47.05"/><polygon points="83.75 45.33 83.75 47.05 80.22 47.05 80.22 57.42 78.32 57.42 78.32 47.05 74.78 47.05 74.78 45.33 83.75 45.33"/><polygon points="5 47.05 5 55.66 8.06 55.66 8.06 57.39 0 57.39 0 55.66 3.09 55.66 3.09 47.05 0 47.05 0 45.33 8.06 45.33 8.06 47.05 5 47.05"/></g></svg>
