<?xml version="1.0" encoding="UTF-8"?>
<svg id="Layer_1" data-name="Layer 1" xmlns="http://www.w3.org/2000/svg" version="1.1" viewBox="0 0 6962.4 3000">
  <defs>
    <style>
      .cls-1 {
        fill: #fabc04;
      }

      .cls-1, .cls-2, .cls-3 {
        stroke-width: 0px;
      }

      .cls-2 {
        fill: #1f2a36;
      }

      .cls-3 {
        fill: #e1c025;
      }
    </style>
  </defs>
  <path class="cls-1" d="M1042.5,1746.5c-3.2,3.2-3.2,8.7-8.7,9.5-.8-5.5,2.4-8.7,5.5-12.6l3.2,3.2"/>
  <path class="cls-3" d="M1693,2085.6c-3.2-5.5,0-9.5,3.2-13.4.8.8,2.4,2.4,3.2,3.2l-6.3,10.3"/>
  <path class="cls-2" d="M2294.7,649.9v1700.2h2372.9V649.9h-2372.9ZM4487.5,1167.1v751.5l-636.5-349.6s636.5-401.9,636.5-401.9ZM4487.5,2124.2v45.9h-2012.6v-45.9l810.7-445.3,195.6,123.3,195.7-123.3,810.6,445.3h0ZM4487.5,954.1l-1006.3,635.2-1006.3-635.2v-124h2012.7v124h0ZM2474.9,1918.6v-751.4l636.6,401.8s-636.6,349.6-636.6,349.6Z"/>
</svg>