<?xml version="1.0" encoding="UTF-8"?>
<svg id="Layer_1" data-name="Layer 1" xmlns="http://www.w3.org/2000/svg" version="1.1" viewBox="0 0 6962.4 3000">
  <defs>
    <style>
      .cls-1 {
        fill: #3c8bd9;
      }

      .cls-1, .cls-2, .cls-3, .cls-4 {
        stroke-width: 0px;
      }

      .cls-2 {
        fill: #fabc04;
      }

      .cls-3 {
        fill: #34a852;
      }

      .cls-4 {
        fill: #e1c025;
      }
    </style>
  </defs>
  <g>
    <path class="cls-1" d="M3127.2,742.1c21.4-56.2,50.9-108,94.6-150,175-170.5,464.2-127.7,582.9,86.6,89.3,162.5,183.9,321.4,275.8,482.1,153.5,266.9,308.9,533.8,460.6,801.6,127.7,224.1-10.7,507.1-264.2,545.4-155.3,23.2-300.8-48.2-381.2-187.5-134.8-234.8-270.5-469.6-405.3-703.4-2.7-5.4-6.2-9.8-9.8-14.3-14.3-11.6-20.5-28.6-29.5-43.7-59.8-105.3-121.4-209.8-181.2-314.2-38.4-67.8-78.6-134.8-116.9-202.6-34.8-60.7-50.9-126.8-49.1-196.4,2.7-35.7,7.1-71.4,23.2-103.6"/>
    <path class="cls-2" d="M3127.2,742.1c-8,32.1-15.2,64.3-17,98.2-2.7,75,16.1,144.6,53.6,209.8,98.2,168.7,196.4,338.3,293.7,507.9,8.9,15.2,16.1,30.4,25,44.6-53.6,92.8-107.1,184.8-161.6,277.6-75,129.4-150,259.8-225.9,389.2-3.6,0-4.5-1.8-5.4-4.5-.9-7.1,1.8-13.4,3.6-20.5,36.6-133.9,6.2-252.6-85.7-354.4-56.2-61.6-127.7-96.4-209.8-108-107.1-15.2-201.7,12.5-286.6,79.4-15.2,11.6-25,28.6-42.8,37.5-3.6,0-5.4-1.8-6.2-4.5,42.8-74.1,84.8-148.2,127.7-222.3,176.8-307.1,353.5-614.2,531.2-920.4,1.8-3.6,4.5-6.2,6.2-9.8"/>
    <path class="cls-3" d="M2465.7,1897.3c17-15.2,33-31.2,50.9-45.5,216.9-171.4,542.8-47.3,590.1,224.1,11.6,65.2,5.4,127.7-14.3,190.1-.9,5.4-1.8,9.8-3.6,15.2-8,14.3-15.2,29.5-24.1,43.7-79.4,131.2-196.4,196.4-349.9,186.6-175.9-12.5-314.2-144.6-338.3-319.6-11.6-84.8,5.4-164.3,49.1-237.5,8.9-16.1,19.6-30.4,29.5-46.4,4.5-3.6,2.7-10.7,10.7-10.7"/>
  </g>
  <path class="cls-2" d="M1042.5,1746.5c-3.2,3.2-3.2,8.7-8.7,9.5-.8-5.5,2.4-8.7,5.5-12.6l3.2,3.2"/>
  <path class="cls-4" d="M1693,2085.6c-3.2-5.5,0-9.5,3.2-13.4.8.8,2.4,2.4,3.2,3.2l-6.3,10.3"/>
</svg>