<svg xmlns="http://www.w3.org/2000/svg" viewBox="0 0 324.5 59.9" width="324.5px" height="59.9px" xml:space="preserve"><defs><style>.cls-1{fill:transparent;}.cls-2{fill:#ff4069;}</style></defs><title>goto10</title><g id="Layer_2" data-name="Layer 2"><rect class="cls-1" width="324.5" height="59.9"/></g><g id="Layer_1" data-name="Layer 1"><g id="Lager_1" data-name="Lager 1"><path d="M83.5,14.5V31H79.2l-.5-4.3c-1.6,2.9-5,4.7-9,4.7-10,0-14.7-7.3-14.7-15.7S59.6,0,69.7,0A13.75,13.75,0,0,1,83,8.8l-4.8,2a8.42,8.42,0,0,0-8.5-6c-6.4,0-9.2,5.1-9.2,10.7,0,6.1,2.8,11,9.3,11,4.8,0,8.1-2.6,8.3-7.6H71.4V14.5Z"/><path d="M86.9,20.1A10.76,10.76,0,0,1,97.31,9H98a10.77,10.77,0,0,1,11,10.52v.08h0v.5c0,6.1-4.4,11.2-11,11.2A10.94,10.94,0,0,1,86.9,20.6Zm16.6,0c0-3.5-1.6-6.6-5.6-6.6s-5.5,3.1-5.5,6.6S94,26.8,98,26.8,103.5,23.6,103.5,20.1Z"/><path d="M113.3,25V13.8h-3.5V9.4h3.5V4.1L118.5.3V9.4h5.4v4.4h-5.4V24c0,2.1,1,2.7,2.4,2.7a6.43,6.43,0,0,0,3-.8v4.8a13.23,13.23,0,0,1-3.9.6C115.8,31.4,113.3,28.9,113.3,25Z"/><path d="M126.6,20.1a11,11,0,1,1,22,0c0,6.1-4.4,11.2-11,11.2S126.6,26.2,126.6,20.1Zm16.6,0c0-3.5-1.6-6.6-5.6-6.6s-5.6,3.1-5.6,6.6,1.6,6.7,5.6,6.7S143.2,23.6,143.2,20.1Z"/><path d="M167.6.5V30.9h-5.4V9.4h-7.1V5.3h4.1c2.1,0,3.2-.9,3.2-2.9V.5Z"/><path d="M172.9,15.7c0-6.5,1-15.7,10.3-15.7,8.4,0,10.5,8.2,10.5,15.7s-2.1,15.6-10.2,15.6C174.1,31.4,172.9,22.1,172.9,15.7Zm15.2,0c0-4.9-.1-10.4-4.9-10.4s-4.9,5.6-4.9,10.4.2,10.5,5.1,10.5c4.6.1,4.7-5.7,4.7-10.5Z"/><polygon class="cls-2" points="265.4 45.4 265.4 50.3 263.2 50.3 263.2 52.7 261 52.7 261 55.1 258.8 55.1 258.8 57.5 256.6 57.5 256.6 59.9 254.2 59.9 254.2 57.5 252.1 57.5 252.1 55.1 249.9 55.1 249.9 52.7 247.7 52.7 247.7 50.3 245.5 50.3 245.5 45.4 247.7 45.4 247.7 43 254.2 43 254.2 45.4 256.6 45.4 256.6 43 263.2 43 263.2 45.4 265.4 45.4"/><polygon class="cls-1" points="262.6 47 262.6 48.6 259.5 48.6 259.5 45.4 261.1 45.4 261.1 47 262.6 47"/><path d="M149.1,54.3c0,2-1.9,3.5-4.5,3.5s-4.6-1.5-4.7-3.8v-.1h1.9V54c.2,1.8,1.6,2.2,2.8,2.2s2.7-.5,2.7-1.8c0-.9-.5-1.4-1.7-1.8l-2.3-.6c-2-.6-3-1.7-3-3.5s1.8-3.3,4.2-3.3c2.6,0,4.2,1.3,4.4,3.6V49h-1.8v-.1c-.1-1.3-1-1.9-2.5-1.9s-2.3.6-2.3,1.6.4,1.4,1.8,1.8l1.9.5a5.57,5.57,0,0,1,2.2,1A3.53,3.53,0,0,1,149.1,54.3Z"/><polygon points="158.8 45.4 158.8 47.2 155.2 47.2 155.2 57.5 153.3 57.5 153.3 47.2 149.8 47.2 149.8 45.4 158.8 45.4"/><polygon points="172.9 47.2 172.9 50.5 178 50.5 178 52.2 172.9 52.2 172.9 57.5 170.9 57.5 170.9 45.4 178.4 45.4 178.4 47.2 172.9 47.2"/><polygon points="189 45.4 189 47.2 185.5 47.2 185.5 57.5 183.6 57.5 183.6 47.2 180 47.2 180 45.4 189 45.4"/><polygon points="192.5 47.2 192.5 50.5 197.9 50.5 197.9 52.2 192.5 52.2 192.5 55.8 198.7 55.8 198.7 57.5 190.6 57.5 190.6 45.4 198.7 45.4 198.7 47.2 192.5 47.2"/><polygon points="207.9 55.8 207.9 57.5 200.7 57.5 200.7 45.4 202.6 45.4 202.6 55.8 207.9 55.8"/><path d="M218.1,54.3c0,2-1.9,3.5-4.5,3.5s-4.6-1.5-4.7-3.8v-.1h1.9V54c.2,1.8,1.6,2.2,2.8,2.2s2.7-.5,2.7-1.8c0-.9-.5-1.4-1.7-1.8l-2.3-.6c-2-.6-2.9-1.7-2.9-3.5s1.8-3.3,4.2-3.3c2.6,0,4.2,1.3,4.4,3.6v.1h-2v-.1c-.1-1.3-.9-1.9-2.5-1.9s-2.3.6-2.3,1.6.4,1.4,1.8,1.8l1.9.5C216.5,51.2,218.1,51.9,218.1,54.3Z"/><polygon points="222.3 47.2 222.3 50.5 227.7 50.5 227.7 52.2 222.3 52.2 222.3 55.8 228.5 55.8 228.5 57.5 220.4 57.5 220.4 45.4 228.5 45.4 228.5 47.2 222.3 47.2"/><polygon points="240 45.4 240 57.5 237.5 57.5 232.9 48.2 232.7 47.9 232.7 57.5 230.9 57.5 230.9 45.4 233.4 45.4 238.2 55 238.2 45.4 240 45.4"/><polygon points="165.7 47.2 165.7 55.9 168.8 55.9 168.8 57.6 160.7 57.6 160.7 55.9 163.8 55.9 163.8 47.2 160.7 47.2 160.7 45.4 168.8 45.4 168.8 47.2 165.7 47.2"/><polygon points="74.9 45.4 74.9 57.5 72.3 57.5 67.8 48.2 67.6 47.9 67.6 57.5 65.7 57.5 65.7 45.4 68.3 45.4 73 55 73 45.4 74.9 45.4"/><polygon points="85.6 45.4 85.6 47.2 82 47.2 82 57.5 80.1 57.5 80.1 47.2 76.6 47.2 76.6 45.4 85.6 45.4"/><polygon points="89.2 47.2 89.2 50.5 94.6 50.5 94.6 52.2 89.2 52.2 89.2 55.8 95.4 55.8 95.4 57.5 87.3 57.5 87.3 45.4 95.4 45.4 95.4 47.2 89.2 47.2"/><path d="M103.2,52.4h0a2.62,2.62,0,0,0,1.8-.9,3.25,3.25,0,0,0,.9-2.6,3.22,3.22,0,0,0-1-2.6,3.86,3.86,0,0,0-2.9-.9H97.5V57.5h1.9v-5h1.8l2.8,5h2.2Zm-3.7-1.6V47.1h3.3a1.14,1.14,0,0,1,1.3.9v1.5A1.13,1.13,0,0,1,103,50.7h0C102.9,50.8,99.5,50.8,99.5,50.8Z"/><polygon points="117.6 45.4 117.6 57.5 115 57.5 110.4 48.2 110.3 47.9 110.3 57.5 108.4 57.5 108.4 45.4 110.9 45.4 115.7 55 115.7 45.4 117.6 45.4"/><polygon points="122.1 47.2 122.1 50.5 127.5 50.5 127.5 52.2 122.1 52.2 122.1 55.8 128.3 55.8 128.3 57.5 120.2 57.5 120.2 45.4 128.3 45.4 128.3 47.2 122.1 47.2"/><polygon points="139.1 45.4 139.1 47.2 135.6 47.2 135.6 57.5 133.6 57.5 133.6 47.2 130.1 47.2 130.1 45.4 139.1 45.4"/><polygon points="60.3 47.2 60.3 55.8 63.4 55.8 63.4 57.5 55.3 57.5 55.3 55.8 58.4 55.8 58.4 47.2 55.3 47.2 55.3 45.4 63.4 45.4 63.4 47.2 60.3 47.2"/></g></g></svg>
