<?xml version="1.0" encoding="utf-8"?>
<!-- Generator: Adobe Illustrator 23.0.1, SVG Export Plug-In . SVG Version: 6.00 Build 0)  -->
<svg version="1.1" id="Layer_1" xmlns="http://www.w3.org/2000/svg" xmlns:xlink="http://www.w3.org/1999/xlink" x="0px" y="0px"
	 viewBox="0 0 324.5 70" style="enable-background:new 0 0 324.5 70;" xml:space="preserve">
<style type="text/css">
	.st0{fill:none;}
	.st1{fill:#FECD2E;}
	.st2{fill:#FF4069;}
</style>
<title>goto10</title>
<g>
	<rect y="5" class="st0" width="324.5" height="59.9"/>
</g>
<g id="Lager_1">
	<g>
		<circle class="st1" cx="92.1" cy="23" r="23"/>
		<circle class="st1" cx="184.3" cy="23" r="23"/>
		<circle class="st1" cx="276.5" cy="23" r="23"/>
		<polygon class="st1" points="115.2,0 115.2,23 126.7,23 126.7,46.1 149.8,46.1 149.8,23 161.3,23 161.3,0 		"/>
		<polygon class="st1" points="230.4,0 221.8,0 221.8,23 230.4,23 230.4,46.1 253.5,46.1 253.5,0 		"/>
		<path class="st1" d="M46,0C33.3,0,23,10.3,23,23s10.3,23,23,23s23-10.3,23-23H46V0z"/>
		<g>
			<path class="st2" d="M159.8,60.4v-1.6h-4.4v1.6h-1.6v-1.6h-4.3v1.6h-1.5v3.2h1.5v1.6h1.4v1.6h1.5v1.6h1.4V70h1.6v-1.6h1.4v-1.6
				h1.5v-1.6h1.4v-1.6h1.5v-3.2H159.8z M159.4,62.5h-2v-2.1h1v1.1h1V62.5z"/>
			<path d="M85,66.2c0,1.4-1.3,2.3-3,2.3c-1.8,0-3-1-3.1-2.5v-0.1h1.3V66c0.1,1.2,1.1,1.4,1.9,1.4s1.8-0.3,1.8-1.2
				c0-0.6-0.3-0.9-1.1-1.2l-1.5-0.4c-1.3-0.4-2-1.1-2-2.3c0-1.3,1.2-2.2,2.8-2.2c1.7,0,2.8,0.9,2.9,2.4v0.1h-1.3v-0.1
				c-0.1-0.8-0.6-1.3-1.7-1.3c-0.9,0-1.5,0.4-1.5,1c0,0.6,0.3,0.9,1.2,1.2l1.3,0.4c0.5,0.1,1.1,0.4,1.5,0.7
				C84.8,65,85.1,65.6,85,66.2z"/>
			<polygon points="91.4,60.4 91.4,61.5 89.1,61.5 89.1,68.4 87.8,68.4 87.8,61.5 85.5,61.5 85.5,60.4 			"/>
			<polygon points="100.8,61.5 100.8,63.7 104.2,63.7 104.2,64.9 100.8,64.9 100.8,68.4 99.5,68.4 99.5,60.4 104.5,60.4 104.5,61.5 
							"/>
			<polygon points="111.5,60.4 111.5,61.5 109.2,61.5 109.2,68.4 107.9,68.4 107.9,61.5 105.5,61.5 105.5,60.4 			"/>
			<polygon points="113.8,61.5 113.8,63.7 117.4,63.7 117.4,64.9 113.8,64.9 113.8,67.3 117.9,67.3 117.9,68.4 112.5,68.4 
				112.5,60.4 117.9,60.4 117.9,61.5 			"/>
			<polygon points="124,67.3 124,68.4 119.2,68.4 119.2,60.4 120.5,60.4 120.5,67.3 			"/>
			<path d="M130.5,66.2c0,1.4-1.3,2.3-3,2.3c-1.8,0-3-1-3.1-2.5v-0.1h1.3V66c0.1,1.2,1.1,1.4,1.9,1.4c0.8,0,1.8-0.3,1.8-1.2
				c0-0.6-0.3-0.9-1.1-1.2l-1.5-0.4c-1.3-0.4-2-1.1-2-2.3c0-1.3,1.2-2.2,2.8-2.2c1.7,0,2.8,0.9,2.9,2.4v0.1h-1.3v-0.1
				c-0.1-0.8-0.6-1.3-1.7-1.3c-0.9,0-1.5,0.4-1.5,1c0,0.6,0.3,0.9,1.2,1.2l1.2,0.4C129.4,64.2,130.5,64.7,130.5,66.2z"/>
			<polygon points="133,61.5 133,63.7 136.6,63.7 136.6,64.9 133,64.9 133,67.3 137.1,67.3 137.1,68.4 131.8,68.4 131.8,60.4 
				137.1,60.4 137.1,61.5 			"/>
			<polygon points="144.5,60.4 144.5,68.4 142.8,68.4 139.8,62.3 139.6,62 139.6,68.4 138.4,68.4 138.4,60.4 140.1,60.4 143.2,66.7 
				143.2,60.4 			"/>
			<polygon points="96,61.5 96,67.3 98.1,67.3 98.1,68.4 92.7,68.4 92.7,67.3 94.8,67.3 94.8,61.5 92.7,61.5 92.7,60.4 98.1,60.4 
				98.1,61.5 			"/>
			<polygon points="36.1,60.4 36.1,68.4 34.4,68.4 31.4,62.3 31.3,62 31.3,68.4 30,68.4 30,60.4 31.7,60.4 34.9,66.7 34.9,60.4 			
				"/>
			<polygon points="43.2,60.4 43.2,61.5 40.8,61.5 40.8,68.4 39.6,68.4 39.6,61.5 37.2,61.5 37.2,60.4 			"/>
			<polygon points="45.6,61.5 45.6,63.7 49.1,63.7 49.1,64.9 45.6,64.9 45.6,67.2 49.7,67.2 49.7,68.4 44.3,68.4 44.3,60.4 
				49.7,60.4 49.7,61.5 			"/>
			<path d="M54.9,65L54.9,65c0.5-0.1,0.9-0.3,1.2-0.6c0.4-0.5,0.6-1.1,0.6-1.7c0-0.8-0.2-1.4-0.6-1.8c-0.4-0.4-1.1-0.6-1.9-0.6h-3v8
				h1.3v-3.3h1.2v0l1.8,3.3h1.4L54.9,65z M52.4,64v-2.5h2.2c0.4,0,0.8,0.2,0.8,0.6c0,0,0,0.1,0,0.1v0.9c0,0.4-0.3,0.8-0.7,0.8H52.4z
				"/>
			<polygon points="64.4,60.4 64.4,68.4 62.7,68.4 59.7,62.3 59.5,62 59.5,68.4 58.3,68.4 58.3,60.4 60,60.4 63.2,66.7 63.2,60.4 
							"/>
			<polygon points="67.2,61.5 67.2,63.7 70.7,63.7 70.7,64.9 67.2,64.9 67.2,67.2 71.3,67.2 71.3,68.4 65.9,68.4 65.9,60.4 
				71.3,60.4 71.3,61.5 			"/>
			<polygon points="78.4,60.4 78.4,61.5 76.1,61.5 76.1,68.4 74.8,68.4 74.8,61.5 72.4,61.5 72.4,60.4 			"/>
			<polygon points="26.4,61.5 26.4,67.2 28.5,67.2 28.5,68.4 23.1,68.4 23.1,67.2 25.2,67.2 25.2,61.5 23.1,61.5 23.1,60.4 
				28.5,60.4 28.5,61.5 			"/>
		</g>
	</g>
</g>
</svg>
