<?xml version="1.0" encoding="utf-8"?>
<!-- Generator: Adobe Illustrator 23.0.1, SVG Export Plug-In . SVG Version: 6.00 Build 0)  -->
<svg version="1.1" xmlns="http://www.w3.org/2000/svg" xmlns:xlink="http://www.w3.org/1999/xlink" x="0px" y="0px"
	 viewBox="0 0 324.5 62" style="enable-background:new 0 0 324.5 62;" xml:space="preserve">
<style type="text/css">
	.st0{fill:#FF4069;}
	.st1{fill:none;}
</style>
<g id="Lager_1">
	<title>goto10</title>
	<g>
		<circle cx="109.1" cy="17.7" r="17.7"/>
		<circle cx="180" cy="17.7" r="17.7"/>
		<circle cx="250.9" cy="17.7" r="17.7"/>
		<polygon points="126.9,0 126.9,17.7 135.7,17.7 135.7,35.4 153.4,35.4 153.4,17.7 162.2,17.7 162.2,0 		"/>
		<polygon points="215.4,0 208.7,0 208.7,17.7 215.4,17.7 215.4,35.4 233.1,35.4 233.1,0 		"/>
		<path d="M73.7,0C63.9,0,56,8,56,17.7s8,17.7,17.7,17.7s17.7-8,17.7-17.7H73.7V0z"/>
		<g>
			<path class="st0" d="M266.3,47.1v-2.5h-6.7v2.5h-2.4v-2.5h-6.7v2.5h-2.3v5h2.3v2.5h2.3V57h2.3v2.5h2.3V62h2.4v-2.5h2.3V57h2.3
				v-2.5h2.3v-2.5h2.3v-5H266.3z M265.7,50.4h-3.1v-3.3h1.6v1.7h1.5V50.4z"/>
			<path d="M151.3,56.1c0,2.1-2,3.6-4.6,3.6c-2.8,0-4.7-1.4-4.9-3.9v-0.1h2v0.1c0.2,1.8,1.7,2.2,2.9,2.2c1.2,0,2.7-0.5,2.7-1.9
				c0-0.9-0.5-1.4-1.8-1.9l-2.4-0.6c-2.1-0.6-3-1.7-3-3.5c0-2,1.8-3.3,4.2-3.3c2.7,0,4.2,1.3,4.4,3.7v0.1h-2v-0.1
				c-0.1-1.3-0.9-2-2.6-2c-1.4,0-2.4,0.6-2.4,1.6c0,0.9,0.4,1.4,1.9,1.9l2,0.5c0.8,0.2,1.7,0.5,2.3,1
				C151,54.2,151.4,55.2,151.3,56.1z"/>
			<polygon points="161.1,47.1 161.1,48.9 157.6,48.9 157.6,59.4 155.6,59.4 155.6,48.9 152,48.9 152,47.1 			"/>
			<polygon points="175.6,48.9 175.6,52.3 180.8,52.3 180.8,54 175.6,54 175.6,59.4 173.6,59.4 173.6,47.1 181.2,47.1 181.2,48.9 
							"/>
			<polygon points="192,47.1 192,48.9 188.4,48.9 188.4,59.4 186.4,59.4 186.4,48.9 182.9,48.9 182.9,47.1 			"/>
			<polygon points="195.6,48.9 195.6,52.3 201.1,52.3 201.1,54 195.6,54 195.6,57.7 201.9,57.7 201.9,59.4 193.6,59.4 193.6,47.1 
				201.9,47.1 201.9,48.9 			"/>
			<polygon points="211.3,57.7 211.3,59.4 203.9,59.4 203.9,47.1 205.8,47.1 205.8,57.7 			"/>
			<path d="M221.2,56.1c0,2.1-2,3.6-4.7,3.6c-2.8,0-4.6-1.4-4.9-3.9v-0.1h2v0.1c0.2,1.8,1.7,2.2,2.9,2.2c1.2,0,2.7-0.5,2.7-1.9
				c0-0.9-0.5-1.4-1.8-1.9l-2.4-0.6c-2.1-0.6-3-1.7-3-3.5c0-2,1.8-3.3,4.2-3.3c2.7,0,4.2,1.3,4.4,3.7v0.1h-2v-0.1
				c-0.1-1.3-0.9-2-2.6-2c-1.4,0-2.4,0.6-2.4,1.6c0,0.9,0.4,1.4,1.9,1.9l1.9,0.5C219.6,53,221.2,53.7,221.2,56.1z"/>
			<polygon points="225.2,48.9 225.2,52.3 230.6,52.3 230.6,54 225.2,54 225.2,57.7 231.5,57.7 231.5,59.4 223.2,59.4 223.2,47.1 
				231.5,47.1 231.5,48.9 			"/>
			<polygon points="242.7,47.1 242.7,59.4 240.1,59.4 235.5,50 235.3,49.6 235.3,59.4 233.4,59.4 233.4,47.1 236,47.1 240.9,56.8 
				240.9,47.1 			"/>
			<polygon points="168.2,48.9 168.2,57.7 171.3,57.7 171.3,59.4 163.2,59.4 163.2,57.7 166.3,57.7 166.3,48.9 163.2,48.9 
				163.2,47.1 171.3,47.1 171.3,48.9 			"/>
			<polygon points="76,47.1 76,59.4 73.5,59.4 68.8,50 68.6,49.6 68.6,59.4 66.7,59.4 66.7,47.1 69.3,47.1 74.2,56.8 74.2,47.1 			
				"/>
			<polygon points="86.9,47.1 86.9,48.9 83.3,48.9 83.3,59.4 81.4,59.4 81.4,48.9 77.8,48.9 77.8,47.1 			"/>
			<polygon points="90.6,48.9 90.6,52.3 96.1,52.3 96.1,54 90.6,54 90.6,57.7 96.9,57.7 96.9,59.4 88.7,59.4 88.7,47.1 96.9,47.1 
				96.9,48.9 			"/>
			<path d="M105,54.2h0.1c0.6-0.1,1.2-0.4,1.8-0.9c0.6-0.7,1-1.7,0.9-2.7c0-1.2-0.3-2.1-0.9-2.7c-0.6-0.6-1.7-0.9-3-0.9h-4.6v12.3h2
				v-5.1h1.8l0,0l2.8,5.1h2.3L105,54.2z M101.1,52.6v-3.7h3.4c0.6-0.1,1.1,0.4,1.2,1c0,0.1,0,0.1,0,0.2v1.3c0,0.6-0.4,1.2-1.1,1.2
				h-3.5V52.6z"/>
			<polygon points="119.5,47.1 119.5,59.4 117,59.4 112.3,50 112.1,49.6 112.1,59.4 110.2,59.4 110.2,47.1 112.8,47.1 117.7,56.8 
				117.7,47.1 			"/>
			<polygon points="123.8,48.9 123.8,52.3 129.4,52.3 129.4,54 123.8,54 123.8,57.7 130.1,57.7 130.1,59.4 121.9,59.4 121.9,47.1 
				130.1,47.1 130.1,48.9 			"/>
			<polygon points="141,47.1 141,48.9 137.5,48.9 137.5,59.4 135.6,59.4 135.6,48.9 131.9,48.9 131.9,47.1 			"/>
			<polygon points="61.2,48.9 61.2,57.7 64.4,57.7 64.4,59.4 56.1,59.4 56.1,57.7 59.2,57.7 59.2,48.9 56.1,48.9 56.1,47.1 
				64.4,47.1 64.4,48.9 			"/>
		</g>
	</g>
</g>
<g id="Layer_2">
	<rect y="-0.5" class="st1" width="324.5" height="61.6"/>
</g>
</svg>
