<?xml version="1.0" encoding="utf-8"?>
<!-- Generator: Adobe Illustrator 23.0.3, SVG Export Plug-In . SVG Version: 6.00 Build 0)  -->
<svg version="1.1" id="Layer_1" xmlns="http://www.w3.org/2000/svg" xmlns:xlink="http://www.w3.org/1999/xlink" x="0px" y="0px"
	 viewBox="0 0 324 60" style="enable-background:new 0 0 324 60;" xml:space="preserve" width="324px" height="60px">
<style type="text/css">
	.st0{fill:#FF4069;}
	.st1{fill:none;}
</style>
<g id="Lager_1">
	<title>goto10</title>
	<g>
		<ellipse cx="110.4" cy="17.1" rx="17.1" ry="17.1"/>
		<ellipse cx="178.9" cy="17.1" rx="17.1" ry="17.1"/>
		<ellipse cx="247.5" cy="17.1" rx="17.1" ry="17.1"/>
		<polygon points="127.6,0 127.6,17.1 136.1,17.1 136.1,34.3 153.2,34.3 153.2,17.1 161.7,17.1 161.7,0 		"/>
		<polygon points="213.2,0 206.7,0 206.7,17.1 213.2,17.1 213.2,34.3 230.3,34.3 230.3,0 		"/>
		<path d="M76.1,0C66.6,0,59,7.7,59,17.1s7.7,17.1,17.1,17.1s17.1-7.7,17.1-17.1H76.1V0z"/>
		<g>
			<path class="st0" d="M262.4,45.6v-2.4h-6.5v2.4h-2.3v-2.4h-6.5v2.4h-2.2v4.8h2.2v2.4h2.2v2.3h2.2v2.4h2.2V60h2.3v-2.4h2.2v-2.4
				h2.2v-2.4h2.2v-2.4h2.2v-4.8L262.4,45.6L262.4,45.6z M261.8,48.8h-3v-3.2h1.5v1.6h1.5V48.8z"/>
			<path d="M151.2,54.3c0,2-1.9,3.5-4.4,3.5c-2.7,0-4.5-1.4-4.7-3.8v-0.1h1.9V54c0.2,1.7,1.6,2.1,2.8,2.1c1.2,0,2.6-0.5,2.6-1.8
				c0-0.9-0.5-1.4-1.7-1.8l-2.3-0.6c-2-0.6-2.9-1.6-2.9-3.4c0-1.9,1.7-3.2,4.1-3.2c2.6,0,4.1,1.3,4.3,3.6V49h-1.9v-0.1
				c-0.1-1.3-0.9-1.9-2.5-1.9c-1.4,0-2.3,0.6-2.3,1.5c0,0.9,0.4,1.4,1.8,1.8l1.9,0.5c0.8,0.2,1.6,0.5,2.2,1
				C150.9,52.5,151.3,53.4,151.2,54.3z"/>
			<polygon points="160.6,45.6 160.6,47.3 157.3,47.3 157.3,57.5 155.3,57.5 155.3,47.3 151.8,47.3 151.8,45.6 			"/>
			<polygon points="174.7,47.3 174.7,50.6 179.7,50.6 179.7,52.3 174.7,52.3 174.7,57.5 172.7,57.5 172.7,45.6 180.1,45.6
				180.1,47.3 			"/>
			<polygon points="190.5,45.6 190.5,47.3 187,47.3 187,57.5 185.1,57.5 185.1,47.3 181.7,47.3 181.7,45.6 			"/>
			<polygon points="194,47.3 194,50.6 199.3,50.6 199.3,52.3 194,52.3 194,55.8 200.1,55.8 200.1,57.5 192.1,57.5 192.1,45.6
				200.1,45.6 200.1,47.3 			"/>
			<polygon points="209.2,55.8 209.2,57.5 202,57.5 202,45.6 203.9,45.6 203.9,55.8 			"/>
			<path d="M218.8,54.3c0,2-1.9,3.5-4.5,3.5c-2.7,0-4.4-1.4-4.7-3.8v-0.1h1.9V54c0.2,1.7,1.6,2.1,2.8,2.1c1.2,0,2.6-0.5,2.6-1.8
				c0-0.9-0.5-1.4-1.7-1.8l-2.3-0.6c-2-0.6-2.9-1.6-2.9-3.4c0-1.9,1.7-3.2,4.1-3.2c2.6,0,4.1,1.3,4.3,3.6V49h-1.9v-0.1
				c-0.1-1.3-0.9-1.9-2.5-1.9c-1.4,0-2.3,0.6-2.3,1.5c0,0.9,0.4,1.4,1.8,1.8l1.8,0.5C217.2,51.3,218.8,52,218.8,54.3z"/>
			<polygon points="222.6,47.3 222.6,50.6 227.9,50.6 227.9,52.3 222.6,52.3 222.6,55.8 228.7,55.8 228.7,57.5 220.7,57.5
				220.7,45.6 228.7,45.6 228.7,47.3 			"/>
			<polygon points="239.6,45.6 239.6,57.5 237,57.5 232.6,48.4 232.4,48 232.4,57.5 230.6,57.5 230.6,45.6 233.1,45.6 237.8,55
				237.8,45.6 			"/>
			<polygon points="167.5,47.3 167.5,55.8 170.5,55.8 170.5,57.5 162.7,57.5 162.7,55.8 165.7,55.8 165.7,47.3 162.7,47.3
				162.7,45.6 170.5,45.6 170.5,47.3 			"/>
			<polygon points="78.3,45.6 78.3,57.5 75.9,57.5 71.4,48.4 71.2,48 71.2,57.5 69.3,57.5 69.3,45.6 71.9,45.6 76.6,55 76.6,45.6
							"/>
			<polygon points="88.9,45.6 88.9,47.3 85.4,47.3 85.4,57.5 83.6,57.5 83.6,47.3 80.1,47.3 80.1,45.6 			"/>
			<polygon points="92.5,47.3 92.5,50.6 97.8,50.6 97.8,52.3 92.5,52.3 92.5,55.8 98.6,55.8 98.6,57.5 90.6,57.5 90.6,45.6
				98.6,45.6 98.6,47.3 			"/>
			<path d="M106.4,52.5L106.4,52.5c0.7-0.1,1.3-0.4,1.8-0.9c0.6-0.7,1-1.6,0.9-2.6c0-1.2-0.3-2-0.9-2.6c-0.6-0.6-1.6-0.9-2.9-0.9
				h-4.4v11.9h1.9v-4.9h1.7l0,0l2.7,4.9h2.2L106.4,52.5z M102.6,50.9v-3.6h3.3c0.6-0.1,1.1,0.4,1.2,1c0,0.1,0,0.1,0,0.2v1.3
				c0,0.6-0.4,1.2-1.1,1.2H102.6L102.6,50.9z"/>
			<polygon points="120.4,45.6 120.4,57.5 118,57.5 113.4,48.4 113.3,48 113.3,57.5 111.4,57.5 111.4,45.6 113.9,45.6 118.7,55
				118.7,45.6 			"/>
			<polygon points="124.6,47.3 124.6,50.6 130,50.6 130,52.3 124.6,52.3 124.6,55.8 130.7,55.8 130.7,57.5 122.7,57.5 122.7,45.6
				130.7,45.6 130.7,47.3 			"/>
			<polygon points="141.2,45.6 141.2,47.3 137.8,47.3 137.8,57.5 136,57.5 136,47.3 132.4,47.3 132.4,45.6 			"/>
			<polygon points="64,47.3 64,55.8 67.1,55.8 67.1,57.5 59.1,57.5 59.1,55.8 62.1,55.8 62.1,47.3 59.1,47.3 59.1,45.6 67.1,45.6
				67.1,47.3 			"/>
		</g>
	</g>
</g>
<g>
	<rect class="st1" width="324" height="60"/>
</g>
</svg>
