<svg xmlns="http://www.w3.org/2000/svg" viewBox="0 0 324.5 59.9" width="324.5px" height="59.9px" xml:space="preserve"><defs><style>.cls-1{fill:transparent}.cls-2{fill:#ff4069;}</style></defs><title>goto10</title><g id="Layer_2" data-name="Layer 2"><rect class="cls-1" width="324.5" height="59.9"/></g><g id="Lager_1" data-name="Lager 1"><path d="M81.53,14.47V30.92H77.2l-.47-4.28c-1.64,2.86-5,4.71-9,4.71C57.72,31.35,53,24,53,15.7S57.63,0,67.69,0A13.83,13.83,0,0,1,81,8.74l-4.84,2a8.36,8.36,0,0,0-8.47-6c-6.44,0-9.21,5.06-9.21,10.7,0,6,2.77,11,9.3,11,4.76,0,8.12-2.63,8.29-7.58h-6.7V14.47Z"/><path d="M84.93,20.11A10.8,10.8,0,0,1,95.39,9H96a10.8,10.8,0,0,1,11,10.6h0v.51c0,6.1-4.38,11.24-11,11.24A10.91,10.91,0,0,1,84.93,20.62,4.34,4.34,0,0,1,84.93,20.11Zm16.58,0c0-3.53-1.58-6.61-5.56-6.61s-5.55,3.08-5.55,6.61S92,26.83,96,26.83,101.51,23.64,101.51,20.11Z"/><path d="M111.29,25V13.8h-3.47V9.41h3.55V4.07L116.54.32V9.41h5.38V13.8h-5.38V24c0,2.07,1,2.67,2.39,2.67a7.29,7.29,0,0,0,3-.77v4.8a12.15,12.15,0,0,1-3.92.64C113.81,31.35,111.29,28.9,111.29,25Z"/><path d="M124.62,20.11a11,11,0,0,1,22,0c0,6.1-4.37,11.24-11,11.24S124.62,26.21,124.62,20.11Zm16.58,0c0-3.53-1.58-6.61-5.56-6.61s-5.55,3.08-5.55,6.61,1.59,6.72,5.55,6.72S141.2,23.64,141.2,20.11Z"/><path d="M165.59.5V30.92h-5.38V9.41H153.1V5.25h4.07c2.07,0,3.25-.88,3.25-2.9V.5Z"/><path d="M170.94,15.7c0-6.48,1-15.7,10.27-15.7,8.38,0,10.53,8.16,10.53,15.74s-2.07,15.61-10.23,15.61C172.08,31.35,170.94,22.14,170.94,15.7Zm15.16,0c0-4.89-.13-10.41-4.89-10.41s-4.91,5.56-4.91,10.45.15,10.51,5.08,10.51c4.62,0,4.72-5.81,4.72-10.59Z"/><polygon class="cls-2" points="263.38 45.41 263.38 50.26 261.19 50.26 261.19 52.67 259 52.67 259 55.09 256.81 55.09 256.81 57.51 254.62 57.51 254.62 59.92 252.25 59.92 252.25 57.51 250.06 57.51 250.06 55.09 247.87 55.09 247.87 52.67 245.68 52.67 245.68 50.26 243.49 50.26 243.49 45.41 245.68 45.41 245.68 43 252.25 43 252.25 45.41 254.62 45.41 254.62 43 261.19 43 261.19 45.41 263.38 45.41"/><polygon class="cls-1" points="260.56 47.04 260.56 48.62 257.52 48.62 257.52 45.41 259.07 45.41 259.07 47.04 260.56 47.04"/><path d="M147.08,54.25c0,2-1.9,3.52-4.53,3.52S138,56.3,137.81,54v-.14h1.9V54c.19,1.77,1.62,2.15,2.79,2.15s2.67-.46,2.67-1.79c0-.92-.51-1.43-1.71-1.78L141.15,52c-2-.56-3-1.65-3-3.45s1.76-3.26,4.18-3.26c2.59,0,4.19,1.32,4.39,3.61V49h-1.84v-.12c-.12-1.27-.95-1.92-2.49-1.92s-2.31.6-2.31,1.56.44,1.42,1.81,1.8l1.89.52a6,6,0,0,1,2.22,1A3,3,0,0,1,147.08,54.25Z"/><polygon points="156.75 45.42 156.75 47.14 153.21 47.14 153.21 57.51 151.31 57.51 151.31 47.14 147.78 47.14 147.78 45.42 156.75 45.42"/><polygon points="170.85 47.14 170.85 50.48 176.04 50.48 176.04 52.21 170.85 52.21 170.85 57.51 168.94 57.51 168.94 45.42 176.45 45.42 176.45 47.14 170.85 47.14"/><polygon points="187.01 45.42 187.01 47.14 183.48 47.14 183.48 57.51 181.57 57.51 181.57 47.14 178.04 47.14 178.04 45.42 187.01 45.42"/><polygon points="190.51 47.14 190.51 50.48 195.91 50.48 195.91 52.21 190.51 52.21 190.51 55.78 196.72 55.78 196.72 57.51 188.61 57.51 188.61 45.42 196.72 45.42 196.72 47.14 190.51 47.14"/><polygon points="205.94 55.78 205.94 57.51 198.67 57.51 198.67 45.42 200.58 45.42 200.58 55.78 205.94 55.78"/><path d="M216.14,54.25c0,2-1.91,3.52-4.53,3.52s-4.55-1.47-4.74-3.82v-.14h1.9v.11c.2,1.77,1.63,2.15,2.8,2.15s2.66-.46,2.66-1.79c0-.92-.49-1.43-1.7-1.78l-2.32-.64c-2-.56-2.94-1.65-2.94-3.45s1.76-3.26,4.18-3.26c2.6,0,4.2,1.32,4.39,3.61v.13H214v-.12c-.11-1.27-.95-1.92-2.49-1.92s-2.31.6-2.31,1.56.44,1.42,1.81,1.8l1.89.52C214.48,51.17,216.14,51.93,216.14,54.25Z"/><polygon points="220.28 47.14 220.28 50.48 225.68 50.48 225.68 52.21 220.28 52.21 220.28 55.78 226.48 55.78 226.48 57.51 218.37 57.51 218.37 45.42 226.48 45.42 226.48 47.14 220.28 47.14"/><polygon points="238.01 45.42 238.01 57.51 235.47 57.51 230.88 48.24 230.71 47.89 230.71 57.51 228.86 57.51 228.86 45.42 231.39 45.42 236.16 54.98 236.16 45.42 238.01 45.42"/><polygon points="163.69 47.14 163.69 55.86 166.75 55.86 166.75 57.6 158.69 57.6 158.69 55.86 161.79 55.86 161.79 47.14 158.69 47.14 158.69 45.42 166.75 45.42 166.75 47.14 163.69 47.14"/><polygon points="72.89 45.42 72.89 57.51 70.34 57.51 65.77 48.24 65.59 47.88 65.59 57.51 63.74 57.51 63.74 45.42 66.28 45.42 71.03 54.98 71.03 45.42 72.89 45.42"/><polygon points="83.56 45.42 83.56 47.14 80.02 47.14 80.02 57.51 78.11 57.51 78.11 47.14 74.58 47.14 74.58 45.42 83.56 45.42"/><polygon points="87.16 47.14 87.16 50.47 92.56 50.47 92.56 52.21 87.16 52.21 87.16 55.77 93.36 55.77 93.36 57.51 85.26 57.51 85.26 45.42 93.36 45.42 93.36 47.14 87.16 47.14"/><path d="M101.23,52.43h.13a3.07,3.07,0,0,0,1.72-.88,3.48,3.48,0,0,0,.92-2.62,3.4,3.4,0,0,0-1-2.63,4.17,4.17,0,0,0-2.91-.88H95.55V57.51h1.91v-5h1.75l2.75,5h2.18Zm-3.77-1.59v-3.7h3.28a1.11,1.11,0,0,1,1.25,1h0v1.52a1.15,1.15,0,0,1-1.08,1.23H97.46Z"/><polygon points="115.55 45.42 115.55 57.51 113.01 57.51 108.43 48.24 108.26 47.88 108.26 57.51 106.4 57.51 106.4 45.42 108.94 45.42 113.69 54.98 113.69 45.42 115.55 45.42"/><polygon points="120.14 47.14 120.14 50.48 125.54 50.48 125.54 52.21 120.14 52.21 120.14 55.77 126.33 55.77 126.33 57.51 118.23 57.51 118.23 45.42 126.33 45.42 126.33 47.14 120.14 47.14"/><polygon points="137.07 45.42 137.07 47.14 133.55 47.14 133.55 57.51 131.64 57.51 131.64 47.14 128.1 47.14 128.1 45.42 137.07 45.42"/><polygon points="58.32 47.14 58.32 55.75 61.38 55.75 61.38 57.48 53.32 57.48 53.32 55.75 56.41 55.75 56.41 47.14 53.32 47.14 53.32 45.42 61.38 45.42 61.38 47.14 58.32 47.14"/></g></svg>
