<svg width="100%" height="100%" xmlns="http://www.w3.org/2000/svg" xmlns:xlink="http://www.w3.org/1999/xlink">
<style type="text/css">
	.st0{fill-rule:evenodd;clip-rule:evenodd;fill:#EAEAEA;}
	.st1{fill:#2D2D2C;}
	.st2{fill-rule:evenodd;clip-rule:evenodd;fill:#202A37;}
</style>
<path class="st0" d="M8,0.5L8,0.5c4.1,0,7.5,3.4,7.5,7.5l0,0c0,4.1-3.4,7.5-7.5,7.5l0,0c-4.1,0-7.5-3.4-7.5-7.5
	l0,0C0.5,3.9,3.9,0.5,8,0.5z"/>
<path class="st1" d="M8,16c-4.4,0-8-3.6-8-8s3.6-8,8-8s8,3.6,8,8S12.4,16,8,16z M8,1C4.1,1,1,4.1,1,8s3.1,7,7,7s7-3.1,7-7
	S11.9,1,8,1z"/>
<path class="st2" d="M8,3L8,3c2.8,0,5,2.2,5,5l0,0c0,2.8-2.2,5-5,5l0,0c-2.8,0-5-2.2-5-5l0,0C3,5.2,5.2,3,8,3z"
	/>
</svg>
