<svg width="100%" height="100%" xmlns="http://www.w3.org/2000/svg" xmlns:xlink="http://www.w3.org/1999/xlink">
<style type="text/css">
	.st0{fill:#ffffff;}
	.st1{fill:#2D2D2D;}
	.st2{fill:#1F2A36;}
</style>
<path class="st0" d="M3,15.5c-1.4,0-2.5-1.1-2.5-2.5V3c0-1.4,1.1-2.5,2.5-2.5h10c1.4,0,2.5,1.1,2.5,2.5v10c0,1.4-1.1,2.5-2.5,2.5H3z"/>
<path class="st1" d="M13,1c1.1,0,2,0.9,2,2v10c0,1.1-0.9,2-2,2H3c-1.1,0-2-0.9-2-2V3c0-1.1,0.9-2,2-2H13 M13,0H3C1.3,0,0,1.3,0,3v10c0,1.7,1.3,3,3,3h10c1.7,0,3-1.3,3-3V3C16,1.3,14.7,0,13,0L13,0z"/>
	<polygon class="st2" points="6.9,11.4 2.2,7.4 3.6,5.8 6.7,8.6 11.9,3.3 13.3,4.7 "/>
</svg>
