<?xml version="1.0" encoding="utf-8"?>
<!-- Generator: Adobe Illustrator 23.0.1, SVG Export Plug-In . SVG Version: 6.00 Build 0)  -->
<svg version="1.1" id="Layer_1" xmlns="http://www.w3.org/2000/svg" xmlns:xlink="http://www.w3.org/1999/xlink" x="0px" y="0px"
	 viewBox="0 0 324.5 59.9" style="enable-background:new 0 0 324.5 59.9;" xml:space="preserve" width="324.5px" height="59.9px">
<style type="text/css">
	.st0{fill:none;}
	.st1{fill:#FF4069;}
	.st2{fill:#FFFFFF;}
</style>
<title>internetmuseum</title>
<g>
	<rect class="st0" width="324.5" height="59.9"/>
</g>
<g id="Lager_1">
	<path d="M5.5,0.2H11v30.4H5.5V0.2z"/>
	<path d="M16.5,9.1h5.2v2.5c1.6-1.9,3.9-2.9,6.3-2.9c5.6,0,7.9,4.5,7.9,9v13h-5.2V18.4c0-2.8-1.4-4.9-4.1-4.9c-3,0-4.8,1.6-4.8,5.3
		v11.8h-5.2V9.1z"/>
	<path d="M41.9,24.7V13.5h-3.5V9.1H42V3.8L47.2,0v9.1h5.4v4.4h-5.4v10.2c0,2.1,1,2.7,2.4,2.7c1,0,2.1-0.3,3-0.8v4.8
		C51.3,30.8,50,31,48.7,31C44.5,31,41.9,28.6,41.9,24.7z"/>
	<path d="M55.1,19.9c0-5.6,3.3-11.2,10.6-11.2c7.5,0,10,6,10,10.9c0,0.7,0,1.4-0.2,2.1H60.7c0.5,2.8,2,4.7,5.4,4.7
		c2,0.1,3.9-0.8,5.2-2.3l3.6,3.2c-2.2,2.5-5.5,3.9-8.9,3.8C58.6,31,55.1,25.7,55.1,19.9z M70.5,17.8c0-0.5,0-0.9-0.2-1.4
		c-0.5-2.1-2.5-3.5-4.7-3.4c-3.1,0-4.5,2-5,4.7H70.5z"/>
	<path d="M79.3,9.1h5.1v3.6c0.9-2.4,3.2-4,5.8-4c1.5,0,2.9,0.5,3.9,1.6l-2.4,4.3c-0.7-0.5-1.5-0.7-2.3-0.7c-2.5,0-5,2.3-5,7.8v9.1
		h-5.1L79.3,9.1z"/>
	<path d="M96.6,9.1h5.3v2.5c1.5-1.9,3.9-3,6.3-3c5.6,0,7.9,4.5,7.9,9v13h-5.3V18.4c0-2.8-1.4-4.9-4.1-4.9c-3,0-4.8,1.6-4.8,5.3v11.8
		h-5.3L96.6,9.1z"/>
	<path d="M119.5,19.9c0-5.6,3.3-11.3,10.5-11.3c7.5,0,10,6,10,10.9c0,0.7,0,1.4-0.2,2.1h-14.8c0.5,2.8,2,4.7,5.4,4.7
		c2,0.1,3.9-0.8,5.2-2.3l3.6,3.2c-2.2,2.5-5.5,3.9-8.8,3.8C123,31,119.5,25.7,119.5,19.9z M134.9,17.8c0-0.5,0-0.9-0.2-1.4
		c-0.5-2.1-2.5-3.6-4.7-3.4c-3.1,0-4.5,2-5,4.7H134.9z"/>
	<path d="M145.1,24.7V13.5h-3.5V9.1h3.6V3.8l5.2-3.8v9.1h5.4v4.4h-5.4v10.2c0,2.1,1,2.7,2.4,2.7c1,0,2.1-0.3,3-0.8v4.8
		c-1.3,0.4-2.6,0.6-3.9,0.6C147.6,31,145.1,28.6,145.1,24.7z"/>
	<path d="M160.1,9.1h5.1v2.7c1.2-2,3.4-3.2,5.8-3.1c2.7-0.2,5.2,1.3,6.4,3.8c1.4-2.4,4.1-3.9,6.9-3.8c5.5,0,7.7,4.5,7.7,9v13h-5.2
		V18.4c0-2.7-0.8-4.8-3.5-4.8s-4.5,2.4-4.5,5.3v11.8h-5.3V18.3c0-2.6-0.8-4.7-3.5-4.7c-2.9,0-4.5,2.4-4.5,5.3v11.8h-5.3L160.1,9.1z"
		/>
	<path d="M196.2,22V9.1h5.2v12.3c0,2.8,1.4,4.9,4.1,4.9c3,0,4.8-1.6,4.8-5.3V9.1h5.2v21.5h-5.2v-2.5c-1.6,1.9-3.9,3-6.4,3
		C198.4,31,196.2,26.5,196.2,22z"/>
	<path d="M218.5,25l4.2-1.9c0.6,1.5,1.7,3.5,4.6,3.5c2.4,0,3.5-1.4,3.5-2.6c0-3.6-10.8-1.2-10.8-8.8c0.1-4.5,3.8-6.6,8.1-6.6
		c3.4-0.1,6.5,1.7,8.2,4.7l-4.2,2.2c-0.8-1.7-2.4-2.8-4.3-2.7c-1.7,0-2.7,0.8-2.7,1.9c0,3.3,10.9,1.3,10.9,9.2c0,5-4.3,7.2-8.4,7.2
		C223.5,31.2,219.9,28.8,218.5,25z"/>
	<path d="M238.8,19.9c0-5.6,3.3-11.3,10.6-11.3c7.5,0,10,6,10,10.9c0,0.7,0,1.4-0.2,2.1h-14.8c0.4,2.8,2,4.7,5.4,4.7
		c2,0.1,3.9-0.8,5.2-2.3l3.6,3.2c-2.2,2.5-5.5,3.9-8.8,3.8C242.3,31,238.8,25.7,238.8,19.9z M254.2,17.8c0-0.5,0-0.9-0.2-1.4
		c-0.5-2.1-2.5-3.5-4.7-3.4c-3.1,0-4.4,2-4.9,4.7H254.2z"/>
	<path d="M263.2,22V9.1h5.2v12.3c0,2.8,1.4,4.9,4.1,4.9c3,0,4.8-1.6,4.8-5.3V9.1h5.2v21.5h-5.2v-2.5c-1.6,1.9-3.9,3-6.4,3
		C265.4,31,263.2,26.5,263.2,22z"/>
	<path d="M287.7,9.1h5.1v2.7c1.2-2,3.5-3.2,5.8-3.1c2.7-0.2,5.2,1.3,6.4,3.8c1.4-2.4,4.1-3.9,6.9-3.8c5.5,0,7.7,4.5,7.7,9v13h-5.2
		V18.4c0-2.7-0.8-4.8-3.5-4.8s-4.5,2.4-4.5,5.3v11.8H301V18.3c0-2.6-0.8-4.7-3.5-4.7c-2.9,0-4.5,2.4-4.5,5.3v11.8h-5.2L287.7,9.1z"
		/>
	<polygon class="st1" points="213,45.1 213,49.9 210.8,49.9 210.8,52.3 208.6,52.3 208.6,54.7 206.4,54.7 206.4,57.2 204.2,57.2
		204.2,59.6 201.9,59.6 201.9,57.2 199.7,57.2 199.7,54.7 197.5,54.7 197.5,52.3 195.3,52.3 195.3,49.9 193.1,49.9 193.1,45.1
		195.3,45.1 195.3,42.6 201.9,42.6 201.9,45.1 204.2,45.1 204.2,42.6 210.8,42.6 210.8,45.1 	"/>
	<polygon class="st2" points="210.2,46.7 210.2,48.3 207.1,48.3 207.1,45.1 208.7,45.1 208.7,46.7 	"/>
	<path d="M96.7,53.9c0,2-1.9,3.5-4.5,3.5s-4.6-1.4-4.7-3.8v-0.1h1.9v0.1c0.2,1.8,1.6,2.2,2.8,2.2s2.7-0.5,2.7-1.8
		c0-0.9-0.5-1.4-1.7-1.8l-2.3-0.7c-2-0.6-3-1.7-3-3.4s1.8-3.3,4.2-3.3c2.6,0,4.2,1.3,4.4,3.6v0.1h-1.8v-0.1c-0.1-1.3-1-1.9-2.5-1.9
		s-2.3,0.6-2.3,1.6s0.4,1.4,1.8,1.8l1.9,0.5c0.8,0.2,1.6,0.5,2.3,1C96.4,52,96.8,52.9,96.7,53.9z"/>
	<polygon points="106.4,45.1 106.4,46.8 102.8,46.8 102.8,57.2 100.9,57.2 100.9,46.8 97.4,46.8 97.4,45.1 	"/>
	<polygon points="120.5,46.8 120.5,50.1 125.7,50.1 125.7,51.9 120.5,51.9 120.5,57.2 118.6,57.2 118.6,45.1 126.1,45.1 126.1,46.8
			"/>
	<polygon points="136.6,45.1 136.6,46.8 133.1,46.8 133.1,57.2 131.2,57.2 131.2,46.8 127.7,46.8 127.7,45.1 	"/>
	<polygon points="140.1,46.8 140.1,50.1 145.5,50.1 145.5,51.9 140.1,51.9 140.1,55.4 146.3,55.4 146.3,57.2 138.2,57.2 138.2,45.1
		146.3,45.1 146.3,46.8 	"/>
	<polygon points="155.6,55.4 155.6,57.2 148.3,57.2 148.3,45.1 150.2,45.1 150.2,55.4 	"/>
	<path d="M165.8,53.9c0,2-1.9,3.5-4.5,3.5s-4.6-1.5-4.7-3.8v-0.1h1.9v0.1c0.2,1.8,1.6,2.2,2.8,2.2s2.7-0.5,2.7-1.8
		c0-0.9-0.5-1.4-1.7-1.8l-2.3-0.7c-2-0.6-2.9-1.7-2.9-3.4s1.8-3.3,4.2-3.3c2.6,0,4.2,1.3,4.4,3.6v0.1h-1.9v-0.1
		c-0.1-1.3-1-1.9-2.5-1.9s-2.3,0.6-2.3,1.6s0.4,1.4,1.8,1.8l1.9,0.5C164.1,50.8,165.8,51.6,165.8,53.9z"/>
	<polygon points="169.9,46.8 169.9,50.1 175.3,50.1 175.3,51.9 169.9,51.9 169.9,55.4 176.1,55.4 176.1,57.2 168,57.2 168,45.1
		176.1,45.1 176.1,46.8 	"/>
	<polygon points="187.6,45.1 187.6,57.2 185.1,57.2 180.5,47.9 180.3,47.5 180.3,57.2 178.5,57.2 178.5,45.1 181,45.1 185.8,54.6
		185.8,45.1 	"/>
	<polygon points="113.3,46.8 113.3,55.5 116.4,55.5 116.4,57.2 108.3,57.2 108.3,55.5 111.4,55.5 111.4,46.8 108.3,46.8 108.3,45.1
		116.4,45.1 116.4,46.8 	"/>
	<polygon points="22.5,45.1 22.5,57.2 20,57.2 15.4,47.9 15.2,47.5 15.2,57.2 13.4,57.2 13.4,45.1 15.9,45.1 20.6,54.6 20.6,45.1
		"/>
	<polygon points="33.2,45.1 33.2,46.8 29.6,46.8 29.6,57.2 27.7,57.2 27.7,46.8 24.2,46.8 24.2,45.1 	"/>
	<polygon points="36.8,46.8 36.8,50.1 42.2,50.1 42.2,51.9 36.8,51.9 36.8,55.4 43,55.4 43,57.2 34.9,57.2 34.9,45.1 43,45.1
		43,46.8 	"/>
	<path d="M50.8,52.1H51c0.6-0.1,1.2-0.4,1.7-0.9c0.6-0.7,1-1.6,0.9-2.6c0.1-1-0.3-1.9-0.9-2.6c-0.8-0.7-1.9-1-2.9-0.9h-4.6v12h1.9
		v-5h1.8l0,0l2.8,5h2.2L50.8,52.1z M47.1,50.5v-3.7h3.3c0.6-0.1,1.2,0.4,1.2,1c0,0,0,0,0,0l0,0c0,0.1,0,0.2,0,0.2v1.3
		c0,0.6-0.4,1.2-1.1,1.2c0,0,0,0,0,0h-0.1L47.1,50.5z"/>
	<polygon points="65.2,45.1 65.2,57.2 62.6,57.2 58,47.9 57.9,47.5 57.9,57.2 56,57.2 56,45.1 58.5,45.1 63.3,54.6 63.3,45.1 	"/>
	<polygon points="69.8,46.8 69.8,50.1 75.2,50.1 75.2,51.9 69.8,51.9 69.8,55.4 75.9,55.4 75.9,57.2 67.8,57.2 67.8,45.1 75.9,45.1
		75.9,46.8 	"/>
	<polygon points="86.7,45.1 86.7,46.8 83.2,46.8 83.2,57.2 81.2,57.2 81.2,46.8 77.7,46.8 77.7,45.1 	"/>
	<polygon points="7.9,46.8 7.9,55.4 11,55.4 11,57.1 2.9,57.1 2.9,55.4 6,55.4 6,46.8 2.9,46.8 2.9,45.1 11,45.1 11,46.8 	"/>
</g>
</svg>
