<svg xmlns="http://www.w3.org/2000/svg" viewBox="0 0 324.5 59.9" width="324.5px" height="59.9px" xml:space="preserve"><defs><style>.cls-1{fill:transparent}.cls-2{fill:#ff4069;}</style></defs><title>internetmuseum</title><g id="Layer_2" data-name="Layer 2"><rect class="cls-1" width="324.5" height="59.9"/></g><g id="Lager_1" data-name="Lager 1"><path d="M5.53.48H11V30.91H5.53Z"/><path d="M16.46,9.4h5.25v2.5A8.16,8.16,0,0,1,28,9c5.64,0,7.86,4.54,7.86,9V31H30.63V18.66c0-2.82-1.43-4.87-4.12-4.87-3,0-4.8,1.59-4.8,5.34V30.91H16.46Z"/><path d="M41.93,25V13.79H38.48V9.4H42V4.06L47.2.31V9.4h5.38v4.39H47.2V24c0,2.07,1,2.67,2.39,2.67a7.66,7.66,0,0,0,3-.77v4.75a12.16,12.16,0,0,1-3.92.65C44.46,31.31,41.93,28.89,41.93,25Z"/><path d="M55.14,20.23C55.14,14.63,58.41,9,65.69,9c7.54,0,10,6,10,10.85a9,9,0,0,1-.19,2.07H60.69c.46,2.82,2,4.71,5.39,4.71a6.54,6.54,0,0,0,5.16-2.27l3.62,3.16A11.24,11.24,0,0,1,66,31.31C58.63,31.31,55.14,26,55.14,20.23Zm15.35-2.15a4.79,4.79,0,0,0-.17-1.36,4.43,4.43,0,0,0-4.67-3.36c-3.1,0-4.46,2-5,4.72Z"/><path d="M79.35,9.4h5.12V13a6.13,6.13,0,0,1,5.77-4,5.41,5.41,0,0,1,3.94,1.55l-2.39,4.3a4.15,4.15,0,0,0-2.34-.73c-2.46,0-5,2.28-5,7.75V31h-5.1Z"/><path d="M96.63,9.4h5.3v2.5a8.13,8.13,0,0,1,6.31-3c5.64,0,7.86,4.54,7.86,9v13h-5.26V18.66c0-2.82-1.42-4.87-4.11-4.87-3,0-4.8,1.59-4.8,5.34V30.91h-5.3Z"/><path d="M119.52,20.23c0-5.6,3.27-11.28,10.55-11.28,7.54,0,10,6,10,10.85a9,9,0,0,1-.19,2.07H125.07c.46,2.82,2,4.71,5.39,4.71a6.55,6.55,0,0,0,5.17-2.27l3.61,3.16a11.24,11.24,0,0,1-8.83,3.84C123,31.31,119.52,26,119.52,20.23Zm15.35-2.15a4.79,4.79,0,0,0-.17-1.36,4.43,4.43,0,0,0-4.7-3.36c-3.1,0-4.46,2-5,4.72Z"/><path d="M145.05,25V13.79h-3.47V9.4h3.56V4.06L150.31.31V9.4h5.38v4.39h-5.38V24c0,2.07,1,2.67,2.39,2.67a7.66,7.66,0,0,0,3-.77v4.75a12.16,12.16,0,0,1-3.92.65C147.57,31.31,145.05,28.89,145.05,25Z"/><path d="M160.14,9.4h5.08v2.69A6.31,6.31,0,0,1,171,9a6.5,6.5,0,0,1,6.35,3.79A7.71,7.71,0,0,1,184.28,9c5.47,0,7.71,4.5,7.71,9V31h-5.25V18.66c0-2.65-.8-4.83-3.51-4.83s-4.5,2.39-4.5,5.26V30.91h-5.26V18.57c0-2.6-.8-4.74-3.49-4.74-2.86,0-4.54,2.39-4.54,5.26V30.91h-5.26Z"/><path d="M196.24,22.31V9.4h5.19V21.65c0,2.82,1.42,4.85,4.11,4.85,3,0,4.84-1.6,4.84-5.34V9.4h5.22V30.91h-5.22V28.39a8.14,8.14,0,0,1-6.35,3C198.39,31.31,196.24,26.82,196.24,22.31Z"/><path d="M218.51,25.31l4.17-1.85c.58,1.55,1.73,3.53,4.59,3.53,2.43,0,3.49-1.42,3.49-2.56,0-3.62-10.81-1.19-10.81-8.79C220,11.1,223.78,9,228,9a9,9,0,0,1,8.16,4.67L232,15.84a4.63,4.63,0,0,0-4.26-2.74C226,13.1,225,13.94,225,15c0,3.25,10.94,1.32,10.94,9.22,0,5-4.33,7.17-8.4,7.17A9.22,9.22,0,0,1,218.51,25.31Z"/><path d="M238.81,20.23c0-5.6,3.28-11.28,10.56-11.28,7.53,0,10,6,10,10.85a8.46,8.46,0,0,1-.2,2.07h-14.8c.45,2.82,2,4.71,5.38,4.71a6.54,6.54,0,0,0,5.18-2.27l3.62,3.16a11.26,11.26,0,0,1-8.84,3.84C242.3,31.31,238.81,26,238.81,20.23Zm15.36-2.15a4.79,4.79,0,0,0-.17-1.36,4.46,4.46,0,0,0-4.68-3.36c-3.1,0-4.45,2-4.95,4.72Z"/><path d="M263.22,22.31V9.4h5.19V21.65c0,2.82,1.42,4.85,4.11,4.85,3,0,4.84-1.6,4.84-5.34V9.4h5.21V30.91h-5.21V28.39a8.14,8.14,0,0,1-6.35,3C265.37,31.31,263.22,26.82,263.22,22.31Z"/><path d="M287.67,9.4h5.08v2.69A6.29,6.29,0,0,1,298.57,9a6.52,6.52,0,0,1,6.36,3.79A7.7,7.7,0,0,1,311.82,9c5.47,0,7.71,4.5,7.71,9V31h-5.25V18.66c0-2.65-.8-4.83-3.51-4.83s-4.5,2.39-4.5,5.26V30.91H301V18.57c0-2.6-.79-4.74-3.49-4.74-2.86,0-4.54,2.39-4.54,5.26V30.91h-5.25Z"/><polygon class="cls-2" points="212.99 45.37 212.99 50.22 210.8 50.22 210.8 52.64 208.61 52.64 208.61 55.05 206.42 55.05 206.42 57.47 204.23 57.47 204.23 59.89 201.86 59.89 201.86 57.47 199.67 57.47 199.67 55.05 197.48 55.05 197.48 52.64 195.29 52.64 195.29 50.22 193.1 50.22 193.1 45.37 195.29 45.37 195.29 42.96 201.86 42.96 201.86 45.37 204.23 45.37 204.23 42.96 210.8 42.96 210.8 45.37 212.99 45.37"/><polygon class="cls-1" points="210.17 47.01 210.17 48.58 207.13 48.58 207.13 45.38 208.68 45.38 208.68 47.01 210.17 47.01"/><path d="M96.69,54.21c0,2-1.9,3.52-4.53,3.52s-4.56-1.42-4.74-3.82v-.14h1.9v.11c.19,1.77,1.62,2.15,2.79,2.15s2.67-.46,2.67-1.79c0-.92-.5-1.43-1.71-1.77l-2.31-.65c-2-.56-3-1.65-3-3.44s1.76-3.27,4.18-3.27c2.59,0,4.19,1.32,4.39,3.61v.13H94.49v-.12c-.12-1.27-1-1.92-2.49-1.92s-2.31.6-2.31,1.57.44,1.41,1.81,1.79l1.89.53a5.55,5.55,0,0,1,2.26,1A3,3,0,0,1,96.69,54.21Z"/><polygon points="106.37 45.38 106.37 47.11 102.82 47.11 102.82 57.47 100.92 57.47 100.92 47.11 97.39 47.11 97.39 45.38 106.37 45.38"/><polygon points="120.46 47.11 120.46 50.44 125.65 50.44 125.65 52.17 120.46 52.17 120.46 57.47 118.56 57.47 118.56 45.38 126.07 45.38 126.07 47.11 120.46 47.11"/><polygon points="136.62 45.38 136.62 47.11 133.09 47.11 133.09 57.47 131.18 57.47 131.18 47.11 127.65 47.11 127.65 45.38 136.62 45.38"/><polygon points="140.12 47.11 140.12 50.44 145.52 50.44 145.52 52.17 140.12 52.17 140.12 55.74 146.33 55.74 146.33 57.47 138.22 57.47 138.22 45.38 146.33 45.38 146.33 47.11 140.12 47.11"/><polygon points="155.55 55.74 155.55 57.47 148.28 57.47 148.28 45.38 150.19 45.38 150.19 55.74 155.55 55.74"/><path d="M165.75,54.21c0,2-1.91,3.52-4.53,3.52s-4.55-1.46-4.74-3.82v-.14h1.9v.11c.2,1.77,1.63,2.15,2.8,2.15s2.66-.46,2.66-1.79c0-.92-.49-1.43-1.69-1.77l-2.33-.65c-2-.56-2.94-1.65-2.94-3.44s1.76-3.27,4.18-3.27c2.6,0,4.2,1.32,4.39,3.61v.13h-1.91v-.12c-.11-1.27-1-1.92-2.49-1.92s-2.31.6-2.31,1.57.44,1.41,1.81,1.79l1.89.53C164.09,51.14,165.75,51.89,165.75,54.21Z"/><polygon points="169.89 47.11 169.89 50.44 175.29 50.44 175.29 52.17 169.89 52.17 169.89 55.74 176.09 55.74 176.09 57.47 167.98 57.47 167.98 45.38 176.09 45.38 176.09 47.11 169.89 47.11"/><polygon points="187.62 45.38 187.62 57.47 185.08 57.47 180.49 48.2 180.32 47.85 180.32 57.47 178.47 57.47 178.47 45.38 181 45.38 185.77 54.95 185.77 45.38 187.62 45.38"/><polygon points="113.3 47.11 113.3 55.83 116.36 55.83 116.36 57.56 108.29 57.56 108.29 55.83 111.4 55.83 111.4 47.11 108.29 47.11 108.29 45.38 116.36 45.38 116.36 47.11 113.3 47.11"/><polygon points="22.5 45.38 22.5 57.47 19.96 57.47 15.38 48.2 15.21 47.85 15.21 57.47 13.35 57.47 13.35 45.38 15.89 45.38 20.64 54.94 20.64 45.38 22.5 45.38"/><polygon points="33.17 45.38 33.17 47.1 29.63 47.1 29.63 57.47 27.72 57.47 27.72 47.1 24.19 47.1 24.19 45.38 33.17 45.38"/><polygon points="36.77 47.1 36.77 50.44 42.17 50.44 42.17 52.17 36.77 52.17 36.77 55.74 42.97 55.74 42.97 57.47 34.87 57.47 34.87 45.38 42.97 45.38 42.97 47.1 36.77 47.1"/><path d="M50.84,52.39H51a3.24,3.24,0,0,0,1.72-.88,3.48,3.48,0,0,0,.89-2.59,3.41,3.41,0,0,0-.93-2.61,4.12,4.12,0,0,0-2.91-.88H45.16v12h1.91v-5h1.75v0l2.75,5h2.18ZM47.07,50.8V47.1h3.29a1.11,1.11,0,0,1,1.23,1v0a1,1,0,0,1,0,.24v1.3a1.16,1.16,0,0,1-1.09,1.23h-.14Z"/><polygon points="65.16 45.38 65.16 57.47 62.62 57.47 58.04 48.2 57.87 47.85 57.87 57.47 56.01 57.47 56.01 45.38 58.55 45.38 63.3 54.94 63.3 45.38 65.16 45.38"/><polygon points="69.75 47.1 69.75 50.44 75.15 50.44 75.15 52.17 69.75 52.17 69.75 55.74 75.94 55.74 75.94 57.47 67.85 57.47 67.85 45.38 75.94 45.38 75.94 47.1 69.75 47.1"/><polygon points="86.68 45.38 86.68 47.1 83.15 47.1 83.15 57.47 81.25 57.47 81.25 47.1 77.71 47.1 77.71 45.38 86.68 45.38"/><polygon points="7.93 47.1 7.93 55.71 10.99 55.71 10.99 57.44 2.93 57.44 2.93 55.71 6.02 55.71 6.02 47.1 2.93 47.1 2.93 45.38 10.99 45.38 10.99 47.1 7.93 47.1"/></g></svg>
