<svg xmlns="http://www.w3.org/2000/svg" viewBox="0 0 324.5 59.9" width="324.5px" height="59.9px" xml:space="preserve"><defs><style>.cls-1{fill:transparent}.cls-2{fill:#ff4069;}</style></defs><title>internetdagarna</title><g id="Layer_2" data-name="Layer 2"><rect class="cls-1" width="324.5" height="59.9"/></g><g id="Lager_1" data-name="Lager 1"><path d="M9.83,1H15.3V31.39H9.83Z"/><path d="M20.76,9.88H26v2.5a8.2,8.2,0,0,1,6.31-3c5.64,0,7.86,4.54,7.86,9v13H34.93V19.14c0-2.82-1.42-4.87-4.12-4.87-2.95,0-4.8,1.59-4.8,5.34V31.39H20.76Z"/><path d="M46.24,25.45V14.27H42.78V9.88h3.55V4.54L51.5.79V9.88h5.38v4.39H51.5V24.52c0,2.07,1,2.67,2.39,2.67a7.49,7.49,0,0,0,3-.77v4.75a12,12,0,0,1-3.89.62C48.76,31.79,46.24,29.37,46.24,25.45Z"/><path d="M59.44,20.71c0-5.6,3.27-11.28,10.55-11.28,7.54,0,10,6,10,10.85a9,9,0,0,1-.19,2.07H65c.46,2.82,2,4.71,5.39,4.71a6.5,6.5,0,0,0,5.16-2.27L79.16,28a11.21,11.21,0,0,1-8.82,3.84C62.93,31.79,59.44,26.5,59.44,20.71Zm15.35-2.15a4.79,4.79,0,0,0-.17-1.36A4.45,4.45,0,0,0,70,13.84c-3.1,0-4.46,2-5,4.72Z"/><path d="M83.65,9.88h5.12v3.61a6.12,6.12,0,0,1,5.77-4.06A5.55,5.55,0,0,1,98.49,11L96.1,15.3a4.26,4.26,0,0,0-2.35-.73c-2.46,0-5,2.28-5,7.75v9.09h-5.1Z"/><path d="M100.93,9.88h5.26v2.5a8.13,8.13,0,0,1,6.31-3c5.64,0,7.86,4.54,7.86,9v13H115.1V19.14c0-2.82-1.42-4.87-4.11-4.87-2.95,0-4.8,1.59-4.8,5.34V31.39h-5.26Z"/><path d="M123.82,20.71c0-5.6,3.27-11.28,10.55-11.28,7.54,0,10,6,10,10.85a8.45,8.45,0,0,1-.19,2.07h-14.8c.45,2.82,2,4.71,5.38,4.71a6.52,6.52,0,0,0,5.17-2.27L143.54,28a11.21,11.21,0,0,1-8.82,3.84C127.31,31.79,123.82,26.5,123.82,20.71Zm15.35-2.15A4.79,4.79,0,0,0,139,17.2a4.45,4.45,0,0,0-4.67-3.36c-3.1,0-4.46,2-5,4.72Z"/><path d="M149.35,25.45V14.27h-3.46V9.88h3.55V4.54L154.61.79V9.88H160v4.39h-5.38V24.52c0,2.07,1,2.67,2.39,2.67a7.49,7.49,0,0,0,3-.77v4.75a12.16,12.16,0,0,1-3.92.65C151.87,31.79,149.35,29.37,149.35,25.45Z"/><path d="M162.68,20.62c0-5.94,3.27-11.19,9.24-11.19A7.75,7.75,0,0,1,178,12V1h5.34V31.39h-4.89l-.2-2.39A7.5,7.5,0,0,1,172,31.79C166,31.79,162.68,26.63,162.68,20.62Zm15.8,0c0-3.61-1.59-6.44-5.21-6.44S168,17.05,168,20.62s1.63,6.44,5.25,6.44S178.48,24.28,178.48,20.62Z"/><path d="M206.11,18.34V31.39h-4.32l-.33-2.86a8.06,8.06,0,0,1-6.72,3.26c-4.41,0-7.81-2.54-7.81-7,0-4.67,3.74-6.22,8.57-6.22h5.83c-.1-3.19-1.05-4.55-4.47-4.55a5.83,5.83,0,0,0-5.07,3l-4-2.91a10.51,10.51,0,0,1,9-4.71C202.67,9.43,206.11,13.09,206.11,18.34Zm-4.75,4.18v-.17H195.8c-2.39,0-3.49,1.24-3.49,2.6s1.14,2.43,3.49,2.43A5.46,5.46,0,0,0,201.36,22.52Z"/><path d="M229.71,34.38c0,4.87-4.18,7.2-9.52,7.2-6.78,0-10.31-3.26-10.31-7.67A4.63,4.63,0,0,1,210,33l2.5-2.11a4.69,4.69,0,0,1-2.11-4.2,5.54,5.54,0,0,1,2-4.39,7.66,7.66,0,0,1-1.78-5c0-4.67,4.07-7.9,8.83-7.9a9.75,9.75,0,0,1,5.08,1.36L227.77,8l2.74,3.34-3.12,2.52a7.66,7.66,0,0,1,.92,3.75c0,4.8-4,7.86-8.74,7.86a9.92,9.92,0,0,1-4.09-.84,1.24,1.24,0,0,0-.63,1.14c0,1.76,2.65,1.81,6.48,2.28C225.4,28.57,229.71,29.45,229.71,34.38Zm-5,.59c0-1.64-1.68-2-5.26-2.4a34.35,34.35,0,0,1-3.77-.47L214.52,34l.13.58c.62,2.15,2.86,2.91,5.47,2.91,2.81,0,4.62-.84,4.62-2.56ZM216,17.37c0,2.2,1.25,3.79,3.58,3.79s3.53-1.59,3.53-3.79-1.23-3.88-3.53-3.88S216,15.11,216,17.37Z"/><path d="M251.42,18.34V31.39h-4.33l-.32-2.86a8.06,8.06,0,0,1-6.72,3.26c-4.42,0-7.82-2.54-7.82-7,0-4.67,3.75-6.22,8.57-6.22h5.84c-.11-3.19-1.06-4.55-4.48-4.55a5.81,5.81,0,0,0-5.06,3l-4-2.91a10.55,10.55,0,0,1,9.05-4.71C248,9.43,251.42,13.09,251.42,18.34Zm-4.76,4.18v-.17h-5.55c-2.4,0-3.49,1.24-3.49,2.6s1.14,2.43,3.49,2.43A5.45,5.45,0,0,0,246.66,22.52Z"/><path d="M255.34,9.88h5.13v3.61a6.12,6.12,0,0,1,5.77-4.06A5.51,5.51,0,0,1,270.18,11l-2.39,4.3a4.26,4.26,0,0,0-2.35-.73c-2.45,0-5,2.28-5,7.75v9.09h-5.08Z"/><path d="M273,9.88h5.26v2.5a8.13,8.13,0,0,1,6.31-3c5.64,0,7.86,4.54,7.86,9v13h-5.26V19.14c0-2.82-1.42-4.87-4.11-4.87-3,0-4.8,1.59-4.8,5.34V31.39H273Z"/><path d="M315.36,18.34V31.39H311l-.33-2.86A8.06,8.06,0,0,1,304,31.79c-4.41,0-7.81-2.54-7.81-7,0-4.67,3.74-6.22,8.57-6.22h5.83c-.11-3.19-1-4.55-4.48-4.55a5.81,5.81,0,0,0-5.06,3l-4-2.91a10.51,10.51,0,0,1,9-4.71C311.92,9.43,315.36,13.09,315.36,18.34Zm-4.76,4.18v-.17h-5.55c-2.39,0-3.49,1.24-3.49,2.6s1.14,2.43,3.49,2.43A5.45,5.45,0,0,0,310.6,22.52Z"/><polygon class="cls-2" points="218.06 45.91 218.06 50.75 215.87 50.75 215.87 53.17 213.68 53.17 213.68 55.58 211.49 55.58 211.49 58 209.3 58 209.3 60.42 206.93 60.42 206.93 58 204.74 58 204.74 55.58 202.55 55.58 202.55 53.17 200.36 53.17 200.36 50.75 198.17 50.75 198.17 45.91 200.36 45.91 200.36 43.49 206.93 43.49 206.93 45.91 209.3 45.91 209.3 43.49 215.87 43.49 215.87 45.91 218.06 45.91"/><polygon class="cls-1" points="215.24 47.54 215.24 49.12 212.2 49.12 212.2 45.91 213.75 45.91 213.75 47.54 215.24 47.54"/><path d="M101.76,54.79c0,2-1.9,3.51-4.53,3.51s-4.56-1.51-4.74-3.86v-.13h1.9v.11c.19,1.77,1.62,2.15,2.79,2.15s2.67-.47,2.67-1.8c0-.92-.5-1.43-1.71-1.77l-2.31-.65c-2-.56-3-1.65-3-3.44s1.76-3.26,4.18-3.26c2.59,0,4.19,1.32,4.39,3.6v.13H99.56v-.12c-.12-1.27-1-1.91-2.49-1.91s-2.31.59-2.31,1.56.44,1.42,1.81,1.79l1.89.53a5.78,5.78,0,0,1,2.26,1.05A3,3,0,0,1,101.76,54.79Z"/><polygon points="111.44 45.92 111.44 47.64 107.89 47.64 107.89 58.01 105.99 58.01 105.99 47.64 102.46 47.64 102.46 45.92 111.44 45.92"/><polygon points="125.53 47.64 125.53 50.97 130.72 50.97 130.72 52.71 125.53 52.71 125.53 58.01 123.63 58.01 123.63 45.92 131.14 45.92 131.14 47.64 125.53 47.64"/><polygon points="141.69 45.92 141.69 47.64 138.16 47.64 138.16 58.01 136.25 58.01 136.25 47.64 132.72 47.64 132.72 45.92 141.69 45.92"/><polygon points="145.19 47.64 145.19 50.97 150.59 50.97 150.59 52.71 145.19 52.71 145.19 56.27 151.4 56.27 151.4 58.01 143.29 58.01 143.29 45.92 151.4 45.92 151.4 47.64 145.19 47.64"/><polygon points="160.62 56.27 160.62 58.01 153.35 58.01 153.35 45.92 155.26 45.92 155.26 56.27 160.62 56.27"/><path d="M170.82,54.79c0,2-1.91,3.51-4.53,3.51s-4.55-1.46-4.74-3.82v-.13h1.9v.11c.2,1.77,1.63,2.15,2.8,2.15s2.66-.47,2.66-1.8c0-.92-.49-1.43-1.69-1.77l-2.33-.65c-2-.56-2.94-1.65-2.94-3.44s1.76-3.26,4.18-3.26c2.6,0,4.2,1.32,4.39,3.6v.13h-1.91V49.3c-.11-1.27-1-1.91-2.49-1.91s-2.31.59-2.31,1.56.44,1.42,1.81,1.79l1.89.53C169.16,51.67,170.82,52.43,170.82,54.79Z"/><polygon points="174.96 47.64 174.96 50.97 180.36 50.97 180.36 52.71 174.96 52.71 174.96 56.27 181.16 56.27 181.16 58.01 173.05 58.01 173.05 45.92 181.16 45.92 181.16 47.64 174.96 47.64"/><polygon points="192.69 45.92 192.69 58.01 190.15 58.01 185.56 48.74 185.39 48.38 185.39 58.01 183.54 58.01 183.54 45.92 186.07 45.92 190.84 55.48 190.84 45.92 192.69 45.92"/><polygon points="118.37 47.64 118.37 56.36 121.43 56.36 121.43 58.09 113.36 58.09 113.36 56.36 116.47 56.36 116.47 47.64 113.36 47.64 113.36 45.92 121.43 45.92 121.43 47.64 118.37 47.64"/><polygon points="27.57 45.91 27.57 58 25.03 58 20.45 48.73 20.28 48.38 20.28 58 18.42 58 18.42 45.91 20.96 45.91 25.71 55.48 25.71 45.91 27.57 45.91"/><polygon points="38.24 45.91 38.24 47.63 34.7 47.63 34.7 58 32.79 58 32.79 47.63 29.26 47.63 29.26 45.91 38.24 45.91"/><polygon points="41.84 47.63 41.84 50.97 47.24 50.97 47.24 52.7 41.84 52.7 41.84 56.27 48.04 56.27 48.04 58 39.94 58 39.94 45.91 48.04 45.91 48.04 47.63 41.84 47.63"/><path d="M55.91,52.92H56A3,3,0,0,0,57.76,52a3.46,3.46,0,0,0,.89-2.59,3.4,3.4,0,0,0-.93-2.66,4.23,4.23,0,0,0-2.91-.88H50.23V58h1.91V53h1.75l2.75,5h2.18Zm-3.77-1.58V47.63h3.29a1.11,1.11,0,0,1,1.22,1v1.5a1.17,1.17,0,0,1-1.1,1.24H52.14Z"/><polygon points="70.23 45.91 70.23 58.01 67.69 58.01 63.11 48.74 62.94 48.38 62.94 58.01 61.08 58.01 61.08 45.91 63.62 45.91 68.37 55.48 68.37 45.91 70.23 45.91"/><polygon points="74.82 47.63 74.82 50.97 80.22 50.97 80.22 52.7 74.82 52.7 74.82 56.27 81.01 56.27 81.01 58.01 72.92 58.01 72.92 45.91 81.01 45.91 81.01 47.63 74.82 47.63"/><polygon points="91.75 45.91 91.75 47.64 88.22 47.64 88.22 58.01 86.32 58.01 86.32 47.64 82.78 47.64 82.78 45.91 91.75 45.91"/><polygon points="13 47.63 13 56.24 16.06 56.24 16.06 57.98 8 57.98 8 56.24 11.09 56.24 11.09 47.63 8 47.63 8 45.91 16.06 45.91 16.06 47.63 13 47.63"/></g></svg>
