<?xml version="1.0" encoding="utf-8"?>
<!-- Generator: Adobe Illustrator 23.0.3, SVG Export Plug-In . SVG Version: 6.00 Build 0)  -->
<svg version="1.1" id="Layer_1" xmlns="http://www.w3.org/2000/svg" xmlns:xlink="http://www.w3.org/1999/xlink" x="0px" y="0px"
	 viewBox="0 0 324 70" style="enable-background:new 0 0 324 70;" xml:space="preserve" width="324px" height="70px">
<style type="text/css">
	.st0{fill:none;}
	.st1{fill:#FF4069;}
	.st2{fill:#FFFFFF;}
</style>
<title>internetstiftelsen</title>
<g>
	<rect x="0" y="0" class="st0" width="324" height="70"/>
</g>
<path d="M63.8,56.1c-1.6-1.3-3.7-2-5.2-2.4l-4.3-1.2c-3-0.8-4-1.8-4-4c0-2.1,1.9-3.4,5.1-3.4c3.4,0,5.3,1.4,5.6,4.3v0.4h4.5
	l-0.1-0.4C65,44,61.4,41,55.5,41c-5.6,0-9.5,3.2-9.5,7.5c0,4.1,2.1,6.6,6.7,7.9l5.3,1.5c2.7,0.8,3.8,1.9,3.8,4c0,2.9-3.2,4-6,4
	c-2.6,0-5.8-0.8-6.2-4.8v-0.4H45l0.1,0.4c0.4,5.4,4.6,8.8,10.8,8.8c6,0,10.3-3.4,10.3-8.1C66.2,59.3,65.4,57.5,63.8,56.1z
	 M67.6,45.7h8v23.5H80V45.7h8v-4.1H67.6V45.7z M115.3,69.2h4.5v-12h11.7v-4.1h-11.7v-7.4h12.7v-4.1h-17.2
	C115.3,41.6,115.3,69.2,115.3,69.2z M136.2,45.7h8v23.5h4.5V45.7h8v-4.1h-20.5L136.2,45.7L136.2,45.7z M160.1,69.2h18.5v-4.1h-14
	v-7.9h12.1v-4.1h-12.1v-7.4h14v-4.1h-18.5C160.1,41.6,160.1,69.2,160.1,69.2z M187.3,41.6h-4.5v27.6h16.6v-4.1h-12.1
	C187.3,65.1,187.3,41.6,187.3,41.6z M214.4,53.7l-4.3-1.2c-3-0.8-4-1.8-4-4c0-2.1,1.9-3.4,5.1-3.4c3.4,0,5.3,1.4,5.6,4.3l0.1,0.4
	h4.5l-0.1-0.4c-0.5-5.2-4.1-8.2-10-8.2c-5.6,0-9.5,3.2-9.5,7.5c0,4.1,2.1,6.6,6.7,7.9l5.3,1.5c2.7,0.8,3.8,1.9,3.8,4
	c0,2.9-3.2,4-6,4c-2.6,0-5.8-0.8-6.2-4.8l-0.1-0.3h-4.5l0.1,0.4c0.5,5.4,4.6,8.7,10.8,8.7c6,0,10.3-3.4,10.3-8.1
	C221.9,56.5,218.1,54.7,214.4,53.7L214.4,53.7z M225.8,69.2h18.5v-4.1h-14.1v-7.9h12.2v-4.1h-12.2v-7.4h14.1v-4.1h-18.5L225.8,69.2
	L225.8,69.2z M265.6,41.6V63L255,41.7l-0.1-0.1h-5.8v27.6h4.3V47.7L264,69.2v0.1h6V41.6L265.6,41.6L265.6,41.6z M92.1,45.8h7.1v19.3
	h-7.1v4.1h18.5v-4.1h-7V45.8h7v-4.1H92.1V45.8z M86.8,26.6L76.2,5.3V5.2h-6v27.6h4.4V11.3l10.6,21.5v0.1h5.9V5.3h-4.3V26.6z
	 M94.8,9.3h7.9v23.5h4.5V9.3h8V5.3H94.8C94.8,5.3,94.8,9.3,94.8,9.3z M137.4,28.8h-14v-7.9h12.2v-4.1h-12.2V9.3h14V5.3h-18.5v27.6
	h18.5V28.8z M154.8,21.3l0.3-0.1c1.6-0.3,2.9-0.9,4-2c1.4-1.4,2-3.3,2-5.9c0-2.7-0.7-4.7-2.1-6c-1.4-1.4-3.7-2-6.6-2h-10.4v27.6h4.3
	V21.5h4l0.1,0.1l6.3,11.3h5C161.6,32.9,154.8,21.3,154.8,21.3z M146.2,17.6V9.2h7.5c1.8,0,2.8,1,2.8,2.7v3c0,1.4-0.8,2.8-2.8,2.8
	C153.7,17.6,146.2,17.6,146.2,17.6z M187,5.2h-4.4v21.4L172.1,5.3L172,5.2h-5.9v27.6h4.4V11.3l10.5,21.5l0.1,0.1h5.9
	C187,32.9,187,5.3,187,5.2z M210.1,28.8h-13.9v-7.9h12.2v-4.1h-12.1V9.3h13.9V5.3h-18.5v27.6h18.5L210.1,28.8L210.1,28.8z
	 M226.3,32.9V9.3h8V5.3h-20.5v4.1h8v23.5L226.3,32.9L226.3,32.9z M65.2,28.7h-6.9V9.4h6.9V5.3H46.8v4.1h7v19.3h-7v4.1h18.4
	C65.2,32.9,65.2,28.7,65.2,28.7z"/>
<path class="st1" d="M278.4,5.3v9.2h-4.1v4.6h-4.1v4.5h-4.1v4.6h-4.1v4.6h-4.5v-4.6h-4.1v-4.6h-4.1v-4.5h-4.1v-4.6h-4V5.3h4.1V0.6
	h12.4v4.6h4.5V0.6h12.4v4.6H278.4z"/>
<path class="st2" d="M273.8,8.2v3H268V5.1h2.9v3.1C271,8.2,273.8,8.2,273.8,8.2z"/>
</svg>
