<?xml version="1.0" encoding="utf-8"?>
<!-- Generator: Adobe Illustrator 23.0.1, SVG Export Plug-In . SVG Version: 6.00 Build 0)  -->
<svg version="1.1" id="Layer_1" xmlns="http://www.w3.org/2000/svg" xmlns:xlink="http://www.w3.org/1999/xlink" x="0px" y="0px"
	 viewBox="0 0 324.5 59.9" style="enable-background:new 0 0 324.5 59.9;" xml:space="preserve" width="324.5px" height="59.9px">
<style type="text/css">
	.st0{fill:none;}
	.st1{fill:#FF4069;}
	.st2{fill:#FFFFFF;}
</style>
<title>internetdagarna</title>
<g>
	<rect class="st0" width="324.5" height="59.9"/>
</g>
<g id="Lager_1">
	<path d="M9.8,0.2h5.5v30.4H9.8V0.2z"/>
	<path d="M20.8,9.1H26v2.5c1.6-1.9,3.9-3,6.3-3c5.6,0,7.9,4.5,7.9,9v13h-5.2V18.3c0-2.8-1.4-4.9-4.1-4.9c-3,0-4.8,1.6-4.8,5.3v11.8
		h-5.3V9.1z"/>
	<path d="M46.2,24.7V13.5h-3.5V9.1h3.5V3.8L51.5,0v9.1h5.4v4.4h-5.4v10.2c0,2.1,1,2.7,2.4,2.7c1,0,2.1-0.3,3-0.8v4.8
		C55.6,30.8,54.3,31,53,31C48.8,31,46.2,28.6,46.2,24.7z"/>
	<path d="M59.4,19.9c0-5.6,3.3-11.3,10.5-11.3c7.5,0,10,6,10,10.8c0,0.7,0,1.4-0.2,2.1H65c0.5,2.8,2,4.7,5.4,4.7
		c2,0.1,3.9-0.8,5.2-2.3l3.6,3.2c-2.2,2.5-5.5,4-8.8,3.8C62.9,31,59.4,25.7,59.4,19.9z M74.8,17.8c0-0.5,0-0.9-0.2-1.4
		c-0.5-2.1-2.5-3.5-4.6-3.4c-3.1,0-4.5,2-5,4.7H74.8z"/>
	<path d="M83.7,9.1h5.1v3.6c0.9-2.4,3.2-4.1,5.8-4.1c1.5,0,2.9,0.5,3.9,1.6l-2.4,4.3c-0.7-0.5-1.5-0.7-2.3-0.7c-2.5,0-5,2.3-5,7.7
		v9.1h-5.1V9.1z"/>
	<path d="M100.9,9.1h5.3v2.5c1.5-1.9,3.9-3,6.3-3c5.6,0,7.9,4.5,7.9,9v13h-5.3V18.3c0-2.8-1.4-4.9-4.1-4.9c-2.9,0-4.8,1.6-4.8,5.3
		v11.8h-5.3L100.9,9.1z"/>
	<path d="M123.8,19.9c0-5.6,3.3-11.3,10.5-11.3c7.5,0,10,6,10,10.8c0,0.7,0,1.4-0.2,2.1h-14.8c0.4,2.8,2,4.7,5.4,4.7
		c2,0.1,3.9-0.8,5.2-2.3l3.6,3.2c-2.2,2.5-5.5,4-8.8,3.8C127.3,31,123.8,25.7,123.8,19.9z M139.2,17.8c0-0.5,0-0.9-0.2-1.4
		c-0.5-2.1-2.5-3.5-4.7-3.4c-3.1,0-4.5,2-5,4.7L139.2,17.8z"/>
	<path d="M149.4,24.7V13.5h-3.5V9.1h3.6V3.8l5.2-3.8v9.1h5.4v4.4h-5.4v10.2c0,2.1,1,2.7,2.4,2.7c1,0,2.1-0.3,3-0.8v4.8
		c-1.3,0.4-2.6,0.6-3.9,0.6C151.9,31,149.4,28.6,149.4,24.7z"/>
	<path d="M162.7,19.8c0-5.9,3.3-11.2,9.2-11.2c2.3-0.1,4.5,0.8,6.1,2.6v-11h5.3v30.4h-4.9l-0.2-2.4c-1.5,1.9-3.8,2.9-6.2,2.8
		C166,31,162.7,25.8,162.7,19.8z M178.5,19.8c0-3.6-1.6-6.4-5.2-6.4s-5.3,2.9-5.3,6.4s1.6,6.4,5.2,6.4S178.5,23.5,178.5,19.8z"/>
	<path d="M206.1,17.5v13h-4.3l-0.3-2.9c-1.6,2.1-4.1,3.3-6.7,3.3c-4.4,0-7.8-2.5-7.8-7c0-4.7,3.7-6.2,8.6-6.2h5.8
		c-0.1-3.2-1.1-4.5-4.5-4.5c-2.1,0-4,1.2-5.1,3l-4-2.9c2-3,5.4-4.8,9-4.7C202.7,8.6,206.1,12.3,206.1,17.5z M201.4,21.7v-0.2h-5.6
		c-2.4,0-3.5,1.2-3.5,2.6s1.1,2.4,3.5,2.4C198.6,26.7,201,24.5,201.4,21.7z"/>
	<path d="M229.7,33.6c0,4.9-4.2,7.2-9.5,7.2c-6.8,0-10.3-3.3-10.3-7.7c0-0.3,0-0.6,0.1-0.9l2.5-2.1c-1.4-0.9-2.2-2.5-2.1-4.2
		c0-1.7,0.7-3.3,2-4.4c-1.2-1.4-1.8-3.2-1.8-5c0-4.7,4.1-7.9,8.8-7.9c1.8,0,3.5,0.4,5.1,1.4l3.2-2.8l2.7,3.3l-3.1,2.5
		c0.6,1.2,0.9,2.4,0.9,3.7c0,4.8-4,7.9-8.7,7.9c-1.4,0-2.8-0.3-4.1-0.8c-0.4,0.2-0.7,0.7-0.6,1.1c0,1.8,2.6,1.8,6.5,2.3
		C225.4,27.8,229.7,28.7,229.7,33.6z M224.7,34.2c0-1.6-1.7-2-5.3-2.4c-1.3-0.1-2.5-0.2-3.8-0.5l-1.2,1.9l0.1,0.6
		c0.6,2.2,2.9,2.9,5.5,2.9C222.9,36.7,224.7,35.9,224.7,34.2L224.7,34.2z M216,16.6c0,2.2,1.2,3.8,3.6,3.8s3.5-1.6,3.5-3.8
		s-1.2-3.9-3.5-3.9S216,14.3,216,16.6z"/>
	<path d="M251.4,17.5v13h-4.3l-0.3-2.9c-1.6,2.1-4.1,3.3-6.7,3.3c-4.4,0-7.8-2.5-7.8-7c0-4.7,3.8-6.2,8.6-6.2h5.8
		c-0.1-3.2-1.1-4.5-4.5-4.5c-2.1,0-4,1.2-5.1,3l-4-2.9c2-3,5.4-4.8,9.1-4.7C248,8.6,251.4,12.3,251.4,17.5z M246.7,21.7v-0.2h-5.6
		c-2.4,0-3.5,1.2-3.5,2.6s1.1,2.4,3.5,2.4C243.9,26.7,246.4,24.5,246.7,21.7z"/>
	<path d="M255.3,9.1h5.1v3.6c0.9-2.4,3.2-4.1,5.8-4.1c1.5,0,2.9,0.5,3.9,1.6l-2.4,4.3c-0.7-0.5-1.5-0.7-2.4-0.7c-2.5,0-5,2.3-5,7.7
		v9.1h-5.1L255.3,9.1z"/>
	<path d="M273,9.1h5.3v2.5c1.5-1.9,3.9-3,6.3-3c5.6,0,7.9,4.5,7.9,9v13h-5.3V18.3c0-2.8-1.4-4.9-4.1-4.9c-3,0-4.8,1.6-4.8,5.3v11.8
		H273V9.1z"/>
	<path d="M315.4,17.5v13H311l-0.3-2.9c-1.6,2.1-4,3.3-6.7,3.3c-4.4,0-7.8-2.5-7.8-7c0-4.7,3.7-6.2,8.6-6.2h5.8
		c-0.1-3.2-1-4.5-4.5-4.5c-2.1,0-4,1.2-5.1,3l-4-2.9c2-3,5.4-4.8,9-4.7C311.9,8.6,315.4,12.3,315.4,17.5z M310.6,21.7v-0.2H305
		c-2.4,0-3.5,1.2-3.5,2.6s1.1,2.4,3.5,2.4C307.9,26.7,310.3,24.5,310.6,21.7L310.6,21.7z"/>
	<polygon class="st1" points="218.1,45.1 218.1,50 215.9,50 215.9,52.4 213.7,52.4 213.7,54.8 211.5,54.8 211.5,57.2 209.3,57.2
		209.3,59.6 206.9,59.6 206.9,57.2 204.7,57.2 204.7,54.8 202.6,54.8 202.6,52.4 200.4,52.4 200.4,50 198.2,50 198.2,45.1
		200.4,45.1 200.4,42.7 206.9,42.7 206.9,45.1 209.3,45.1 209.3,42.7 215.9,42.7 215.9,45.1 	"/>
	<polygon class="st2" points="215.2,46.8 215.2,48.3 212.2,48.3 212.2,45.1 213.8,45.1 213.8,46.8 	"/>
	<path d="M101.8,54c0,2-1.9,3.5-4.5,3.5s-4.6-1.5-4.7-3.9v-0.1h1.9v0.1c0.2,1.8,1.6,2.2,2.8,2.2s2.7-0.5,2.7-1.8
		c0-0.9-0.5-1.4-1.7-1.8l-2.3-0.7c-2-0.6-3-1.7-3-3.4s1.8-3.3,4.2-3.3c2.6,0,4.2,1.3,4.4,3.6v0.1h-1.8v-0.1c-0.1-1.3-1-1.9-2.5-1.9
		s-2.3,0.6-2.3,1.6s0.4,1.4,1.8,1.8l1.9,0.5c0.8,0.2,1.6,0.5,2.3,1C101.4,52.1,101.8,53,101.8,54z"/>
	<polygon points="111.4,45.1 111.4,46.8 107.9,46.8 107.9,57.2 106,57.2 106,46.8 102.5,46.8 102.5,45.1 	"/>
	<polygon points="125.5,46.8 125.5,50.2 130.7,50.2 130.7,51.9 125.5,51.9 125.5,57.2 123.6,57.2 123.6,45.1 131.1,45.1 131.1,46.8
			"/>
	<polygon points="141.7,45.1 141.7,46.8 138.2,46.8 138.2,57.2 136.2,57.2 136.2,46.8 132.7,46.8 132.7,45.1 	"/>
	<polygon points="145.2,46.8 145.2,50.2 150.6,50.2 150.6,51.9 145.2,51.9 145.2,55.5 151.4,55.5 151.4,57.2 143.3,57.2 143.3,45.1
		151.4,45.1 151.4,46.8 	"/>
	<polygon points="160.6,55.5 160.6,57.2 153.4,57.2 153.4,45.1 155.3,45.1 155.3,55.5 	"/>
	<path d="M170.8,54c0,2-1.9,3.5-4.5,3.5s-4.6-1.5-4.7-3.8v-0.1h1.9v0.1c0.2,1.8,1.6,2.2,2.8,2.2s2.7-0.5,2.7-1.8
		c0-0.9-0.5-1.4-1.7-1.8l-2.3-0.7c-2-0.6-2.9-1.7-2.9-3.4s1.8-3.3,4.2-3.3c2.6,0,4.2,1.3,4.4,3.6v0.1h-1.9v-0.1
		c-0.1-1.3-1-1.9-2.5-1.9s-2.3,0.6-2.3,1.6s0.4,1.4,1.8,1.8l1.9,0.5C169.2,50.9,170.8,51.6,170.8,54z"/>
	<polygon points="175,46.8 175,50.2 180.4,50.2 180.4,51.9 175,51.9 175,55.5 181.2,55.5 181.2,57.2 173.1,57.2 173.1,45.1
		181.2,45.1 181.2,46.8 	"/>
	<polygon points="192.7,45.1 192.7,57.2 190.1,57.2 185.6,48 185.4,47.6 185.4,57.2 183.5,57.2 183.5,45.1 186.1,45.1 190.8,54.7
		190.8,45.1 	"/>
	<polygon points="118.4,46.8 118.4,55.6 121.4,55.6 121.4,57.3 113.4,57.3 113.4,55.6 116.5,55.6 116.5,46.8 113.4,46.8 113.4,45.1
		121.4,45.1 121.4,46.8 	"/>
	<polygon points="27.6,45.1 27.6,57.2 25,57.2 20.5,47.9 20.3,47.6 20.3,57.2 18.4,57.2 18.4,45.1 21,45.1 25.7,54.7 25.7,45.1 	"/>
	<polygon points="38.2,45.1 38.2,46.8 34.7,46.8 34.7,57.2 32.8,57.2 32.8,46.8 29.3,46.8 29.3,45.1 	"/>
	<polygon points="41.8,46.8 41.8,50.2 47.2,50.2 47.2,51.9 41.8,51.9 41.8,55.5 48,55.5 48,57.2 39.9,57.2 39.9,45.1 48,45.1
		48,46.8 	"/>
	<path d="M55.9,52.1L55.9,52.1c0.8-0.1,1.4-0.4,1.8-0.9c0.6-0.7,1-1.6,0.9-2.6c0.1-1-0.2-1.9-0.9-2.7c-0.8-0.6-1.9-1-2.9-0.9h-4.6
		v12.1h1.9v-5h1.8l2.8,5h2.2L55.9,52.1z M52.1,50.5v-3.7h3.3c0.6-0.1,1.2,0.4,1.2,1c0,0,0,0,0,0v1.5c0,0.6-0.5,1.2-1.1,1.2
		c0,0,0,0,0,0L52.1,50.5L52.1,50.5z"/>
	<polygon points="70.2,45.1 70.2,57.2 67.7,57.2 63.1,48 62.9,47.6 62.9,57.2 61.1,57.2 61.1,45.1 63.6,45.1 68.4,54.7 68.4,45.1
		"/>
	<polygon points="74.8,46.8 74.8,50.2 80.2,50.2 80.2,51.9 74.8,51.9 74.8,55.5 81,55.5 81,57.2 72.9,57.2 72.9,45.1 81,45.1
		81,46.8 	"/>
	<polygon points="91.8,45.1 91.8,46.8 88.2,46.8 88.2,57.2 86.3,57.2 86.3,46.8 82.8,46.8 82.8,45.1 	"/>
	<polygon points="13,46.8 13,55.5 16.1,55.5 16.1,57.2 8,57.2 8,55.5 11.1,55.5 11.1,46.8 8,46.8 8,45.1 16.1,45.1 16.1,46.8 	"/>
</g>
</svg>
