<?xml version="1.0" encoding="utf-8"?>
<!-- Generator: Adobe Illustrator 23.0.3, SVG Export Plug-In . SVG Version: 6.00 Build 0)  -->
<svg version="1.1" id="Layer_1" xmlns="http://www.w3.org/2000/svg" xmlns:xlink="http://www.w3.org/1999/xlink" x="0px" y="0px"
	 viewBox="0 0 324 60" style="enable-background:new 0 0 324 60;" xml:space="preserve"  width="324px" height="60px">
<style type="text/css">
	.st0{fill:none;}
	.st1{fill:#FF4069;}
	.st2{fill:#FFFFFF;}
</style>
<title>internetmuseum</title>
<g>
	<rect class="st0" width="324" height="60"/>
</g>
<g id="Lager_1">
	<path d="M5.1,0.2h5.5v30.6H5.1V0.2z"/>
	<path d="M16.1,9.2h5.2v2.5c1.6-1.9,3.9-2.9,6.3-2.9c5.6,0,7.9,4.5,7.9,9.1v13.1h-5.2V18.5c0-2.8-1.4-4.9-4.1-4.9
		c-3,0-4.8,1.6-4.8,5.3v11.9h-5.2V9.2H16.1z"/>
	<path d="M41.5,24.9V13.6H38V9.2h3.6V3.8L46.8,0v9.2h5.4v4.4h-5.4v10.3c0,2.1,1,2.7,2.4,2.7c1,0,2.1-0.3,3-0.8v4.8
		c-1.3,0.4-2.6,0.6-3.9,0.6C44.1,31.2,41.5,28.8,41.5,24.9z"/>
	<path d="M54.7,20c0-5.6,3.3-11.3,10.6-11.3c7.5,0,10,6,10,11c0,0.7,0,1.4-0.2,2.1H60.4c0.5,2.8,2,4.7,5.4,4.7
		c2,0.1,3.9-0.8,5.2-2.3l3.6,3.2c-2.2,2.5-5.5,3.9-8.9,3.8C58.3,31.2,54.7,25.9,54.7,20z M70.2,17.9c0-0.5,0-0.9-0.2-1.4
		c-0.5-2.1-2.5-3.5-4.7-3.4c-3.1,0-4.5,2-5,4.7h9.9V17.9z"/>
	<path d="M79,9.2h5.1v3.6c0.9-2.4,3.2-4,5.8-4c1.5,0,2.9,0.5,3.9,1.6l-2.4,4.3c-0.7-0.5-1.5-0.7-2.3-0.7c-2.5,0-5,2.3-5,7.9V31H79
		V9.2z"/>
	<path d="M96.3,9.2h5.3v2.5c1.5-1.9,3.9-3,6.3-3c5.6,0,7.9,4.5,7.9,9.1v13.1h-5.3V18.5c0-2.8-1.4-4.9-4.1-4.9c-3,0-4.8,1.6-4.8,5.3
		v11.9h-5.3V9.2z"/>
	<path d="M119.2,20c0-5.6,3.3-11.4,10.5-11.4c7.5,0,10,6,10,11c0,0.7,0,1.4-0.2,2.1h-14.8c0.5,2.8,2,4.7,5.4,4.7
		c2,0.1,3.9-0.8,5.2-2.3l3.6,3.2c-2.2,2.5-5.5,3.9-8.8,3.8C122.7,31.2,119.2,25.9,119.2,20z M134.6,17.9c0-0.5,0-0.9-0.2-1.4
		c-0.5-2.1-2.5-3.6-4.7-3.4c-3.1,0-4.5,2-5,4.7h9.9V17.9z"/>
	<path d="M144.8,24.9V13.6h-3.5V9.2h3.6V3.8l5.2-3.8v9.2h5.4v4.4h-5.4v10.3c0,2.1,1,2.7,2.4,2.7c1,0,2.1-0.3,3-0.8v4.8
		c-1.3,0.4-2.6,0.6-3.9,0.6C147.3,31.2,144.8,28.8,144.8,24.9z"/>
	<path d="M159.8,9.2h5.1v2.7c1.2-2,3.4-3.2,5.8-3.1c2.7-0.2,5.2,1.3,6.4,3.8c1.4-2.4,4.1-3.9,6.9-3.8c5.5,0,7.7,4.5,7.7,9.1v13.1
		h-5.2V18.5c0-2.7-0.8-4.8-3.5-4.8c-2.7,0-4.5,2.4-4.5,5.3v11.9h-5.3V18.4c0-2.6-0.8-4.7-3.5-4.7c-2.9,0-4.5,2.4-4.5,5.3v11.9h-5.3
		L159.8,9.2z"/>
	<path d="M196,22.1v-13h5.2v12.4c0,2.8,1.4,4.9,4.1,4.9c3,0,4.8-1.6,4.8-5.3v-12h5.2v21.6h-5.2v-2.5c-1.6,1.9-3.9,3-6.4,3
		C198.2,31.2,196,26.7,196,22.1z"/>
	<path d="M218.3,25.2l4.2-1.9c0.6,1.5,1.7,3.5,4.6,3.5c2.4,0,3.5-1.4,3.5-2.6c0-3.6-10.8-1.2-10.8-8.9c0.1-4.5,3.8-6.6,8.1-6.6
		c3.4-0.1,6.5,1.7,8.2,4.7l-4.2,2.2c-0.8-1.7-2.4-2.8-4.3-2.7c-1.7,0-2.7,0.8-2.7,1.9c0,3.3,10.9,1.3,10.9,9.3c0,5-4.3,7.2-8.4,7.2
		C223.3,31.4,219.7,29,218.3,25.2z"/>
	<path d="M238.6,20c0-5.6,3.3-11.4,10.6-11.4c7.5,0,10,6,10,11c0,0.7,0,1.4-0.2,2.1h-14.8c0.4,2.8,2,4.7,5.4,4.7
		c2,0.1,3.9-0.8,5.2-2.3l3.6,3.2c-2.2,2.5-5.5,3.9-8.8,3.8C242.1,31.2,238.6,25.9,238.6,20z M254,17.9c0-0.5,0-0.9-0.2-1.4
		c-0.5-2.1-2.5-3.5-4.7-3.4c-3.1,0-4.4,2-4.9,4.7h9.8V17.9z"/>
	<path d="M263,22.1v-13h5.2v12.4c0,2.8,1.4,4.9,4.1,4.9c3,0,4.8-1.6,4.8-5.3v-12h5.2v21.6h-5.2v-2.5c-1.6,1.9-3.9,3-6.4,3
		C265.2,31.2,263,26.7,263,22.1z"/>
	<path d="M287.6,9.2h5.1v2.7c1.2-2,3.5-3.2,5.8-3.1c2.7-0.2,5.2,1.3,6.4,3.8c1.4-2.4,4.1-3.9,6.9-3.8c5.5,0,7.7,4.5,7.7,9.1v13.1
		h-5.2V18.5c0-2.7-0.8-4.8-3.5-4.8s-4.5,2.4-4.5,5.3v11.9h-5.4V18.4c0-2.6-0.8-4.7-3.5-4.7c-2.9,0-4.5,2.4-4.5,5.3v11.9h-5.2
		L287.6,9.2z"/>
	<polygon class="st1" points="212.8,45.4 212.8,50.2 210.6,50.2 210.6,52.7 208.4,52.7 208.4,55.1 206.2,55.1 206.2,57.6 204,57.6
		204,60 201.7,60 201.7,57.6 199.5,57.6 199.5,55.1 197.3,55.1 197.3,52.7 195.1,52.7 195.1,50.2 192.9,50.2 192.9,45.4 195.1,45.4
		195.1,42.9 201.7,42.9 201.7,45.4 204,45.4 204,42.9 210.6,42.9 210.6,45.4 	"/>
	<polygon class="st2" points="210,47 210,48.6 206.9,48.6 206.9,45.4 208.5,45.4 208.5,47 	"/>
	<path d="M96.4,54.3c0,2-1.9,3.5-4.5,3.5s-4.6-1.4-4.7-3.8v-0.1h1.9V54c0.2,1.8,1.6,2.2,2.8,2.2s2.7-0.5,2.7-1.8
		c0-0.9-0.5-1.4-1.7-1.8l-2.3-0.7c-2-0.6-3-1.7-3-3.4s1.8-3.3,4.2-3.3c2.6,0,4.2,1.3,4.4,3.6v0.1h-1.8v-0.1c-0.1-1.3-1-1.9-2.5-1.9
		s-2.3,0.6-2.3,1.6c0,1,0.4,1.4,1.8,1.8l1.9,0.5c0.8,0.2,1.6,0.5,2.3,1C96.1,52.3,96.5,53.3,96.4,54.3z"/>
	<polygon points="106.1,45.4 106.1,47.1 102.5,47.1 102.5,57.6 100.6,57.6 100.6,47.1 97.1,47.1 97.1,45.4 	"/>
	<polygon points="120.2,47.1 120.2,50.4 125.4,50.4 125.4,52.2 120.2,52.2 120.2,57.6 118.3,57.6 118.3,45.4 125.8,45.4 125.8,47.1
			"/>
	<polygon points="136.3,45.4 136.3,47.1 132.8,47.1 132.8,57.6 130.9,57.6 130.9,47.1 127.4,47.1 127.4,45.4 	"/>
	<polygon points="139.8,47.1 139.8,50.4 145.2,50.4 145.2,52.2 139.8,52.2 139.8,55.8 146,55.8 146,57.6 137.9,57.6 137.9,45.4
		146,45.4 146,47.1 	"/>
	<polygon points="155.3,55.8 155.3,57.6 148,57.6 148,45.4 149.9,45.4 149.9,55.8 	"/>
	<path d="M165.6,54.3c0,2-1.9,3.5-4.5,3.5c-2.6,0-4.6-1.5-4.7-3.8v-0.1h1.9V54c0.2,1.8,1.6,2.2,2.8,2.2c1.2,0,2.7-0.5,2.7-1.8
		c0-0.9-0.5-1.4-1.7-1.8l-2.3-0.7c-2-0.6-2.9-1.7-2.9-3.4s1.8-3.3,4.2-3.3c2.6,0,4.2,1.3,4.4,3.6v0.1h-1.9v-0.1
		c-0.1-1.3-1-1.9-2.5-1.9s-2.3,0.6-2.3,1.6c0,1,0.4,1.4,1.8,1.8l1.9,0.5C163.9,51.1,165.6,51.9,165.6,54.3z"/>
	<polygon points="169.7,47.1 169.7,50.4 175.1,50.4 175.1,52.2 169.7,52.2 169.7,55.8 175.9,55.8 175.9,57.6 167.8,57.6 167.8,45.4
		175.9,45.4 175.9,47.1 	"/>
	<polygon points="187.4,45.4 187.4,57.6 184.9,57.6 180.3,48.2 180.1,47.8 180.1,57.6 178.3,57.6 178.3,45.4 180.8,45.4 185.6,55
		185.6,45.4 	"/>
	<polygon points="113,47.1 113,55.9 116.1,55.9 116.1,57.6 108,57.6 108,55.9 111.1,55.9 111.1,47.1 108,47.1 108,45.4 116.1,45.4
		116.1,47.1 	"/>
	<polygon points="22.1,45.4 22.1,57.6 19.6,57.6 15,48.2 14.8,47.8 14.8,57.6 13,57.6 13,45.4 15.5,45.4 20.2,55 20.2,45.4 	"/>
	<polygon points="32.8,45.4 32.8,47.1 29.2,47.1 29.2,57.6 27.3,57.6 27.3,47.1 23.8,47.1 23.8,45.4 	"/>
	<polygon points="36.4,47.1 36.4,50.4 41.8,50.4 41.8,52.2 36.4,52.2 36.4,55.8 42.6,55.8 42.6,57.6 34.5,57.6 34.5,45.4 42.6,45.4
		42.6,47.1 	"/>
	<path d="M50.4,52.4h0.2c0.6-0.1,1.2-0.4,1.7-0.9c0.6-0.7,1-1.6,0.9-2.6c0.1-1-0.3-1.9-0.9-2.6c-0.8-0.7-1.9-1-2.9-0.9h-4.6v12.1
		h1.9v-5h1.8l0,0l2.8,5h2.2L50.4,52.4z M46.7,50.8v-3.7H50c0.6-0.1,1.2,0.4,1.2,1l0,0l0,0c0,0.1,0,0.2,0,0.2v1.3
		c0,0.6-0.4,1.2-1.1,1.2l0,0H50H46.7z"/>
	<polygon points="64.9,45.4 64.9,57.6 62.3,57.6 57.7,48.2 57.6,47.8 57.6,57.6 55.7,57.6 55.7,45.4 58.2,45.4 63,55 63,45.4 	"/>
	<polygon points="69.5,47.1 69.5,50.4 74.9,50.4 74.9,52.2 69.5,52.2 69.5,55.8 75.6,55.8 75.6,57.6 67.5,57.6 67.5,45.4 75.6,45.4
		75.6,47.1 	"/>
	<polygon points="86.4,45.4 86.4,47.1 82.9,47.1 82.9,57.6 80.9,57.6 80.9,47.1 77.4,47.1 77.4,45.4 	"/>
	<polygon points="7.5,47.1 7.5,55.8 10.6,55.8 10.6,57.5 2.5,57.5 2.5,55.8 5.6,55.8 5.6,47.1 2.5,47.1 2.5,45.4 10.6,45.4
		10.6,47.1 	"/>
</g>
</svg>
