<svg xmlns="http://www.w3.org/2000/svg" viewBox="0 0 324.5 59.6" xml:space="preserve"><defs><style>.cls-1{fill:transparent}.cls-2{fill:#ff4069;}</style></defs><title>internetmuseum</title><g id="Layer_2" data-name="Layer 2"><rect class="cls-1" width="324.5" height="59.9"/></g><g id="Lager_1" data-name="Lager 1"><path d="M5.6.2h5.5V30.6H5.6Z"/><path d="M16.5,9.1h5.2v2.5A7.87,7.87,0,0,1,28,8.7c5.6,0,7.9,4.5,7.9,9v13H30.7V18.4c0-2.8-1.4-4.9-4.1-4.9-3,0-4.8,1.6-4.8,5.3V30.6H16.5Z"/><path d="M42,24.7V13.5H38.5V9.1H42V3.8L47.3,0V9.1h5.4v4.4H47.3V23.7c0,2.1,1,2.7,2.4,2.7a6.43,6.43,0,0,0,3-.8v4.8a10.55,10.55,0,0,1-3.9.6C44.5,31,42,28.6,42,24.7Z"/><path d="M55.2,19.9c0-5.6,3.3-11.3,10.5-11.3,7.5,0,10,6,10,10.9a7.42,7.42,0,0,1-.2,2.1H60.8c.5,2.8,2,4.7,5.4,4.7A6.53,6.53,0,0,0,71.4,24L75,27.2A11,11,0,0,1,66.2,31C58.7,31,55.2,25.7,55.2,19.9Zm15.4-2.1a4.54,4.54,0,0,0-4.36-4.7H65.8c-3.1,0-4.5,2-5,4.7Z"/><path d="M79.4,9.1h5.1v3.6a6.25,6.25,0,0,1,5.8-4.1,5.12,5.12,0,0,1,3.9,1.6l-2.4,4.3a3.86,3.86,0,0,0-2.3-.7c-2.5,0-5,2.3-5,7.8v9.1H79.4Z"/><path d="M96.7,9.1H102v2.5a7.87,7.87,0,0,1,6.3-2.9c5.6,0,7.9,4.5,7.9,9v13h-5.3V18.4c0-2.8-1.4-4.9-4.1-4.9-3,0-4.8,1.6-4.8,5.3V30.6H96.7Z"/><path d="M119.6,19.9c0-5.6,3.3-11.3,10.6-11.3,7.5,0,10,6,10,10.9a7.42,7.42,0,0,1-.2,2.1H125.2c.5,2.8,2,4.7,5.4,4.7a6.53,6.53,0,0,0,5.2-2.3l3.6,3.2a11,11,0,0,1-8.8,3.8C123.1,31,119.6,25.7,119.6,19.9Zm15.3-2.1a4.54,4.54,0,0,0-4.36-4.7h-.44c-3.1,0-4.5,2-5,4.7Z"/><path d="M145.1,24.7V13.5h-3.5V9.1h3.6V3.8L150.4,0V9.1h5.4v4.4h-5.4V23.7c0,2.1,1,2.7,2.4,2.7a6.43,6.43,0,0,0,3-.8v4.8a10.55,10.55,0,0,1-3.9.6C147.6,31,145.1,28.6,145.1,24.7Z"/><path d="M160.2,9.1h5.1v2.7a6,6,0,0,1,5.8-3.1,6.56,6.56,0,0,1,6.4,3.8,7.76,7.76,0,0,1,6.9-3.8c5.5,0,7.7,4.5,7.7,9v13h-5.2V18.4c0-2.6-.8-4.8-3.5-4.8s-4.5,2.4-4.5,5.3V30.7h-5.3V18.3c0-2.6-.8-4.7-3.5-4.7-2.9,0-4.5,2.4-4.5,5.3V30.7h-5.3Z"/><path d="M196.3,22V9.1h5.2V21.3c0,2.8,1.4,4.9,4.1,4.9,2.9,0,4.8-1.6,4.8-5.3V9.1h5.2V30.6h-5.2V28.1a8.33,8.33,0,0,1-6.4,3C198.5,31,196.3,26.5,196.3,22Z"/><path d="M218.6,25l4.2-1.9c.6,1.5,1.7,3.5,4.6,3.5,2.4,0,3.5-1.4,3.5-2.6,0-3.6-10.8-1.2-10.8-8.8,0-4.5,3.8-6.7,8-6.7a9.08,9.08,0,0,1,8.2,4.7l-4.1,2.2a4.62,4.62,0,0,0-4.3-2.7c-1.7,0-2.8.8-2.8,1.9,0,3.3,10.9,1.3,10.9,9.2,0,5-4.3,7.2-8.4,7.2A9.07,9.07,0,0,1,218.6,25Z"/><path d="M238.9,19.9c0-5.6,3.3-11.3,10.6-11.3,7.5,0,10,6,10,10.9a7.42,7.42,0,0,1-.2,2.1H244.5c.4,2.8,2,4.7,5.4,4.7a6.53,6.53,0,0,0,5.2-2.3l3.6,3.2a11,11,0,0,1-8.8,3.8C242.4,31,238.9,25.7,238.9,19.9Zm15.3-2.1a4.54,4.54,0,0,0-4.36-4.7h-.54c-3.1,0-4.4,2-4.9,4.7Z"/><path d="M263.3,22V9.1h5.2V21.3c0,2.8,1.4,4.9,4.1,4.9,3,0,4.8-1.6,4.8-5.3V9.1h5.2V30.6h-5.2V28.1a8.33,8.33,0,0,1-6.4,3C265.4,31,263.3,26.5,263.3,22Z"/><path d="M287.7,9.1h5.1v2.7a6,6,0,0,1,5.8-3.1,6.56,6.56,0,0,1,6.4,3.8,7.76,7.76,0,0,1,6.9-3.8c5.5,0,7.7,4.5,7.7,9v13h-5.2V18.4c0-2.6-.8-4.8-3.5-4.8s-4.5,2.4-4.5,5.3V30.7h-5.3V18.3c0-2.6-.8-4.7-3.5-4.7-2.9,0-4.5,2.4-4.5,5.3V30.7h-5.2Z"/><polygon class="cls-2" points="213.1 45.1 213.1 49.9 210.9 49.9 210.9 52.3 208.7 52.3 208.7 54.7 206.5 54.7 206.5 57.2 204.3 57.2 204.3 59.6 201.9 59.6 201.9 57.2 199.7 57.2 199.7 54.7 197.6 54.7 197.6 52.3 195.4 52.3 195.4 49.9 193.2 49.9 193.2 45.1 195.4 45.1 195.4 42.7 201.9 42.7 201.9 45.1 204.3 45.1 204.3 42.7 210.9 42.7 210.9 45.1 213.1 45.1"/><polygon class="cls-1" points="210.2 46.7 210.2 48.3 207.2 48.3 207.2 45.1 208.8 45.1 208.8 46.7 210.2 46.7"/><path d="M96.8,53.9c0,2-1.9,3.5-4.5,3.5s-4.6-1.4-4.7-3.8v-.1h1.9v.1c.2,1.8,1.6,2.2,2.8,2.2S95,55.3,95,54c0-.9-.5-1.4-1.7-1.8L91,51.5c-2-.6-3-1.7-3-3.4s1.8-3.3,4.2-3.3c2.6,0,4.2,1.3,4.4,3.6v.1H94.8v-.1c-.1-1.3-1-1.9-2.5-1.9s-2.3.6-2.3,1.6.4,1.4,1.8,1.8l1.9.5a6.94,6.94,0,0,1,2.3,1A4.66,4.66,0,0,1,96.8,53.9Z"/><polygon points="106.4 45.1 106.4 46.8 102.9 46.8 102.9 57.2 101 57.2 101 46.8 97.5 46.8 97.5 45.1 106.4 45.1"/><polygon points="120.5 46.8 120.5 50.1 125.7 50.1 125.7 51.9 120.5 51.9 120.5 57.2 118.6 57.2 118.6 45.1 126.1 45.1 126.1 46.8 120.5 46.8"/><polygon points="136.7 45.1 136.7 46.8 133.2 46.8 133.2 57.2 131.2 57.2 131.2 46.8 127.7 46.8 127.7 45.1 136.7 45.1"/><polygon points="140.2 46.8 140.2 50.1 145.6 50.1 145.6 51.9 140.2 51.9 140.2 55.4 146.4 55.4 146.4 57.2 138.3 57.2 138.3 45.1 146.4 45.1 146.4 46.8 140.2 46.8"/><polygon points="155.6 55.4 155.6 57.2 148.4 57.2 148.4 45.1 150.3 45.1 150.3 55.4 155.6 55.4"/><path d="M165.8,53.9c0,2-1.9,3.5-4.5,3.5s-4.6-1.5-4.7-3.8v-.1h1.9v.1c.2,1.8,1.6,2.2,2.8,2.2s2.7-.5,2.7-1.8c0-.9-.5-1.4-1.7-1.8l-2.3-.7c-2-.6-2.9-1.7-2.9-3.4s1.8-3.3,4.2-3.3c2.6,0,4.2,1.3,4.4,3.6v.1h-1.9v-.1c-.1-1.3-1-1.9-2.5-1.9s-2.3.6-2.3,1.6.4,1.4,1.8,1.8l1.9.5C164.2,50.8,165.8,51.6,165.8,53.9Z"/><polygon points="170 46.8 170 50.1 175.4 50.1 175.4 51.9 170 51.9 170 55.4 176.2 55.4 176.2 57.2 168.1 57.2 168.1 45.1 176.2 45.1 176.2 46.8 170 46.8"/><polygon points="187.7 45.1 187.7 57.2 185.1 57.2 180.6 47.9 180.4 47.5 180.4 57.2 178.5 57.2 178.5 45.1 181.1 45.1 185.8 54.6 185.8 45.1 187.7 45.1"/><polygon points="113.4 46.8 113.4 55.5 116.4 55.5 116.4 57.2 108.4 57.2 108.4 55.5 111.5 55.5 111.5 46.8 108.4 46.8 108.4 45.1 116.4 45.1 116.4 46.8 113.4 46.8"/><polygon points="22.6 45.1 22.6 57.2 20 57.2 15.4 47.9 15.3 47.5 15.3 57.2 13.4 57.2 13.4 45.1 16 45.1 20.7 54.6 20.7 45.1 22.6 45.1"/><polygon points="33.2 45.1 33.2 46.8 29.7 46.8 29.7 57.2 27.8 57.2 27.8 46.8 24.3 46.8 24.3 45.1 33.2 45.1"/><polygon points="36.8 46.8 36.8 50.1 42.2 50.1 42.2 51.9 36.8 51.9 36.8 55.4 43 55.4 43 57.2 34.9 57.2 34.9 45.1 43 45.1 43 46.8 36.8 46.8"/><path d="M50.9,52.1h0a3.1,3.1,0,0,0,1.8-.9,3.47,3.47,0,0,0,.9-2.6,3.1,3.1,0,0,0-.9-2.6,3.86,3.86,0,0,0-2.9-.9H45.2v12h1.9v-5h1.8l2.8,5h2.2Zm-3.8-1.6V46.8h3.3a1.06,1.06,0,0,1,1.19.91.28.28,0,0,1,0,.09h0v1.5a1.13,1.13,0,0,1-1.06,1.2H47.1Z"/><polygon points="65.2 45.1 65.2 57.2 62.7 57.2 58.1 47.9 57.9 47.5 57.9 57.2 56.1 57.2 56.1 45.1 58.6 45.1 63.4 54.6 63.4 45.1 65.2 45.1"/><polygon points="69.8 46.8 69.8 50.1 75.2 50.1 75.2 51.9 69.8 51.9 69.8 55.4 76 55.4 76 57.2 67.9 57.2 67.9 45.1 76 45.1 76 46.8 69.8 46.8"/><polygon points="86.8 45.1 86.8 46.8 83.2 46.8 83.2 57.2 81.3 57.2 81.3 46.8 77.8 46.8 77.8 45.1 86.8 45.1"/><polygon points="8 46.8 8 55.4 11.1 55.4 11.1 57.1 3 57.1 3 55.4 6.1 55.4 6.1 46.8 3 46.8 3 45.1 11.1 45.1 11.1 46.8 8 46.8"/></g></svg>
