<?xml version="1.0" encoding="utf-8"?>
<!-- Generator: Adobe Illustrator 24.1.0, SVG Export Plug-In . SVG Version: 6.00 Build 0)  -->
<svg version="1.1" id="Lager_1" xmlns="http://www.w3.org/2000/svg" xmlns:xlink="http://www.w3.org/1999/xlink" x="0px" y="0px"
	 viewBox="0 0 316 64" style="enable-background:new 0 0 316 64;" xml:space="preserve">
	<style type="text/css">
		.st0{fill:#F05172;}
		.st1{fill-rule:evenodd;clip-rule:evenodd;fill:#FFFFFF;}
		.st2{fill:none;}
	</style>
		<polygon class="st0" points="212,47.3 212,52.1 209.8,52.1 209.8,54.6 207.6,54.6 207.6,57 205.4,57 205.4,59.4
			203.3,59.4 203.3,61.8 200.9,61.8 200.9,59.4 198.7,59.4 198.7,57 196.5,57 196.5,54.6 194.3,54.6 194.3,52.1 192.1,52.1
			192.1,47.3 194.3,47.3 194.3,44.9 200.9,44.9 200.9,47.3 203.3,47.3 203.3,44.9 209.8,44.9 209.8,47.3"/>
	<polygon class="st1" points="209.2,48.9 209.2,50.5 206.2,50.5 206.2,47.3 207.7,47.3 207.7,48.9"/>
			<path d="M95.7,56.1c0,2-1.9,3.5-4.5,3.5c-2.7,0-4.6-1.5-4.7-3.8v-0.1h1.9v0.1c0.2,1.8,1.6,2.1,2.8,2.1
				c1.2,0,2.7-0.5,2.7-1.8c0-0.9-0.5-1.4-1.7-1.8l-2.3-0.6c-2-0.6-2.9-1.6-2.9-3.4c0-1.9,1.8-3.3,4.2-3.3
				c2.6,0,4.2,1.3,4.4,3.6v0.1h-1.9v-0.1c-0.1-1.3-1-1.9-2.5-1.9c-1.4,0-2.3,0.6-2.3,1.6s0.4,1.4,1.8,1.8l1.9,0.5
				c0.8,0.2,1.6,0.5,2.3,1.1C95.3,54.2,95.7,55,95.7,56.1z"/>
			<polygon points="105.4,47.3 105.4,49 101.8,49 101.8,59.4 99.9,59.4 99.9,49 96.4,49 96.4,47.3"/>
			<polygon points="119.5,49 119.5,52.4 124.7,52.4 124.7,54.1 119.5,54.1 119.5,59.4 117.6,59.4 117.6,47.3 125.1,47.3
				125.1,49"/>
			<polygon points="135.6,47.3 135.6,49 132.1,49 132.1,59.4 130.2,59.4 130.2,49 126.7,49 126.7,47.3"/>
			<polygon points="139.1,49 139.1,52.4 144.5,52.4 144.5,54.1 139.1,54.1 139.1,57.7 145.4,57.7 145.4,59.4 137.2,59.4
				137.2,47.3 145.4,47.3 145.4,49"/>
			<polygon points="154.6,57.7 154.6,59.4 147.3,59.4 147.3,47.3 149.2,47.3 149.2,57.7"/>
			<path d="M164.8,56.1c0,2-1.9,3.5-4.5,3.5c-2.7,0-4.5-1.5-4.7-3.8v-0.1h1.9v0.1c0.2,1.8,1.6,2.1,2.8,2.1s2.7-0.5,2.7-1.8
				c0-0.9-0.5-1.4-1.7-1.8l-2.3-0.6c-2-0.6-2.9-1.6-2.9-3.4c0-1.9,1.8-3.3,4.2-3.3c2.6,0,4.2,1.3,4.4,3.6v0.1h-1.9v-0.1
				c-0.1-1.3-1-1.9-2.5-1.9c-1.4,0-2.3,0.6-2.3,1.6s0.4,1.4,1.8,1.8l1.9,0.5C163.1,53.1,164.8,53.8,164.8,56.1z"/>
			<polygon points="168.9,49 168.9,52.4 174.3,52.4 174.3,54.1 168.9,54.1 168.9,57.7 175.1,57.7 175.1,59.4 167,59.4
				167,47.3 175.1,47.3 175.1,49"/>
			<polygon points="186.6,47.3 186.6,59.4 184.1,59.4 179.5,50.1 179.3,49.8 179.3,59.4 177.5,59.4 177.5,47.3 180,47.3
				184.8,56.9 184.8,47.3"/>
			<polygon points="112.3,49 112.3,57.7 115.4,57.7 115.4,59.5 107.3,59.5 107.3,57.7 110.4,57.7 110.4,49 107.3,49
				107.3,47.3 115.4,47.3 115.4,49"/>
	<polygon points="21.5,47.3 21.5,59.4 19,59.4 14.4,50.1 14.2,49.8 14.2,59.4 12.4,59.4 12.4,47.3 14.9,47.3 19.7,56.9
		19.7,47.3"/>
	<polygon points="32.2,47.3 32.2,49 28.7,49 28.7,59.4 26.7,59.4 26.7,49 23.2,49 23.2,47.3"/>
	<polygon points="35.8,49 35.8,52.4 41.2,52.4 41.2,54.1 35.8,54.1 35.8,57.7 42,57.7 42,59.4 33.9,59.4 33.9,47.3 42,47.3
		42,49"/>
	<path d="M49.9,54.3L49.9,54.3c0.8-0.1,1.4-0.4,1.8-0.9c0.6-0.6,0.9-1.4,0.9-2.6c0-1.2-0.3-2.1-0.9-2.6
		c-0.6-0.6-1.6-0.9-2.9-0.9h-4.6v12.1h1.9v-5h1.7l0,0l2.7,5h2.2L49.9,54.3z M46.1,52.7V49h3.3c0.8,0,1.2,0.4,1.2,1.2v1.3
		c0,0.6-0.4,1.2-1.2,1.2H46.1z"/>
	<polygon points="64.2,47.3 64.2,59.4 61.6,59.4 57.1,50.1 56.9,49.8 56.9,59.4 55,59.4 55,47.3 57.6,47.3 62.3,56.9
		62.3,47.3"/>
	<polygon points="68.8,49 68.8,52.4 74.2,52.4 74.2,54.1 68.8,54.1 68.8,57.7 75,57.7 75,59.4 66.9,59.4 66.9,47.3 75,47.3
		75,49"/>
	<polygon points="85.7,47.3 85.7,49 82.2,49 82.2,59.4 80.3,59.4 80.3,49 76.7,49 76.7,47.3"/>
	<polygon points="6.9,49 6.9,57.6 10,57.6 10,59.4 2,59.4 2,57.6 5,57.6 5,49 2,49 2,47.3 10,47.3 10,49"/>
	<path d="M3.9,2.3h5.5v30.4H3.9V2.3z"/>
	<path d="M16,11.2h5.2v2.5c1.7-2.1,4.2-2.9,6.3-2.9c5.6,0,7.8,4.5,7.8,9v12.9h-5.2V20.5c0-2.8-1.4-4.9-4.1-4.9
		c-2.9,0-4.8,1.6-4.8,5.3v11.8H16V11.2z"/>
	<path d="M40.5,26.8V15.6H37v-4.4h3.5V5.9l5.2-3.7v9.1h5.4v4.4h-5.4v10.2c0,2.1,1,2.7,2.4,2.7c1.1,0,2.3-0.4,3-0.8v4.7
		c-0.8,0.3-2.3,0.6-3.9,0.6C43,33.1,40.5,30.7,40.5,26.8z"/>
	<path d="M53.4,22c0-5.6,3.3-11.3,10.5-11.3c7.5,0,9.9,6,9.9,10.8c0,0.9-0.1,1.8-0.2,2.1H58.9c0.5,2.8,2,4.7,5.4,4.7
		c1.9,0,3.7-0.6,5.2-2.3l3.6,3.2c-2.3,2.6-5.2,3.9-8.8,3.9C56.9,33.1,53.4,27.8,53.4,22z M68.7,19.9c0-0.5,0-0.9-0.2-1.4
		c-0.5-2.2-2.4-3.4-4.7-3.4c-3.1,0-4.4,2-4.9,4.7h9.8V19.9z"/>
	<path d="M77.8,11.2h5.1v3.6c0.9-2.6,3.4-4.1,5.8-4.1c1.4,0,2.9,0.5,3.9,1.5l-2.4,4.3c-0.7-0.5-1.5-0.7-2.3-0.7c-2.4,0-5,2.3-5,7.7
		v9.1h-5.1V11.2z"/>
	<path d="M95,11.2h5.2v2.5c1.7-2.1,4.2-2.9,6.3-2.9c5.6,0,7.8,4.5,7.8,9v12.9h-5.2V20.5c0-2.8-1.4-4.9-4.1-4.9
		c-2.9,0-4.8,1.6-4.8,5.3v11.8H95V11.2z"/>
	<path d="M117.7,22c0-5.6,3.3-11.3,10.5-11.3c7.5,0,9.9,6,9.9,10.8c0,0.9-0.1,1.8-0.2,2.1h-14.7c0.5,2.8,2,4.7,5.4,4.7
		c1.9,0,3.7-0.6,5.2-2.3l3.6,3.2c-2.3,2.6-5.2,3.9-8.8,3.9C121.2,33.1,117.7,27.8,117.7,22z M133,19.9c0-0.5,0-0.9-0.2-1.4
		c-0.5-2.2-2.4-3.4-4.7-3.4c-3.1,0-4.4,2-4.9,4.7h9.8V19.9z"/>
	<path d="M143,26.8V15.6h-3.5v-4.4h3.5V5.9l5.2-3.7v9.1h5.4v4.4h-5.4v10.2c0,2.1,1,2.7,2.4,2.7c1.1,0,2.3-0.4,3-0.8v4.7
		c-0.8,0.3-2.3,0.6-3.9,0.6C145.5,33.1,143,30.7,143,26.8z"/>
	<path d="M157.8,2.3h5.2v17.8l8.1-8.9h6.8l-8,8.3l8.9,13.1h-6.2l-6.3-9.9l-3.3,3.7v6.3h-5.2V2.3z"/>
	<path d="M180.6,24.1V11.2h5.2v12.2c0,2.8,1.4,4.8,4.1,4.8c2.9,0,4.8-1.6,4.8-5.3V11.2h5.2v21.5h-5.2v-2.5
		c-1.7,2.1-4.2,2.9-6.3,2.9C182.7,33.1,180.6,28.6,180.6,24.1z"/>
	<path d="M203.9,11.2h5.2v2.5c1.7-2.1,4.2-2.9,6.3-2.9c5.6,0,7.8,4.5,7.8,9v12.9H218V20.5c0-2.8-1.4-4.9-4.1-4.9
		c-2.9,0-4.8,1.6-4.8,5.3v11.8h-5.2V11.2z"/>
	<path d="M225.9,27.1l4.2-1.8c0.6,1.5,1.7,3.5,4.6,3.5c2.4,0,3.5-1.4,3.5-2.6c0-3.6-10.8-1.2-10.8-8.8c0-4.5,3.8-6.7,8-6.7
		c3.7,0,6.5,1.8,8.1,4.7l-4.1,2.2c-0.7-1.3-1.9-2.7-4.3-2.7c-1.7,0-2.8,0.8-2.8,1.8c0,3.2,10.9,1.3,10.9,9.2c0,5-4.3,7.2-8.4,7.2
		C230.4,33.1,227,30.4,225.9,27.1z"/>
	<path d="M246.7,2.3h5.2v17.8l8.1-8.9h6.8l-8,8.3l8.9,13.1h-6.2l-6.3-9.9l-3.3,3.7v6.3h-5.2L246.7,2.3L246.7,2.3z"/>
	<path d="M286.9,19.7v13h-4.3l-0.3-2.9c-1.4,2.2-4.3,3.3-6.7,3.3c-4.4,0-7.8-2.5-7.8-7c0-4.7,3.7-6.2,8.6-6.2h5.8
		c-0.1-3.2-1.1-4.5-4.5-4.5c-2.5,0-4.1,1.5-5,3l-4-2.9c2.1-2.8,4.8-4.7,9-4.7C283.5,10.8,286.9,14.4,286.9,19.7z M282.2,23.9v-0.2
		h-5.5c-2.4,0-3.5,1.2-3.5,2.6s1.1,2.4,3.5,2.4C279.9,28.7,281.9,26.4,282.2,23.9z"/>
	<path d="M291.2,11.2h5.4v2.1c1.5-1.8,3.9-2.6,6.1-2.6c6,0,9.2,5.2,9.2,11.2s-3.2,11.2-9.3,11.2c-2.3,0-4.5-0.7-6-2.6v11h-5.4
		L291.2,11.2L291.2,11.2z M306.8,22c0-3.6-1.6-6.3-5.2-6.3s-5.3,2.7-5.3,6.3s1.7,6.4,5.3,6.4S306.8,25.5,306.8,22z"/>
	<rect class="st2" width="316" height="64"/>
</svg>
