<?xml version="1.0" encoding="utf-8"?>
<!-- Generator: Adobe Illustrator 23.0.2, SVG Export Plug-In . SVG Version: 6.00 Build 0)  -->
<svg version="1.1" id="Layer_1" xmlns="http://www.w3.org/2000/svg" xmlns:xlink="http://www.w3.org/1999/xlink" x="0px" y="0px"
	 viewBox="0 0 324.5 70" width="324.5px" height="70px" style="enable-background:new 0 0 324.5 70;" xml:space="preserve">
<style type="text/css">
	.st0{fill:none;}
	.st1{fill:#FF4069;}
	.st2{fill-rule:evenodd;clip-rule:evenodd;fill:#FFFFFF;}
</style>
<title>internetmuseum</title>
<g>
	<rect class="st0" width="324.5" height="70"/>
</g>
<path d="M63.6,56.5c-1.6-1.3-3.7-2-5.2-2.4L54.1,53C51,52.1,50,51.1,50,49s2-3.5,5.2-3.5c3.5,0,5.4,1.4,5.6,4.3v0.4h4.6l-0.1-0.4
	c-0.5-5.4-4.1-8.4-10.1-8.4c-5.6,0-9.7,3.2-9.7,7.6c0,4.1,2.2,6.7,6.8,8l5.3,1.5c2.7,0.8,3.9,1.9,3.9,4c0,2.9-3.2,4-6,4
	c-2.6,0-5.9-0.8-6.3-4.8v-0.4h-4.6l0.1,0.4c0.4,5.4,4.6,8.8,10.9,8.8c6.1,0,10.5-3.4,10.5-8.2C66.1,59.8,65.3,58,63.6,56.5z
	 M67.4,46.1h8.1v23.7H80V46.1h8.1V42H67.4V46.1z M115.9,69.8h4.5V57.7h11.9v-4.2h-11.9v-7.5h12.9V42h-17.4V69.8z M137,46.1h8.1v23.7
	h4.5V46.1h8.1V42H137V46.1z M161.1,69.8h18.8v-4.1h-14.2v-8H178v-4.2h-12.3v-7.5h14.2V42h-18.8V69.8z M188.7,42h-4.6v27.8H201v-4.1
	h-12.2V42z M216.1,54.1l-4.3-1.2c-3.1-0.8-4.1-1.8-4.1-4s2-3.5,5.2-3.5c3.5,0,5.4,1.4,5.6,4.3l0.1,0.4h4.6l-0.1-0.4
	c-0.5-5.3-4.2-8.3-10.1-8.3c-5.6,0-9.7,3.2-9.7,7.6c0,4.1,2.2,6.7,6.8,8l5.3,1.5c2.7,0.8,3.8,1.9,3.8,4c0,2.9-3.2,4-6,4
	c-2.6,0-5.9-0.8-6.3-4.8l-0.1-0.3h-4.6l0.1,0.4c0.5,5.4,4.6,8.8,10.9,8.8c6.1,0,10.5-3.4,10.5-8.2C223.7,56.9,219.8,55.2,216.1,54.1
	L216.1,54.1z M227.8,69.8h18.8v-4.1h-14.2v-8h12.4v-4.2h-12.4v-7.5h14.2V42h-18.8L227.8,69.8z M268,42v21.6L257.3,42l-0.1-0.1h-5.9
	v27.8h4.4V48.1l10.7,21.6v0.1h6V42H268z M92.3,46.2h7.1v19.5h-7.1v4.2h18.8v-4.2H104V46.2h7.1V42H92.3V46.2z M87,26.8L76.2,5.3V5.2
	h-6v27.8h4.4V11.4L85.4,33v0.1h5.9V5.2H87V26.8z M95.1,9.4h8v23.7h4.6V9.4h8.1V5.2H95.1V9.4z M138.2,29H124v-8h12.4v-4.2H124V9.4
	h14.2V5.2h-18.8v27.8h18.8V29z M155.8,21.4l0.3-0.1c1.6-0.3,2.9-0.9,4-2c1.4-1.4,2-3.3,2-5.9c0-2.7-0.7-4.8-2.2-6.1
	c-1.4-1.4-3.7-2-6.7-2h-10.5v27.8h4.4V21.6h4.1l0.1,0.1l6.3,11.4h5L155.8,21.4z M147.1,17.7V9.2h7.6c1.8,0,2.8,1,2.8,2.7v3
	c0,1.4-0.8,2.8-2.8,2.8C154.7,17.7,147.1,17.7,147.1,17.7z M188.4,5.2H184v21.6L173.3,5.3l-0.1-0.1h-5.9v27.8h4.4V11.4L182.4,33
	l0.1,0.1h5.9V5.2z M211.8,29h-14.1v-8H210v-4.2h-12.3V9.4h14.1V5.2h-18.7v27.8h18.7V29z M228.2,33.1V9.4h8V5.2h-20.7v4.1h8.1v23.7
	H228.2z M65.1,28.9h-7V9.4h7V5.2H46.4v4.2h7.1v19.5h-7.1v4.2h18.6V28.9z"/>
<path class="st1" d="M280.9,5.2v9.3h-4.2v4.6h-4.2v4.6h-4.2v4.6h-4.2V33h-4.6v-4.6h-4.2v-4.6h-4.2v-4.6H247v-4.6h-4.2V5.2h4.2V0.6
	h12.5v4.6h4.6V0.6h12.5v4.6H280.9z"/>
<path class="st2" d="M276.3,8.2v3h-5.8V5.1h2.9v3.1L276.3,8.2z"/>
</svg>
