<?xml version="1.0" encoding="utf-8"?>
<!-- Generator: Adobe Illustrator 23.0.3, SVG Export Plug-In . SVG Version: 6.00 Build 0)  -->
<svg version="1.1" id="Layer_1" xmlns="http://www.w3.org/2000/svg" xmlns:xlink="http://www.w3.org/1999/xlink" x="0px" y="0px"
	 viewBox="0 0 324 60" style="enable-background:new 0 0 324 60;" xml:space="preserve" width="324px" height="60px">
<style type="text/css">
	.st0{fill:none;}
	.st1{fill:#FF4069;}
	.st2{fill:#FFFFFF;}
</style>
<title>internetdagarna</title>
<g>
	<rect class="st0" width="324" height="60"/>
</g>
<g id="Lager_1">
	<path d="M9.3,0.2h5.5v30.6H9.3V0.2z"/>
	<path d="M20.3,9.2h5.2v2.5c1.6-1.9,3.9-3,6.3-3c5.6,0,7.9,4.5,7.9,9.1v13.1h-5.2V18.4c0-2.8-1.4-4.9-4.1-4.9c-3,0-4.8,1.6-4.8,5.3
		v11.9h-5.3V9.2z"/>
	<path d="M45.7,24.9V13.6h-3.5V9.2h3.5V3.8L50.9,0v9.2h5.4v4.4h-5.4v10.3c0,2.1,1,2.7,2.4,2.7c1,0,2.1-0.3,3-0.8v4.8
		c-1.3,0.4-2.6,0.6-3.9,0.6C48.2,31.2,45.7,28.8,45.7,24.9z"/>
	<path d="M58.8,20c0-5.6,3.3-11.4,10.5-11.4c7.5,0,10,6,10,10.9c0,0.7,0,1.4-0.2,2.1H64.4c0.5,2.8,2,4.7,5.4,4.7
		c2,0.1,3.9-0.8,5.2-2.3l3.6,3.2c-2.2,2.5-5.5,4-8.8,3.8C62.3,31.2,58.8,25.9,58.8,20z M74.2,17.9c0-0.5,0-0.9-0.2-1.4
		c-0.5-2.1-2.5-3.5-4.6-3.4c-3.1,0-4.5,2-5,4.7h9.8V17.9z"/>
	<path d="M83.1,9.2h5.1v3.6c0.9-2.4,3.2-4.1,5.8-4.1c1.5,0,2.9,0.5,3.9,1.6l-2.4,4.3c-0.7-0.5-1.5-0.7-2.3-0.7c-2.5,0-5,2.3-5,7.8
		v9.2h-5.1V9.2z"/>
	<path d="M100.3,9.2h5.3v2.5c1.5-1.9,3.9-3,6.3-3c5.6,0,7.9,4.5,7.9,9.1v13.1h-5.3V18.4c0-2.8-1.4-4.9-4.1-4.9
		c-2.9,0-4.8,1.6-4.8,5.3v11.9h-5.3V9.2z"/>
	<path d="M123.1,20c0-5.6,3.3-11.4,10.5-11.4c7.5,0,10,6,10,10.9c0,0.7,0,1.4-0.2,2.1h-14.8c0.4,2.8,2,4.7,5.4,4.7
		c2,0.1,3.9-0.8,5.2-2.3l3.6,3.2c-2.2,2.5-5.5,4-8.8,3.8C126.6,31.2,123.1,25.9,123.1,20z M138.5,17.9c0-0.5,0-0.9-0.2-1.4
		c-0.5-2.1-2.5-3.5-4.7-3.4c-3.1,0-4.5,2-5,4.7L138.5,17.9z"/>
	<path d="M148.7,24.9V13.6h-3.5V9.2h3.6V3.8L154,0v9.2h5.4v4.4H154v10.3c0,2.1,1,2.7,2.4,2.7c1,0,2.1-0.3,3-0.8v4.8
		c-1.3,0.4-2.6,0.6-3.9,0.6C151.2,31.2,148.7,28.8,148.7,24.9z"/>
	<path d="M162,19.9c0-5.9,3.3-11.3,9.2-11.3c2.3-0.1,4.5,0.8,6.1,2.6V0.2h5.3v30.6h-4.9l-0.2-2.4c-1.5,1.9-3.8,2.9-6.2,2.8
		C165.3,31.2,162,26,162,19.9z M177.8,19.9c0-3.6-1.6-6.4-5.2-6.4s-5.3,2.9-5.3,6.4s1.6,6.4,5.2,6.4S177.8,23.7,177.8,19.9z"/>
	<path d="M205.3,17.6v13.1H201l-0.3-2.9c-1.6,2.1-4.1,3.3-6.7,3.3c-4.4,0-7.8-2.5-7.8-7c0-4.7,3.7-6.2,8.6-6.2h5.8
		c-0.1-3.2-1.1-4.5-4.5-4.5c-2.1,0-4,1.2-5.1,3l-4-2.9c2-3,5.4-4.8,9-4.7C201.9,8.7,205.3,12.4,205.3,17.6z M200.6,21.8v-0.2h-5.6
		c-2.4,0-3.5,1.2-3.5,2.6s1.1,2.4,3.5,2.4C197.9,26.9,200.2,24.7,200.6,21.8z"/>
	<path d="M228.9,33.8c0,4.9-4.2,7.2-9.5,7.2c-6.8,0-10.3-3.3-10.3-7.8c0-0.3,0-0.6,0.1-0.9l2.5-2.1c-1.4-0.9-2.2-2.5-2.1-4.2
		c0-1.7,0.7-3.3,2-4.4c-1.2-1.4-1.8-3.2-1.8-5c0-4.7,4.1-8,8.8-8c1.8,0,3.5,0.4,5.1,1.4l3.2-2.8l2.7,3.3l-3.1,2.5
		c0.6,1.2,0.9,2.4,0.9,3.7c0,4.8-4,8-8.7,8c-1.4,0-2.8-0.3-4.1-0.8c-0.4,0.2-0.7,0.7-0.6,1.1c0,1.8,2.6,1.8,6.5,2.3
		C224.6,28,228.9,28.9,228.9,33.8z M223.9,34.4c0-1.6-1.7-2-5.3-2.4c-1.3-0.1-2.5-0.2-3.8-0.5l-1.2,1.9l0.1,0.6
		c0.6,2.2,2.9,2.9,5.5,2.9C222.1,36.9,223.9,36.1,223.9,34.4L223.9,34.4z M215.2,16.7c0,2.2,1.2,3.8,3.6,3.8c2.4,0,3.5-1.6,3.5-3.8
		s-1.2-3.9-3.5-3.9C216.5,12.8,215.2,14.4,215.2,16.7z"/>
	<path d="M250.6,17.6v13.1h-4.3l-0.3-2.9c-1.6,2.1-4.1,3.3-6.7,3.3c-4.4,0-7.8-2.5-7.8-7c0-4.7,3.8-6.2,8.6-6.2h5.8
		c-0.1-3.2-1.1-4.5-4.5-4.5c-2.1,0-4,1.2-5.1,3l-4-2.9c2-3,5.4-4.8,9.1-4.7C247.2,8.7,250.6,12.4,250.6,17.6z M245.9,21.8v-0.2h-5.6
		c-2.4,0-3.5,1.2-3.5,2.6s1.1,2.4,3.5,2.4C243.1,26.9,245.6,24.7,245.9,21.8z"/>
	<path d="M254.5,9.2h5.1v3.6c0.9-2.4,3.2-4.1,5.8-4.1c1.5,0,2.9,0.5,3.9,1.6l-2.4,4.3c-0.7-0.5-1.5-0.7-2.4-0.7c-2.5,0-5,2.3-5,7.8
		v9.2h-5.1L254.5,9.2z"/>
	<path d="M272.2,9.2h5.3v2.5c1.5-1.9,3.9-3,6.3-3c5.6,0,7.9,4.5,7.9,9.1v13.1h-5.3V18.4c0-2.8-1.4-4.9-4.1-4.9c-3,0-4.8,1.6-4.8,5.3
		v11.9h-5.3V9.2z"/>
	<path d="M314.5,17.6v13.1h-4.4l-0.3-2.9c-1.6,2.1-4,3.3-6.7,3.3c-4.4,0-7.8-2.5-7.8-7c0-4.7,3.7-6.2,8.6-6.2h5.8
		c-0.1-3.2-1-4.5-4.5-4.5c-2.1,0-4,1.2-5.1,3l-4-2.9c2-3,5.4-4.8,9-4.7C311,8.7,314.5,12.4,314.5,17.6z M309.7,21.8v-0.2h-5.6
		c-2.4,0-3.5,1.2-3.5,2.6s1.1,2.4,3.5,2.4C307,26.9,309.4,24.7,309.7,21.8L309.7,21.8z"/>
	<polygon class="st1" points="217.3,45.4 217.3,50.3 215.1,50.3 215.1,52.8 212.9,52.8 212.9,55.2 210.7,55.2 210.7,57.6
		208.5,57.6 208.5,60 206.1,60 206.1,57.6 203.9,57.6 203.9,55.2 201.8,55.2 201.8,52.8 199.6,52.8 199.6,50.3 197.5,50.3
		197.5,45.4 199.6,45.4 199.6,43 206.1,43 206.1,45.4 208.5,45.4 208.5,43 215.1,43 215.1,45.4 	"/>
	<polygon class="st2" points="214.4,47.1 214.4,48.6 211.4,48.6 211.4,45.4 213,45.4 213,47.1 	"/>
	<path d="M101.2,54.4c0,2-1.9,3.5-4.5,3.5c-2.6,0-4.6-1.5-4.7-3.9v-0.1h1.9V54c0.2,1.8,1.6,2.2,2.8,2.2c1.2,0,2.7-0.5,2.7-1.8
		c0-0.9-0.5-1.4-1.7-1.8l-2.3-0.7c-2-0.6-3-1.7-3-3.4s1.8-3.3,4.2-3.3c2.6,0,4.2,1.3,4.4,3.6v0.1h-1.8v-0.1c-0.1-1.3-1-1.9-2.5-1.9
		c-1.5,0-2.3,0.6-2.3,1.6c0,1,0.4,1.4,1.8,1.8l1.9,0.5c0.8,0.2,1.6,0.5,2.3,1C100.8,52.4,101.2,53.4,101.2,54.4z"/>
	<polygon points="110.8,45.4 110.8,47.1 107.3,47.1 107.3,57.6 105.4,57.6 105.4,47.1 101.9,47.1 101.9,45.4 	"/>
	<polygon points="124.8,47.1 124.8,50.5 130,50.5 130,52.2 124.8,52.2 124.8,57.6 122.9,57.6 122.9,45.4 130.4,45.4 130.4,47.1 	"/>
	<polygon points="141,45.4 141,47.1 137.5,47.1 137.5,57.6 135.5,57.6 135.5,47.1 132,47.1 132,45.4 	"/>
	<polygon points="144.5,47.1 144.5,50.5 149.9,50.5 149.9,52.2 144.5,52.2 144.5,55.9 150.7,55.9 150.7,57.6 142.6,57.6 142.6,45.4
		150.7,45.4 150.7,47.1 	"/>
	<polygon points="159.9,55.9 159.9,57.6 152.7,57.6 152.7,45.4 154.6,45.4 154.6,55.9 	"/>
	<path d="M170.1,54.4c0,2-1.9,3.5-4.5,3.5c-2.6,0-4.6-1.5-4.7-3.8V54h1.9v0.1c0.2,1.8,1.6,2.2,2.8,2.2c1.2,0,2.7-0.5,2.7-1.8
		c0-0.9-0.5-1.4-1.7-1.8l-2.3-0.7c-2-0.6-2.9-1.7-2.9-3.4s1.8-3.3,4.2-3.3c2.6,0,4.2,1.3,4.4,3.6v0.1h-1.9v-0.1
		c-0.1-1.3-1-1.9-2.5-1.9s-2.3,0.6-2.3,1.6c0,1,0.4,1.4,1.8,1.8l1.9,0.5C168.5,51.2,170.1,51.9,170.1,54.4z"/>
	<polygon points="174.3,47.1 174.3,50.5 179.7,50.5 179.7,52.2 174.3,52.2 174.3,55.9 180.5,55.9 180.5,57.6 172.4,57.6 172.4,45.4
		180.5,45.4 180.5,47.1 	"/>
	<polygon points="192,45.4 192,57.6 189.4,57.6 184.9,48.3 184.7,47.9 184.7,57.6 182.8,57.6 182.8,45.4 185.4,45.4 190.1,55.1
		190.1,45.4 	"/>
	<polygon points="117.8,47.1 117.8,56 120.8,56 120.8,57.7 112.8,57.7 112.8,56 115.9,56 115.9,47.1 112.8,47.1 112.8,45.4
		120.8,45.4 120.8,47.1 	"/>
	<polygon points="27.1,45.4 27.1,57.6 24.5,57.6 20,48.2 19.8,47.9 19.8,57.6 17.9,57.6 17.9,45.4 20.5,45.4 25.2,55.1 25.2,45.4
		"/>
	<polygon points="37.7,45.4 37.7,47.1 34.2,47.1 34.2,57.6 32.3,57.6 32.3,47.1 28.8,47.1 28.8,45.4 	"/>
	<polygon points="41.3,47.1 41.3,50.5 46.6,50.5 46.6,52.2 41.3,52.2 41.3,55.9 47.4,55.9 47.4,57.6 39.4,57.6 39.4,45.4 47.4,45.4
		47.4,47.1 	"/>
	<path d="M55.3,52.4L55.3,52.4c0.8-0.1,1.4-0.4,1.8-0.9c0.6-0.7,1-1.6,0.9-2.6c0.1-1-0.2-1.9-0.9-2.7c-0.8-0.6-1.9-1-2.9-0.9h-4.6
		v12.2h1.9v-5h1.8l2.8,5h2.2L55.3,52.4z M51.5,50.8v-3.7h3.3c0.6-0.1,1.2,0.4,1.2,1l0,0v1.5c0,0.6-0.5,1.2-1.1,1.2l0,0H51.5
		L51.5,50.8z"/>
	<polygon points="69.6,45.4 69.6,57.6 67.1,57.6 62.5,48.3 62.3,47.9 62.3,57.6 60.5,57.6 60.5,45.4 63,45.4 67.8,55.1 67.8,45.4
		"/>
	<polygon points="74.2,47.1 74.2,50.5 79.6,50.5 79.6,52.2 74.2,52.2 74.2,55.9 80.4,55.9 80.4,57.6 72.3,57.6 72.3,45.4 80.4,45.4
		80.4,47.1 	"/>
	<polygon points="91.2,45.4 91.2,47.1 87.6,47.1 87.6,57.6 85.7,57.6 85.7,47.1 82.2,47.1 82.2,45.4 	"/>
	<polygon points="12.5,47.1 12.5,55.9 15.6,55.9 15.6,57.6 7.5,57.6 7.5,55.9 10.6,55.9 10.6,47.1 7.5,47.1 7.5,45.4 15.6,45.4
		15.6,47.1 	"/>
</g>
</svg>
