<svg xmlns="http://www.w3.org/2000/svg" id="Logo" viewBox="0 0 368.5 396.96" fill="#ffffff"><defs/><path d="M184.88,146.54H98.59a216,216,0,0,0,6.3,48.59h73.67A216,216,0,0,0,184.88,146.54Z" class="cls-1" transform="translate(0 .57)"/><path d="M175.66,205.18H107.81c4.91,15,11.53,26.75,18.61,33.52,5.16,4.93,10.25,7.22,15.31,7.22s10.16-2.29,15.31-7.22,10.05-12.42,14.21-21.92C172.83,213.18,174.31,209.3,175.66,205.18Z" class="cls-1" transform="translate(0 .57)"/><path d="M188.77,87.4a228.59,228.59,0,0,1,6,48.6H247.7a105.64,105.64,0,0,0-14.55-48.6Z" class="cls-1" transform="translate(0 .57)"/><path d="M188.77,195.13h44.38a105.48,105.48,0,0,0,14.55-48.59H194.78A228.41,228.41,0,0,1,188.77,195.13Z" class="cls-1" transform="translate(0 .57)"/><path d="M180.32,61.77A144.49,144.49,0,0,1,186,77.36h40.39a106.13,106.13,0,0,0-61.53-39.65C170.87,43.8,176,52,180.32,61.77Z" class="cls-1" transform="translate(0 .57)"/><path d="M107.8,77.36h67.86c-4.92-15-11.54-26.75-18.62-33.52-5.15-4.94-10.24-7.22-15.31-7.23s-10.15,2.29-15.31,7.23-10,12.42-14.21,21.92C110.63,69.35,109.15,73.23,107.8,77.36Z" class="cls-1" transform="translate(0 .57)"/><path d="M98.58,136h86.3a216.69,216.69,0,0,0-6.31-48.6H104.9A216.74,216.74,0,0,0,98.58,136Z" class="cls-1" transform="translate(0 .57)"/><path d="M103.15,220.76a141.44,141.44,0,0,1-5.72-15.58H57a106.12,106.12,0,0,0,61.54,39.64C112.6,238.73,107.46,230.57,103.15,220.76Z" class="cls-1" transform="translate(0 .57)"/><path d="M186,205.18c-5.16,16.83-12.24,30.55-21.14,39.64a106.09,106.09,0,0,0,61.52-39.64Z" class="cls-1" transform="translate(0 .57)"/><path d="M50.32,87.4A105.4,105.4,0,0,0,35.77,136H88.68a228.59,228.59,0,0,1,6-48.6Z" class="cls-1" transform="translate(0 .57)"/><path d="M88.68,146.54H35.77a105.47,105.47,0,0,0,14.54,48.59H94.69A228.49,228.49,0,0,1,88.68,146.54Z" class="cls-1" transform="translate(0 .57)"/><path d="M97.43,77.36c5.16-16.83,12.23-30.55,21.13-39.64A106.12,106.12,0,0,0,57,77.36Z" class="cls-1" transform="translate(0 .57)"/><path d="M59.14,247.22l2,3.1a7.73,7.73,0,0,1-4.82,1.57,8.62,8.62,0,0,1-7.57-7.6,9.16,9.16,0,0,1,2.43-6.53A9.53,9.53,0,0,1,57.36,234a8,8,0,0,1,6.25,2,7.6,7.6,0,0,1,2.9,4.91,6.87,6.87,0,0,1-.67,3.67L62.54,243a3.75,3.75,0,0,0,.36-2.52,3.89,3.89,0,0,0-1.38-2.19,4.15,4.15,0,0,0-3.4-1q-1.86.28-3.88,2.71t-2.11,4.45a4,4,0,0,0,1.55,3.13,3.65,3.65,0,0,0,2.49.9A5.15,5.15,0,0,0,59.14,247.22Z" class="cls-2" transform="translate(0 .57)"/><path d="M61.86,257.37l9.33-15,11.34,7.06L81,252l-8.25-5.14-2.07,3.32,7.68,4.78-1.58,2.52-7.67-4.77-2.54,4.08,8.54,5.31-1.57,2.53Z" class="cls-2" transform="translate(0 .57)"/><path d="M78,267l7.17-16.13,7,3.11a13.25,13.25,0,0,1,3.64,2.14,4.16,4.16,0,0,1,1.23,2.4,5,5,0,0,1-.41,2.86,4.66,4.66,0,0,1-2.42,2.51,5.79,5.79,0,0,1-3.92.05,8.28,8.28,0,0,1,1.17,2.14,19.43,19.43,0,0,1,.73,3.46l.61,4-4-1.77L88,267.23a24.9,24.9,0,0,0-.7-3.15,2.79,2.79,0,0,0-.7-1.12A6.15,6.15,0,0,0,85,262l-.67-.3-3,6.73Zm7.46-7.83,2.46,1.1A14.2,14.2,0,0,0,91,261.38a1.94,1.94,0,0,0,1.24-.26,2.33,2.33,0,0,0,.87-1.06,2.1,2.1,0,0,0,.14-1.52,2.18,2.18,0,0,0-1-1.18q-.37-.24-2.4-1.14l-2.59-1.15Z" class="cls-2" transform="translate(0 .57)"/><path d="M100.38,275.86l4.13-14.07-5.13-1.51.84-2.86,13.73,4-.84,2.87-5.12-1.5-4.12,14.07Z" class="cls-2" transform="translate(0 .57)"/><path d="M112.74,279l3.4-17.32,3.56.7-3.4,17.32Z" class="cls-2" transform="translate(0 .57)"/><path d="M121.28,280.67l1.82-17.56,12.27,1.27-.3,3-8.67-.9-.43,4.16,7.48.77-.31,3-7.47-.77-.78,7.46Z" class="cls-2" transform="translate(0 .57)"/><path d="M138,282l.29-17.65,3.63.06L141.59,282Z" class="cls-2" transform="translate(0 .57)"/><path d="M157.64,274.67l3.61.79a8,8,0,0,1-13,4.42,9.07,9.07,0,0,1-2.87-6.34,9.55,9.55,0,0,1,1.73-7,8,8,0,0,1,5.87-2.95,7.57,7.57,0,0,1,5.51,1.44,7,7,0,0,1,2.12,3.08l-3.52,1.15a3.72,3.72,0,0,0-1.51-2,3.83,3.83,0,0,0-2.52-.58,4.12,4.12,0,0,0-3.12,1.68,6.85,6.85,0,0,0-.85,4.65c.19,2.23.74,3.78,1.63,4.65a4.05,4.05,0,0,0,3.31,1.14,3.65,3.65,0,0,0,2.4-1.11A5.17,5.17,0,0,0,157.64,274.67Z" class="cls-2" transform="translate(0 .57)"/><path d="M182.58,276.3l-3.85.9-2.44-3.55-7,1.64-.54,4.24-3.75.88,2.82-18.79,3.74-.87Zm-8.1-5.28-3.91-5.81-.88,6.93Z" class="cls-2" transform="translate(0 .57)"/><path d="M188.13,274.2l-5-13.78-5,1.83-1-2.81,13.45-4.89,1,2.81-5,1.82,5,13.78Z" class="cls-2" transform="translate(0 .57)"/><path d="M200,269.46l-7.51-16,3.29-1.55,7.51,16Z" class="cls-2" transform="translate(0 .57)"/><path d="M202.82,258.68a10.89,10.89,0,0,1-1.65-4.3,8.27,8.27,0,0,1,.17-2.93,7.11,7.11,0,0,1,1.16-2.57,10.31,10.31,0,0,1,3-2.62,8.58,8.58,0,0,1,6.7-1.24,10.65,10.65,0,0,1,7,11.46,9.59,9.59,0,0,1-10.87,6.62A9,9,0,0,1,202.82,258.68Zm3.13-2.05a6.52,6.52,0,0,0,3.57,3.15,4.67,4.67,0,0,0,3.87-.54,4.59,4.59,0,0,0,2.25-3.17,6.69,6.69,0,0,0-1.2-4.66,6.57,6.57,0,0,0-3.51-3.16,5.11,5.11,0,0,0-6.17,3.77A6.6,6.6,0,0,0,206,256.63Z" class="cls-2" transform="translate(0 .57)"/><path d="M226.21,254.09l-11.29-13.56,2.71-2.27,13.21,4.35-7.54-9.06,2.59-2.16L237.19,245l-2.8,2.33-12.95-4.2,7.37,8.85Z" class="cls-2" transform="translate(0 .57)"/><path d="M59.76,48.55,48.25,35.17,51,32.8,62.52,46.18Z" class="cls-2" transform="translate(0 .57)"/><path d="M61,39.73l2.7-2.31a4.21,4.21,0,0,0,2.53,1.34,4,4,0,0,0,2.63-.85,4,4,0,0,0,1.74-2.12,2.17,2.17,0,0,0-.25-1.91,1.63,1.63,0,0,0-.93-.65,3.05,3.05,0,0,0-1.5.13c-.44.13-1.38.48-2.83,1a9.93,9.93,0,0,1-4.36.94,4.55,4.55,0,0,1-3.4-2,4.48,4.48,0,0,1-.82-2.51,4.85,4.85,0,0,1,.81-2.75,9.15,9.15,0,0,1,2.54-2.55,7.67,7.67,0,0,1,5-1.75A5.09,5.09,0,0,1,68.6,26L65.72,28.2a3,3,0,0,0-1.95-1,3.73,3.73,0,0,0-2.22.84A4.23,4.23,0,0,0,59.89,30a1.28,1.28,0,0,0,.16,1.23,1.38,1.38,0,0,0,1.06.57,9.74,9.74,0,0,0,3.41-1,18.1,18.1,0,0,1,3.94-1.22,5,5,0,0,1,2.66.32,5.12,5.12,0,0,1,2.21,1.88,5.16,5.16,0,0,1,.08,5.83,10.26,10.26,0,0,1-2.83,2.78,7.83,7.83,0,0,1-5.17,1.76A6.63,6.63,0,0,1,61,39.73Z" class="cls-2" transform="translate(0 .57)"/><path d="M73.91,27.13a10.87,10.87,0,0,1-1.32-4.41A8,8,0,0,1,73,19.81a7.15,7.15,0,0,1,1.35-2.48A10.12,10.12,0,0,1,77.47,15a8.56,8.56,0,0,1,6.78-.74,9.17,9.17,0,0,1,5.18,4.91,9.11,9.11,0,0,1,.93,7,8.51,8.51,0,0,1-4.55,5A8.55,8.55,0,0,1,79,32,9,9,0,0,1,73.91,27.13Zm3.28-1.81a6.54,6.54,0,0,0,3.33,3.41,4.91,4.91,0,0,0,6.37-3.24,6.59,6.59,0,0,0-.84-4.73,6.51,6.51,0,0,0-3.27-3.42,5.1,5.1,0,0,0-6.43,3.3A6.58,6.58,0,0,0,77.19,25.32Z" class="cls-2" transform="translate(0 .57)"/><path d="M112.27,17.69l.86,3L101.5,24a8.22,8.22,0,0,1,.2-3.58,23,23,0,0,1,2.57-5.13,24.28,24.28,0,0,0,2-3.57,3.7,3.7,0,0,0,.11-2.19,2.31,2.31,0,0,0-1.07-1.5A2.39,2.39,0,0,0,103.45,8,2.31,2.31,0,0,0,102,9.05a3.18,3.18,0,0,0-.13,2.24l-3.4.62a5.55,5.55,0,0,1,.75-4.39,6.6,6.6,0,0,1,3.56-2.28,6,6,0,0,1,4.42.2,4.61,4.61,0,0,1,2.43,3,6,6,0,0,1,.2,2.3,9.14,9.14,0,0,1-.71,2.55A20.23,20.23,0,0,1,107.55,16c-.78,1.24-1.26,2.06-1.45,2.44a6.11,6.11,0,0,0-.42,1.1Z" class="cls-2" transform="translate(0 .57)"/><path d="M112.87,6.15l-.52-3.1,11.64-2,.41,2.43A18,18,0,0,0,122.14,8a23.27,23.27,0,0,0-1.34,5.91,19.94,19.94,0,0,0,.11,5.36l-3.29.55a22.17,22.17,0,0,1,.29-7.62,24.77,24.77,0,0,1,2.7-7.35Z" class="cls-2" transform="translate(0 .57)"/><path d="M133.75,0a5,5,0,0,1,4.18,1.61q1.88,2.06,2.15,7.08c.18,3.33-.27,5.76-1.37,7.28a4.93,4.93,0,0,1-4,2,5.17,5.17,0,0,1-4.34-1.74c-1.15-1.26-1.81-3.58-2-7s.28-5.74,1.37-7.26A5,5,0,0,1,133.75,0Zm.15,2.8a1.76,1.76,0,0,0-1.09.46,2.59,2.59,0,0,0-.69,1.44A19.17,19.17,0,0,0,132,9.15a19.1,19.1,0,0,0,.55,4.25,3.08,3.08,0,0,0,.89,1.5,1.76,1.76,0,0,0,1.13.32,1.72,1.72,0,0,0,1.1-.45,2.62,2.62,0,0,0,.68-1.44,18.93,18.93,0,0,0,.12-4.42,18.84,18.84,0,0,0-.56-4.25A3,3,0,0,0,135,3.15,1.73,1.73,0,0,0,133.9,2.82Z" class="cls-2" transform="translate(0 .57)"/><path d="M149.51,0a5,5,0,0,1,4,2.05C154.58,3.57,155,6,154.85,9.34s-.9,5.7-2.16,7.09A4.94,4.94,0,0,1,148.52,18a5.18,5.18,0,0,1-4.12-2.21q-1.5-2.07-1.22-7.14c.18-3.32.9-5.67,2.16-7.07A5,5,0,0,1,149.51,0Zm-.16,2.8a1.81,1.81,0,0,0-1.14.33,2.58,2.58,0,0,0-.83,1.36,18.52,18.52,0,0,0-.6,4.39,19,19,0,0,0,.09,4.28,3,3,0,0,0,.71,1.59,1.72,1.72,0,0,0,1.09.45,1.78,1.78,0,0,0,1.14-.33,2.65,2.65,0,0,0,.84-1.36,18.92,18.92,0,0,0,.59-4.38,18.53,18.53,0,0,0-.08-4.28,3,3,0,0,0-.72-1.6A1.81,1.81,0,0,0,149.35,2.81Z" class="cls-2" transform="translate(0 .57)"/><path d="M165.23,19.72l-3.41-.57,2.11-12.58a11.89,11.89,0,0,1-4.82,1.79l.51-3a9.86,9.86,0,0,0,3.16-1.13,6.26,6.26,0,0,0,2.62-2.43l2.76.47Z" class="cls-2" transform="translate(0 .57)"/><path d="M171.65,21.15l.86-3.27,3.34.88L175,22ZM174,12.06l.86-3.28,3.34.88-.86,3.28Z" class="cls-2" transform="translate(0 .57)"/><path d="M190.43,23.92l-1.08,2.95L178,22.74A8.11,8.11,0,0,1,180.24,20a22.82,22.82,0,0,1,5.1-2.65A25.28,25.28,0,0,0,189,15.58a3.66,3.66,0,0,0,1.38-1.7,2.32,2.32,0,0,0,0-1.85,2.68,2.68,0,0,0-3.24-1.15,3.29,3.29,0,0,0-1.41,1.75l-3.12-1.5A5.52,5.52,0,0,1,185.81,8a6.63,6.63,0,0,1,4.23.24A5.92,5.92,0,0,1,193.49,11a4.61,4.61,0,0,1,.24,3.81,6,6,0,0,1-1.19,2,9.61,9.61,0,0,1-2.07,1.65,23,23,0,0,1-2.89,1.34c-1.36.55-2.23.93-2.61,1.13a6.52,6.52,0,0,0-1,.64Z" class="cls-2" transform="translate(0 .57)"/><path d="M204.48,14.44a5,5,0,0,1,2.85,3.46c.41,1.82-.13,4.22-1.62,7.22s-3.08,4.88-4.79,5.67a5,5,0,0,1-4.46-.2,5.2,5.2,0,0,1-2.91-3.66c-.37-1.66.19-4,1.7-7S198.32,15,200,14.25A4.94,4.94,0,0,1,204.48,14.44ZM203.23,17a1.69,1.69,0,0,0-1.17-.15,2.66,2.66,0,0,0-1.31.92,19,19,0,0,0-2.28,3.8,18.7,18.7,0,0,0-1.61,4,2.92,2.92,0,0,0,0,1.75,1.76,1.76,0,0,0,.82.84,1.78,1.78,0,0,0,1.18.14,2.55,2.55,0,0,0,1.3-.91,18.81,18.81,0,0,0,2.28-3.79,18.72,18.72,0,0,0,1.61-4,2.92,2.92,0,0,0,0-1.75A1.64,1.64,0,0,0,203.23,17Z" class="cls-2" transform="translate(0 .57)"/><path d="M211.12,38.75l-2.9-1.87,6.91-10.72A11.81,11.81,0,0,1,210,25.9l1.66-2.58a9.84,9.84,0,0,0,3.36.21,6.2,6.2,0,0,0,3.36-1.19l2.35,1.51Z" class="cls-2" transform="translate(0 .57)"/><path d="M218.12,37.84l2.84,1.8a3,3,0,0,0-.54,2,2.45,2.45,0,0,0,2.79,2.11,3.11,3.11,0,0,0,1.92-1.2,2.87,2.87,0,0,0,.74-2,2.25,2.25,0,0,0-.86-1.66,6,6,0,0,0-1.39-.81l2-1.89a3.09,3.09,0,0,0,2,.88,2.09,2.09,0,0,0,1.63-.83,1.84,1.84,0,0,0-.3-2.76,2.07,2.07,0,0,0-1.55-.49,2.79,2.79,0,0,0-1.7.88l-2.14-2.42a6.86,6.86,0,0,1,2.4-1.35,4.51,4.51,0,0,1,2.39,0,6.47,6.47,0,0,1,2.43,1.27A5.45,5.45,0,0,1,233,35.21a4.14,4.14,0,0,1-.88,3.08q-1.47,1.8-4.35,1.24a4.12,4.12,0,0,1,0,5.39,5.27,5.27,0,0,1-3.84,2,6.56,6.56,0,0,1-6.65-5.08A5.38,5.38,0,0,1,218.12,37.84Z" class="cls-2" transform="translate(0 .57)"/><rect width="11.3" height="60.43" y="335.5"/><path d="M21.14,353.08h10v8.05l5.48-7.7a26.58,26.58,0,0,1,8.55-1.38c12.16,0,14.56,7.7,14.56,16.52v26.79h-10V371.31c0-6.41-1.19-11.46-9-11.46A17.26,17.26,0,0,0,31.15,363v32.35h-10Z" transform="translate(0 .57)"/><path d="M86.61,395.79a21.6,21.6,0,0,1-5,.6,10.86,10.86,0,0,1-8.48-3.25c-2.56-2.91-2.56-5.91-2.48-9.68l.18-23.19H65.3L69.84,353H71V345L80.87,342v11h9.51v7.28H80.71l-.18,18.49c0,4.62,0,6.41,1,8A6.07,6.07,0,0,0,86.79,389a18.07,18.07,0,0,0,5.64-1.12Z" transform="translate(0 .57)"/><path d="M126.49,395a37.47,37.47,0,0,1-10.19,1.37c-15.23,0-22.93-9.24-22.93-22,0-13.1,8-22.42,20.37-22.42a20.48,20.48,0,0,1,8.73,1.79c10.19,4.71,10.28,15.93,10.36,21.06H104.16c.25,2.74.6,7.28,4.1,10.61,2.91,2.74,7,3.69,11,3.69a32.26,32.26,0,0,0,12.07-2.57Zm-3.93-26.53c-.09-1.54-.25-4.71-2.49-7.11a8.26,8.26,0,0,0-6.16-2.56c-5.21,0-8.56,4.11-9.59,9.67Z" transform="translate(0 .57)"/><path d="M149.08,395.36H138.82V353.08h10.26v7.37l4.9-6.86a21,21,0,0,1,7.86-1.37,12.44,12.44,0,0,1,4,.6v9.75a17.4,17.4,0,0,0-8.22-2.38,16,16,0,0,0-8.56,2.56Z" transform="translate(0 .57)"/><path d="M189.92,395.79a21.78,21.78,0,0,1-5.06.6,10.84,10.84,0,0,1-8.47-3.25c-2.57-2.91-2.57-5.91-2.48-9.68l.17-23.19H168.6l4.54-7.28h1.11V345l9.93-3.09v11h9.5v7.28H184l-.17,18.49c0,4.62,0,6.41,1,8a6.07,6.07,0,0,0,5.23,2.31,18.19,18.19,0,0,0,5.65-1.12Z" transform="translate(0 .57)"/><path d="M229.8,395a37.52,37.52,0,0,1-10.19,1.37c-15.23,0-22.93-9.24-22.93-22,0-13.1,8-22.42,20.37-22.42a20.44,20.44,0,0,1,8.72,1.79c10.19,4.71,10.27,15.93,10.36,21.06H207.45c.26,2.74.61,7.28,4.12,10.61,2.91,2.74,7,3.69,11,3.69a32.36,32.36,0,0,0,12.07-2.57Zm-3.94-26.53c-.09-1.54-.25-4.71-2.48-7.11a8.26,8.26,0,0,0-6.16-2.56c-5.22,0-8.56,4.11-9.6,9.67Z" transform="translate(0 .57)"/><polygon points="283.46 395.93 271.05 395.93 252.22 373.59 252.22 395.93 242.13 395.93 242.13 335.5 252.22 335.5 252.22 371.63 269.35 353.65 281.07 353.65 263.35 372.39 283.46 395.93"/><rect width="283.46" height="7.09" y="304.83"/><text fill="#231f20" font-family="ArialMT,Arial" font-size="24.66" transform="translate(283.46 282.88)">TM</text><path d="M264.5,141.27a122.38,122.38,0,0,1-36,86.81l-.3.29,13.36,13.46a141.72,141.72,0,0,0-.81-201.92l-8.58,9.86-3.89,4.47c.07.08.15.15.22.22A122.36,122.36,0,0,1,264.5,141.27Z" class="cls-1" transform="translate(0 .57)"/><path d="M41.87,241.83l13.36-13.46-.31-.29a122.76,122.76,0,0,1,0-173.62l.22-.22-3.89-4.47-8.57-9.86a141.7,141.7,0,0,0-.81,201.92Z" class="cls-1" transform="translate(0 .57)"/></svg>
