<?xml version="1.0" encoding="UTF-8"?>
<svg id="Layer_1" data-name="Layer 1" xmlns="http://www.w3.org/2000/svg" version="1.1" viewBox="0 0 6962.4 3000">
  <defs>
    <style>
      .cls-1 {
        fill: #0a66c2;
      }

      .cls-1, .cls-2, .cls-3 {
        stroke-width: 0px;
      }

      .cls-2 {
        fill: #fabc04;
      }

      .cls-3 {
        fill: #e1c025;
      }
    </style>
  </defs>
  <path class="cls-2" d="M1210.9,1728.6c-3,3-3,8.1-8.1,8.9-.7-5.1,2.2-8.1,5.1-11.8l3,3"/>
  <path class="cls-3" d="M1818.5,2045.3c-3-5.1,0-8.9,3-12.5.7.7,2.2,2.2,3,3l-5.9,9.6"/>
  <path id="Path_2525" data-name="Path 2525" class="cls-1" d="M6102,2025.5c12.8,0,23.3-10.2,23.4-23v-1.6c0-17.4-10.5-25.7-32-25.7h-34.7v91h13.1v-39.7h16.1l.4.5,24.9,39.1h14l-26.8-40.5,1.8-.3v.2ZM6086.9,2016.4h-15.1v-30.7h19.2c9.9,0,21.2,1.6,21.2,14.6s-11.5,16.2-25.4,16.2"/>
  <path id="Path_2514" data-name="Path 2514" class="cls-1" d="M1010.2,1030.8h193v702.7h357.1v178h-550.1v-880.8h0Z"/>
  <path id="Path_2515" data-name="Path 2515" class="cls-1" d="M1645.6,1314.4h185.3v596.9h-185.3v-596.9ZM1738.2,1017.7c59.4,0,107.5,48.2,107.5,107.5s-48.2,107.5-107.5,107.5-107.5-48.1-107.5-107.5,48.1-107.5,107.5-107.5h0"/>
  <path id="Path_2516" data-name="Path 2516" class="cls-1" d="M2606.2,1030.7h185.3v526.4l210-242.9h227.2l-243.3,276.4,238.2,321.1h-232.9l-196.8-295h-2.4v295h-185.3v-880.8h0Z"/>
  <path id="Path_2517" data-name="Path 2517" class="cls-1" d="M1933.7,1314.5h178v81.5h2.5c36.2-62,103.7-99.1,175.5-96.4,187.9,0,222.6,123.7,222.6,284.3v327.4h-185.3v-290.2c0-69.3-1.3-158.3-96.6-158.3s-111.2,75.5-111.2,153.3v295.1h-185.3v-596.7h-.2Z"/>
  <path id="Path_2518" data-name="Path 2518" class="cls-1" d="M3619.1,1543.4c1.4-61.4-47.2-112.3-108.4-113.8h-5.3c-67.3-4.2-125.7,46.4-130.9,113.8h244.8,0ZM3776.1,1807.9c-62.4,75.7-155.4,119.3-253.5,118.7-185.3,0-333.7-123.7-333.7-315.3s148.4-315.2,333.7-315.2,281.9,123.6,281.9,315.2v58.1h-430.2c11.1,68.2,70.7,117.7,139.7,116.2,53.6-.4,103.4-27.8,132.2-72.9l129.8,95.2h0Z"/>
  <path id="Path_2519" data-name="Path 2519" class="cls-1" d="M4190.9,1458.7c-92.6,0-148.3,61.9-148.3,152s55.6,152,148.3,152,148.4-61.7,148.4-152-55.7-152-148.4-152M4509.9,1911.1h-170.6v-79.2h-2.5c-43.4,58.4-111.5,93.1-184.3,94-178.1,0-295.4-128.5-295.4-310.3s103.8-320.2,274.5-320.2,148.3,21,190.3,79.2h2.4v-344.1h185.5v880.5h0Z"/>
  <path id="Path_2520" data-name="Path 2520" class="cls-1" d="M5761,1911.5h-185.3v-290.3c0-69.2-1.2-158.3-96.4-158.3s-111.3,75.4-111.3,153.3v295.2h-185.3v-596.9h177.9v81.5h2.5c36.2-62,103.8-99.1,175.6-96.4,187.8,0,222.5,123.6,222.5,284.3v327.4h-.2ZM4973.6,1233c-59.4,0-107.6-48.1-107.6-107.5s48.1-107.6,107.5-107.6,107.6,48.1,107.6,107.5-48.1,107.6-107.5,107.6h0M5066.3,1911.5h-185.5v-596.9h185.5v596.9ZM5853.5,845.8h-1065.9c-50.3-.6-91.7,39.8-92.3,90.1v1070.3c.6,50.4,41.9,90.8,92.3,90.2h1065.9c50.5.7,92-39.8,92.6-90.2V935.9c-.7-50.4-42.2-90.8-92.6-90.1"/>
  <path id="Path_2526" data-name="Path 2526" class="cls-1" d="M6088.5,1934.8c-47.1.5-84.9,39-84.4,86.1.5,47.1,39,84.9,86.1,84.4,47.1-.5,84.9-39,84.4-86.1-.5-46.5-38-84.1-84.4-84.4h-1.7M6088.5,2095.6c-41.3.7-75.4-32.2-76-73.5-.7-41.3,32.2-75.4,73.5-76,41.3-.7,75.4,32.2,76,73.5v1.2c.8,40.4-31.2,73.9-71.5,74.7h-2"/>
</svg>