<?xml version="1.0" encoding="UTF-8"?>
<svg id="Layer_1" data-name="Layer 1" xmlns="http://www.w3.org/2000/svg" version="1.1" viewBox="0 0 6962.4 3000">
  <defs>
    <style>
      .cls-1 {
        fill: #fabc04;
      }

      .cls-1, .cls-2, .cls-3 {
        stroke-width: 0px;
      }

      .cls-2 {
        fill: #1f2a36;
      }

      .cls-3 {
        fill: #e1c025;
      }
    </style>
  </defs>
  <path class="cls-1" d="M1042.5,1746.5c-3.2,3.2-3.2,8.7-8.7,9.5-.8-5.5,2.4-8.7,5.5-12.6l3.2,3.2"/>
  <path class="cls-3" d="M1693,2085.6c-3.2-5.5,0-9.5,3.2-13.4.8.8,2.4,2.4,3.2,3.2l-6.3,10.3"/>
  <path class="cls-2" d="M3377.9,1591.1l43.8,43.8c56.3,56.3,131.4,87.6,206.5,87.6s156.5-31.3,212.8-87.6l319.2-319.2c118.9-118.9,118.9-306.7,0-425.7s-306.7-118.9-425.7,0l-225.3,225.3-169-169,225.3-225.3c206.5-206.5,550.8-206.5,757.3,0,206.5,206.5,206.5,550.8,0,757.3l-319.2,319.2c-100.2,100.2-237.9,156.5-381.8,156.5s-275.4-56.3-375.5-156.5l-43.8-43.8,175.3-162.7h0Z"/>
  <path class="cls-2" d="M3590.7,1553.6l-43.8-43.8c-118.9-112.7-306.7-112.7-419.4,0l-319.2,313c-118.9,118.9-118.9,306.7,0,425.7,56.3,56.3,131.4,87.6,212.8,87.6s156.5-31.3,212.8-87.6l225.3-225.3,169,169-225.3,225.3c-106.4,100.2-237.9,156.5-381.8,156.5s-281.6-56.3-381.8-156.5c-206.5-206.5-206.5-550.8,0-757.3l319.2-319.2c206.5-206.5,550.8-206.5,757.3,0l43.8,43.8-169,169h0Z"/>
</svg>