<svg xmlns="http://www.w3.org/2000/svg" viewBox="0 0 324.5 50.98" width="324.5px" height="50.98px" xml:space="preserve"><defs><style>.cls-1{fill:transparent}.cls-2{fill:#ff4069;}</style></defs><title>punktse</title><g id="Layer_2" data-name="Layer 2"><rect class="cls-1" width="324.5" height="50.98"/></g><g id="Lager_1" data-name="Lager 1"><circle cx="62.04" cy="18.33" r="3.51"/><polygon class="cls-2" points="268.31 36.38 268.31 41.23 266.12 41.23 266.12 43.65 263.92 43.65 263.92 46.07 261.73 46.07 261.73 48.49 259.53 48.49 259.53 50.91 257.16 50.91 257.16 48.49 254.97 48.49 254.97 46.07 252.78 46.07 252.78 43.65 250.59 43.65 250.59 41.23 248.39 41.23 248.39 36.38 250.59 36.38 250.59 33.96 257.16 33.96 257.16 36.38 259.53 36.38 259.53 33.96 266.12 33.96 266.12 36.38 268.31 36.38"/><polygon class="cls-1" points="265.48 38.01 265.48 39.59 262.44 39.59 262.44 36.38 263.99 36.38 263.99 38.01 265.48 38.01"/><path d="M151.87,45.23c0,2-1.91,3.52-4.53,3.52s-4.57-1.47-4.75-3.83v-.13h1.91v.11c.19,1.77,1.62,2.15,2.8,2.15s2.7-.46,2.7-1.8c0-.91-.5-1.43-1.71-1.77L146,42.83c-2-.56-3-1.65-3-3.45s1.78-3.24,4.2-3.24c2.59,0,4.19,1.32,4.39,3.61v.13h-1.9v-.14c-.12-1.27-1-1.92-2.49-1.92s-2.31.6-2.31,1.56.44,1.42,1.8,1.8l1.9.53a5.83,5.83,0,0,1,2.26,1A3,3,0,0,1,151.87,45.23Z"/><polygon points="161.56 36.39 161.56 38.11 158.01 38.11 158.01 48.49 156.1 48.49 156.1 38.11 152.57 38.11 152.57 36.39 161.56 36.39"/><polygon points="175.67 38.11 175.67 41.45 180.86 41.45 180.86 43.19 175.67 43.19 175.67 48.49 173.76 48.49 173.76 36.39 181.28 36.39 181.28 38.11 175.67 38.11"/><polygon points="191.85 36.39 191.85 38.11 188.31 38.11 188.31 48.49 186.41 48.49 186.41 38.11 182.87 38.11 182.87 36.39 191.85 36.39"/><polygon points="195.35 38.11 195.35 41.45 200.76 41.45 200.76 43.19 195.35 43.19 195.35 46.76 201.57 46.76 201.57 48.49 193.45 48.49 193.45 36.39 201.57 36.39 201.57 38.11 195.35 38.11"/><polygon points="210.8 46.76 210.8 48.49 203.52 48.49 203.52 36.39 205.43 36.39 205.43 46.76 210.8 46.76"/><path d="M221,45.23c0,2-1.91,3.52-4.54,3.52s-4.55-1.47-4.74-3.83v-.13h1.9v.11c.19,1.77,1.62,2.15,2.8,2.15s2.66-.46,2.66-1.8c0-.91-.49-1.43-1.7-1.77l-2.32-.65c-2-.56-3-1.65-3-3.45s1.83-3.24,4.25-3.24c2.61,0,4.21,1.32,4.41,3.61v.13h-1.91v-.14c-.11-1.27-1-1.92-2.5-1.92s-2.31.6-2.31,1.56.44,1.42,1.81,1.8l1.9.53C219.35,42.14,221,42.91,221,45.23Z"/><polygon points="225.16 38.11 225.16 41.45 230.56 41.45 230.56 43.19 225.16 43.19 225.16 46.76 231.37 46.76 231.37 48.49 223.25 48.49 223.25 36.39 231.37 36.39 231.37 38.11 225.16 38.11"/><polygon points="242.91 36.39 242.91 48.49 240.37 48.49 235.77 39.21 235.6 38.86 235.6 48.49 233.75 48.49 233.75 36.39 236.28 36.39 241.05 45.96 241.05 36.39 242.91 36.39"/><polygon points="168.5 38.11 168.5 46.84 171.56 46.84 171.56 48.58 163.49 48.58 163.49 46.84 166.59 46.84 166.59 38.11 163.49 38.11 163.49 36.39 171.56 36.39 171.56 38.11 168.5 38.11"/><polygon points="77.59 36.38 77.59 48.49 75.05 48.49 70.46 39.21 70.29 38.86 70.29 48.49 68.43 48.49 68.43 36.38 70.97 36.38 75.73 45.96 75.73 36.38 77.59 36.38"/><polygon points="88.28 36.38 88.28 38.11 84.73 38.11 84.73 48.49 82.82 48.49 82.82 38.11 79.29 38.11 79.29 36.38 88.28 36.38"/><polygon points="91.88 38.11 91.88 41.45 97.29 41.45 97.29 43.18 91.88 43.18 91.88 46.76 98.08 46.76 98.08 48.49 89.98 48.49 89.98 36.38 98.08 36.38 98.08 38.11 91.88 38.11"/><path d="M106,43.4h.12a3,3,0,0,0,1.73-.88,3.46,3.46,0,0,0,.89-2.59,3.44,3.44,0,0,0-.93-2.64,4.17,4.17,0,0,0-2.91-.88h-4.62v12.1h1.91v-5h1.75l2.76,5h2.2Zm-3.78-1.59V38.14h3.29a1.11,1.11,0,0,1,1.23,1v1.54a1.15,1.15,0,0,1-1.08,1.23h-.16Z"/><polygon points="120.3 36.39 120.3 48.49 117.76 48.49 113.17 39.21 113 38.86 113 48.49 111.14 48.49 111.14 36.39 113.69 36.39 118.44 45.96 118.44 36.39 120.3 36.39"/><polygon points="124.9 38.11 124.9 41.45 130.31 41.45 130.31 43.19 124.9 43.19 124.9 46.76 131.1 46.76 131.1 48.49 122.99 48.49 122.99 36.39 131.1 36.39 131.1 38.11 124.9 38.11"/><polygon points="141.85 36.39 141.85 38.11 138.32 38.11 138.32 48.49 136.41 48.49 136.41 38.11 132.87 38.11 132.87 36.39 141.85 36.39"/><polygon points="63 38.11 63 46.73 66.07 46.73 66.07 48.46 58 48.46 58 46.73 61.09 46.73 61.09 38.11 58 38.11 58 36.38 66.07 36.38 66.07 38.11 63 38.11"/><path d="M68.78,16.38,73,14.52c.58,1.55,1.73,3.54,4.59,3.54C80,18.06,81,16.64,81,15.49c0-3.62-10.81-1.18-10.81-8.79,0-4.55,3.83-6.7,8-6.7a9,9,0,0,1,8.17,4.67L82.29,6.89a4.67,4.67,0,0,0-4.24-2.75c-1.72,0-2.78.84-2.78,1.85,0,3.25,11,1.31,11,9.22,0,5-4.33,7.18-8.41,7.18A9.25,9.25,0,0,1,68.78,16.38Z"/><path d="M89.11,11.29C89.11,5.69,92.38,0,99.67,0c7.54,0,10,6.05,10,10.86a8.46,8.46,0,0,1-.2,2.07H94.67c.45,2.82,2,4.72,5.39,4.72a6.54,6.54,0,0,0,5.17-2.29l3.62,3.17A11.27,11.27,0,0,1,100,22.41C92.6,22.41,89.11,17.14,89.11,11.29Zm15.36-2.15a4.72,4.72,0,0,0-.17-1.35,4.46,4.46,0,0,0-4.67-3.37c-3.11,0-4.47,2-5,4.72Z"/><polygon class="cls-2" points="268.31 36.45 268.31 41.3 266.12 41.3 266.12 43.72 263.92 43.72 263.92 46.14 261.73 46.14 261.73 48.56 259.54 48.56 259.54 50.98 257.16 50.98 257.16 48.56 254.97 48.56 254.97 46.14 252.78 46.14 252.78 43.72 250.59 43.72 250.59 41.3 248.4 41.3 248.4 36.45 250.59 36.45 250.59 34.04 257.16 34.04 257.16 36.45 259.54 36.45 259.54 34.04 266.12 34.04 266.12 36.45 268.31 36.45"/><polygon class="cls-1" points="265.48 38.09 265.48 39.67 262.44 39.67 262.44 36.46 263.99 36.46 263.99 38.09 265.48 38.09"/><path d="M151.91,45.3c0,2-1.91,3.52-4.53,3.52s-4.56-1.47-4.75-3.82v-.14h1.91V45c.2,1.77,1.63,2.15,2.8,2.15s2.66-.49,2.66-1.82c0-.92-.5-1.43-1.71-1.78L146,42.91c-2-.57-3-1.66-3-3.45s1.76-3.27,4.18-3.27c2.59,0,4.19,1.32,4.39,3.61v.13h-1.86v-.12c-.12-1.27-1-1.92-2.49-1.92s-2.31.6-2.31,1.57.44,1.42,1.81,1.79l1.89.53a5.83,5.83,0,0,1,2.26,1A3,3,0,0,1,151.91,45.3Z"/><polygon points="161.59 36.46 161.59 38.19 158.05 38.19 158.05 48.56 156.14 48.56 156.14 38.19 152.61 38.19 152.61 36.46 161.59 36.46"/><polygon points="175.7 38.19 175.7 41.52 180.89 41.52 180.89 43.26 175.7 43.26 175.7 48.56 173.79 48.56 173.79 36.46 181.31 36.46 181.31 38.19 175.7 38.19"/><polygon points="191.87 36.46 191.87 38.19 188.34 38.19 188.34 48.56 186.43 48.56 186.43 38.19 182.9 38.19 182.9 36.46 191.87 36.46"/><polygon points="195.38 38.19 195.38 41.52 200.78 41.52 200.78 43.26 195.38 43.26 195.38 46.83 201.59 46.83 201.59 48.56 193.47 48.56 193.47 36.46 201.59 36.46 201.59 38.19 195.38 38.19"/><polygon points="210.82 46.83 210.82 48.56 203.54 48.56 203.54 36.46 205.45 36.46 205.45 46.83 210.82 46.83"/><path d="M221,45.3c0,2-1.91,3.52-4.54,3.52s-4.55-1.47-4.74-3.82v-.14h1.9V45c.2,1.77,1.63,2.15,2.8,2.15s2.67-.46,2.67-1.79c0-.92-.49-1.43-1.7-1.78l-2.32-.64c-2-.57-2.95-1.66-2.95-3.45s1.76-3.27,4.18-3.27c2.61,0,4.21,1.32,4.4,3.61V40h-1.9v-.12c-.11-1.27-1-1.92-2.5-1.92s-2.31.6-2.31,1.57.44,1.42,1.81,1.79l1.9.53C219.36,42.22,221,43,221,45.3Z"/><polygon points="225.17 38.19 225.17 41.52 230.57 41.52 230.57 43.26 225.17 43.26 225.17 46.83 231.38 46.83 231.38 48.56 223.26 48.56 223.26 36.46 231.38 36.46 231.38 38.19 225.17 38.19"/><polygon points="242.92 36.46 242.92 48.56 240.38 48.56 235.78 39.29 235.61 38.93 235.61 48.56 233.76 48.56 233.76 36.46 236.29 36.46 241.06 46.03 241.06 36.46 242.92 36.46"/><polygon points="168.54 38.19 168.54 46.91 171.59 46.91 171.59 48.65 163.52 48.65 163.52 46.91 166.63 46.91 166.63 38.19 163.52 38.19 163.52 36.46 171.59 36.46 171.59 38.19 168.54 38.19"/><polygon points="77.65 36.46 77.65 48.56 75.11 48.56 70.53 39.28 70.36 38.93 70.36 48.56 68.5 48.56 68.5 36.46 71.04 36.46 75.8 46.03 75.8 36.46 77.65 36.46"/><polygon points="88.34 36.46 88.34 38.18 84.79 38.18 84.79 48.56 82.89 48.56 82.89 38.18 79.35 38.18 79.35 36.46 88.34 36.46"/><polygon points="91.94 38.18 91.94 41.52 97.35 41.52 97.35 43.26 91.94 43.26 91.94 46.83 98.14 46.83 98.14 48.56 90.04 48.56 90.04 36.46 98.14 36.46 98.14 38.18 91.94 38.18"/><path d="M106,43.48h.13a2.92,2.92,0,0,0,1.72-.88,3.5,3.5,0,0,0,.89-2.6,3.35,3.35,0,0,0-.93-2.64,4.12,4.12,0,0,0-2.91-.88h-4.56v12.1h1.91v-5H104l2.75,5H109Zm-3.77-1.59V38.14h3.29a1.11,1.11,0,0,1,1.23,1v1.51a1.16,1.16,0,0,1-1.07,1.24h-.16Z"/><polygon points="120.35 36.46 120.35 48.56 117.81 48.56 113.23 39.28 113.05 38.93 113.05 48.56 111.2 48.56 111.2 36.46 113.74 36.46 118.49 46.03 118.49 36.46 120.35 36.46"/><polygon points="124.95 38.18 124.95 41.52 130.35 41.52 130.35 43.26 124.95 43.26 124.95 46.83 131.15 46.83 131.15 48.56 123.04 48.56 123.04 36.46 131.15 36.46 131.15 38.18 124.95 38.18"/><polygon points="141.9 36.46 141.9 38.18 138.36 38.18 138.36 48.56 136.46 48.56 136.46 38.18 132.91 38.18 132.91 36.46 141.9 36.46"/><polygon points="63.07 38.18 63.07 46.8 66.14 46.8 66.14 48.53 58.07 48.53 58.07 46.8 61.16 46.8 61.16 38.18 58.07 38.18 58.07 36.46 66.14 36.46 66.14 38.18 63.07 38.18"/></g></svg>
