<?xml version="1.0" encoding="utf-8"?>
<!-- Generator: Adobe Illustrator 23.0.1, SVG Export Plug-In . SVG Version: 6.00 Build 0)  -->
<svg version="1.1" id="Layer_1" xmlns="http://www.w3.org/2000/svg" xmlns:xlink="http://www.w3.org/1999/xlink" x="0px" y="0px"
	 viewBox="0 0 324.5 51" style="enable-background:new 0 0 324.5 51;" xml:space="preserve" width="324.5px" height="51px">
<style type="text/css">
	.st0{fill:none;}
	.st1{fill:#FF4069;}
	.st2{fill:#FFFFFF;}
</style>
<title>punktse</title>
<g>
	<rect class="st0" width="324.5" height="51"/>
</g>
<g id="Lager_1">
	<circle cx="62" cy="18.3" r="3.5"/>
	<polygon class="st1" points="268.3,36.4 268.3,41.2 266.1,41.2 266.1,43.7 263.9,43.7 263.9,46.1 261.7,46.1 261.7,48.5
		259.5,48.5 259.5,50.9 257.2,50.9 257.2,48.5 255,48.5 255,46.1 252.8,46.1 252.8,43.7 250.6,43.7 250.6,41.2 248.4,41.2
		248.4,36.4 250.6,36.4 250.6,34 257.2,34 257.2,36.4 259.5,36.4 259.5,34 266.1,34 266.1,36.4 	"/>
	<polygon points="265.5,38 265.5,39.6 262.4,39.6 262.4,36.4 264,36.4 264,38 	"/>
	<path d="M151.9,45.2c0,2-1.9,3.5-4.5,3.5s-4.6-1.5-4.8-3.8v-0.1h1.9v0.1c0.2,1.8,1.6,2.2,2.8,2.2s2.7-0.5,2.7-1.8
		c0-0.9-0.5-1.4-1.7-1.8l-2.3-0.6c-2-0.6-3-1.7-3-3.5s1.8-3.2,4.2-3.2c2.6,0,4.2,1.3,4.4,3.6v0.1h-1.9v-0.1c-0.1-1.3-1-1.9-2.5-1.9
		s-2.3,0.6-2.3,1.6s0.4,1.4,1.8,1.8l1.9,0.5c0.8,0.2,1.6,0.5,2.3,1C151.6,43.3,152,44.3,151.9,45.2z"/>
	<polygon points="161.6,36.4 161.6,38.1 158,38.1 158,48.5 156.1,48.5 156.1,38.1 152.6,38.1 152.6,36.4 	"/>
	<polygon points="175.7,38.1 175.7,41.5 180.9,41.5 180.9,43.2 175.7,43.2 175.7,48.5 173.8,48.5 173.8,36.4 181.3,36.4 181.3,38.1
			"/>
	<polygon points="191.9,36.4 191.9,38.1 188.3,38.1 188.3,48.5 186.4,48.5 186.4,38.1 182.9,38.1 182.9,36.4 	"/>
	<polygon points="195.4,38.1 195.4,41.5 200.8,41.5 200.8,43.2 195.4,43.2 195.4,46.8 201.6,46.8 201.6,48.5 193.4,48.5 193.4,36.4
		201.6,36.4 201.6,38.1 	"/>
	<polygon points="210.8,46.8 210.8,48.5 203.5,48.5 203.5,36.4 205.4,36.4 205.4,46.8 	"/>
	<path d="M221,45.2c0,2-1.9,3.5-4.5,3.5s-4.6-1.5-4.7-3.8v-0.1h1.9v0.1c0.2,1.8,1.6,2.2,2.8,2.2s2.7-0.5,2.7-1.8
		c0-0.9-0.5-1.4-1.7-1.8l-2.3-0.7c-2-0.6-3-1.7-3-3.5s1.8-3.2,4.2-3.2c2.6,0,4.2,1.3,4.4,3.6v0.1h-1.9v-0.1c-0.1-1.3-1-1.9-2.5-1.9
		s-2.3,0.6-2.3,1.6s0.4,1.4,1.8,1.8l1.9,0.5C219.4,42.1,221,42.9,221,45.2z"/>
	<polygon points="225.2,38.1 225.2,41.5 230.6,41.5 230.6,43.2 225.2,43.2 225.2,46.8 231.4,46.8 231.4,48.5 223.2,48.5 223.2,36.4
		231.4,36.4 231.4,38.1 	"/>
	<polygon points="242.9,36.4 242.9,48.5 240.4,48.5 235.8,39.2 235.6,38.9 235.6,48.5 233.8,48.5 233.8,36.4 236.3,36.4 241.1,46
		241.1,36.4 	"/>
	<polygon points="168.5,38.1 168.5,46.8 171.6,46.8 171.6,48.6 163.5,48.6 163.5,46.8 166.6,46.8 166.6,38.1 163.5,38.1 163.5,36.4
		171.6,36.4 171.6,38.1 	"/>
	<polygon points="77.6,36.4 77.6,48.5 75.1,48.5 70.5,39.2 70.3,38.9 70.3,48.5 68.4,48.5 68.4,36.4 71,36.4 75.7,46 75.7,36.4 	"/>
	<polygon points="88.3,36.4 88.3,38.1 84.7,38.1 84.7,48.5 82.8,48.5 82.8,38.1 79.3,38.1 79.3,36.4 	"/>
	<polygon points="91.9,38.1 91.9,41.5 97.3,41.5 97.3,43.2 91.9,43.2 91.9,46.8 98.1,46.8 98.1,48.5 90,48.5 90,36.4 98.1,36.4
		98.1,38.1 	"/>
	<path d="M106,43.4h0.1c0.7-0.1,1.3-0.4,1.7-0.9c0.6-0.7,1-1.6,0.9-2.6c0.1-1-0.3-1.9-0.9-2.6c-0.8-0.6-1.9-1-2.9-0.9h-4.6v12.1h1.9
		v-5h1.8l2.8,5h2.2L106,43.4z M102.2,41.8v-3.7h3.3c0.6-0.1,1.2,0.4,1.2,1c0,0,0,0,0,0v1.5c0,0.6-0.4,1.2-1.1,1.2c0,0,0,0,0,0h-0.2
		L102.2,41.8z"/>
	<polygon points="120.3,36.4 120.3,48.5 117.8,48.5 113.2,39.2 113,38.9 113,48.5 111.1,48.5 111.1,36.4 113.7,36.4 118.4,46
		118.4,36.4 	"/>
	<polygon points="124.9,38.1 124.9,41.5 130.3,41.5 130.3,43.2 124.9,43.2 124.9,46.8 131.1,46.8 131.1,48.5 123,48.5 123,36.4
		131.1,36.4 131.1,38.1 	"/>
	<polygon points="141.9,36.4 141.9,38.1 138.3,38.1 138.3,48.5 136.4,48.5 136.4,38.1 132.9,38.1 132.9,36.4 	"/>
	<polygon points="63,38.1 63,46.7 66.1,46.7 66.1,48.5 58,48.5 58,46.7 61.1,46.7 61.1,38.1 58,38.1 58,36.4 66.1,36.4 66.1,38.1
		"/>
	<path d="M68.8,16.4l4.2-1.9c0.6,1.5,1.7,3.5,4.6,3.5c2.4,0,3.4-1.4,3.4-2.6c0-3.6-10.8-1.2-10.8-8.8c0-4.6,3.8-6.7,8-6.7
		c3.4-0.1,6.5,1.7,8.2,4.7l-4.1,2.2c-0.8-1.7-2.4-2.7-4.2-2.8c-1.7,0-2.8,0.8-2.8,1.8c0,3.2,11,1.3,11,9.2c0,5-4.3,7.2-8.4,7.2
		C73.8,22.6,70.2,20.1,68.8,16.4z"/>
	<path d="M89.1,11.3C89.1,5.7,92.4,0,99.7,0c7.5,0,10,6.1,10,10.9c0,0.7,0,1.4-0.2,2.1H94.7c0.4,2.8,2,4.7,5.4,4.7
		c2,0.1,3.9-0.8,5.2-2.3l3.6,3.2c-2.2,2.6-5.5,4-8.8,3.9C92.6,22.4,89.1,17.1,89.1,11.3z M104.5,9.1c0-0.5,0-0.9-0.2-1.3
		c-0.5-2.1-2.5-3.5-4.7-3.4c-3.1,0-4.5,2-5,4.7H104.5z"/>
	<polygon class="st1" points="268.3,36.5 268.3,41.3 266.1,41.3 266.1,43.7 263.9,43.7 263.9,46.1 261.7,46.1 261.7,48.6
		259.5,48.6 259.5,51 257.2,51 257.2,48.6 255,48.6 255,46.1 252.8,46.1 252.8,43.7 250.6,43.7 250.6,41.3 248.4,41.3 248.4,36.5
		250.6,36.5 250.6,34 257.2,34 257.2,36.5 259.5,36.5 259.5,34 266.1,34 266.1,36.5 	"/>
	<polygon class="st2" points="265.5,38.1 265.5,39.7 262.4,39.7 262.4,36.5 264,36.5 264,38.1 	"/>
	<path d="M151.9,45.3c0,2-1.9,3.5-4.5,3.5s-4.6-1.5-4.8-3.8v-0.1h1.9V45c0.2,1.8,1.6,2.2,2.8,2.2s2.7-0.5,2.7-1.8
		c0-0.9-0.5-1.4-1.7-1.8l-2.3-0.6c-2-0.6-3-1.7-3-3.5s1.8-3.3,4.2-3.3c2.6,0,4.2,1.3,4.4,3.6v0.1h-1.9v-0.1c-0.1-1.3-1-1.9-2.5-1.9
		s-2.3,0.6-2.3,1.6s0.4,1.4,1.8,1.8l1.9,0.5c0.8,0.2,1.6,0.5,2.3,1C151.6,43.4,152,44.3,151.9,45.3z"/>
	<polygon points="161.6,36.5 161.6,38.2 158.1,38.2 158.1,48.6 156.1,48.6 156.1,38.2 152.6,38.2 152.6,36.5 	"/>
	<polygon points="175.7,38.2 175.7,41.5 180.9,41.5 180.9,43.3 175.7,43.3 175.7,48.6 173.8,48.6 173.8,36.5 181.3,36.5 181.3,38.2
			"/>
	<polygon points="191.9,36.5 191.9,38.2 188.3,38.2 188.3,48.6 186.4,48.6 186.4,38.2 182.9,38.2 182.9,36.5 	"/>
	<polygon points="195.4,38.2 195.4,41.5 200.8,41.5 200.8,43.3 195.4,43.3 195.4,46.8 201.6,46.8 201.6,48.6 193.5,48.6 193.5,36.5
		201.6,36.5 201.6,38.2 	"/>
	<polygon points="210.8,46.8 210.8,48.6 203.5,48.6 203.5,36.5 205.4,36.5 205.4,46.8 	"/>
	<path d="M221,45.3c0,2-1.9,3.5-4.5,3.5s-4.6-1.5-4.7-3.8v-0.1h1.9V45c0.2,1.8,1.6,2.2,2.8,2.2s2.7-0.5,2.7-1.8
		c0-0.9-0.5-1.4-1.7-1.8l-2.3-0.6c-2-0.6-2.9-1.7-2.9-3.5s1.8-3.3,4.2-3.3c2.6,0,4.2,1.3,4.4,3.6V40h-1.9v-0.1
		c-0.1-1.3-1-1.9-2.5-1.9s-2.3,0.6-2.3,1.6s0.4,1.4,1.8,1.8l1.9,0.5C219.4,42.2,221,43,221,45.3z"/>
	<polygon points="225.2,38.2 225.2,41.5 230.6,41.5 230.6,43.3 225.2,43.3 225.2,46.8 231.4,46.8 231.4,48.6 223.3,48.6 223.3,36.5
		231.4,36.5 231.4,38.2 	"/>
	<polygon points="242.9,36.5 242.9,48.6 240.4,48.6 235.8,39.3 235.6,38.9 235.6,48.6 233.8,48.6 233.8,36.5 236.3,36.5 241.1,46
		241.1,36.5 	"/>
	<polygon points="168.5,38.2 168.5,46.9 171.6,46.9 171.6,48.7 163.5,48.7 163.5,46.9 166.6,46.9 166.6,38.2 163.5,38.2 163.5,36.5
		171.6,36.5 171.6,38.2 	"/>
	<polygon points="77.7,36.5 77.7,48.6 75.1,48.6 70.5,39.3 70.4,38.9 70.4,48.6 68.5,48.6 68.5,36.5 71,36.5 75.8,46 75.8,36.5 	"/>
	<polygon points="88.3,36.5 88.3,38.2 84.8,38.2 84.8,48.6 82.9,48.6 82.9,38.2 79.3,38.2 79.3,36.5 	"/>
	<polygon points="91.9,38.2 91.9,41.5 97.3,41.5 97.3,43.3 91.9,43.3 91.9,46.8 98.1,46.8 98.1,48.6 90,48.6 90,36.5 98.1,36.5
		98.1,38.2 	"/>
	<path d="M106,43.5h0.1c0.7-0.1,1.3-0.4,1.7-0.9c0.6-0.7,1-1.6,0.9-2.6c0.1-1-0.2-1.9-0.9-2.6c-0.8-0.7-1.9-1-2.9-0.9h-4.6v12.1h1.9
		v-5h1.8l2.8,5h2.2L106,43.5z M102.2,41.9v-3.8h3.3c0.6-0.1,1.2,0.4,1.2,1c0,0,0,0,0,0v1.5c0,0.6-0.4,1.2-1.1,1.2h-0.2H102.2z"/>
	<polygon points="120.3,36.5 120.3,48.6 117.8,48.6 113.2,39.3 113.1,38.9 113.1,48.6 111.2,48.6 111.2,36.5 113.7,36.5 118.5,46
		118.5,36.5 	"/>
	<polygon points="124.9,38.2 124.9,41.5 130.4,41.5 130.4,43.3 124.9,43.3 124.9,46.8 131.1,46.8 131.1,48.6 123,48.6 123,36.5
		131.1,36.5 131.1,38.2 	"/>
	<polygon points="141.9,36.5 141.9,38.2 138.4,38.2 138.4,48.6 136.5,48.6 136.5,38.2 132.9,38.2 132.9,36.5 	"/>
	<polygon points="63.1,38.2 63.1,46.8 66.1,46.8 66.1,48.5 58.1,48.5 58.1,46.8 61.2,46.8 61.2,38.2 58.1,38.2 58.1,36.5 66.1,36.5
		66.1,38.2 	"/>
</g>
</svg>
