<svg xmlns="http://www.w3.org/2000/svg" viewBox="0 0 324.5 59.9" xml:space="preserve"><defs><style>.cls-1{fill:transparent}.cls-2{fill:#ff4069;}</style></defs><title>punktse</title><g id="Layer_2" data-name="Layer 2"><rect class="cls-1" width="324.5" height="59.9"/></g><g id="Layer_1" data-name="Layer 1"><path d="M65.3,22.3l5.4-1.4c.4,3.8,3.1,5.5,6.3,5.5s5-1.7,5-3.9c0-6.3-14.7-4.2-14.7-14.1C67.4,3,71.7,0,76.9,0a10.12,10.12,0,0,1,9.3,5.3L81.7,8.1a5.8,5.8,0,0,0-4.9-3.3C74.6,4.8,73,6.1,73,8.1c0,5.7,14.7,3.8,14.7,13.9,0,5.8-4.8,9.2-10.6,9.2C71.6,31.3,66.3,28.3,65.3,22.3Z"/><path d="M91.1,20.2c0-5.6,3.3-11.3,10.6-11.3,7.5,0,10,6.1,10,10.9a14.78,14.78,0,0,1-.2,2.1H96.6c.5,2.8,2,4.7,5.4,4.7a6.53,6.53,0,0,0,5.2-2.3l3.6,3.2a11,11,0,0,1-8.8,3.9C94.6,31.3,91.1,26,91.1,20.2Zm15.3-2.1a3.18,3.18,0,0,0-.2-1.4,4.45,4.45,0,0,0-4.7-3.4c-3.1,0-4.5,2-5,4.7h9.9Z"/><circle cx="59" cy="27.3" r="3.5"/><polygon class="cls-2" points="265.3 45.4 265.3 50.2 263.1 50.2 263.1 52.7 260.9 52.7 260.9 55.1 258.7 55.1 258.7 57.5 256.5 57.5 256.5 59.9 254.2 59.9 254.2 57.5 252 57.5 252 55.1 249.8 55.1 249.8 52.7 247.6 52.7 247.6 50.2 245.4 50.2 245.4 45.4 247.6 45.4 247.6 43 254.2 43 254.2 45.4 256.5 45.4 256.5 43 263.1 43 263.1 45.4 265.3 45.4"/><polygon class="cls-1" points="262.5 47 262.5 48.6 259.4 48.6 259.4 45.4 261 45.4 261 47 262.5 47"/><path d="M148.9,54.2c0,2-1.9,3.5-4.5,3.5s-4.6-1.5-4.7-3.8v-.1h1.9v.1c.2,1.8,1.6,2.2,2.8,2.2s2.7-.5,2.7-1.8c0-.9-.5-1.4-1.7-1.8l-2.3-.6c-2-.6-2.9-1.7-2.9-3.4,0-1.9,1.8-3.3,4.2-3.3,2.6,0,4.2,1.3,4.4,3.6v.1h-1.9v-.1c-.1-1.3-1-1.9-2.5-1.9s-2.3.6-2.3,1.6.4,1.4,1.8,1.8l1.9.5a7,7,0,0,1,2.3,1.1A3.23,3.23,0,0,1,148.9,54.2Z"/><polygon points="158.6 45.4 158.6 47.1 155 47.1 155 57.5 153.1 57.5 153.1 47.1 149.6 47.1 149.6 45.4 158.6 45.4"/><polygon points="172.7 47.1 172.7 50.5 177.9 50.5 177.9 52.2 172.7 52.2 172.7 57.5 170.8 57.5 170.8 45.4 178.3 45.4 178.3 47.1 172.7 47.1"/><polygon points="188.8 45.4 188.8 47.1 185.3 47.1 185.3 57.5 183.4 57.5 183.4 47.1 179.9 47.1 179.9 45.4 188.8 45.4"/><polygon points="192.4 47.1 192.4 50.5 197.8 50.5 197.8 52.2 192.4 52.2 192.4 55.8 198.6 55.8 198.6 57.5 190.4 57.5 190.4 45.4 198.6 45.4 198.6 47.1 192.4 47.1"/><polygon points="207.8 55.8 207.8 57.5 200.5 57.5 200.5 45.4 202.4 45.4 202.4 55.8 207.8 55.8"/><path d="M218,54.2c0,2-1.9,3.5-4.5,3.5s-4.5-1.5-4.7-3.8v-.1h1.9v.1c.2,1.8,1.6,2.2,2.8,2.2s2.7-.5,2.7-1.8c0-.9-.5-1.4-1.7-1.8l-2.3-.6c-2-.6-2.9-1.7-2.9-3.4,0-1.9,1.8-3.3,4.2-3.3,2.6,0,4.2,1.3,4.4,3.6v.1H216v-.1c-.1-1.3-1-1.9-2.5-1.9s-2.3.6-2.3,1.6.4,1.4,1.8,1.8l1.9.5C216.3,51.2,218,51.9,218,54.2Z"/><polygon points="222.2 47.1 222.2 50.5 227.6 50.5 227.6 52.2 222.2 52.2 222.2 55.8 228.4 55.8 228.4 57.5 220.2 57.5 220.2 45.4 228.4 45.4 228.4 47.1 222.2 47.1"/><polygon points="239.9 45.4 239.9 57.5 237.4 57.5 232.8 48.2 232.6 47.9 232.6 57.5 230.8 57.5 230.8 45.4 233.3 45.4 238.1 55 238.1 45.4 239.9 45.4"/><polygon points="165.5 47.1 165.5 55.9 168.6 55.9 168.6 57.6 160.5 57.6 160.5 55.9 163.6 55.9 163.6 47.1 160.5 47.1 160.5 45.4 168.6 45.4 168.6 47.1 165.5 47.1"/><polygon points="74.6 45.4 74.6 57.5 72 57.5 67.5 48.2 67.3 47.9 67.3 57.5 65.4 57.5 65.4 45.4 68 45.4 72.7 55 72.7 45.4 74.6 45.4"/><polygon points="85.3 45.4 85.3 47.1 81.7 47.1 81.7 57.5 79.8 57.5 79.8 47.1 76.3 47.1 76.3 45.4 85.3 45.4"/><polygon points="88.9 47.1 88.9 50.5 94.3 50.5 94.3 52.2 88.9 52.2 88.9 55.8 95.1 55.8 95.1 57.5 87 57.5 87 45.4 95.1 45.4 95.1 47.1 88.9 47.1"/><path d="M103,52.4h0a2.62,2.62,0,0,0,1.8-.9,3.1,3.1,0,0,0,.9-2.6,3.1,3.1,0,0,0-.9-2.6,3.86,3.86,0,0,0-2.9-.9H97.3V57.5h1.9v-5h1.7l2.8,5h2.2Zm-3.8-1.6V47.1h3.3a1,1,0,0,1,1.18.78.5.5,0,0,1,0,.12v1.6a1.2,1.2,0,0,1-1.1,1.2Z"/><polygon points="117.3 45.4 117.3 57.5 114.8 57.5 110.2 48.2 110 47.9 110 57.5 108.1 57.5 108.1 45.4 110.7 45.4 115.4 55 115.4 45.4 117.3 45.4"/><polygon points="121.9 47.1 121.9 50.5 127.3 50.5 127.3 52.2 121.9 52.2 121.9 55.8 128.1 55.8 128.1 57.5 120 57.5 120 45.4 128.1 45.4 128.1 47.1 121.9 47.1"/><polygon points="138.9 45.4 138.9 47.1 135.3 47.1 135.3 57.5 133.4 57.5 133.4 47.1 129.9 47.1 129.9 45.4 138.9 45.4"/><polygon points="60 47.1 60 55.7 63.1 55.7 63.1 57.5 55 57.5 55 55.7 58.1 55.7 58.1 47.1 55 47.1 55 45.4 63.1 45.4 63.1 47.1 60 47.1"/></g></svg>
