<?xml version="1.0" encoding="utf-8"?>
<!-- Generator: Adobe Illustrator 23.0.3, SVG Export Plug-In . SVG Version: 6.00 Build 0)  -->
<svg version="1.1" id="Layer_1" xmlns="http://www.w3.org/2000/svg" xmlns:xlink="http://www.w3.org/1999/xlink" x="0px" y="0px"
	 viewBox="0 0 324 60" style="enable-background:new 0 0 324 60;" xml:space="preserve" width="324px" height="60px">
<style type="text/css">
	.st0{fill:none;}
	.st1{fill:#FF4069;}
	.st2{fill:#FFFFFF;}
</style>
<title>punktse</title>
<g>
	<rect class="st0" width="324" height="60"/>
</g>
<g id="Lager_1">
	<circle cx="43.2" cy="21.6" r="4.1"/>
	<polygon class="st1" points="285.5,42.9 285.5,48.5 282.9,48.5 282.9,51.4 280.3,51.4 280.3,54.2 277.7,54.2 277.7,57.1
		275.2,57.1 275.2,59.9 272.5,59.9 272.5,57.1 269.9,57.1 269.9,54.2 267.3,54.2 267.3,51.4 264.7,51.4 264.7,48.5 262.1,48.5
		262.1,42.9 264.7,42.9 264.7,40 272.5,40 272.5,42.9 275.2,42.9 275.2,40 282.9,40 282.9,42.9 	"/>
	<polygon points="282.2,44.7 282.2,46.6 278.6,46.6 278.6,42.9 280.4,42.9 280.4,44.7 	"/>
	<path d="M148.8,53.2c0,2.3-2.2,4.1-5.3,4.1c-3.1,0-5.4-1.8-5.6-4.5v-0.1h2.2v0.1c0.2,2.1,1.9,2.6,3.3,2.6c1.4,0,3.2-0.6,3.2-2.1
		c0-1.1-0.6-1.6-2-2.1l-2.7-0.7c-2.3-0.7-3.5-2-3.5-4.1s2.1-3.8,4.9-3.8c3.1,0,4.9,1.5,5.2,4.2V47h-2.2v-0.1
		c-0.1-1.5-1.2-2.2-2.9-2.2s-2.7,0.7-2.7,1.9s0.5,1.6,2.1,2.1l2.2,0.6c0.9,0.2,1.9,0.6,2.7,1.2C148.4,51,148.9,52.1,148.8,53.2z"/>
	<polygon points="160.2,42.9 160.2,44.9 156,44.9 156,57.1 153.7,57.1 153.7,44.9 149.6,44.9 149.6,42.9 	"/>
	<polygon points="176.7,44.9 176.7,48.8 182.8,48.8 182.8,50.8 176.7,50.8 176.7,57.1 174.5,57.1 174.5,42.9 183.3,42.9 183.3,44.9
			"/>
	<polygon points="195.8,42.9 195.8,44.9 191.5,44.9 191.5,57.1 189.3,57.1 189.3,44.9 185.2,44.9 185.2,42.9 	"/>
	<polygon points="199.9,44.9 199.9,48.8 206.2,48.8 206.2,50.8 199.9,50.8 199.9,55.1 207.2,55.1 207.2,57.1 197.5,57.1 197.5,42.9
		207.2,42.9 207.2,44.9 	"/>
	<polygon points="218,55.1 218,57.1 209.4,57.1 209.4,42.9 211.6,42.9 211.6,55.1 	"/>
	<path d="M229.9,53.2c0,2.3-2.2,4.1-5.3,4.1s-5.4-1.8-5.5-4.5v-0.1h2.2v0.1c0.2,2.1,1.9,2.6,3.3,2.6c1.4,0,3.2-0.6,3.2-2.1
		c0-1.1-0.6-1.6-2-2.1l-2.7-0.8c-2.3-0.7-3.5-2-3.5-4.1s2.1-3.8,4.9-3.8c3.1,0,4.9,1.5,5.2,4.2v0.1h-2.2v-0.1
		c-0.1-1.5-1.2-2.2-2.9-2.2s-2.7,0.7-2.7,1.9c0,1.2,0.5,1.6,2.1,2.1l2.2,0.6C228.1,49.6,229.9,50.5,229.9,53.2z"/>
	<polygon points="234.9,44.9 234.9,48.8 241.2,48.8 241.2,50.8 234.9,50.8 234.9,55.1 242.2,55.1 242.2,57.1 232.5,57.1 232.5,42.9
		242.2,42.9 242.2,44.9 	"/>
	<polygon points="255.7,42.9 255.7,57.1 252.7,57.1 247.3,46.1 247.1,45.8 247.1,57.1 245,57.1 245,42.9 247.9,42.9 253.6,54.1
		253.6,42.9 	"/>
	<polygon points="168.3,44.9 168.3,55.1 171.9,55.1 171.9,57.2 162.4,57.2 162.4,55.1 166.1,55.1 166.1,44.9 162.4,44.9 162.4,42.9
		171.9,42.9 171.9,44.9 	"/>
	<polygon points="61.5,42.9 61.5,57.1 58.6,57.1 53.2,46.1 52.9,45.8 52.9,57.1 50.7,57.1 50.7,42.9 53.8,42.9 59.3,54.1 59.3,42.9
			"/>
	<polygon points="74.1,42.9 74.1,44.9 69.9,44.9 69.9,57.1 67.6,57.1 67.6,44.9 63.5,44.9 63.5,42.9 	"/>
	<polygon points="78.3,44.9 78.3,48.8 84.7,48.8 84.7,50.8 78.3,50.8 78.3,55.1 85.6,55.1 85.6,57.1 76.1,57.1 76.1,42.9 85.6,42.9
		85.6,44.9 	"/>
	<path d="M94.9,51.1H95c0.8-0.1,1.5-0.5,2-1.1c0.7-0.8,1.2-1.9,1.1-3.1c0.1-1.2-0.4-2.2-1.1-3.1c-0.9-0.7-2.2-1.2-3.4-1.1h-5.4v14.2
		h2.2v-5.9h2.1l3.3,5.9h2.6L94.9,51.1z M90.4,49.2v-4.3h3.9c0.7-0.1,1.4,0.5,1.4,1.2l0,0v1.8c0,0.7-0.5,1.4-1.3,1.4l0,0h-0.2H90.4z"
		/>
	<polygon points="111.7,42.9 111.7,57.1 108.7,57.1 103.3,46.1 103.1,45.8 103.1,57.1 100.9,57.1 100.9,42.9 103.9,42.9 109.4,54.1
		109.4,42.9 	"/>
	<polygon points="117.1,44.9 117.1,48.8 123.4,48.8 123.4,50.8 117.1,50.8 117.1,55.1 124.4,55.1 124.4,57.1 114.8,57.1 114.8,42.9
		124.4,42.9 124.4,44.9 	"/>
	<polygon points="137,42.9 137,44.9 132.8,44.9 132.8,57.1 130.6,57.1 130.6,44.9 126.5,44.9 126.5,42.9 	"/>
	<polygon points="44.4,44.9 44.4,55 48,55 48,57.1 38.5,57.1 38.5,55 42.1,55 42.1,44.9 38.5,44.9 38.5,42.9 48,42.9 48,44.9 	"/>
	<path d="M51.2,19.4l4.9-2.2c0.7,1.8,2,4.1,5.4,4.1c2.8,0,4-1.6,4-3.1c0-4.2-12.7-1.4-12.7-10.3c0-5.4,4.5-7.9,9.4-7.9
		c4-0.1,7.6,2,9.6,5.5L67,8.1c-0.9-2-2.8-3.2-4.9-3.3c-2,0-3.3,0.9-3.3,2.1c0,3.8,12.9,1.5,12.9,10.8c0,5.9-5.1,8.5-9.9,8.5
		C57.1,26.7,52.8,23.7,51.2,19.4z"/>
	<path d="M75,13.4c0-6.6,3.9-13.3,12.4-13.3c8.8,0,11.7,7.2,11.7,12.8c0,0.8,0,1.6-0.2,2.5H81.6c0.5,3.3,2.3,5.5,6.3,5.5
		c2.3,0.1,4.6-0.9,6.1-2.7l4.2,3.8c-2.6,3.1-6.5,4.7-10.3,4.6C79.1,26.4,75,20.2,75,13.4z M93.1,10.8c0-0.6,0-1.1-0.2-1.5
		c-0.6-2.5-2.9-4.1-5.5-4c-3.6,0-5.3,2.3-5.9,5.5H93.1z"/>
	<polygon class="st1" points="285.5,43 285.5,48.6 282.9,48.6 282.9,51.4 280.3,51.4 280.3,54.2 277.7,54.2 277.7,57.2 275.2,57.2
		275.2,60 272.5,60 272.5,57.2 269.9,57.2 269.9,54.2 267.3,54.2 267.3,51.4 264.7,51.4 264.7,48.6 262.1,48.6 262.1,43 264.7,43
		264.7,40 272.5,40 272.5,43 275.2,43 275.2,40 282.9,40 282.9,43 	"/>
	<polygon class="st2" points="282.2,44.9 282.2,46.7 278.6,46.7 278.6,43 280.4,43 280.4,44.9 	"/>
	<path d="M148.8,53.3c0,2.3-2.2,4.1-5.3,4.1c-3.1,0-5.4-1.8-5.6-4.5v-0.1h2.2V53c0.2,2.1,1.9,2.6,3.3,2.6c1.4,0,3.2-0.6,3.2-2.1
		c0-1.1-0.6-1.6-2-2.1l-2.7-0.7c-2.3-0.7-3.5-2-3.5-4.1s2.1-3.9,4.9-3.9c3.1,0,4.9,1.5,5.2,4.2V47h-2.2v-0.1
		c-0.1-1.5-1.2-2.2-2.9-2.2s-2.7,0.7-2.7,1.9s0.5,1.6,2.1,2.1l2.2,0.6c0.9,0.2,1.9,0.6,2.7,1.2C148.4,51.1,148.9,52.1,148.8,53.3z"
		/>
	<polygon points="160.2,43 160.2,45 156.1,45 156.1,57.2 153.7,57.2 153.7,45 149.6,45 149.6,43 	"/>
	<polygon points="176.7,45 176.7,48.8 182.8,48.8 182.8,51 176.7,51 176.7,57.2 174.5,57.2 174.5,43 183.3,43 183.3,45 	"/>
	<polygon points="195.8,43 195.8,45 191.5,45 191.5,57.2 189.3,57.2 189.3,45 185.2,45 185.2,43 	"/>
	<polygon points="199.9,45 199.9,48.8 206.2,48.8 206.2,51 199.9,51 199.9,55.1 207.2,55.1 207.2,57.2 197.6,57.2 197.6,43
		207.2,43 207.2,45 	"/>
	<polygon points="218,55.1 218,57.2 209.4,57.2 209.4,43 211.6,43 211.6,55.1 	"/>
	<path d="M229.9,53.3c0,2.3-2.2,4.1-5.3,4.1s-5.4-1.8-5.5-4.5v-0.1h2.2V53c0.2,2.1,1.9,2.6,3.3,2.6c1.4,0,3.2-0.6,3.2-2.1
		c0-1.1-0.6-1.6-2-2.1l-2.7-0.7c-2.3-0.7-3.4-2-3.4-4.1s2.1-3.9,4.9-3.9c3.1,0,4.9,1.5,5.2,4.2v0.2h-2.2V47
		c-0.1-1.5-1.2-2.2-2.9-2.2c-1.8,0-2.7,0.7-2.7,1.9s0.5,1.6,2.1,2.1l2.2,0.6C228.1,49.7,229.9,50.6,229.9,53.3z"/>
	<polygon points="234.9,45 234.9,48.8 241.2,48.8 241.2,51 234.9,51 234.9,55.1 242.2,55.1 242.2,57.2 232.6,57.2 232.6,43
		242.2,43 242.2,45 	"/>
	<polygon points="255.7,43 255.7,57.2 252.7,57.2 247.3,46.3 247.1,45.8 247.1,57.2 245,57.2 245,43 247.9,43 253.6,54.1 253.6,43
		"/>
	<polygon points="168.3,45 168.3,55.2 171.9,55.2 171.9,57.3 162.4,57.3 162.4,55.2 166.1,55.2 166.1,45 162.4,45 162.4,43
		171.9,43 171.9,45 	"/>
	<polygon points="61.6,43 61.6,57.2 58.6,57.2 53.2,46.3 53.1,45.8 53.1,57.2 50.8,57.2 50.8,43 53.8,43 59.4,54.1 59.4,43 	"/>
	<polygon points="74.1,43 74.1,45 70,45 70,57.2 67.7,57.2 67.7,45 63.5,45 63.5,43 	"/>
	<polygon points="78.3,45 78.3,48.8 84.7,48.8 84.7,51 78.3,51 78.3,55.1 85.6,55.1 85.6,57.2 76.1,57.2 76.1,43 85.6,43 85.6,45
		"/>
	<path d="M94.9,51.2H95c0.8-0.1,1.5-0.5,2-1.1c0.7-0.8,1.2-1.9,1.1-3.1c0.1-1.2-0.2-2.2-1.1-3.1c-0.9-0.8-2.2-1.2-3.4-1.1h-5.4v14.2
		h2.2v-5.9h2.1l3.3,5.9h2.6L94.9,51.2z M90.4,49.3v-4.5h3.9c0.7-0.1,1.4,0.5,1.4,1.2l0,0v1.8c0,0.7-0.5,1.4-1.3,1.4h-0.2h-3.8V49.3z
		"/>
	<polygon points="111.7,43 111.7,57.2 108.7,57.2 103.3,46.3 103.2,45.8 103.2,57.2 101,57.2 101,43 103.9,43 109.6,54.1 109.6,43
		"/>
	<polygon points="117.1,45 117.1,48.8 123.5,48.8 123.5,51 117.1,51 117.1,55.1 124.4,55.1 124.4,57.2 114.8,57.2 114.8,43
		124.4,43 124.4,45 	"/>
	<polygon points="137,43 137,45 132.9,45 132.9,57.2 130.7,57.2 130.7,45 126.5,45 126.5,43 	"/>
	<polygon points="44.5,45 44.5,55.1 48,55.1 48,57.1 38.6,57.1 38.6,55.1 42.3,55.1 42.3,45 38.6,45 38.6,43 48,43 48,45 	"/>
</g>
</svg>
