<?xml version="1.0" encoding="utf-8"?>
<!-- Generator: Adobe Illustrator 23.0.3, SVG Export Plug-In . SVG Version: 6.00 Build 0)  -->
<svg version="1.1" id="Layer_1" xmlns="http://www.w3.org/2000/svg" xmlns:xlink="http://www.w3.org/1999/xlink" x="0px" y="0px"
	 viewBox="0 0 324 102" style="enable-background:new 0 0 324 102;" xml:space="preserve"  width="324px" height="102px">
<style type="text/css">
	.st0{fill:none;}
	.st1{fill:#FF4069;}
	.st2{fill-rule:evenodd;clip-rule:evenodd;fill:#FFFFFF;}
</style>
<title>svenskarna_och_internet</title>
<g>
	<rect class="st0" width="324" height="102"/>
</g>
<g>
	<path d="M46.4,22.5l5.5-1.4c0.4,3.8,3.1,5.5,6.4,5.5c3.3,0,5-1.7,5-3.9c0-6.4-14.8-4.2-14.8-14.2C48.4,3,52.8,0,58,0
		c3.9-0.1,7.5,2,9.3,5.4l-4.6,2.8c-0.9-2-2.8-3.2-5-3.3c-2.2,0-3.9,1.3-3.9,3.3c0,5.8,14.9,3.8,14.9,14c0,5.8-4.8,9.3-10.7,9.3
		C52.7,31.5,47.3,28.5,46.4,22.5z M68.6,9.5h5.8l5.2,14.9l5.3-14.9h5.8l-8.9,21.7h-4.4L68.6,9.5z M91.4,20.4
		c0-5.7,3.3-11.4,10.6-11.4c7.6,0,10.1,6.1,10.1,10.9c0,0.7,0,1.4-0.2,2.1H97c0.5,2.8,2,4.8,5.4,4.8c2,0.1,3.9-0.8,5.2-2.3l3.7,3.2
		c-2.2,2.6-5.5,4-8.9,3.9C94.9,31.6,91.4,26.2,91.4,20.4z M106.9,18.2c0-0.5,0-0.9-0.2-1.4c-0.5-2.1-2.5-3.6-4.7-3.4
		c-3.1,0-4.5,2-5,4.8H106.9z M115.8,9.5h5.3V12c1.6-1.9,3.9-3,6.4-3c5.7,0,7.9,4.6,7.9,9.1v13.1h-5.3V18.8c0-2.8-1.4-4.9-4.1-4.9
		c-3,0-4.9,1.6-4.9,5.4v11.9h-5.3V9.5z M137.9,25.5l4.2-1.9c0.6,1.6,1.7,3.6,4.6,3.6c2.5,0,3.5-1.4,3.5-2.6c0-3.7-10.9-1.2-10.9-8.9
		c0-4.6,3.9-6.7,8.1-6.7c3.4-0.1,6.6,1.7,8.2,4.7l-4.1,2.2c-0.7-1.7-2.4-2.8-4.3-2.8c-1.7,0-2.8,0.8-2.8,1.9c0,3.3,11,1.3,11,9.3
		c0,5-4.4,7.2-8.5,7.2C143,31.8,139.3,29.3,137.9,25.5z M159.1,0.5h5.3v18l8.2-9h6.9l-8.1,8.4l9,13.3h-6.3l-6.4-10.1l-3.3,3.7v6.4
		h-5.3L159.1,0.5z M200.6,18v13.2h-4.4l-0.3-2.9c-1.6,2.2-4.1,3.4-6.8,3.3c-4.5,0-7.9-2.6-7.9-7.1c0-4.7,3.8-6.3,8.7-6.3h5.9
		c-0.1-3.2-1-4.6-4.5-4.6c-2.1,0-4.1,1.2-5.1,3l-4-2.9c2-3,5.4-4.8,9.1-4.8C197.1,9,200.6,12.7,200.6,18L200.6,18z M195.8,22.2V22
		h-5.6c-2.4,0-3.5,1.3-3.5,2.6s1.2,2.5,3.5,2.5C193,27.2,195.5,25,195.8,22.2z M204.8,9.5h5.2v3.7c0.9-2.5,3.2-4.1,5.8-4.1
		c1.5,0,2.9,0.5,4,1.6l-2.4,4.3c-0.7-0.5-1.5-0.7-2.4-0.7c-2.5,0-5,2.3-5,7.8v9.2h-5.1V9.5z M222.3,9.5h5.3V12c1.6-1.9,3.9-3,6.4-3
		c5.7,0,7.9,4.6,7.9,9.1v13.1h-5.3V18.8c0-2.8-1.4-4.9-4.1-4.9c-3,0-4.8,1.6-4.8,5.4v11.9h-5.3V9.5z M264.6,18v13.2h-4.4l-0.3-2.9
		c-1.6,2.1-4.1,3.4-6.8,3.3c-4.5,0-7.9-2.6-7.9-7.1c0-4.7,3.8-6.3,8.7-6.3h5.9c-0.1-3.2-1.1-4.6-4.5-4.6c-2.1,0-4.1,1.2-5.1,3
		l-4-2.9c2-3,5.4-4.8,9.1-4.8C261.1,9,264.6,12.7,264.6,18L264.6,18z M259.8,22.2V22h-5.6c-2.4,0-3.5,1.3-3.5,2.6s1.2,2.5,3.5,2.5
		C257,27.2,259.5,25,259.8,22.2z M46.5,61.9c-0.2-6,4.5-11,10.5-11.3c0.2,0,0.4,0,0.6,0c6-0.1,11,4.7,11.1,10.7c0,0.2,0,0.4,0,0.6
		c0,6.1-4.4,11.3-11.1,11.3S46.5,68,46.5,61.9z M63.2,61.9c0-3.6-1.6-6.7-5.6-6.7S52,58.3,52,61.9c0,3.6,1.6,6.8,5.6,6.8
		S63.2,65.4,63.2,61.9z M71.2,62c0-5.7,3.4-11.3,10.5-11.3c4.2-0.2,8,2.4,9.4,6.4L86,59c-0.4-2.1-2.2-3.5-4.3-3.6
		c-3.7,0-5,3.3-5,6.5s1.4,6.5,5,6.5c2.1,0,3.9-1.4,4.3-3.5l4.8,1.8c-1.3,3.9-5,6.5-9.1,6.4C74.6,73.2,71.2,67.7,71.2,62z M94.9,42.1
		h5.4v11.5c1.5-1.9,3.9-3,6.3-3c5.7,0,8,4.6,8,9.1v13.1h-5.4V60.4c0-2.7-0.7-5-3.9-5c-3.4,0-5,2.8-5,6.4v11h-5.4L94.9,42.1z
		 M126.4,42.1h5.6V47h-5.6V42.1z M126.6,51.1h5.3v21.7h-5.3V51.1z M138.3,51.1h5.3v2.5c1.6-1.9,3.9-3,6.4-3c5.7,0,7.9,4.6,7.9,9.1
		v13.1h-5.3V60.4c0-2.8-1.4-4.9-4.1-4.9c-3,0-4.8,1.6-4.8,5.4v11.9h-5.3V51.1z M164,66.8V55.5h-3.5v-4.4h3.6v-5.4l5.2-3.8v9.2h5.4
		v4.4h-5.4v10.4c0,2.1,1,2.7,2.4,2.7c1.1,0,2.1-0.3,3-0.8v4.8c-1.3,0.4-2.6,0.7-4,0.7C166.5,73.2,164,70.7,164,66.8z M177.3,62
		c0-5.7,3.3-11.4,10.6-11.4c7.6,0,10.1,6.1,10.1,11c0,0.7,0,1.4-0.2,2.1h-14.9c0.5,2.8,2,4.8,5.4,4.8c2,0.1,3.9-0.8,5.2-2.3l3.7,3.2
		c-2.2,2.6-5.5,4-8.9,3.9C180.8,73.2,177.3,67.9,177.3,62z M192.8,59.8c0-0.5,0-0.9-0.2-1.4c-0.5-2.1-2.5-3.6-4.7-3.4
		c-3.1,0-4.5,2-5,4.8H192.8z M201.8,51.1h5.2v3.7c0.9-2.5,3.2-4.1,5.8-4.1c1.5,0,2.9,0.5,4,1.6l-2.4,4.3c-0.7-0.5-1.5-0.7-2.4-0.7
		c-2.5,0-5,2.3-5,7.8v9.2h-5.1L201.8,51.1z M219.2,51.1h5.3v2.5c1.6-1.9,3.9-3,6.4-3c5.7,0,7.9,4.6,7.9,9.1v13.1h-5.3V60.4
		c0-2.8-1.4-4.9-4.1-4.9c-3,0-4.8,1.6-4.8,5.4v11.9h-5.3V51.1z M242.1,62c0-5.7,3.3-11.4,10.6-11.4c7.6,0,10.1,6.1,10.1,11
		c0,0.7,0,1.4-0.2,2.1h-14.9c0.5,2.8,2,4.8,5.4,4.8c2,0.1,3.9-0.8,5.2-2.3l3.7,3.2c-2.2,2.6-5.5,4-8.9,3.9
		C245.6,73.2,242.1,67.9,242.1,62z M257.6,59.8c0-0.5,0-0.9-0.2-1.4c-0.5-2.1-2.5-3.6-4.7-3.4c-3.1,0-4.5,2-5,4.8H257.6z
		 M267.9,66.8V55.5h-3.5v-4.4h3.6v-5.4l5.2-3.8v9.2h5.4v4.4h-5.4v10.4c0,2.1,1,2.7,2.4,2.7c1.1,0,2.1-0.3,3-0.8v4.8
		c-1.3,0.4-2.6,0.7-4,0.7C270.5,73.2,267.9,70.7,267.9,66.8z"/>
	<path class="st1" d="M257.4,87.4v4.9h-2.2v2.4H253v2.4h-2.2v2.4h-2.2v2.4h-2.4v-2.4h-2.2v-2.4h-2.2v-2.4h-2.2v-2.4h-2.2v-4.9h2.2
		v-2.4h6.6v2.4h2.4v-2.4h6.6v2.4H257.4z"/>
	<path class="st2" d="M254.5,89v1.6h-3.1v-3.2h1.6V89H254.5L254.5,89z"/>
	<path d="M140,96.3c0,2-1.9,3.5-4.6,3.5s-4.6-1.5-4.8-3.9v-0.1h1.9V96c0.2,1.8,1.6,2.2,2.8,2.2c1.2,0,2.7-0.5,2.7-1.8
		c0-0.9-0.5-1.4-1.7-1.8l-2.3-0.7c-2-0.6-3-1.7-3-3.5s1.8-3.3,4.2-3.3c2.6,0,4.2,1.3,4.4,3.6v0.1h-1.9v-0.1c-0.1-1.3-1-1.9-2.5-1.9
		c-1.5,0-2.3,0.6-2.3,1.6s0.4,1.4,1.8,1.8l1.9,0.5c0.8,0.2,1.6,0.5,2.3,1C139.7,94.4,140.1,95.3,140,96.3z M149.8,87.4v1.7h-3.6
		v10.5h-1.9V89.1h-3.6v-1.7C140.7,87.4,149.8,87.4,149.8,87.4z M164,89.1v3.4h5.2v1.8H164v5.3h-1.9V87.4h7.6v1.7
		C169.7,89.1,164,89.1,164,89.1z M180.3,87.4v1.7h-3.6v10.5h-1.9V89.1h-3.6v-1.7C171.3,87.4,180.3,87.4,180.3,87.4z M183.8,89.1v3.4
		h5.5v1.8h-5.5v3.6h6.3v1.8h-8.2V87.4h8.2v1.7H183.8z M199.4,97.8v1.8h-7.3V87.4h1.9v10.5H199.4z M209.7,96.3c0,2-1.9,3.5-4.6,3.5
		c-2.6,0-4.6-1.5-4.8-3.9v-0.1h1.9V96c0.2,1.8,1.6,2.2,2.8,2.2s2.7-0.5,2.7-1.8c0-0.9-0.5-1.4-1.7-1.8l-2.4-0.7c-2-0.6-3-1.7-3-3.5
		s1.8-3.3,4.2-3.3c2.6,0,4.2,1.3,4.4,3.6v0.1h-1.9v-0.1c-0.1-1.3-1-1.9-2.5-1.9s-2.3,0.6-2.3,1.6s0.4,1.4,1.8,1.8l1.9,0.5
		C208,93.2,209.7,93.9,209.7,96.3L209.7,96.3z M213.9,89.1v3.4h5.5v1.8h-5.5v3.6h6.3v1.8H212V87.4h8.2v1.7H213.9z M231.8,87.4v12.2
		h-2.6l-4.6-9.4l-0.2-0.4v9.7h-1.9V87.4h2.6l4.8,9.7v-9.7H231.8L231.8,87.4z M156.8,89.1v8.8h3.1v1.7h-8.1v-1.7h3.1v-8.8h-3.1v-1.7
		h8.1v1.7H156.8z M65.1,87.4v12.2h-2.6l-4.6-9.4l-0.2-0.4v9.7h-1.9V87.4h2.6l4.8,9.6v-9.6H65.1z M75.9,87.4v1.7h-3.6v10.5h-1.9V89.1
		h-3.6v-1.7H75.9z M79.5,89.1v3.4H85v1.7h-5.5v3.6h6.3v1.7h-8.2V87.4h8.2v1.7H79.5z M93.7,94.4h0.1c0.7-0.1,1.3-0.4,1.7-0.9
		c0.6-0.7,1-1.7,0.9-2.6c0.1-1-0.3-2-0.9-2.7c-0.8-0.7-1.9-1-2.9-0.9H88v12.2h1.9v-5h1.8l2.8,5h2.2L93.7,94.4z M89.9,92.8v-3.7h3.3
		c0.6-0.1,1.2,0.4,1.2,1c0,0.1,0,0.1,0,0.2v1.3c0,0.6-0.5,1.2-1.1,1.2c0,0-0.1,0-0.1,0H89.9z M108.2,87.4v12.2h-2.6l-4.6-9.4
		l-0.2-0.4v9.7h-1.9V87.4h2.6l4.8,9.7v-9.7C106.3,87.4,108.2,87.4,108.2,87.4z M112.8,89.1v3.4h5.5v1.7h-5.5v3.6h6.2v1.7h-8.2V87.4
		h8.2v1.7C119.1,89.1,112.8,89.1,112.8,89.1z M129.9,87.4v1.7h-3.6v10.5h-1.9V89.1h-3.6v-1.7C120.8,87.4,129.9,87.4,129.9,87.4z
		 M50.4,89.1v8.7h3.1v1.7h-8.1v-1.7h3.1v-8.7h-3.1v-1.7h8.1v1.7H50.4z"/>
</g>
</svg>
