<?xml version="1.0" encoding="utf-8"?>
<!-- Generator: Adobe Illustrator 23.0.1, SVG Export Plug-In . SVG Version: 6.00 Build 0)  -->
<svg version="1.1" id="Layer_1" xmlns="http://www.w3.org/2000/svg" xmlns:xlink="http://www.w3.org/1999/xlink" x="0px" y="0px"
	 viewBox="0 0 324.5 101.9" style="enable-background:new 0 0 324.5 101.9;" xml:space="preserve" preserveAspectRatio="xMidYMid meet" width="324.5px" height="101.9px">
<style type="text/css">
	.st0{fill:none;}
	.st1{fill:#FF4069;}
	.st2{fill:#FFFFFF;}
</style>
<title>svenskarna_och_internet</title>
<g>
	<rect y="0.4" class="st0" width="324.5" height="101.9"/>
</g>
<g id="Lager_1">
	<path d="M50,22.7l5.4-1.4c0.4,3.8,3.1,5.5,6.3,5.5s5-1.7,5-3.9c0-6.3-14.7-4.2-14.7-14.1c0-5.4,4.4-8.4,9.5-8.4
		c3.8-0.1,7.4,2,9.3,5.3l-4.5,2.8c-0.9-1.9-2.8-3.2-4.9-3.2c-2.2,0-3.8,1.3-3.8,3.2c0,5.7,14.7,3.8,14.7,13.9
		c0,5.8-4.8,9.2-10.6,9.2C56.2,31.6,50.9,28.7,50,22.7z"/>
	<path d="M72,9.8h5.7l5.2,14.7l5.2-14.7h5.7l-8.8,21.5h-4.3L72,9.8z"/>
	<path d="M94.6,20.6c0-5.6,3.3-11.3,10.6-11.3c7.5,0,10,6.1,10,10.8c0,0.7,0,1.4-0.2,2.1h-14.8c0.5,2.8,2,4.7,5.4,4.7
		c2,0.1,3.9-0.8,5.2-2.3l3.6,3.2c-2.2,2.6-5.5,4-8.8,3.9C98.1,31.7,94.6,26.4,94.6,20.6z M110,18.5c0-0.5,0-0.9-0.2-1.4
		c-0.5-2.1-2.5-3.5-4.7-3.4c-3.1,0-4.5,2-5,4.7H110z"/>
	<path d="M118.8,9.8h5.2v2.5c1.6-1.9,3.9-3,6.3-2.9c5.6,0,7.9,4.5,7.9,9v13h-5.2V19c0-2.8-1.4-4.9-4.1-4.9c-2.9,0-4.8,1.6-4.8,5.3
		v11.8h-5.2L118.8,9.8z"/>
	<path d="M140.7,25.7l4.2-1.9c0.6,1.6,1.7,3.6,4.6,3.6c2.4,0,3.5-1.4,3.5-2.6c0-3.6-10.8-1.2-10.8-8.8c0-4.5,3.8-6.7,8-6.7
		c3.4-0.1,6.5,1.7,8.2,4.7l-4.1,2.2c-0.7-1.7-2.4-2.8-4.2-2.8c-1.7,0-2.8,0.8-2.8,1.9c0,3.3,10.9,1.3,10.9,9.2c0,5-4.3,7.2-8.4,7.2
		C145.7,31.9,142.1,29.5,140.7,25.7z"/>
	<path d="M161.7,0.9h5.3v17.8l8.1-8.9h6.8l-8,8.3l8.9,13.2h-6.2l-6.3-10L167,25v6.3h-5.3V0.9z"/>
	<path d="M202.8,18.2v13h-4.3l-0.3-2.9c-1.6,2.1-4.1,3.4-6.7,3.3c-4.4,0-7.8-2.5-7.8-7c0-4.7,3.7-6.2,8.6-6.2h5.9
		c-0.1-3.2-1-4.6-4.5-4.6c-2.1,0-4,1.2-5.1,3l-4-2.9c2-3,5.4-4.8,9-4.7C199.3,9.3,202.8,13,202.8,18.2z M198,22.4v-0.2h-5.6
		c-2.4,0-3.5,1.2-3.5,2.6s1.1,2.4,3.5,2.4C195.3,27.3,197.7,25.2,198,22.4z"/>
	<path d="M207,9.8h5.1v3.6c0.9-2.4,3.2-4.1,5.8-4.1c1.5,0,2.9,0.5,4,1.6l-2.4,4.3c-0.7-0.5-1.5-0.7-2.4-0.7c-2.5,0-5,2.3-5,7.8v9.1
		H207V9.8z"/>
	<path d="M224.3,9.8h5.3v2.5c1.6-1.9,3.9-3,6.3-2.9c5.6,0,7.9,4.5,7.9,9v13h-5.3V19c0-2.8-1.4-4.9-4.1-4.9c-2.9,0-4.8,1.6-4.8,5.3
		v11.8h-5.3V9.8z"/>
	<path d="M266.2,18.2v13h-4.3l-0.3-2.9c-1.6,2.1-4.1,3.4-6.7,3.3c-4.4,0-7.8-2.5-7.8-7c0-4.7,3.8-6.2,8.6-6.2h5.8
		c-0.1-3.2-1.1-4.6-4.5-4.6c-2.1,0-4,1.2-5.1,3l-4-2.9c2-3,5.4-4.8,9-4.7C262.7,9.3,266.2,13,266.2,18.2z M261.4,22.4v-0.2h-5.6
		c-2.4,0-3.5,1.2-3.5,2.6s1.1,2.4,3.5,2.4C258.7,27.3,261.1,25.2,261.4,22.4z"/>
	<path d="M50.1,61.7c-0.2-5.9,4.4-10.9,10.4-11.1c0,0,0,0,0,0h0.6c6-0.1,10.9,4.6,11,10.6c0,0,0,0,0,0l0,0c0,0.2,0,0.4,0,0.6
		c0,6.1-4.4,11.2-11,11.2S50.1,67.8,50.1,61.7z M66.7,61.7c0-3.5-1.6-6.6-5.6-6.6s-5.5,3.1-5.5,6.6c0,3.5,1.6,6.7,5.5,6.7
		S66.7,65.3,66.7,61.7z"/>
	<path d="M74.6,61.8c0-5.6,3.4-11.2,10.4-11.2c4.2-0.2,8,2.4,9.3,6.4l-5,1.9c-0.4-2-2.2-3.5-4.3-3.5c-3.6,0-5,3.3-5,6.5
		c0,3.2,1.4,6.4,5,6.4c2.1,0,3.8-1.4,4.3-3.4l4.8,1.8c-1.3,3.9-4.9,6.5-9,6.4C78,73,74.6,67.5,74.6,61.8z"/>
	<path d="M98.1,42.1h5.3v11.4c1.5-1.9,3.8-3,6.2-3c5.6,0,7.9,4.5,7.9,9v13h-5.3V60.3c0-2.6-0.7-5-3.9-5c-3.3,0-5,2.7-5,6.3v10.9
		h-5.3V42.1z"/>
	<path d="M129.3,42.1h5.5V47h-5.5V42.1z M129.4,51h5.2v21.5h-5.2V51z"/>
	<path d="M141.1,51h5.2v2.5c1.6-1.9,3.9-3,6.3-3c5.6,0,7.9,4.5,7.9,9v13h-5.3V60.3c0-2.8-1.4-4.9-4.1-4.9c-2.9,0-4.8,1.6-4.8,5.3
		v11.8h-5.2V51z"/>
	<path d="M166.5,66.6V55.4h-3.5V51h3.6v-5.3l5.2-3.7V51h5.4v4.4h-5.4v10.3c0,2.1,1,2.7,2.4,2.7c1,0,2.1-0.3,3-0.8v4.8
		c-1.3,0.4-2.6,0.6-3.9,0.7C169.1,73,166.5,70.5,166.5,66.6z"/>
	<path d="M179.7,61.9c0-5.6,3.3-11.3,10.6-11.3c7.5,0,10,6,10,10.9c0,0.7,0,1.4-0.2,2.1h-14.8c0.4,2.8,2,4.7,5.4,4.7
		c2,0.1,3.9-0.8,5.2-2.3l3.6,3.2c-2.2,2.6-5.5,4-8.8,3.9C183.2,73,179.7,67.7,179.7,61.9z M195.1,59.7c0-0.5,0-0.9-0.2-1.3
		c-0.5-2.1-2.5-3.5-4.7-3.4c-3.1,0-4.4,2-4.9,4.7H195.1z"/>
	<path d="M203.9,51h5.1v3.6c0.9-2.4,3.2-4.1,5.8-4.1c1.5,0,2.9,0.5,3.9,1.5l-2.4,4.3c-0.7-0.5-1.5-0.7-2.4-0.7c-2.5,0-5,2.3-5,7.8
		v9.1h-5.1L203.9,51z"/>
	<path d="M221.2,51h5.3v2.5c1.6-1.9,3.9-3,6.3-3c5.6,0,7.9,4.5,7.9,9v13h-5.3V60.3c0-2.8-1.4-4.9-4.1-4.9c-2.9,0-4.8,1.6-4.8,5.3
		v11.8h-5.3V51z"/>
	<path d="M243.9,61.9c0-5.6,3.3-11.3,10.6-11.3c7.5,0,10,6,10,10.9c0,0.7,0,1.4-0.2,2.1h-14.8c0.4,2.8,2,4.7,5.4,4.7
		c2,0.1,3.9-0.8,5.1-2.3l3.6,3.2c-2.2,2.6-5.5,4-8.8,3.9C247.4,73,243.9,67.7,243.9,61.9z M259.3,59.7c0-0.5,0-0.9-0.2-1.3
		c-0.5-2.1-2.5-3.5-4.7-3.4c-3.1,0-4.5,2-4.9,4.7H259.3z"/>
	<path d="M269.5,66.6V55.4H266V51h3.5v-5.3l5.2-3.7V51h5.4v4.4h-5.4v10.3c0,2.1,1,2.7,2.4,2.7c1,0,2.1-0.3,3-0.8v4.8
		c-1.3,0.4-2.6,0.6-3.9,0.7C272,73,269.5,70.5,269.5,66.6z"/>
	<polygon class="st1" points="259.1,87 259.1,91.8 256.9,91.8 256.9,94.2 254.7,94.2 254.7,96.7 252.5,96.7 252.5,99.1 250.3,99.1
		250.3,101.5 247.9,101.5 247.9,99.1 245.7,99.1 245.7,96.7 243.6,96.7 243.6,94.2 241.4,94.2 241.4,91.8 239.2,91.8 239.2,87
		241.4,87 241.4,84.6 247.9,84.6 247.9,87 250.3,87 250.3,84.6 256.9,84.6 256.9,87 	"/>
	<polygon class="st2" points="256.2,88.6 256.2,90.2 253.2,90.2 253.2,87 254.8,87 254.8,88.6 	"/>
	<path d="M142.8,95.8c0,2-1.9,3.5-4.5,3.5s-4.6-1.5-4.7-3.8v-0.1h1.9v0.1c0.2,1.8,1.6,2.2,2.8,2.2s2.7-0.5,2.7-1.8
		c0-0.9-0.5-1.4-1.7-1.8l-2.3-0.7c-2-0.6-3-1.6-3-3.4c0-1.8,1.8-3.3,4.2-3.3c2.6,0,4.2,1.3,4.4,3.6v0.1h-1.8v-0.1
		c-0.1-1.3-1-1.9-2.5-1.9s-2.3,0.6-2.3,1.6s0.4,1.4,1.8,1.8l1.9,0.5c0.8,0.2,1.6,0.5,2.3,1C142.5,93.9,142.9,94.8,142.8,95.8z"/>
	<polygon points="152.4,87 152.4,88.7 148.9,88.7 148.9,99.1 147,99.1 147,88.7 143.5,88.7 143.5,87 	"/>
	<polygon points="166.5,88.7 166.5,92 171.7,92 171.7,93.8 166.5,93.8 166.5,99.1 164.6,99.1 164.6,87 172.1,87 172.1,88.7 	"/>
	<polygon points="182.7,87 182.7,88.7 179.2,88.7 179.2,99.1 177.2,99.1 177.2,88.7 173.7,88.7 173.7,87 	"/>
	<polygon points="186.2,88.7 186.2,92 191.6,92 191.6,93.8 186.2,93.8 186.2,97.3 192.4,97.3 192.4,99.1 184.3,99.1 184.3,87
		192.4,87 192.4,88.7 	"/>
	<polygon points="201.6,97.3 201.6,99.1 194.4,99.1 194.4,87 196.3,87 196.3,97.3 	"/>
	<path d="M211.8,95.8c0,2-1.9,3.5-4.5,3.5s-4.6-1.5-4.7-3.8v-0.1h1.9v0.1c0.2,1.8,1.6,2.2,2.8,2.2s2.7-0.5,2.7-1.8
		c0-0.9-0.5-1.4-1.7-1.8l-2.3-0.7c-2-0.6-2.9-1.6-2.9-3.4c0-1.8,1.8-3.3,4.2-3.3c2.6,0,4.2,1.3,4.4,3.6v0.1h-1.9v-0.1
		c-0.1-1.3-1-1.9-2.5-1.9s-2.3,0.6-2.3,1.6s0.4,1.4,1.8,1.8l1.9,0.5C210.2,92.7,211.8,93.5,211.8,95.8z"/>
	<polygon points="216,88.7 216,92 221.4,92 221.4,93.8 216,93.8 216,97.3 222.2,97.3 222.2,99.1 214.1,99.1 214.1,87 222.2,87
		222.2,88.7 	"/>
	<polygon points="233.7,87 233.7,99.1 231.1,99.1 226.6,89.8 226.4,89.5 226.4,99.1 224.5,99.1 224.5,87 227.1,87 231.8,96.6
		231.8,87 	"/>
	<polygon points="159.4,88.7 159.4,97.4 162.4,97.4 162.4,99.2 154.4,99.2 154.4,97.4 157.5,97.4 157.5,88.7 154.4,88.7 154.4,87
		162.4,87 162.4,88.7 	"/>
	<polygon points="68.6,87 68.6,99.1 66,99.1 61.5,89.8 61.3,89.5 61.3,99.1 59.4,99.1 59.4,87 62,87 66.7,96.5 66.7,87 	"/>
	<polygon points="79.2,87 79.2,88.7 75.7,88.7 75.7,99.1 73.8,99.1 73.8,88.7 70.3,88.7 70.3,87 	"/>
	<polygon points="82.8,88.7 82.8,92 88.2,92 88.2,93.8 82.8,93.8 82.8,97.3 89,97.3 89,99.1 80.9,99.1 80.9,87 89,87 89,88.7 	"/>
	<path d="M96.9,94L96.9,94c0.7-0.1,1.3-0.4,1.8-0.9c1.2-1.5,1.2-3.7,0-5.2c-0.8-0.6-1.9-1-2.9-0.9h-4.6v12.1h1.9v-5h1.8l2.8,5h2.2
		L96.9,94z M93.1,92.4v-3.7h3.3c0.6-0.1,1.2,0.4,1.2,1v1.5c0,0.6-0.5,1.2-1.1,1.2c0,0-0.1,0-0.1,0H93.1z"/>
	<polygon points="111.2,87 111.2,99.1 108.7,99.1 104.1,89.8 103.9,89.5 103.9,99.1 102.1,99.1 102.1,87 104.6,87 109.4,96.6
		109.4,87 	"/>
	<polygon points="115.8,88.7 115.8,92 121.2,92 121.2,93.8 115.8,93.8 115.8,97.3 122,97.3 122,99.1 113.9,99.1 113.9,87 122,87
		122,88.7 	"/>
	<polygon points="132.8,87 132.8,88.7 129.2,88.7 129.2,99.1 127.3,99.1 127.3,88.7 123.8,88.7 123.8,87 	"/>
	<polygon points="54,88.7 54,97.3 57.1,97.3 57.1,99 49,99 49,97.3 52.1,97.3 52.1,88.7 49,88.7 49,87 57.1,87 57.1,88.7 	"/>
</g>
</svg>
