<svg xmlns="http://www.w3.org/2000/svg" viewBox="0 0 324.5 101.1" xml:space="preserve"><defs><style>.cls-1{fill:transparent;}.cls-2{fill:#ff4069;}</style></defs><title>svenskarna_och_internet</title><g id="Layer_2" data-name="Layer 2"><rect class="cls-1" width="324.5" height="101.1"/></g><g id="Layer_1" data-name="Layer 1"><path d="M46,22.3l5.4-1.4c.4,3.8,3.1,5.5,6.3,5.5s5-1.7,5-3.9C62.7,16.2,48,18.3,48,8.4,48,3,52.4,0,57.5,0a10.53,10.53,0,0,1,9.3,5.3L62.3,8.1a5.5,5.5,0,0,0-4.9-3.2c-2.2,0-3.8,1.3-3.8,3.2,0,5.7,14.7,3.8,14.7,13.9,0,5.8-4.8,9.2-10.6,9.2C52.2,31.2,46.9,28.3,46,22.3Z"/><path d="M68,9.4h5.7l5.2,14.7L84.1,9.4h5.7L81,30.9H76.7Z"/><path d="M90.6,20.2c0-5.6,3.3-11.3,10.6-11.3,7.5,0,10,6.1,10,10.8a7.42,7.42,0,0,1-.2,2.1H96.2c.5,2.8,2,4.7,5.4,4.7a6.53,6.53,0,0,0,5.2-2.3l3.6,3.2a11.13,11.13,0,0,1-8.8,3.9C94.1,31.3,90.6,26,90.6,20.2ZM106,18a3.5,3.5,0,0,0-.2-1.4,4.56,4.56,0,0,0-4.7-3.4c-3.1,0-4.5,2-5,4.7Z"/><path d="M114.8,9.4H120v2.5A8.18,8.18,0,0,1,126.3,9c5.6,0,7.9,4.5,7.9,9V31H129V18.6c0-2.8-1.4-4.9-4.1-4.9-2.9,0-4.8,1.6-4.8,5.3V30.8h-5.2Z"/><path d="M136.7,25.3l4.2-1.9c.6,1.6,1.7,3.6,4.6,3.6,2.4,0,3.5-1.4,3.5-2.6,0-3.6-10.8-1.2-10.8-8.8,0-4.5,3.8-6.7,8-6.7a9.08,9.08,0,0,1,8.2,4.7l-4.1,2.2a4.57,4.57,0,0,0-4.2-2.8c-1.7,0-2.8.8-2.8,1.9,0,3.3,10.9,1.3,10.9,9.2,0,5-4.3,7.2-8.4,7.2A9.11,9.11,0,0,1,136.7,25.3Z"/><path d="M157.7.4H163V18.2l8.1-8.9h6.8l-8,8.3,8.9,13.2h-6.2l-6.3-10-3.4,3.7v6.3h-5.3Z"/><path d="M198.8,17.8v13h-4.3l-.3-2.9a8.14,8.14,0,0,1-6.7,3.3c-4.4,0-7.8-2.5-7.8-7,0-4.7,3.7-6.2,8.6-6.2h5.9c-.1-3.2-1-4.6-4.5-4.6a6,6,0,0,0-5.1,3l-4-2.9a10.5,10.5,0,0,1,9-4.7C195.3,8.9,198.8,12.6,198.8,17.8ZM194,22v-.2h-5.6c-2.4,0-3.5,1.2-3.5,2.6s1.1,2.4,3.5,2.4A5.39,5.39,0,0,0,194,22Z"/><path d="M203,9.4h5.1V13a6.25,6.25,0,0,1,5.8-4.1,5.52,5.52,0,0,1,4,1.6l-2.4,4.3a4,4,0,0,0-2.4-.7c-2.5,0-5,2.3-5,7.8V31H203Z"/><path d="M220.3,9.4h5.3v2.5A7.87,7.87,0,0,1,231.9,9c5.6,0,7.9,4.5,7.9,9V31h-5.3V18.6c0-2.8-1.4-4.9-4.1-4.9-2.9,0-4.8,1.6-4.8,5.3V30.8h-5.3V9.4Z"/><path d="M262.2,17.8v13h-4.3l-.3-2.9a8.14,8.14,0,0,1-6.7,3.3c-4.4,0-7.8-2.5-7.8-7,0-4.7,3.8-6.2,8.6-6.2h5.8c-.1-3.2-1.1-4.6-4.5-4.6a6,6,0,0,0-5.1,3l-4-2.9a10.5,10.5,0,0,1,9-4.7C258.7,8.9,262.2,12.6,262.2,17.8ZM257.4,22v-.2h-5.6c-2.4,0-3.5,1.2-3.5,2.6s1.1,2.4,3.5,2.4A5.39,5.39,0,0,0,257.4,22Z"/><path d="M46.1,61.3A10.74,10.74,0,0,1,56.47,50.2h.63a10.77,10.77,0,0,1,11,10.52v.68c0,6.1-4.4,11.2-11,11.2S46.1,67.4,46.1,61.3Zm16.6,0c0-3.5-1.6-6.6-5.6-6.6s-5.6,3.1-5.6,6.6S53.1,68,57.1,68,62.7,64.9,62.7,61.3Z"/><path d="M70.6,61.4c0-5.6,3.4-11.2,10.4-11.2a9.29,9.29,0,0,1,9.3,6.4l-5,1.9A4.4,4.4,0,0,0,81,55c-3.6,0-5,3.3-5,6.5s1.4,6.4,5,6.4a4.39,4.39,0,0,0,4.3-3.4l4.8,1.8a9.23,9.23,0,0,1-9,6.4C74,72.6,70.6,67.1,70.6,61.4Z"/><path d="M94.1,41.7h5.3V53.1a7.92,7.92,0,0,1,6.2-3c5.6,0,7.9,4.5,7.9,9v13h-5.3V59.9c0-2.6-.7-5-3.9-5-3.4,0-5,2.7-5,6.3V72.1H94V41.7Z"/><path d="M125.3,41.7h5.5v4.8h-5.5Zm.1,8.9h5.3V72.1h-5.2Z"/><path d="M137.1,50.6h5.2v2.5a8.26,8.26,0,0,1,6.3-3c5.6,0,7.9,4.5,7.9,9v13h-5.3V59.9c0-2.8-1.4-4.9-4.1-4.9-3,0-4.8,1.6-4.8,5.3V72.1h-5.2V50.6Z"/><path d="M162.5,66.2V55H159V50.6h3.6V45.3l5.2-3.7v9.1h5.4V55h-5.4V65.3c0,2.1,1,2.7,2.4,2.7a6.43,6.43,0,0,0,3-.8V72a13.28,13.28,0,0,1-3.9.7C165.1,72.6,162.5,70.1,162.5,66.2Z"/><path d="M175.7,61.5c0-5.6,3.3-11.3,10.6-11.3,7.5,0,10,6,10,10.9a7.42,7.42,0,0,1-.2,2.1H181.3c.4,2.8,2,4.7,5.4,4.7a6.53,6.53,0,0,0,5.2-2.3l3.6,3.2a11.13,11.13,0,0,1-8.8,3.9C179.2,72.6,175.7,67.2,175.7,61.5Zm15.4-2.2a4.59,4.59,0,0,0-4.48-4.7h-.32c-3.1,0-4.4,2-4.9,4.7Z"/><path d="M199.9,50.6H205v3.6a6.25,6.25,0,0,1,5.8-4.1,5.43,5.43,0,0,1,3.9,1.5l-2.4,4.3a4,4,0,0,0-2.4-.7c-2.5,0-5,2.3-5,7.8v9.1h-5.1Z"/><path d="M217.2,50.6h5.3v2.5a8.26,8.26,0,0,1,6.3-3c5.6,0,7.9,4.5,7.9,9v13h-5.3V59.9c0-2.8-1.4-4.9-4.1-4.9-2.9,0-4.8,1.6-4.8,5.3V72.1h-5.3V50.6Z"/><path d="M239.9,61.5c0-5.6,3.3-11.3,10.6-11.3,7.5,0,10,6,10,10.9a7.42,7.42,0,0,1-.2,2.1H245.5c.4,2.8,2,4.7,5.4,4.7a6.16,6.16,0,0,0,5.1-2.3l3.6,3.2a11.13,11.13,0,0,1-8.8,3.9C243.4,72.6,239.9,67.2,239.9,61.5Zm15.4-2.2a4.59,4.59,0,0,0-4.48-4.7h-.32c-3.1,0-4.5,2-4.9,4.7Z"/><path d="M265.5,66.2V55H262V50.6h3.5V45.3l5.2-3.7v9.1h5.4V55h-5.4V65.3c0,2.1,1,2.7,2.4,2.7a6.43,6.43,0,0,0,3-.8V72a13.28,13.28,0,0,1-3.9.7C268,72.6,265.5,70.1,265.5,66.2Z"/><polygon class="cls-2" points="255.1 86.6 255.1 91.4 252.9 91.4 252.9 93.8 250.7 93.8 250.7 96.2 248.5 96.2 248.5 98.7 246.3 98.7 246.3 101.1 243.9 101.1 243.9 98.7 241.7 98.7 241.7 96.2 239.6 96.2 239.6 93.8 237.4 93.8 237.4 91.4 235.2 91.4 235.2 86.6 237.4 86.6 237.4 84.2 243.9 84.2 243.9 86.6 246.3 86.6 246.3 84.2 252.9 84.2 252.9 86.6 255.1 86.6"/><polygon class="cls-1" points="252.2 88.2 252.2 89.8 249.2 89.8 249.2 86.6 250.8 86.6 250.8 88.2 252.2 88.2"/><path d="M138.8,95.4c0,2-1.9,3.5-4.5,3.5s-4.6-1.5-4.7-3.8V95h1.9v.1c.2,1.8,1.6,2.2,2.8,2.2s2.7-.5,2.7-1.8c0-.9-.5-1.4-1.7-1.8L133,93c-2-.6-3-1.7-3-3.4s1.8-3.3,4.2-3.3c2.6,0,4.2,1.3,4.4,3.6V90h-1.8v-.1c-.1-1.3-1-1.9-2.5-1.9s-2.3.6-2.3,1.6.4,1.4,1.8,1.8l1.9.5a6.94,6.94,0,0,1,2.3,1A3.39,3.39,0,0,1,138.8,95.4Z"/><polygon points="148.4 86.6 148.4 88.3 144.9 88.3 144.9 98.7 143 98.7 143 88.3 139.5 88.3 139.5 86.6 148.4 86.6"/><polygon points="162.5 88.3 162.5 91.6 167.7 91.6 167.7 93.4 162.5 93.4 162.5 98.7 160.6 98.7 160.6 86.6 168.1 86.6 168.1 88.3 162.5 88.3"/><polygon points="178.7 86.6 178.7 88.3 175.2 88.3 175.2 98.7 173.2 98.7 173.2 88.3 169.7 88.3 169.7 86.6 178.7 86.6"/><polygon points="182.2 88.3 182.2 91.6 187.6 91.6 187.6 93.4 182.2 93.4 182.2 96.9 188.4 96.9 188.4 98.7 180.3 98.7 180.3 86.6 188.4 86.6 188.4 88.3 182.2 88.3"/><polygon points="197.6 96.9 197.6 98.7 190.4 98.7 190.4 86.6 192.3 86.6 192.3 96.9 197.6 96.9"/><path d="M207.8,95.4c0,2-1.9,3.5-4.5,3.5s-4.6-1.5-4.7-3.8V95h1.9v.1c.2,1.8,1.6,2.2,2.8,2.2s2.7-.5,2.7-1.8c0-.9-.5-1.4-1.7-1.8L202,93c-2-.6-2.9-1.7-2.9-3.4s1.8-3.3,4.2-3.3c2.6,0,4.2,1.3,4.4,3.6V90h-1.9v-.1c-.1-1.3-1-1.9-2.5-1.9s-2.3.6-2.3,1.6.4,1.4,1.8,1.8l1.9.5C206.2,92.3,207.8,93.1,207.8,95.4Z"/><polygon points="212 88.3 212 91.6 217.4 91.6 217.4 93.4 212 93.4 212 96.9 218.2 96.9 218.2 98.7 210.1 98.7 210.1 86.6 218.2 86.6 218.2 88.3 212 88.3"/><polygon points="229.7 86.6 229.7 98.7 227.1 98.7 222.6 89.4 222.4 89.1 222.4 98.7 220.5 98.7 220.5 86.6 223.1 86.6 227.8 96.2 227.8 86.6 229.7 86.6"/><polygon points="155.4 88.3 155.4 97 158.4 97 158.4 98.8 150.4 98.8 150.4 97 153.5 97 153.5 88.3 150.4 88.3 150.4 86.6 158.4 86.6 158.4 88.3 155.4 88.3"/><polygon points="64.6 86.6 64.6 98.7 62 98.7 57.5 89.4 57.3 89.1 57.3 98.7 55.4 98.7 55.4 86.6 58 86.6 62.7 96.1 62.7 86.6 64.6 86.6"/><polygon points="75.2 86.6 75.2 88.3 71.7 88.3 71.7 98.7 69.8 98.7 69.8 88.3 66.3 88.3 66.3 86.6 75.2 86.6"/><polygon points="78.8 88.3 78.8 91.6 84.2 91.6 84.2 93.4 78.8 93.4 78.8 96.9 85 96.9 85 98.7 76.9 98.7 76.9 86.6 85 86.6 85 88.3 78.8 88.3"/><path d="M92.9,93.6h0a3.1,3.1,0,0,0,1.8-.9,4.21,4.21,0,0,0,0-5.2,4.34,4.34,0,0,0-2.9-.9H87.3V98.7h1.9v-5H91l2.8,5H96ZM89.1,92V88.3h3.3a1.06,1.06,0,0,1,1.19.91.28.28,0,0,1,0,.09v1.5A1.13,1.13,0,0,1,92.54,92H89.1Z"/><polygon points="107.2 86.6 107.2 98.7 104.7 98.7 100.1 89.4 99.9 89.1 99.9 98.7 98.1 98.7 98.1 86.6 100.6 86.6 105.4 96.2 105.4 86.6 107.2 86.6"/><polygon points="111.8 88.3 111.8 91.6 117.2 91.6 117.2 93.4 111.8 93.4 111.8 96.9 118 96.9 118 98.7 109.9 98.7 109.9 86.6 118 86.6 118 88.3 111.8 88.3"/><polygon points="128.8 86.6 128.8 88.3 125.2 88.3 125.2 98.7 123.3 98.7 123.3 88.3 119.8 88.3 119.8 86.6 128.8 86.6"/><polygon points="50 88.3 50 96.9 53.1 96.9 53.1 98.6 45 98.6 45 96.9 48.1 96.9 48.1 88.3 45 88.3 45 86.6 53.1 86.6 53.1 88.3 50 88.3"/></g></svg>
