<svg xmlns="http://www.w3.org/2000/svg" viewBox="0 0 324.5 101.09" width="324.5px" height="101.9px" xml:space="preserve"><defs><style>.cls-1{fill:transparent}.cls-2{fill:#ff4069;}</style></defs><title>svenskarna_och_internet</title><g id="Layer_2" data-name="Layer 2"><rect class="cls-1" width="324.5" height="101.9"/></g><g id="Lager_1" data-name="Lager 1"><path d="M50,22.29l5.4-1.38c.38,3.79,3.07,5.47,6.31,5.47s5-1.72,5-3.88C66.72,16.19,52,18.3,52,8.4,52,3,56.36,0,61.49,0a10.2,10.2,0,0,1,9.26,5.34L66.21,8.12A5.53,5.53,0,0,0,61.3,4.87c-2.16,0-3.84,1.31-3.84,3.25,0,5.73,14.73,3.79,14.73,13.89,0,5.75-4.76,9.22-10.57,9.22C56.24,31.23,50.94,28.28,50,22.29Z"/><path d="M72,9.37h5.73l5.2,14.73L88.16,9.37h5.71L85.08,30.88H80.75Z"/><path d="M94.64,20.2c0-5.6,3.27-11.28,10.55-11.28,7.54,0,10,6.05,10,10.85a9,9,0,0,1-.19,2.07H100.19c.46,2.82,2,4.71,5.39,4.71a6.46,6.46,0,0,0,5.16-2.28l3.62,3.16a11.18,11.18,0,0,1-8.83,3.88C98.13,31.31,94.64,26,94.64,20.2ZM110,18.05a4.79,4.79,0,0,0-.17-1.36,4.45,4.45,0,0,0-4.67-3.36c-3.11,0-4.46,2-5,4.72Z"/><path d="M118.76,9.37H124v2.5a8.21,8.21,0,0,1,6.31-2.95c5.64,0,7.86,4.54,7.86,9v13h-5.24V18.63c0-2.82-1.42-4.87-4.11-4.87-2.95,0-4.81,1.59-4.81,5.34V30.88h-5.25Z"/><path d="M140.69,25.28l4.18-1.85c.58,1.57,1.72,3.57,4.58,3.57,2.44,0,3.49-1.42,3.49-2.56,0-3.62-10.81-1.19-10.81-8.79,0-4.54,3.84-6.69,8-6.69a9,9,0,0,1,8.16,4.67l-4.07,2.22A4.68,4.68,0,0,0,150,13.07c-1.72,0-2.78.84-2.78,1.85,0,3.26,10.94,1.32,10.94,9.22,0,5-4.33,7.17-8.4,7.17A9.19,9.19,0,0,1,140.69,25.28Z"/><path d="M161.7.45H167V18.3l8.11-8.93h6.83l-8,8.33,8.93,13.18h-6.2l-6.31-10L167,24.57v6.31h-5.3Z"/><path d="M202.76,17.83V30.88h-4.33L198.11,28a8,8,0,0,1-6.72,3.29c-4.41,0-7.81-2.54-7.81-7,0-4.67,3.74-6.22,8.57-6.22H198c-.11-3.19-1-4.55-4.48-4.55a5.81,5.81,0,0,0-5.06,3l-4-2.91a10.51,10.51,0,0,1,9-4.71C199.32,8.92,202.76,12.58,202.76,17.83ZM198,22v-.17h-5.55c-2.39,0-3.49,1.25-3.49,2.6s1.14,2.44,3.49,2.44A5.47,5.47,0,0,0,198,22Z"/><path d="M207,9.37h5.12V13a6.13,6.13,0,0,1,5.77-4.07,5.55,5.55,0,0,1,4,1.55l-2.39,4.3a4.37,4.37,0,0,0-2.35-.73c-2.46,0-5,2.28-5,7.75v9.09H207Z"/><path d="M224.32,9.37h5.26v2.5a8.18,8.18,0,0,1,6.31-2.95c5.64,0,7.86,4.54,7.86,9v13h-5.26V18.63c0-2.82-1.42-4.87-4.11-4.87-2.95,0-4.8,1.59-4.8,5.34V30.88h-5.26Z"/><path d="M266.18,17.83V30.88h-4.33L261.53,28a8.09,8.09,0,0,1-6.72,3.29c-4.42,0-7.82-2.54-7.82-7,0-4.67,3.75-6.22,8.57-6.22h5.84c-.11-3.19-1.06-4.55-4.48-4.55a5.81,5.81,0,0,0-5.06,3l-4-2.91a10.55,10.55,0,0,1,9-4.71C262.73,8.92,266.18,12.58,266.18,17.83ZM261.42,22v-.17h-5.56c-2.39,0-3.49,1.25-3.49,2.6s1.15,2.44,3.49,2.44A5.46,5.46,0,0,0,261.42,22Z"/><path d="M50.1,61.33A10.78,10.78,0,0,1,60.5,50.18h.6a10.8,10.8,0,0,1,11,10.6h0a5.23,5.23,0,0,1,0,.56c0,6.09-4.37,11.24-11,11.24S50.1,67.42,50.1,61.33Zm16.58,0c0-3.53-1.57-6.61-5.56-6.61s-5.55,3.08-5.55,6.61,1.59,6.72,5.55,6.72S66.68,64.86,66.68,61.33Z"/><path d="M74.61,61.41C74.61,55.77,78,50.17,85,50.17a9.39,9.39,0,0,1,9.3,6.36l-5,1.93A4.47,4.47,0,0,0,85,54.93c-3.62,0-5,3.27-5,6.48s1.38,6.4,5,6.4a4.44,4.44,0,0,0,4.3-3.42l4.78,1.8a9.23,9.23,0,0,1-9,6.38C78,72.57,74.61,67.12,74.61,61.41Z"/><path d="M98.12,41.71h5.34V53.12a8,8,0,0,1,6.23-2.95c5.64,0,7.94,4.55,7.94,9v13h-5.34V59.88c0-2.64-.71-5-3.88-5-3.35,0-5,2.74-5,6.31v10.9H98.12Z"/><path d="M129.31,41.71h5.51v4.84h-5.51Zm.13,8.91h5.25V72.14h-5.25Z"/><path d="M141.05,50.62h5.25v2.5a8.18,8.18,0,0,1,6.31-2.95c5.64,0,7.86,4.55,7.86,9v13h-5.26V59.88c0-2.82-1.42-4.86-4.11-4.86-2.95,0-4.8,1.59-4.8,5.34V72.14h-5.25Z"/><path d="M166.53,66.19V55h-3.47V50.6h3.56V45.28l5.17-3.74v9.08h5.38V55h-5.38V65.27c0,2.07,1,2.67,2.39,2.67a7.3,7.3,0,0,0,3-.78v4.76a12.16,12.16,0,0,1-3.92.65C169.05,72.57,166.53,70.11,166.53,66.19Z"/><path d="M179.73,61.46c0-5.6,3.27-11.29,10.55-11.29,7.53,0,10,6,10,10.86a8.42,8.42,0,0,1-.2,2.06h-14.8c.45,2.82,2,4.72,5.39,4.72a6.46,6.46,0,0,0,5.16-2.28l3.62,3.16a11.18,11.18,0,0,1-8.83,3.88C183.21,72.57,179.73,67.25,179.73,61.46Zm15.35-2.16a4.72,4.72,0,0,0-.17-1.35,4.47,4.47,0,0,0-4.68-3.36c-3.1,0-4.45,2-4.95,4.71Z"/><path d="M203.94,50.62h5.12v3.62a6.15,6.15,0,0,1,5.77-4.07,5.6,5.6,0,0,1,3.94,1.55L216.38,56a4.28,4.28,0,0,0-2.38-.7c-2.46,0-5,2.28-5,7.75v9.09h-5.08Z"/><path d="M221.22,50.62h5.26v2.5a8.18,8.18,0,0,1,6.31-2.95c5.64,0,7.86,4.55,7.86,9v13h-5.26V59.88c0-2.82-1.42-4.86-4.11-4.86-2.95,0-4.8,1.59-4.8,5.34V72.14h-5.26Z"/><path d="M243.93,61.46c0-5.6,3.27-11.29,10.55-11.29,7.54,0,10,6,10,10.86a8.41,8.41,0,0,1-.19,2.06h-14.8c.45,2.82,2,4.72,5.38,4.72A6.46,6.46,0,0,0,260,65.53l3.62,3.16a11.22,11.22,0,0,1-8.83,3.88C247.42,72.57,243.93,67.25,243.93,61.46Zm15.35-2.16a4.72,4.72,0,0,0-.17-1.35,4.45,4.45,0,0,0-4.67-3.36c-3.1,0-4.46,2-4.95,4.71Z"/><path d="M269.46,66.19V55H266V50.6h3.55V45.28l5.17-3.74v9.08h5.38V55h-5.38V65.27c0,2.07,1,2.67,2.39,2.67a7.15,7.15,0,0,0,3-.78v4.76a12.16,12.16,0,0,1-3.92.65C272,72.57,269.46,70.11,269.46,66.19Z"/><polygon class="cls-2" points="259.06 86.58 259.06 91.42 256.87 91.42 256.87 93.84 254.68 93.84 254.68 96.25 252.49 96.25 252.49 98.67 250.3 98.67 250.3 101.09 247.93 101.09 247.93 98.67 245.74 98.67 245.74 96.25 243.55 96.25 243.55 93.84 241.36 93.84 241.36 91.42 239.17 91.42 239.17 86.58 241.36 86.58 241.36 84.16 247.93 84.16 247.93 86.58 250.3 86.58 250.3 84.16 256.87 84.16 256.87 86.58 259.06 86.58"/><polygon class="cls-1" points="256.24 88.21 256.24 89.79 253.2 89.79 253.2 86.58 254.75 86.58 254.75 88.21 256.24 88.21"/><path d="M142.76,95.42c0,2-1.9,3.51-4.53,3.51s-4.56-1.46-4.74-3.82V95h1.9v.11c.19,1.77,1.62,2.15,2.79,2.15s2.67-.47,2.67-1.8c0-.92-.5-1.43-1.71-1.77l-2.3-.69c-2-.56-3-1.65-3-3.44S135.6,86.3,138,86.3c2.59,0,4.19,1.32,4.39,3.6V90h-1.83v-.12c-.12-1.27-1-1.92-2.49-1.92s-2.31.6-2.31,1.57.44,1.41,1.81,1.79l1.89.53a5.83,5.83,0,0,1,2.26,1A3,3,0,0,1,142.76,95.42Z"/><polygon points="152.44 86.58 152.44 88.31 148.89 88.31 148.89 98.68 146.99 98.68 146.99 88.31 143.46 88.31 143.46 86.58 152.44 86.58"/><polygon points="166.53 88.31 166.53 91.64 171.72 91.64 171.72 93.38 166.53 93.38 166.53 98.68 164.63 98.68 164.63 86.58 172.14 86.58 172.14 88.31 166.53 88.31"/><polygon points="182.69 86.58 182.69 88.31 179.16 88.31 179.16 98.68 177.25 98.68 177.25 88.31 173.72 88.31 173.72 86.58 182.69 86.58"/><polygon points="186.19 88.31 186.19 91.64 191.59 91.64 191.59 93.38 186.19 93.38 186.19 96.94 192.4 96.94 192.4 98.68 184.29 98.68 184.29 86.58 192.4 86.58 192.4 88.31 186.19 88.31"/><polygon points="201.62 96.94 201.62 98.68 194.35 98.68 194.35 86.58 196.26 86.58 196.26 96.94 201.62 96.94"/><path d="M211.82,95.42c0,2-1.91,3.51-4.53,3.51s-4.55-1.46-4.74-3.82V95h1.9v.11c.2,1.77,1.63,2.15,2.8,2.15s2.66-.47,2.66-1.8c0-.92-.49-1.43-1.69-1.77L205.89,93c-2-.56-2.94-1.65-2.94-3.44s1.76-3.26,4.18-3.26c2.6,0,4.2,1.32,4.39,3.6V90h-1.91v-.12c-.11-1.27-1-1.92-2.49-1.92s-2.31.6-2.31,1.57.44,1.41,1.81,1.79l1.89.53C210.16,92.34,211.82,93.1,211.82,95.42Z"/><polygon points="215.96 88.31 215.96 91.64 221.36 91.64 221.36 93.38 215.96 93.38 215.96 96.94 222.16 96.94 222.16 98.68 214.05 98.68 214.05 86.58 222.16 86.58 222.16 88.31 215.96 88.31"/><polygon points="233.69 86.58 233.69 98.68 231.15 98.68 226.56 89.41 226.39 89.05 226.39 98.68 224.54 98.68 224.54 86.58 227.07 86.58 231.84 96.15 231.84 86.58 233.69 86.58"/><polygon points="159.37 88.31 159.37 97.03 162.43 97.03 162.43 98.76 154.36 98.76 154.36 97.03 157.47 97.03 157.47 88.31 154.36 88.31 154.36 86.58 162.43 86.58 162.43 88.31 159.37 88.31"/><polygon points="68.57 86.58 68.57 98.67 66.03 98.67 61.45 89.4 61.28 89.05 61.28 98.67 59.42 98.67 59.42 86.58 61.96 86.58 66.71 96.14 66.71 86.58 68.57 86.58"/><polygon points="79.24 86.58 79.24 88.3 75.7 88.3 75.7 98.67 73.79 98.67 73.79 88.3 70.26 88.3 70.26 86.58 79.24 86.58"/><polygon points="82.84 88.3 82.84 91.64 88.24 91.64 88.24 93.37 82.84 93.37 82.84 96.94 89.04 96.94 89.04 98.67 80.94 98.67 80.94 86.58 89.04 86.58 89.04 88.3 82.84 88.3"/><path d="M96.91,93.59H97a3.07,3.07,0,0,0,1.72-.88,4.22,4.22,0,0,0,0-5.23,4.17,4.17,0,0,0-2.91-.88H91.23V98.67h1.91v-5h1.75l2.75,5h2.18ZM93.14,92V88.3h3.29a1.13,1.13,0,0,1,1.23,1v1.49A1.16,1.16,0,0,1,96.57,92a.33.33,0,0,1-.14,0Z"/><polygon points="111.23 86.58 111.23 98.67 108.69 98.67 104.11 89.4 103.94 89.05 103.94 98.67 102.08 98.67 102.08 86.58 104.62 86.58 109.37 96.15 109.37 86.58 111.23 86.58"/><polygon points="115.82 88.31 115.82 91.64 121.22 91.64 121.22 93.37 115.82 93.37 115.82 96.94 122.01 96.94 122.01 98.67 113.92 98.67 113.92 86.58 122.01 86.58 122.01 88.31 115.82 88.31"/><polygon points="132.75 86.58 132.75 88.31 129.22 88.31 129.22 98.67 127.32 98.67 127.32 88.31 123.78 88.31 123.78 86.58 132.75 86.58"/><polygon points="54 88.3 54 96.91 57.06 96.91 57.06 98.64 49 98.64 49 96.91 52.09 96.91 52.09 88.3 49 88.3 49 86.58 57.06 86.58 57.06 88.3 54 88.3"/></g></svg>
