<?xml version="1.0" encoding="UTF-8"?>
<svg id="Layer_1" xmlns="http://www.w3.org/2000/svg" version="1.1" viewBox="0 0 720 606.47">
  <!-- Generator: Adobe Illustrator 29.8.1, SVG Export Plug-In . SVG Version: 2.1.1 Build 2)  -->
  <defs>
    <style>
      .st0 {
        fill: #ff4069;
      }

      .st1 {
        fill: #0477ce;
      }

      .st2 {
        fill: #3f3d56;
      }

      .st3 {
        fill: #25c279;
      }

      .st4, .st5 {
        fill: #fff;
      }

      .st6 {
        fill: #090814;
      }

      .st7 {
        fill: #f2f2f2;
      }

      .st5 {
        isolation: isolate;
        opacity: .3;
      }
    </style>
  </defs>
  <rect class="st5" x="129" y="497.46" width="469" height="109" rx="8" ry="8"/>
  <path class="st6" d="M139.82,500.83c-4.71,0-8.53,3.82-8.54,8.54v85.38c0,4.71,3.82,8.53,8.54,8.54h446.84c4.71,0,8.53-3.82,8.54-8.54v-85.38c0-4.71-3.82-8.53-8.54-8.54H139.82M139.82,497.98h446.84c6.29,0,11.38,5.1,11.38,11.38,0,0,0,0,0,0v85.38c0,6.29-5.1,11.38-11.38,11.38H139.82c-6.29,0-11.38-5.1-11.38-11.38h0v-85.38c0-6.29,5.1-11.38,11.38-11.38Z"/>
  <rect class="st5" x="129" y="287.46" width="469" height="108" rx="8" ry="8"/>
  <path class="st6" d="M139.82,290.21c-4.71,0-8.53,3.82-8.54,8.54v85.38c0,4.71,3.82,8.53,8.54,8.54h446.84c4.71,0,8.53-3.82,8.54-8.54v-85.38c0-4.71-3.82-8.53-8.54-8.54H139.82M139.82,287.37h446.84c6.29,0,11.38,5.1,11.38,11.38,0,0,0,0,0,0v85.38c0,6.29-5.1,11.38-11.38,11.38H139.82c-6.29,0-11.38-5.1-11.38-11.38h0v-85.38c0-6.29,5.1-11.38,11.38-11.38Z"/>
  <path class="st2" d="M277.11,288.37h-2.85v-106.79H71.25v-2.84h205.85v109.63Z"/>
  <circle class="st3" cx="39.53" cy="171.88" r="39.53"/>
  <path class="st4" d="M34.14,192.45c-1.38,0-2.69-.65-3.52-1.76l-10.78-14.38c-1.39-1.99-.9-4.74,1.09-6.13,1.9-1.33,4.5-.95,5.95.85l7.06,9.41,18.12-27.18c1.41-1.98,4.16-2.43,6.14-1.02,1.89,1.35,2.4,3.93,1.18,5.9l-21.57,32.36c-.79,1.19-2.11,1.92-3.54,1.96h-.12Z"/>
  <path class="st2" d="M445.89,288.37h-2.85v-109.63h205.86v2.85h-203.01v106.79Z"/>
  <circle class="st0" cx="680.47" cy="171.88" r="39.53"/>
  <path class="st4" d="M696.85,154.45c-.08-.07-.18-.12-.26-.19-.07-.05-.13-.1-.2-.15-.17-.12-.34-.22-.52-.31-.11-.06-.23-.11-.35-.16-.1-.04-.2-.08-.3-.11-.18-.06-.37-.11-.57-.14l-.12-.02c-1.41-.21-2.84.29-3.82,1.32l-26.8,28.18c-.07.07-.13.14-.2.21-1.62,1.81-1.46,4.6.36,6.21.08.07.18.12.26.19.07.05.13.1.2.15.17.11.34.22.52.31.11.06.23.11.35.16.1.04.2.08.3.11.18.06.37.11.57.14l.12.02c1.41.21,2.84-.29,3.82-1.32l26.8-28.18c.07-.07.13-.14.2-.21,1.62-1.81,1.46-4.6-.36-6.21Z"/>
  <path class="st4" d="M664.08,154.45c.08-.07.18-.12.26-.19.07-.05.13-.1.2-.15.17-.12.34-.22.52-.31.11-.06.23-.11.35-.16.1-.04.2-.08.3-.11.18-.06.37-.11.57-.14l.12-.02c1.41-.21,2.84.29,3.82,1.32l26.8,28.18c.07.07.13.14.2.21,1.62,1.81,1.46,4.6-.36,6.21-.08.07-.18.12-.26.19-.07.05-.13.1-.2.15-.17.11-.34.22-.52.31-.11.06-.23.11-.35.16-.1.04-.2.08-.3.11-.18.06-.37.11-.57.14l-.12.02c-1.41.21-2.84-.29-3.82-1.32l-26.8-28.18c-.07-.07-.13-.14-.2-.21-1.62-1.81-1.46-4.6.36-6.21Z"/>
  <rect class="st2" x="358.65" y="61.04" width="2.85" height="227.33"/>
  <circle class="st3" cx="363.99" cy="39.53" r="39.53"/>
  <path class="st4" d="M358.59,60.11c-1.38,0-2.69-.65-3.52-1.76l-10.78-14.38c-1.39-1.99-.91-4.74,1.09-6.13,1.9-1.33,4.5-.95,5.95.85l7.06,9.41,18.12-27.18c1.41-1.98,4.16-2.43,6.14-1.02,1.89,1.35,2.4,3.93,1.18,5.9l-21.57,32.35c-.79,1.19-2.11,1.92-3.54,1.96h-.12Z"/>
  <path class="st1" d="M180.34,364.15c-5.5,0-9.95-4.46-9.96-9.96v-25.61c0-5.5,4.46-9.96,9.96-9.96s9.96,4.46,9.96,9.96v25.61c0,5.5-4.46,9.95-9.96,9.96Z"/>
  <path class="st1" d="M208.8,364.15c-5.5,0-9.95-4.46-9.96-9.96v-25.61c0-5.5,4.46-9.96,9.96-9.96s9.96,4.46,9.96,9.96v25.61c0,5.5-4.46,9.95-9.96,9.96Z"/>
  <path class="st1" d="M237.26,364.15c-5.5,0-9.95-4.46-9.96-9.96v-25.61c0-5.5,4.46-9.96,9.96-9.96s9.96,4.46,9.96,9.96v25.61c0,5.5-4.46,9.95-9.96,9.96Z"/>
  <path class="st1" d="M265.72,364.15c-5.5,0-9.96-4.46-9.96-9.96v-25.61c0-5.5,4.46-9.96,9.96-9.96s9.96,4.46,9.96,9.96v25.61c0,5.5-4.46,9.95-9.96,9.96Z"/>
  <path class="st6" d="M554.64,328.28h-240.5c-1.18-.03-2.11-1-2.09-2.18.02-1.14.95-2.06,2.09-2.09h240.5c1.18.03,2.11,1,2.09,2.18-.02,1.14-.95,2.06-2.09,2.09h0Z"/>
  <path class="st6" d="M554.64,346.36h-240.5c-1.18-.03-2.11-1-2.09-2.18.02-1.14.95-2.06,2.09-2.09h240.5c1.18.03,2.11,1,2.09,2.18-.02,1.14-.95,2.06-2.09,2.09h0Z"/>
  <path class="st6" d="M554.64,364.43h-240.5c-1.18-.03-2.11-1-2.09-2.18.02-1.14.95-2.06,2.09-2.09h240.5c1.18.03,2.11,1,2.09,2.18-.02,1.14-.95,2.06-2.09,2.09h0Z"/>
  <rect class="st5" x="129" y="394.46" width="469" height="107" rx="8" ry="8"/>
  <path class="st6" d="M139.82,396.94c-4.71,0-8.53,3.82-8.54,8.54v85.38c0,4.71,3.82,8.53,8.54,8.54h446.84c4.71,0,8.53-3.82,8.54-8.54v-85.38c0-4.71-3.82-8.53-8.54-8.54H139.82M139.82,394.1h446.84c6.29,0,11.38,5.1,11.38,11.38,0,0,0,0,0,0v85.38c0,6.29-5.1,11.38-11.38,11.38H139.82c-6.29,0-11.38-5.1-11.38-11.38h0v-85.38c0-6.29,5.1-11.38,11.38-11.38Z"/>
  <path class="st1" d="M180.75,470.8c-5.5,0-9.95-4.46-9.96-9.96v-25.61c0-5.5,4.46-9.96,9.96-9.96s9.96,4.46,9.96,9.96v25.61c0,5.5-4.46,9.95-9.96,9.96Z"/>
  <path class="st1" d="M209.22,470.8c-5.5,0-9.95-4.46-9.96-9.96v-25.61c0-5.5,4.46-9.96,9.96-9.96s9.96,4.46,9.96,9.96v25.61c0,5.5-4.46,9.95-9.96,9.96Z"/>
  <path class="st7" d="M237.68,470.8c-5.5,0-9.95-4.46-9.96-9.96v-25.61c0-5.5,4.46-9.96,9.96-9.96s9.96,4.46,9.96,9.96v25.61c0,5.5-4.46,9.95-9.96,9.96Z"/>
  <path class="st1" d="M266.14,470.8c-5.5,0-9.96-4.46-9.96-9.96v-25.61c0-5.5,4.46-9.96,9.96-9.96s9.96,4.46,9.96,9.96v25.61c0,5.5-4.46,9.95-9.96,9.96Z"/>
  <path class="st6" d="M555.05,434.93h-240.5c-1.18-.03-2.11-1-2.09-2.18.02-1.14.95-2.06,2.09-2.09h240.5c1.18.03,2.11,1,2.09,2.18-.02,1.14-.95,2.06-2.09,2.09h0Z"/>
  <path class="st6" d="M555.05,453.01h-240.5c-1.18-.03-2.11-1-2.09-2.18.02-1.14.95-2.06,2.09-2.09h240.5c1.18.03,2.11,1,2.09,2.18-.02,1.14-.95,2.06-2.09,2.09h0Z"/>
  <path class="st6" d="M555.05,471.09h-240.5c-1.18-.03-2.11-1-2.09-2.18.02-1.14.95-2.06,2.09-2.09h240.5c1.18.03,2.11,1,2.09,2.18-.02,1.14-.95,2.06-2.09,2.09h0Z"/>
  <path class="st1" d="M180.34,574.68c-5.5,0-9.95-4.46-9.96-9.96v-25.61c0-5.5,4.46-9.96,9.96-9.96s9.96,4.46,9.96,9.96v25.61c0,5.5-4.46,9.95-9.96,9.96Z"/>
  <path class="st1" d="M208.8,574.68c-5.5,0-9.95-4.46-9.96-9.96v-25.61c0-5.5,4.46-9.96,9.96-9.96s9.96,4.46,9.96,9.96v25.61c0,5.5-4.46,9.95-9.96,9.96Z"/>
  <path class="st1" d="M237.26,574.68c-5.5,0-9.95-4.46-9.96-9.96v-25.61c0-5.5,4.46-9.96,9.96-9.96s9.96,4.46,9.96,9.96v25.61c0,5.5-4.46,9.95-9.96,9.96Z"/>
  <path class="st7" d="M265.72,574.68c-5.5,0-9.96-4.46-9.96-9.96v-25.61c0-5.5,4.46-9.96,9.96-9.96s9.96,4.46,9.96,9.96v25.61c0,5.5-4.46,9.95-9.96,9.96Z"/>
  <path class="st6" d="M554.64,538.81h-240.5c-1.18-.03-2.11-1-2.09-2.18.02-1.14.95-2.06,2.09-2.09h240.5c1.18.03,2.11,1,2.09,2.18-.02,1.14-.95,2.06-2.09,2.09h0Z"/>
  <path class="st6" d="M554.64,556.89h-240.5c-1.18-.03-2.11-1-2.09-2.18.02-1.14.95-2.06,2.09-2.09h240.5c1.18.03,2.11,1,2.09,2.18-.02,1.14-.95,2.06-2.09,2.09h0Z"/>
  <path class="st6" d="M554.64,574.97h-240.5c-1.18-.03-2.11-1-2.09-2.18.02-1.14.95-2.06,2.09-2.09h240.5c1.18.03,2.11,1,2.09,2.18-.02,1.14-.95,2.06-2.09,2.09h0Z"/>
</svg>