<?xml version="1.0" encoding="UTF-8"?>
<svg id="Layer_1" xmlns="http://www.w3.org/2000/svg" version="1.1" viewBox="0 0 799.47 552.33">
  <!-- Generator: Adobe Illustrator 29.8.1, SVG Export Plug-In . SVG Version: 2.1.1 Build 2)  -->
  <defs>
    <style>
      .st0 {
        fill: #3f3d56;
      }

      .st1 {
        fill: #fff;
      }

      .st2 {
        fill: #bcbcbc;
      }

      .st3 {
        fill: #090814;
      }

      .st4 {
        fill: #6c63ff;
      }
    </style>
  </defs>
  <path class="st2" d="M256.91,360.35H51.38c-2.1,0-3.8-1.7-3.81-3.81v-50.98c0-2.1,1.71-3.8,3.81-3.81h205.54c2.1,0,3.8,1.71,3.81,3.81v50.98c0,2.1-1.71,3.8-3.81,3.81h0ZM51.38,303.28c-1.26,0-2.29,1.02-2.29,2.28v50.98c0,1.26,1.02,2.28,2.28,2.28h205.54c1.26,0,2.28-1.02,2.28-2.28v-50.98c0-1.26-1.02-2.28-2.28-2.28H51.38Z"/>
  <path class="st2" d="M114.94,320.12c-1.47.03-2.64,1.24-2.61,2.72.03,1.43,1.18,2.59,2.61,2.61h125.6c1.47.04,2.7-1.12,2.74-2.59.04-1.45-1.09-2.67-2.54-2.74h-125.8,0Z"/>
  <path class="st2" d="M114.94,336.1c-1.47,0-2.66,1.19-2.66,2.66s1.19,2.66,2.66,2.66h125.6c1.47.04,2.7-1.12,2.74-2.59.04-1.45-1.09-2.67-2.54-2.74h-125.8,0Z"/>
  <path class="st2" d="M184.44,267.95c-.99,0-1.9-.55-2.35-1.43-3.8-7.42-10.42-13-18.38-15.47-1.61-.49-3.26-.86-4.93-1.11l-.34-.05,17.53-54.81h.3c34.06,9.26,53.54,36.56,58.7,44.7.78,1.23.41,2.86-.82,3.63-.08.05-.15.09-.23.13l-48.29,24.14c-.37.18-.77.28-1.18.28h0Z"/>
  <circle class="st3" cx="155.02" cy="273.68" r="4.69"/>
  <path class="st4" d="M123.56,267.88c-.43,0-.85-.11-1.23-.31l-48.01-25.33c-1.29-.68-1.78-2.27-1.1-3.56.03-.05.05-.1.08-.14,6.41-10.28,14.54-19.39,24.02-26.94,16.58-13.14,35.44-19.74,56.06-19.62,7.73.03,15.43,1.08,22.89,3.1l.3.08-17.53,54.8-.25-.04c-1.58-.24-3.17-.38-4.77-.42-17.84-.5-25.57,11.64-28.07,16.89-.3.64-.86,1.13-1.54,1.35-.27.09-.55.14-.84.14h0Z"/>
  <path class="st3" d="M176.19,195.36l-12.4,55.4c-1.63-.49-3.29-.87-4.97-1.12l17.36-54.28h0Z"/>
  <g>
    <circle class="st4" cx="77.02" cy="330.74" r="15.99"/>
    <path class="st1" d="M74.74,339.46c-.59,0-1.14-.28-1.49-.74l-4.57-6.09c-.61-.83-.43-2,.4-2.6.82-.6,1.97-.44,2.58.37l2.99,3.99,7.68-11.51c.58-.85,1.74-1.07,2.59-.5.84.57,1.07,1.71.51,2.56l-9.14,13.71c-.34.5-.9.81-1.5.83h-.05Z"/>
  </g>
  <path class="st2" d="M502.5,360.35h-205.54c-2.1,0-3.8-1.7-3.81-3.81v-50.98c0-2.1,1.71-3.8,3.81-3.81h205.54c2.1,0,3.8,1.71,3.81,3.81v50.98c0,2.1-1.71,3.8-3.81,3.81h0ZM296.97,303.28c-1.26,0-2.29,1.02-2.29,2.28v50.98c0,1.26,1.02,2.28,2.28,2.28h205.54c1.26,0,2.28-1.02,2.28-2.28v-50.98c0-1.26-1.02-2.28-2.28-2.28h-205.54Z"/>
  <path class="st2" d="M360.53,320.12c-1.47.03-2.64,1.24-2.61,2.72.03,1.43,1.18,2.59,2.61,2.61h125.6c1.47.04,2.7-1.12,2.74-2.59.04-1.45-1.09-2.67-2.54-2.74h-125.8,0Z"/>
  <path class="st2" d="M360.53,336.1c-1.47,0-2.66,1.19-2.66,2.66s1.19,2.66,2.66,2.66h125.6c1.47.04,2.7-1.12,2.74-2.59.04-1.45-1.09-2.67-2.54-2.74h-125.8,0Z"/>
  <path class="st2" d="M430.03,267.95c-.99,0-1.9-.55-2.35-1.43-3.8-7.42-10.42-13-18.38-15.47-1.61-.49-3.26-.86-4.93-1.11l-.34-.05,17.53-54.81h.3c34.06,9.26,53.54,36.56,58.7,44.7.78,1.23.41,2.86-.82,3.63-.08.05-.15.09-.23.13l-48.29,24.14c-.37.18-.77.28-1.18.28h0Z"/>
  <circle class="st3" cx="400.61" cy="273.68" r="4.69"/>
  <path class="st4" d="M369.15,267.88c-.43,0-.85-.11-1.23-.31l-48.01-25.33c-1.29-.68-1.78-2.27-1.1-3.56.03-.05.05-.1.08-.14,6.41-10.28,14.54-19.39,24.02-26.94,16.58-13.14,35.44-19.74,56.06-19.62,7.73.03,15.43,1.08,22.89,3.1l.3.08-17.53,54.8-.25-.04c-1.58-.24-3.17-.38-4.77-.42-17.84-.5-25.57,11.64-28.07,16.89-.3.64-.86,1.13-1.54,1.35-.27.09-.55.14-.84.14h0Z"/>
  <path class="st3" d="M421.78,195.36l-12.4,55.4c-1.63-.49-3.29-.87-4.97-1.12l17.36-54.28h0Z"/>
  <g>
    <circle class="st4" cx="322.61" cy="330.74" r="15.99"/>
    <path class="st1" d="M320.33,339.46c-.59,0-1.14-.28-1.49-.74l-4.57-6.09c-.61-.83-.43-2,.4-2.6.82-.6,1.97-.44,2.58.37l2.99,3.99,7.68-11.51c.58-.85,1.74-1.07,2.59-.5.84.57,1.07,1.71.51,2.56l-9.14,13.71c-.34.5-.9.81-1.5.83h-.05Z"/>
  </g>
  <path class="st2" d="M748.09,360.35h-205.54c-2.1,0-3.8-1.7-3.81-3.81v-50.98c0-2.1,1.71-3.8,3.81-3.81h205.54c2.1,0,3.8,1.71,3.81,3.81v50.98c0,2.1-1.71,3.8-3.81,3.81h0ZM542.55,303.28c-1.26,0-2.29,1.02-2.29,2.28v50.98c0,1.26,1.02,2.28,2.28,2.28h205.54c1.26,0,2.28-1.02,2.28-2.28v-50.98c0-1.26-1.02-2.28-2.28-2.28h-205.54Z"/>
  <path class="st2" d="M606.12,320.12c-1.47.03-2.64,1.24-2.61,2.72.03,1.43,1.18,2.59,2.61,2.61h125.6c1.47.04,2.7-1.12,2.74-2.59.04-1.45-1.09-2.67-2.54-2.74h-125.8,0Z"/>
  <path class="st2" d="M606.12,336.1c-1.47,0-2.66,1.19-2.66,2.66s1.19,2.66,2.66,2.66h125.6c1.47.04,2.7-1.12,2.74-2.59.04-1.45-1.09-2.67-2.54-2.74h-125.8,0Z"/>
  <path class="st2" d="M675.62,267.95c-.99,0-1.9-.55-2.35-1.43-3.8-7.42-10.42-13-18.38-15.47-1.61-.49-3.26-.86-4.93-1.11l-.34-.05,17.53-54.81h.3c34.06,9.26,53.54,36.56,58.7,44.7.78,1.23.41,2.86-.82,3.63-.08.05-.15.09-.23.13l-48.29,24.14c-.37.18-.77.28-1.18.28h0Z"/>
  <circle class="st3" cx="646.2" cy="273.68" r="4.69"/>
  <path class="st4" d="M614.74,267.88c-.43,0-.85-.11-1.23-.31l-48.01-25.33c-1.29-.68-1.78-2.27-1.1-3.56.03-.05.05-.1.08-.14,6.41-10.28,14.54-19.39,24.02-26.94,16.58-13.14,35.44-19.74,56.06-19.62,7.73.03,15.43,1.08,22.89,3.1l.3.08-17.53,54.8-.25-.04c-1.58-.24-3.17-.38-4.77-.42-17.84-.5-25.57,11.64-28.07,16.89-.3.64-.86,1.13-1.54,1.35-.27.09-.55.14-.84.14h0Z"/>
  <path class="st3" d="M667.37,195.36l-12.4,55.4c-1.63-.49-3.29-.87-4.97-1.12l17.36-54.28h0Z"/>
  <g>
    <circle class="st4" cx="568.2" cy="330.74" r="15.99"/>
    <path class="st1" d="M565.91,339.46c-.59,0-1.14-.28-1.49-.74l-4.57-6.09c-.61-.83-.43-2,.4-2.6.82-.6,1.97-.44,2.58.37l2.99,3.99,7.68-11.51c.58-.85,1.74-1.07,2.59-.5.84.57,1.07,1.71.51,2.56l-9.14,13.71c-.34.5-.9.81-1.5.83h-.05Z"/>
  </g>
  <path class="st2" d="M53.73,401.5h692c3.31,0,6,1.99,6,4.43v79.8c0,2.45-2.69,4.43-6,4.43H53.73c-3.31,0-6-1.99-6-4.43v-79.8c0-2.45,2.69-4.43,6-4.43Z"/>
  <path class="st2" d="M749.71,130.07H49.93c-1.21,0-2.19-.24-2.19-.54V47.02c0-.3.98-.54,2.19-.54s2.19.24,2.19.54v81.98h697.59c1.21,0,2.19.24,2.19.54s-.98.54-2.19.54h0Z"/>
  <path class="st4" d="M84.99,124.15h-15.66c-.88,0-1.6-.72-1.6-1.6h0v-21.58c0-.88.72-1.6,1.6-1.6h15.66c.88,0,1.6.72,1.6,1.6h0v21.58c0,.88-.72,1.6-1.6,1.6h0Z"/>
  <path class="st4" d="M280.99,124.15h-15.66c-.88,0-1.6-.72-1.6-1.6h0v-42.06c0-.88.72-1.6,1.6-1.6h15.66c.88,0,1.6.72,1.6,1.6h0v42.06c0,.88-.72,1.6-1.6,1.6Z"/>
  <path class="st4" d="M420.99,124.15h-15.66c-.88,0-1.6-.72-1.6-1.6v-21.58c0-.88.72-1.6,1.6-1.6h15.66c.88,0,1.6.72,1.6,1.6v21.58c0,.88-.72,1.6-1.6,1.6Z"/>
  <path class="st4" d="M532.93,124.14h-15.66c-.86.02-1.58-.66-1.6-1.53v-50.29c.02-.86.74-1.55,1.6-1.53h15.66c.86-.02,1.58.66,1.6,1.53v50.29c-.02.86-.74,1.55-1.6,1.53Z"/>
  <path class="st4" d="M730.2,124.14h-15.66c-.88,0-1.6-.72-1.6-1.6V57.86c0-.88.72-1.6,1.6-1.6h15.66c.88,0,1.6.72,1.6,1.6v64.69c0,.88-.72,1.6-1.6,1.6Z"/>
  <circle class="st0" cx="77.22" cy="89.66" r="3.23"/>
  <circle class="st0" cx="272.99" cy="71.63" r="3.23"/>
  <circle class="st0" cx="413.16" cy="89.66" r="3.23"/>
  <circle class="st0" cx="525.51" cy="62.41" r="3.23"/>
  <circle class="st0" cx="722.38" cy="46.56" r="3.23"/>
  <path class="st0" d="M413.46,90.39l-139.01-18.62-193.92,18.33-3.64-.86,197.55-18.81,138.24,18.52,112.58-27.16.64-.05,194.4-15.33,2.27,1-193.76,15.28-115.35,27.7Z"/>
  <path class="st2" d="M112.99,124.14h-15.66c-.93-.05-1.64-.84-1.6-1.77v-23.82c-.04-.93.67-1.72,1.6-1.77h15.66c.93.05,1.64.84,1.6,1.77v23.82c.04.93-.67,1.72-1.6,1.77h0Z"/>
  <path class="st2" d="M140.99,124.14h-15.66c-.93-.05-1.64-.84-1.6-1.77v-23.82c-.04-.93.67-1.72,1.6-1.77h15.66c.93.05,1.64.84,1.6,1.77v23.82c.04.93-.67,1.72-1.6,1.77h0Z"/>
  <path class="st2" d="M168.99,124.14h-15.66c-.99-.13-1.7-1.02-1.6-2.02v-27.22c-.1-.99.61-1.89,1.6-2.02h15.66c.99.13,1.7,1.02,1.6,2.02v27.22c.1.99-.61,1.89-1.6,2.02Z"/>
  <path class="st2" d="M196.99,124.15h-15.66c-.88,0-1.6-.98-1.6-2.18v-29.4c0-1.2.72-2.18,1.6-2.18h15.66c.88,0,1.6.98,1.6,2.18v29.4c0,1.2-.72,2.18-1.6,2.18h0Z"/>
  <path class="st2" d="M224.99,124.15h-15.66c-.88,0-1.6-1.04-1.6-2.32v-31.25c0-1.28.72-2.31,1.6-2.32h15.66c.88,0,1.6,1.04,1.6,2.32v31.24c0,1.28-.72,2.31-1.6,2.32h0Z"/>
  <path class="st2" d="M252.99,124.14h-15.66c-.88,0-1.6-1.09-1.6-2.43v-32.85c0-1.34.72-2.43,1.6-2.43h15.66c.88,0,1.6,1.09,1.6,2.43v32.85c0,1.34-.72,2.43-1.6,2.43Z"/>
  <path class="st2" d="M308.99,124.14h-15.66c-.88,0-1.6-1.09-1.6-2.43v-32.85c0-1.34.72-2.43,1.6-2.43h15.66c.88,0,1.6,1.09,1.6,2.43v32.85c0,1.34-.72,2.43-1.6,2.43Z"/>
  <path class="st2" d="M336.99,124.15h-15.66c-.88,0-1.6-1.04-1.6-2.32v-31.25c0-1.28.72-2.31,1.6-2.32h15.66c.88,0,1.6,1.04,1.6,2.32v31.24c0,1.28-.72,2.31-1.6,2.32h0Z"/>
  <path class="st2" d="M364.99,124.14h-15.66c-.99-.13-1.7-1.02-1.6-2.02v-27.22c-.1-.99.61-1.89,1.6-2.02h15.66c.99.13,1.7,1.02,1.6,2.02v27.22c.1.99-.61,1.89-1.6,2.02Z"/>
  <path class="st2" d="M392.99,124.14h-15.66c-.93-.05-1.64-.84-1.6-1.77v-23.82c-.04-.93.67-1.72,1.6-1.77h15.66c.93.05,1.64.84,1.6,1.77v23.82c.04.93-.67,1.72-1.6,1.77h0Z"/>
  <path class="st2" d="M448.93,124.14h-15.66c-.93-.05-1.64-.84-1.6-1.77v-23.82c-.04-.93.67-1.72,1.6-1.77h15.66c.93.05,1.64.84,1.6,1.77v23.82c.04.93-.67,1.72-1.6,1.77h0Z"/>
  <path class="st2" d="M476.93,124.14h-15.66c-.99-.13-1.7-1.02-1.6-2.02v-27.22c-.1-.99.61-1.89,1.6-2.02h15.66c.99.13,1.7,1.02,1.6,2.02v27.22c.1.99-.61,1.89-1.6,2.02Z"/>
  <path class="st2" d="M504.93,124.15h-15.66c-.88,0-1.6-.98-1.6-2.18v-29.4c0-1.2.72-2.18,1.6-2.18h15.66c.88,0,1.6.98,1.6,2.18v29.4c0,1.2-.72,2.18-1.6,2.18h0Z"/>
  <path class="st2" d="M560.93,124.14h-15.66c-.88,0-1.6-1.09-1.6-2.43v-32.85c0-1.34.72-2.43,1.6-2.43h15.66c.88,0,1.6,1.09,1.6,2.43v32.85c0,1.34-.72,2.43-1.6,2.43Z"/>
  <path class="st2" d="M588.93,124.15h-15.66c-.88,0-1.6-1.04-1.6-2.32v-31.25c0-1.28.72-2.31,1.6-2.32h15.66c.88,0,1.6,1.04,1.6,2.32v31.24c0,1.28-.72,2.31-1.6,2.32h0Z"/>
  <path class="st2" d="M616.93,124.14h-15.66c-.88,0-1.6-1.09-1.6-2.43v-32.85c0-1.34.72-2.43,1.6-2.43h15.66c.88,0,1.6,1.09,1.6,2.43v32.85c0,1.34-.72,2.43-1.6,2.43Z"/>
  <path class="st2" d="M644.93,124.15h-15.66c-.88,0-1.6-1.31-1.6-2.92v-39.42c0-1.61.72-2.92,1.6-2.92h15.66c.88,0,1.6,1.31,1.6,2.92v39.42c0,1.61-.72,2.92-1.6,2.92Z"/>
  <path class="st2" d="M672.93,124.14h-15.66c-.88,0-1.6-1.52-1.6-3.39v-45.74c0-1.87.72-3.39,1.6-3.39h15.66c.88,0,1.6,1.52,1.6,3.39v45.74c0,1.87-.72,3.39-1.6,3.39h0Z"/>
  <path class="st2" d="M700.93,124.14h-15.66c-.88,0-1.6-1.69-1.6-3.77v-50.95c0-2.08.72-3.77,1.6-3.77h15.66c.88,0,1.6,1.69,1.6,3.77v50.95c0,2.08-.72,3.77-1.6,3.77h0Z"/>
</svg>