<?xml version="1.0" encoding="utf-8"?>
<!-- Generator: Adobe Illustrator 24.1.0, SVG Export Plug-In . SVG Version: 6.00 Build 0)  -->
<svg version="1.1" id="Layer_1" xmlns="http://www.w3.org/2000/svg" xmlns:xlink="http://www.w3.org/1999/xlink" x="0px" y="0px"
	 viewBox="0 0 30 18" style="enable-background:new 0 0 30 18;" xml:space="preserve">
<style type="text/css">
	.st0{enable-background:new    ;}
</style>
<g class="st0">
	<path d="M0,12.186l2.954-0.183c0,1.927,1.501,3.027,3.503,3.027c1.77,0,3.393-0.879,3.393-2.722c0-2.453-2.27-2.527-4.223-2.527
		V7.425c2.905,0,3.271-0.867,3.271-2.197c0-1.501-1.098-2.221-2.49-2.221c-1.575,0-2.625,0.927-2.649,2.454L0.83,5.253
		c0-3.247,2.551-5.126,5.529-5.126c2.868,0,5.516,1.757,5.516,4.722c0,1.355-0.55,2.759-2.245,3.552
		c2.294,0.623,3.174,2.282,3.174,4.149c0,3.503-3.027,5.321-6.395,5.321C2.978,17.873,0,16.006,0,12.186z"/>
	<path d="M16.026,0.383h5.004c5.871,0,8.97,3.148,8.97,8.75c0,5.37-3.198,8.494-8.995,8.494h-4.979V0.383z M20.7,14.785
		c3.808,0,6.2-1.477,6.2-5.786c0-4.088-1.671-5.772-5.919-5.772h-1.855v11.558H20.7z"/>
</g>
</svg>
