<?xml version="1.0" encoding="utf-8"?>
<!-- Generator: Adobe Illustrator 24.1.0, SVG Export Plug-In . SVG Version: 6.00 Build 0)  -->
<svg version="1.1" id="Layer_1" xmlns="http://www.w3.org/2000/svg" xmlns:xlink="http://www.w3.org/1999/xlink" x="0px" y="0px"
	 viewBox="0 0 28 31" style="enable-background:new 0 0 28 31;" xml:space="preserve">
<g>
	<path d="M17.244,20.144c0.199,3.058-1.552,5.94-4.359,7.172c-1.79,0.785-3.777,0.826-5.597,0.117
		c-1.82-0.709-3.255-2.085-4.04-3.875c-1.621-3.692,0.065-8.016,3.757-9.637l0.16-0.07l-0.347-2.669l-0.273,0.1
		c-2.875,1.046-5.145,3.411-6.072,6.326c-0.805,2.53-0.577,5.222,0.643,7.581c1.219,2.358,3.284,4.1,5.815,4.905
		c0.994,0.316,2.012,0.473,3.026,0.473c1.567,0,3.123-0.375,4.555-1.116c2.358-1.219,4.1-3.284,4.906-5.815l0.029-0.09l-2.277-4.554
		L17.244,20.144z"/>
	<path d="M26.811,21.501l-3.333,1.669l-3.739-7.459c-0.224-0.443-0.673-0.718-1.169-0.718h-7.46l-0.211-1.691h6.824v-2.624H10.57
		l-0.563-4.398c0.756-0.016,1.464-0.318,2.001-0.854c0.553-0.552,0.858-1.286,0.858-2.068c0.001-0.781-0.303-1.515-0.855-2.068
		c-0.562-0.563-1.318-0.869-2.107-0.859c-1.282,0-2.421,0.853-2.779,2.088C7.052,2.773,7.015,3.033,7.017,3.322l1.618,13.129
		c0.086,0.653,0.647,1.152,1.309,1.163h7.811l3.962,7.91c0.224,0.443,0.672,0.718,1.165,0.719c0.006,0,0.013,0,0.02,0
		c0.203,0,0.404-0.05,0.577-0.143L28,23.838L26.811,21.501z"/>
</g>
</svg>
