<?xml version="1.0" encoding="utf-8"?>
<!-- Generator: Adobe Illustrator 24.1.0, SVG Export Plug-In . SVG Version: 6.00 Build 0)  -->
<svg version="1.1" id="icon-capacity" xmlns="http://www.w3.org/2000/svg" xmlns:xlink="http://www.w3.org/1999/xlink" x="0px"
	 y="0px" viewBox="0 0 30 18" style="enable-background:new 0 0 30 18;" xml:space="preserve">
<g>
	<g id="Path_123">
		<path d="M21.516,14.702c-0.059-2.611-1.825-4.874-4.344-5.566h-0.136c0.136,0,0.136-0.136,0.271-0.136l0,0
			c1.29-1.088,2.076-2.659,2.172-4.344c0.001-2.399-1.943-4.345-4.342-4.346s-4.345,1.943-4.346,4.342c0,0.001,0,0.003,0,0.004
			c0.006,1.708,0.809,3.315,2.172,4.344l0,0L13.1,9.137h-0.136c-2.579,0.95-4.344,2.715-4.344,5.566l0,0v2.986h12.896V14.702z"/>
	</g>
	<g>
		<path d="M9.473,9.646C8.854,8.775,7.94,8.119,6.842,7.861H6.733c0.109,0,0.109-0.109,0.217-0.109
			c1.018-0.927,1.64-2.21,1.738-3.584c0.025-1.895-1.491-3.45-3.385-3.475c-0.03,0-0.06,0-0.09,0
			c-1.894-0.025-3.45,1.491-3.475,3.385c0,0.03,0,0.06,0,0.09C1.742,5.535,2.385,6.82,3.475,7.643l0.109,0.109H3.475
			C1.46,8.305,0.047,10.116,0,12.205v2.389h7.269C7.296,12.611,8.063,10.928,9.473,9.646z"/>
	</g>
	<path d="M26.525,7.752h-0.109c0.109,0,0.109-0.109,0.217-0.109c1.032-0.87,1.661-2.127,1.738-3.475
		c0.001-1.919-1.554-3.476-3.474-3.477c-1.919-0.001-3.476,1.554-3.477,3.474c0,0.001,0,0.002,0,0.003
		c0.004,1.366,0.647,2.652,1.738,3.475l0.109,0.109h-0.109c-1.091,0.402-1.991,0.993-2.606,1.792
		c1.369,1.289,2.237,3.086,2.311,5.05H30v-2.389C29.953,10.115,28.54,8.305,26.525,7.752z"/>
</g>
</svg>
