<?xml version="1.0" encoding="utf-8"?>
<!-- Generator: Adobe Illustrator 24.1.0, SVG Export Plug-In . SVG Version: 6.00 Build 0)  -->
<svg version="1.1" id="icon-wifi" xmlns="http://www.w3.org/2000/svg" xmlns:xlink="http://www.w3.org/1999/xlink" x="0px" y="0px"
	 viewBox="0 0 30 25" style="enable-background:new 0 0 30 25;" xml:space="preserve">
<style type="text/css">
	.st0{display:none;}
	.st1{display:inline;}
</style>
<g id="Group_285" transform="translate(-0.242 -0.385)" class="st0">
	<path id="Path_33_1_" class="st1" d="M15.2,10.5c-1.3,0-2.4,1.1-2.4,2.4l0,0c0,1.3,1.1,2.4,2.4,2.4c1.3,0,2.4-1.1,2.4-2.4l0,0l0,0
		c0-1.3-1-2.4-2.3-2.4l0,0H15.2z"/>
	<path id="Path_70" class="st1" d="M10.7,17.8l-0.3-0.5C8,14.8,8,10.8,10.5,8.4L11,7.9l1,1l-0.5,0.4c-2,2-2,5.2,0,7.1l0,0l0.1,0.2
		l0.3,0.6L10.7,17.8z"/>
	<path id="Path_71" class="st1" d="M8.5,20.9L8,20.4c-4.1-4.1-4.1-10.9,0-15l0.5-0.5l0.9,1L9,6.3c-3.6,3.6-3.6,9.5,0,13.1l0.5,0.5
		L8.5,20.9z"/>
	<path id="Path_72" class="st1" d="M19.5,17.9l-0.9-1l0.4-0.4c2-2,2-5.1,0-7.1L18.5,9l0.8-1.1L20,8.4c2.5,2.5,2.5,6.5,0,9L19.5,17.9
		z"/>
	<path id="Path_73" class="st1" d="M22,20.9l-1-1l0.5-0.5c3.6-3.6,3.6-9.5,0-13.1L21,5.8l0.9-1l0.5,0.5c4.2,4.2,4.2,10.9,0,15
		L22,20.9z"/>
</g>
<g>
	<path id="Rectangle_158_1_" d="M28,2.295v16.411H2V2.295H28 M30,0.295H0v20.411h30V0.295L30,0.295z"/>
	<rect x="1.834" y="22.705" width="26.332" height="2"/>
</g>
</svg>
