<?xml version="1.0" encoding="utf-8"?>
<!-- Generator: Adobe Illustrator 24.1.0, SVG Export Plug-In . SVG Version: 6.00 Build 0)  -->
<svg version="1.1" id="icon-wifi" xmlns="http://www.w3.org/2000/svg" xmlns:xlink="http://www.w3.org/1999/xlink" x="0px" y="0px"
	 viewBox="0 0 26 19" style="enable-background:new 0 0 26 19;" xml:space="preserve">
<style type="text/css">
	.st0{display:none;}
	.st1{display:inline;}
</style>
<g id="Group_285" transform="translate(-0.242 -0.385)" class="st0">
	<path id="Path_33_1_" class="st1" d="M13.2,7.5c-1.3,0-2.4,1.1-2.4,2.4l0,0c0,1.3,1.1,2.4,2.4,2.4s2.4-1.1,2.4-2.4l0,0l0,0
		c0-1.3-1-2.4-2.3-2.4l0,0H13.2z"/>
	<path id="Path_70" class="st1" d="M8.7,14.8l-0.3-0.5C6,11.8,6,7.8,8.5,5.4L9,4.9l1,1L9.5,6.3c-2,2-2,5.2,0,7.1l0,0l0.1,0.2
		l0.3,0.6L8.7,14.8z"/>
	<path id="Path_71" class="st1" d="M6.5,17.9L6,17.4c-4.1-4.1-4.1-10.9,0-15l0.5-0.5l0.9,1L7,3.3c-3.6,3.6-3.6,9.5,0,13.1l0.5,0.5
		L6.5,17.9z"/>
	<path id="Path_72" class="st1" d="M17.5,14.9l-0.9-1l0.4-0.4c2-2,2-5.1,0-7.1L16.5,6l0.8-1.1L18,5.4c2.5,2.5,2.5,6.5,0,9L17.5,14.9
		z"/>
	<path id="Path_73" class="st1" d="M20,17.9l-1-1l0.5-0.5c3.6-3.6,3.6-9.5,0-13.1L19,2.8l0.9-1l0.5,0.5c4.2,4.2,4.2,10.9,0,15
		L20,17.9z"/>
</g>
<path d="M0.375,0.454v18.092h25.25V0.454H0.375z M23.708,5.958v7.997l-6.773-3.72L23.708,5.958z M23.708,16.142v0.488H2.292v-0.488
	l8.627-4.738L13,12.716l2.082-1.312L23.708,16.142z M23.708,3.691L13,10.45L2.292,3.691v-1.32h21.417V3.691z M2.292,13.954V5.958
	l6.774,4.276L2.292,13.954z"/>
</svg>
