<?xml version="1.0" encoding="utf-8"?>
<!-- Generator: Adobe Illustrator 24.1.0, SVG Export Plug-In . SVG Version: 6.00 Build 0)  -->
<svg version="1.1" id="icon-wifi" xmlns="http://www.w3.org/2000/svg" xmlns:xlink="http://www.w3.org/1999/xlink" x="0px" y="0px"
	 viewBox="0 0 25 25" style="enable-background:new 0 0 25 25;" xml:space="preserve">
<style type="text/css">
	.st0{display:none;}
	.st1{display:inline;}
</style>
<g id="Group_285" transform="translate(-0.242 -0.385)" class="st0">
	<path id="Path_33_1_" class="st1" d="M12.7,10.5c-1.3,0-2.4,1.1-2.4,2.4l0,0c0,1.3,1.1,2.4,2.4,2.4s2.4-1.1,2.4-2.4l0,0l0,0
		c0-1.3-1-2.4-2.3-2.4l0,0H12.7z"/>
	<path id="Path_70" class="st1" d="M8.2,17.8l-0.3-0.5C5.5,14.8,5.5,10.8,8,8.4l0.5-0.5l1,1L9,9.3c-2,2-2,5.2,0,7.1l0,0l0.1,0.2
		l0.3,0.6L8.2,17.8z"/>
	<path id="Path_71" class="st1" d="M6,20.9l-0.5-0.5c-4.1-4.1-4.1-10.9,0-15L6,4.9l0.9,1L6.5,6.3c-3.6,3.6-3.6,9.5,0,13.1L7,19.9
		L6,20.9z"/>
	<path id="Path_72" class="st1" d="M17,17.9l-0.9-1l0.4-0.4c2-2,2-5.1,0-7.1L16,9l0.8-1.1l0.7,0.5c2.5,2.5,2.5,6.5,0,9L17,17.9z"/>
	<path id="Path_73" class="st1" d="M19.5,20.9l-1-1l0.5-0.5c3.6-3.6,3.6-9.5,0-13.1l-0.5-0.5l0.9-1l0.5,0.5c4.2,4.2,4.2,10.9,0,15
		L19.5,20.9z"/>
</g>
<path d="M22.63,11.185v-1c0-5.588-4.546-10.134-10.134-10.134S2.362,4.597,2.362,10.185v1H0.365v7.258h2.448l3.075,5.808H10v0.699h5
	v-2.997h-5v0.698H6.852l-2.49-4.703v-0.505v-6.258v-1c0-4.485,3.649-8.134,8.134-8.134c4.485,0,8.134,3.649,8.134,8.134v1v6.258v1
	h4.005v-7.258H22.63z"/>
</svg>
