<?xml version="1.0" encoding="utf-8"?>
<!-- Generator: Adobe Illustrator 24.1.0, SVG Export Plug-In . SVG Version: 6.00 Build 0)  -->
<svg version="1.1" id="icon-phone" xmlns="http://www.w3.org/2000/svg" xmlns:xlink="http://www.w3.org/1999/xlink" x="0px" y="0px"
	 viewBox="0 0 20 29" style="enable-background:new 0 0 20 29;" xml:space="preserve">
<g>
	<path d="M17.52,0.174H2.479c-1.094,0-1.984,0.919-1.984,2.049v24.554c0,1.13,0.89,2.049,1.984,2.049H17.52
		c1.094,0,1.984-0.919,1.984-2.049V2.223C19.505,1.093,18.614,0.174,17.52,0.174z M17.515,21.001H2.495V7.098h15.012L17.515,21.001z
		 M17.505,2.223l0.002,3.875H2.495V2.223L2.479,2.174L17.505,2.223z M2.495,26.777v-4.776h15.021l0.004,4.825L2.495,26.777z"/>
	<circle cx="10.008" cy="24.413" r="1.5"/>
	<rect x="7.932" y="3.636" width="4.135" height="1"/>
</g>
</svg>
