<?xml version="1.0" encoding="utf-8"?>
<!-- Generator: Adobe Illustrator 24.1.0, SVG Export Plug-In . SVG Version: 6.00 Build 0)  -->
<svg version="1.1" id="Layer_1" xmlns="http://www.w3.org/2000/svg" xmlns:xlink="http://www.w3.org/1999/xlink" x="0px" y="0px"
	 viewBox="0 0 21 28" style="enable-background:new 0 0 21 28;" xml:space="preserve">
<path id="mic" d="M18.312,13.274h2.49c0.022,2.433-0.909,4.778-2.593,6.534c-1.63,1.815-3.844,3.001-6.257,3.353V28h-2.9v-4.839
	c-2.413-0.353-4.627-1.539-6.257-3.353c-1.686-1.755-2.618-4.1-2.597-6.534h2.49c-0.054,2.04,0.793,4,2.316,5.358
	c1.492,1.387,3.463,2.142,5.5,2.109c2.037,0.033,4.008-0.722,5.5-2.109c1.523-1.358,2.37-3.318,2.316-5.358L18.312,13.274z
	 M10.499,17.699c-2.43-0.034-4.391-1.995-4.425-4.425V4.425c-0.011-1.174,0.465-2.3,1.314-3.111
	c1.671-1.718,4.418-1.756,6.136-0.085c0.029,0.028,0.057,0.056,0.085,0.085c0.848,0.811,1.324,1.937,1.314,3.111v8.85
	c-0.034,2.43-1.995,4.391-4.425,4.425L10.499,17.699z"/>
</svg>
