<?xml version="1.0" encoding="utf-8"?>
<!-- Generator: Adobe Illustrator 24.1.0, SVG Export Plug-In . SVG Version: 6.00 Build 0)  -->
<svg version="1.1" id="icon-close" xmlns="http://www.w3.org/2000/svg" xmlns:xlink="http://www.w3.org/1999/xlink" x="0px" y="0px"
	 viewBox="0 0 10 14" style="enable-background:new 0 0 10 14;" xml:space="preserve">
<path id="Path_63" d="M0.55,13.209h4.844c2.109,0,4.056-1.292,4.056-3.6c-0.034-1.311-0.809-2.49-2-3.041
	C8.31,6.063,8.836,5.137,8.83,4.14c0-2.487-2.083-3.349-3.973-3.349H0.55V13.209z M2.782,5.791V2.803h2.111
	c1.063,0,1.89,0.492,1.89,1.459c0,1.222-0.844,1.529-1.714,1.529H2.782z M2.782,11.082V7.716h2.559
	C6.293,7.618,7.144,8.31,7.243,9.262C7.246,9.295,7.248,9.327,7.25,9.359c0,1.169-0.67,1.723-1.821,1.723H2.782z"/>
</svg>
