<?xml version="1.0" encoding="utf-8"?>
<!-- Generator: Adobe Illustrator 24.1.0, SVG Export Plug-In . SVG Version: 6.00 Build 0)  -->
<svg version="1.1" id="icon-wifi" xmlns="http://www.w3.org/2000/svg" xmlns:xlink="http://www.w3.org/1999/xlink" x="0px" y="0px"
	 viewBox="0 0 28 20" style="enable-background:new 0 0 28 20;" xml:space="preserve">
<style type="text/css">
	.st0{display:none;}
	.st1{display:inline;}
</style>
<g id="Group_285" transform="translate(-0.242 -0.385)" class="st0">
	<path id="Path_33_1_" class="st1" d="M14.241,7.958c-1.338-0.002-2.425,1.082-2.427,2.42v0.007
		c0.028,1.329,1.098,2.399,2.427,2.427c1.338,0.003,2.424-1.079,2.427-2.417c0,0,0,0,0,0v-0.009
		c0.032-1.309-1.002-2.396-2.311-2.428c0,0,0,0,0,0H14.241z"/>
	<path id="Path_70" class="st1" d="M9.685,15.335l-0.256-0.513c-2.422-2.508-2.385-6.495,0.082-8.959l0.475-0.475l0.95,0.951
		l-0.475,0.474c-1.972,1.971-1.973,5.167-0.002,7.139c0.001,0.001,0.001,0.001,0.002,0.002l0.128,0.178l0.3,0.6L9.685,15.335z"/>
	<path id="Path_71" class="st1" d="M7.509,18.384l-0.475-0.475c-4.151-4.158-4.151-10.891,0-15.049L7.51,2.385l0.95,0.951
		L7.979,3.81c-3.623,3.63-3.623,9.509,0,13.139l0.475,0.476L7.509,18.384z"/>
	<path id="Path_72" class="st1" d="M18.495,15.38l-0.95-0.951l0.476-0.475c1.957-1.959,1.974-5.128,0.038-7.107l-0.5-0.374l0.8-1.08
		l0.616,0.47c2.491,2.5,2.488,6.544-0.006,9.041L18.495,15.38z"/>
	<path id="Path_73" class="st1" d="M20.972,18.385l-0.95-0.951l0.476-0.475c3.625-3.627,3.63-9.505,0.01-13.138l-0.473-0.476
		l0.939-0.96l0.475,0.475c4.151,4.158,4.151,10.892,0,15.05L20.972,18.385z"/>
</g>
<g>
	<g>
		<path d="M25.967,9.989c0,3.29-1.335,6.272-3.49,8.438l1.436,1.436C26.437,17.328,28,13.834,28,9.98
			c-0.032-3.804-1.603-7.267-4.113-9.797l-1.433,1.433C24.598,3.781,25.94,6.74,25.967,9.989z"/>
		<path d="M2.031,9.989c0-3.279,1.327-6.252,3.471-8.416L4.066,0.137C1.555,2.669,0,6.15,0,9.989c0,3.85,1.563,7.341,4.086,9.874
			l1.436-1.436C3.367,16.262,2.031,13.279,2.031,9.989z"/>
	</g>
	<g>
		<path d="M20.772,9.989c0,1.857-0.752,3.541-1.967,4.766L20.4,16.35c1.624-1.635,2.63-3.886,2.63-6.371
			c-0.021-2.445-1.029-4.67-2.638-6.3l-1.593,1.593C20.003,6.495,20.757,8.161,20.772,9.989z"/>
		<path d="M7.228,9.989c0-1.846,0.745-3.521,1.947-4.744L7.579,3.65C5.968,5.282,4.97,7.52,4.97,9.989
			c0,2.479,1.005,4.728,2.629,6.361l1.595-1.595C7.98,13.53,7.228,11.846,7.228,9.989z"/>
	</g>
	<path id="Path_68" d="M14,6.885c-1.714,0-3.104,1.39-3.104,3.104s1.39,3.104,3.104,3.104s3.104-1.39,3.104-3.104l0,0
		C17.089,8.281,15.708,6.9,14,6.885z"/>
</g>
</svg>
