<?xml version="1.0" encoding="utf-8"?>
<!-- Generator: Adobe Illustrator 24.1.0, SVG Export Plug-In . SVG Version: 6.00 Build 0)  -->
<svg version="1.1" id="icon-wifi" xmlns="http://www.w3.org/2000/svg" xmlns:xlink="http://www.w3.org/1999/xlink" x="0px" y="0px"
	 viewBox="0 0 20 20" style="enable-background:new 0 0 20 20;" xml:space="preserve">
<path d="M10,2.2c4.301,0,7.8,3.499,7.8,7.8s-3.499,7.8-7.8,7.8S2.2,14.301,2.2,10S5.699,2.2,10,2.2 M10,0C4.486,0,0,4.486,0,10
	c0,5.514,4.486,10,10,10c5.514,0,10-4.486,10-10C20,4.486,15.514,0,10,0L10,0z"/>
<polygon points="14.522,11.46 8.941,11.46 8.941,4.078 11.059,4.078 11.059,9.343 14.522,9.343 "/>
</svg>
