<?xml version="1.0" standalone="no"?>
<!DOCTYPE svg PUBLIC "-//W3C//DTD SVG 20010904//EN"
 "http://www.w3.org/TR/2001/REC-SVG-20010904/DTD/svg10.dtd">
<svg version="1.0" xmlns="http://www.w3.org/2000/svg"
 width="700.000000pt" height="700.000000pt" viewBox="0 0 700.000000 700.000000"
 preserveAspectRatio="xMidYMid meet">
<metadata>
Created by potrace 1.11, written by Peter Selinger 2001-2013
</metadata>
<g transform="translate(0.000000,700.000000) scale(0.100000,-0.100000)"
fill="#000000" stroke="none">
<path d="M770 6080 l0 -430 -385 0 -385 0 0 -850 0 -850 385 0 385 0 0 -425 0
-425 383 -2 382 -3 3 -422 2 -423 385 0 385 0 0 -425 0 -425 385 0 385 0 0
-425 0 -425 420 0 420 0 0 425 0 425 385 0 385 0 0 425 0 425 383 2 382 3 3
418 2 417 380 0 380 0 2 428 3 427 383 3 382 2 0 850 0 850 -380 0 -380 0 -2
428 -3 427 -1152 3 -1153 2 -2 -427 -3 -428 -417 -3 -418 -2 0 430 0 430
-1155 0 -1155 0 0 -430z m4880 -290 l0 -290 265 0 265 0 0 -275 0 -275 -535 0
-535 0 0 565 0 565 270 0 270 0 0 -290z"/>
</g>
</svg>
