<?xml version="1.0" standalone="no"?>
<!DOCTYPE svg PUBLIC "-//W3C//DTD SVG 20010904//EN"
 "http://www.w3.org/TR/2001/REC-SVG-20010904/DTD/svg10.dtd">
<svg version="1.0" xmlns="http://www.w3.org/2000/svg"
 width="700.000000pt" height="700.000000pt" viewBox="0 0 700.000000 700.000000"
 preserveAspectRatio="xMidYMid meet">
<metadata>
Created by potrace 1.11, written by Peter Selinger 2001-2013
</metadata>
<g transform="translate(0.000000,700.000000) scale(0.100000,-0.100000)"
fill="#000000" stroke="none">
<path d="M778 6487 c-2 -12 -3 -204 -3 -427 l1 -405 -379 0 c-208 0 -382 -2
-385 -5 -4 -3 -7 -386 -7 -853 l0 -847 383 0 382 0 0 -430 0 -430 388 0 387 0
-2 -420 -1 -420 36 -1 c21 0 195 -1 387 -1 l350 0 -1 -424 -1 -424 386 -2 386
-3 1 -415 c1 -228 2 -419 3 -425 1 -12 817 -13 828 -1 5 4 9 191 10 414 0 224
1 413 2 420 1 9 84 12 381 12 l380 0 0 68 c1 37 1 228 1 424 l0 358 32 1 c18
1 192 1 387 1 l355 1 0 421 0 421 375 1 c206 1 380 2 385 3 7 1 10 150 9 426
l0 425 383 0 383 0 0 853 0 852 -382 0 -383 0 0 427 0 426 -1152 0 c-1066 0
-1151 -1 -1155 -16 -2 -10 -3 -200 -2 -424 0 -282 -3 -408 -10 -411 -6 -2
-195 -3 -421 -3 l-410 1 -1 420 c-1 231 -2 423 -3 427 0 3 -518 6 -1150 6
l-1149 0 -4 -21z"/>
</g>
</svg>
