<svg xmlns="http://www.w3.org/2000/svg" viewBox="0 0 30 18"><path d="M0 12.186l2.954-.183c0 1.927 1.501 3.027 3.503 3.027 1.77 0 3.393-.879 3.393-2.722 0-2.453-2.27-2.527-4.223-2.527V7.425c2.905 0 3.271-.867 3.271-2.197 0-1.501-1.098-2.221-2.49-2.221-1.575 0-2.625.927-2.649 2.454L.83 5.253C.83 2.006 3.381.127 6.359.127c2.868 0 5.516 1.757 5.516 4.722 0 1.355-.55 2.759-2.245 3.552 2.294.623 3.174 2.282 3.174 4.149 0 3.503-3.027 5.321-6.395 5.321C2.978 17.873 0 16.006 0 12.186zM16.026.383h5.004c5.871 0 8.97 3.148 8.97 8.75 0 5.37-3.198 8.494-8.995 8.494h-4.979V.383zM20.7 14.785c3.808 0 6.2-1.477 6.2-5.786 0-4.088-1.671-5.772-5.919-5.772h-1.855v11.558H20.7z"/></svg>