<svg xmlns="http://www.w3.org/2000/svg" viewBox="0 0 28 31"><path d="M17.244 20.144a7.335 7.335 0 0 1-4.359 7.172 7.271 7.271 0 0 1-5.597.117 7.26 7.26 0 0 1-4.04-3.875c-1.621-3.692.065-8.016 3.757-9.637l.16-.07-.347-2.669-.273.1a10 10 0 0 0-6.072 6.326 9.876 9.876 0 0 0 .643 7.581 9.87 9.87 0 0 0 5.815 4.905 9.891 9.891 0 0 0 7.581-.643 9.875 9.875 0 0 0 4.906-5.815l.029-.09-2.277-4.554.074 1.152z"/><path d="M26.811 21.501l-3.333 1.669-3.739-7.459a1.304 1.304 0 0 0-1.169-.718h-7.46l-.211-1.691h6.824v-2.624H10.57l-.563-4.398a2.902 2.902 0 0 0 2.001-.854 2.902 2.902 0 0 0 .858-2.068 2.903 2.903 0 0 0-.855-2.068A2.916 2.916 0 0 0 9.904.431a2.9 2.9 0 0 0-2.779 2.088c-.073.254-.11.514-.108.803l1.618 13.129a1.347 1.347 0 0 0 1.309 1.163h7.811l3.962 7.91c.224.443.672.718 1.165.719h.02c.203 0 .404-.05.577-.143L28 23.838l-1.189-2.337z"/></svg>