<svg xmlns="http://www.w3.org/2000/svg" id="icon-backward-15" width="32" height="32" viewbox="0 0 32 32"><path d="M16.6 4.1V1l-4.5 4.5 4.5 4.5V7c5.6.3 10 4.9 10 10.6 0 5.9-4.8 10.6-10.6 10.6S5.4 23.4 5.4 17.5c0-3.5 1.8-6.8 4.7-8.8L8.5 6.4c-3.7 2.5-5.9 6.7-5.9 11.2C2.5 25 8.6 31 16 31s13.5-6 13.5-13.5c0-7.2-5.8-13.1-12.9-13.4z" class="st0"/><path d="M12.5 14.5c0 .2-.1.5-.6.5h-1.1v1.3h1.6v4.8H14v-7.2h-1.5v.6zM18.7 16c-.3 0-.6 0-.8.1l.2-.8H21v-1.5h-4.1l-.9 4 1.4.4.1-.1c.2-.3.6-.6 1-.6.7 0 1.1.5 1.1 1.1 0 .6-.4 1.1-1.1 1.1-.8 0-1-.6-1.2-1.1v-.2l-1.5.4v.2c.3 1.3 1.4 2.2 2.6 2.2 1.5 0 2.7-1.2 2.7-2.6.1-1.4-1.1-2.6-2.4-2.6z" class="st0"/></svg>
