<svg xmlns="http://www.w3.org/2000/svg" viewBox="0 0 30 18"><path d="M21.516 14.702a5.911 5.911 0 0 0-4.344-5.566h-.136c.136 0 .136-.136.271-.136a6.14 6.14 0 0 0 2.172-4.344 4.344 4.344 0 0 0-8.688-.004v.004A5.466 5.466 0 0 0 12.963 9l.137.137h-.136c-2.579.95-4.344 2.715-4.344 5.566v2.986h12.896v-2.987z"/><path d="M9.473 9.646a4.486 4.486 0 0 0-2.631-1.785h-.109c.109 0 .109-.109.217-.109a5.362 5.362 0 0 0 1.738-3.584A3.43 3.43 0 0 0 5.303.693h-.09a3.43 3.43 0 0 0-3.475 3.385v.09a4.37 4.37 0 0 0 1.737 3.475l.109.109h-.109A4.728 4.728 0 0 0 0 12.205v2.389h7.269c.027-1.983.794-3.666 2.204-4.948zM26.525 7.752h-.109c.109 0 .109-.109.217-.109a4.912 4.912 0 0 0 1.738-3.475 3.475 3.475 0 1 0-6.951-.003v.003a4.37 4.37 0 0 0 1.738 3.475l.109.109h-.109c-1.091.402-1.991.993-2.606 1.792a7.322 7.322 0 0 1 2.311 5.05H30v-2.389a4.727 4.727 0 0 0-3.475-4.453z"/></svg>