<svg xmlns="http://www.w3.org/2000/svg" id="icon-forward-60" width="32" height="32" viewbox="0 0 32 32" xml:space="preserve"><path d="M15.4 4.1V1l4.5 4.5-4.5 4.5V7c-5.6.2-10.1 4.9-10.1 10.5 0 5.9 4.8 10.6 10.7 10.6s10.7-4.8 10.7-10.6c0-3.5-1.8-6.8-4.7-8.8l1.6-2.3c3.7 2.5 6 6.7 6 11.2C29.5 25 23.4 31 16 31S2.5 25 2.5 17.5c0-7.2 5.7-13.1 12.9-13.4z" class="st0"/><path d="M14.2 16.3c-.2-.1-.5-.1-.7-.2l1.4-2.2H13l-2.1 3.4c-.3.4-.4.9-.4 1.4 0 1.4 1.2 2.6 2.7 2.6 1.5 0 2.7-1.2 2.7-2.6 0-1.1-.7-2-1.7-2.4zm-1 3.4c-.6 0-1.1-.5-1.1-1.1 0-.6.5-1.1 1.1-1.1.6 0 1.1.5 1.1 1.1 0 .7-.5 1.1-1.1 1.1zM18.9 13.8c-2.5 0-2.5 2.8-2.5 3.7 0 2.5.9 3.7 2.6 3.7 1.6 0 2.5-1.3 2.5-3.7 0-2.4-.9-3.7-2.6-3.7zm0 1.6c.9 0 .9 1 .9 2.2 0 1.2-.1 2.2-.9 2.2-.9 0-1-1-1-2.2.1-1.3.2-2.2 1-2.2z"/></svg>
