<svg id="icon-gauge" viewbox="0 0 32 32">
	<path d="M9.2 23.1c0 .3-.2.5-.5.5s-.5-.2-.5-.5.2-.5.5-.5.5.2.5.5M6.9 20c0 .3-.2.5-.5.5s-.5-.3-.5-.5c0-.3.2-.5.5-.5s.5.2.5.5M6.9 12.8c0 .3-.2.5-.5.5s-.5-.3-.5-.5c0-.3.2-.5.5-.5s.5.2.5.5M9.2 9.5c0 .3-.2.5-.5.5s-.4-.2-.4-.5.2-.5.4-.5c.3 0 .5.2.5.5M12.4 6.9c0 .3-.2.5-.5.5s-.5-.2-.5-.5.2-.5.5-.5.5.2.5.5M16.6 5.8c0 .4-.3.7-.7.7-.4 0-.7-.3-.7-.7s.3-.7.7-.7c.4-.1.7.3.7.7M6.3 16.6c0 .4-.3.7-.7.7-.4 0-.7-.3-.7-.7 0-.4.3-.7.7-.7.4 0 .7.3.7.7M22.7 23.1c0 .3.2.5.5.5s.5-.2.5-.5-.2-.5-.5-.5-.5.2-.5.5M25 20c0 .3.2.5.5.5s.5-.2.5-.5-.2-.5-.5-.5-.5.2-.5.5M25 12.8c0 .3.2.5.5.5s.5-.2.5-.5-.2-.5-.5-.5-.5.2-.5.5M22.7 9.5c0 .3.2.5.5.5s.5-.2.5-.5-.3-.5-.6-.5c-.2 0-.4.2-.4.5M19.4 6.9c0 .3.2.5.5.5s.5-.2.5-.5-.2-.5-.5-.5-.5.2-.5.5M25.5 16.6c0 .4.3.7.7.7.4 0 .7-.3.7-.7 0-.4-.3-.7-.7-.7-.4 0-.7.3-.7.7"/><g transform="translate(-624 -576)"><path class="st0" d="M640 604.5c6.9 0 12.5-5.6 12.5-12.5s-5.6-12.5-12.5-12.5-12.5 5.6-12.5 12.5 5.6 12.5 12.5 12.5m0 3c-8.6 0-15.5-6.9-15.5-15.5s6.9-15.5 15.5-15.5 15.5 6.9 15.5 15.5-6.9 15.5-15.5 15.5"/></g><path d="M18.1 14.1c-1-1.1-2.8-1.2-3.9-.2s-3.6 7-3.6 7 6.2-1.9 7.3-3c1.2-1 1.3-2.7.2-3.8zM16 17.4c-.7 0-1.3-.6-1.3-1.3 0-.7.6-1.3 1.3-1.3.7 0 1.3.6 1.3 1.3.1.7-.5 1.3-1.3 1.3z"/>
</svg>
