<?xml version="1.0" encoding="UTF-8"?>
<svg xmlns="http://www.w3.org/2000/svg" viewBox="0 0 17 15" width="17" height="15">
  <defs>
    <style>
      .cls-1 {
        fill: none;
      }
    </style>
  </defs>
  <g>
    <path d="M.07,2.35h1.9v4.09h4.4V2.35h1.9v10.23h-1.9v-4.39H1.97v4.39H.07V2.35Z"/>
    <path d="M10.31,10.88c.82-.59,1.52-1.13,2.12-1.63.6-.5,1.13-1.08,1.59-1.72.46-.65.69-1.3.69-1.96,0-.46-.12-.84-.37-1.13-.25-.29-.61-.43-1.09-.43-.56,0-.98.2-1.25.6-.27.4-.42.9-.44,1.49l-1.79-.14c0-.63.14-1.23.42-1.8.28-.57.69-1.03,1.22-1.39.53-.36,1.16-.53,1.89-.53.62,0,1.18.14,1.66.4s.87.65,1.14,1.14c.27.49.41,1.06.41,1.71,0,1.03-.34,2.01-1.03,2.93-.68.92-1.61,1.74-2.79,2.46h4.22v1.7h-7.06v-1.38l.45-.32Z"/>
  </g>
  <rect class="cls-1" width="17" height="15"/>
</svg>
