<svg id="icon-instagram" viewbox="0 0 32 32" width="32" height="32">
	<path d="M23.2,0H8.8C4,0,0,4,0,8.8v14.3C0,28,4,32,8.8,32h14.3c4.9,0,8.8-4,8.8-8.8V8.8C32,4,28,0,23.2,0z M29.2,23.2
		c0,3.3-2.7,6-6,6H8.8c-3.3,0-6-2.7-6-6V8.8c0-3.3,2.7-6,6-6h14.3c3.3,0,6,2.7,6,6L29.2,23.2L29.2,23.2z"/>
	<path d="M16,7.8c-4.5,0-8.2,3.7-8.2,8.2c0,4.5,3.7,8.2,8.2,8.2s8.2-3.7,8.2-8.2C24.2,11.5,20.5,7.8,16,7.8z M16,21.4
		c-3,0-5.4-2.4-5.4-5.4c0-3,2.4-5.4,5.4-5.4s5.4,2.4,5.4,5.4C21.4,19,19,21.4,16,21.4z M24.6,5.3c-0.5,0-1.1,0.2-1.5,0.6
		c-0.4,0.4-0.6,0.9-0.6,1.5c0,0.5,0.2,1.1,0.6,1.5c0.4,0.4,0.9,0.6,1.5,0.6c0.5,0,1.1-0.2,1.5-0.6c0.4-0.4,0.6-0.9,0.6-1.5
		c0-0.5-0.2-1.1-0.6-1.5C25.7,5.6,25.1,5.3,24.6,5.3z"/>
</svg>
