<svg xmlns="http://www.w3.org/2000/svg" viewBox="0 0 26 26" width="26" height="26"><path d="M18.678 11.45h1.69L26 25.92h-2.376l-1.178-3.256h-5.817L15.43 25.92h-2.406l5.654-14.47zm3.072 9.319l-2.212-6.114-2.223 6.114h4.435zM7.294.08h2.067v4.775H7.294z"/><path d="M0 3.822h16.656v2.067H0z"/><path d="M3.924 17.286l-.957-1.833A21.99 21.99 0 0013.068 4.458l1.908.797A24.072 24.072 0 013.924 17.286z"/><path d="M12.693 17.265a24.114 24.114 0 01-8.928-8.089L5.493 8.04a22.036 22.036 0 008.16 7.394l-.96 1.831z"/></svg>
