<svg id="icon-linkedin" viewbox="0 0 32 32">
	<path d="M29.6,0H2.4C1.1,0,0,1,0,2.3v27.4C0,31,1.1,32,2.4,32h27.3c1.3,0,2.4-1,2.4-2.3V2.3C32,1,30.9,0,29.6,0z M9.7,26.8H4.9V12.3
		h4.8V26.8z M7.3,10.4L7.3,10.4c-1.7,0-2.7-1.1-2.7-2.5c0-1.4,1.1-2.5,2.7-2.5C9,5.4,10,6.5,10,7.9C10,9.3,9,10.4,7.3,10.4z
		 M27.1,26.8h-4.8v-7.7c0-1.9-0.7-3.3-2.4-3.3c-1.3,0-2.1,0.9-2.5,1.8c-0.1,0.3-0.2,0.7-0.2,1.2v8.1h-4.8c0,0,0.1-13.1,0-14.4h4.8v2
		c0.6-1,1.8-2.4,4.4-2.4c3.2,0,5.6,2.1,5.6,6.5L27.1,26.8L27.1,26.8z M17.2,14.4C17.2,14.4,17.2,14.4,17.2,14.4L17.2,14.4L17.2,14.4z
		"/>
</svg>
