<svg id="icon-link" viewbox="0 0 32 32" width="32" height="32"><path d="M14.3 16.3l.7.7c.9.9 2.1 1.4 3.3 1.4 1.3 0 2.5-.5 3.4-1.4l5.1-5.1c1.9-1.9 1.9-4.9 0-6.8s-4.9-1.9-6.8 0l-3.6 3.6L13.7 6l3.6-3.6c3.3-3.3 8.8-3.3 12.1 0 3.3 3.3 3.3 8.8 0 12.1l-5.1 5.1c-1.6 1.6-3.8 2.5-6.1 2.5s-4.4-.9-6-2.5l-.7-.7 2.8-2.6z"/><path d="M17.7 15.7L17 15c-1.9-1.8-4.9-1.8-6.7 0l-5.1 5c-1.9 1.9-1.9 4.9 0 6.8.9.9 2.1 1.4 3.4 1.4s2.5-.5 3.4-1.4l3.6-3.6 2.7 2.7-3.6 3.6C13 31.1 10.9 32 8.6 32s-4.5-.9-6.1-2.5c-3.3-3.3-3.3-8.8 0-12.1l5.1-5.1c3.3-3.3 8.8-3.3 12.1 0l.7.7-2.7 2.7z"/></svg>
