<svg xmlns="http://www.w3.org/2000/svg" viewbox="0 0 32 32" width="32" height="32"><path d="M18 19.2c0-2-1.4-3.7-3.3-4.2h-.1c.1 0 .1-.1.2-.1 1-.8 1.6-2 1.6-3.3 0-1.8-1.5-3.3-3.3-3.3-1.8 0-3.3 1.5-3.3 3.3 0 1.3.6 2.5 1.6 3.3l.1.1h-.1c-2 .7-3.3 2.1-3.3 4.2v1.4H18v-1.4z"/><path d="M19 25.6c-2.3 1.6-4.8 2.5-5.7 2.8-.2.1-.4.1-.5 0-1.7-.6-10.1-3.7-10.1-9.8v-13c1.5-.6 6-2.1 10.4-2.1S22 5 23.5 5.6v8.3c.6-.1 1.1-.2 1.7-.2V4.5l-.5-.2c-.3-.1-5.9-2.5-11.7-2.5S1.7 4.2 1.4 4.3l-.5.2v14.1c0 7.2 8.7 10.6 11.3 11.5.3.1.5.1.8.1.3 0 .5 0 .8-.1 1.3-.4 3.9-1.4 6.3-3.1-.4-.5-.8-.9-1.1-1.4z"/><path d="M25.3 15.8c-3.1 0-5.5 2.5-5.5 5.5s2.5 5.5 5.5 5.5 5.5-2.5 5.5-5.5-2.4-5.5-5.5-5.5zm-.7 7.8l-2.3-2.1.5-.6 1.7 1.6 3.2-3.5.6.5-3.7 4.1z"/></svg>
