<svg xmlns="http://www.w3.org/2000/svg" viewBox="0 0 21 28" width="21" height="28"><path d="M18.312 13.274h2.49a9.319 9.319 0 0 1-2.593 6.534 10.434 10.434 0 0 1-6.257 3.353V28h-2.9v-4.839a10.445 10.445 0 0 1-6.257-3.353 9.315 9.315 0 0 1-2.597-6.534h2.49c-.054 2.04.793 4 2.316 5.358a7.89 7.89 0 0 0 5.5 2.109 7.89 7.89 0 0 0 5.5-2.109 6.932 6.932 0 0 0 2.316-5.358h-.008zm-7.813 4.425a4.488 4.488 0 0 1-4.425-4.425V4.425a4.248 4.248 0 0 1 1.314-3.111 4.34 4.34 0 0 1 6.221 0 4.255 4.255 0 0 1 1.314 3.111v8.85a4.488 4.488 0 0 1-4.425 4.425l.001-.001z"/></svg>
