<svg id="icon-questionmark" viewbox="0 0 32 32" width="32" height="32">
	<path d="M16.5 23.9h-2.2v-2.3h2.2v2.3zm3.6-10c-.5.8-1.1 1.5-1.8 2.1-.6.5-1.3 1.1-1.6 1.8-.2.4-.3.8-.3 1.3h-2c0-.7.2-1.4.5-2 .5-.8 1-1.5 1.7-2.1.6-.5 1.2-1 1.6-1.6.3-.4.3-.8.3-1.3 0-.8-.3-1.5-.8-2.1-.8-.6-1.7-1-2.4-.9-1.7 0-2.7 1-3.1 3h-2c.1-1.3.6-2.6 1.6-3.4 1-.9 2.3-1.4 3.7-1.3 1.4-.1 2.7.4 3.8 1.3.9.8 1.5 2 1.5 3.2-.2.7-.4 1.4-.7 2z"/><path d="M14 21.1h3.2v3.3H14v-3.3zm3-1.5h-3v-.5c0-.7.2-1.4.5-2.2.5-.9 1.1-1.6 1.9-2.3.7-.5 1.1-1 1.4-1.5.2-.3.2-.6.2-1 0-.7-.2-1.2-.7-1.8-.5-.4-1.2-.7-1.8-.7-1.5 0-2.4.8-2.7 2.6l-.1.4h-3v-.5c.1-1.5.7-2.8 1.7-3.7 1.1-1 2.5-1.5 4-1.4 1.4-.1 2.8.4 4.1 1.4 1 .9 1.7 2.3 1.7 3.6-.1.9-.4 1.7-.7 2.2-.5.9-1.2 1.6-1.9 2.2-.7.5-1.2 1.1-1.5 1.7-.1.3-.2.7-.2 1.1v.4h.1z"/><g transform="translate(-624 -576)"><path class="st0" d="M640 604.5c6.9 0 12.5-5.6 12.5-12.5s-5.6-12.5-12.5-12.5-12.5 5.6-12.5 12.5 5.6 12.5 12.5 12.5m0 3c-8.6 0-15.5-6.9-15.5-15.5s6.9-15.5 15.5-15.5 15.5 6.9 15.5 15.5-6.9 15.5-15.5 15.5"/></g>
</svg>
