<?xml version="1.0" encoding="UTF-8"?>
<svg xmlns="http://www.w3.org/2000/svg" viewBox="0 0 17 15" width="17" height="15">
	<g>
		<path d="M.02,2.36h1.89v4.05h4.37V2.36h1.89v10.15h-1.89v-4.35H1.91v4.35H.02V2.36Z"/>
		<path d="M11.15,12.22c-.57-.28-1.02-.67-1.33-1.18-.32-.5-.47-1.09-.47-1.75l1.8-.11c0,.35.08.65.25.91.17.26.41.46.72.6s.67.21,1.08.21c.6,0,1.07-.13,1.41-.4.33-.27.5-.64.5-1.12,0-.52-.21-.9-.63-1.13-.42-.23-1.04-.34-1.85-.34v-1.42c.59,0,1.06-.11,1.39-.32.34-.21.51-.54.51-.99,0-.38-.13-.68-.38-.9-.25-.22-.59-.33-1.02-.33-.47,0-.84.13-1.11.38-.27.25-.41.59-.42,1.03l-1.78-.12c0-.58.14-1.1.43-1.55.29-.46.69-.82,1.2-1.07.52-.26,1.09-.39,1.74-.39.61,0,1.16.12,1.63.35s.85.56,1.12.98.4.9.4,1.44c0,.46-.11.86-.34,1.2-.23.34-.54.61-.93.8.57.19,1.02.49,1.35.9.34.41.5.91.5,1.51,0,.64-.16,1.2-.48,1.69-.32.49-.76.87-1.34,1.14-.57.27-1.23.41-1.97.41s-1.41-.14-1.98-.42Z"/>
	</g>
	<rect style="fill:none;" width="17" height="15"/>
</svg>
