<?xml version="1.0" encoding="UTF-8"?>
<svg xmlns="http://www.w3.org/2000/svg" viewBox="0 0 17 15" width="17" height="15">
  <path d="M5.55.75h10.93v2H5.55V.75ZM5.55,5.96h10.93v2H5.55v-2ZM5.55,11.17h10.93v2H5.55v-2Z"/>
  <path d="M1.22,1.13H.34v-.6h.49c.13,0,.23-.03.29-.09.06-.06.1-.15.1-.29v-.16h.75v3.48h-.75V1.13Z"/>
  <path d="M.18,7.89c.27-.18.5-.36.71-.53.21-.17.39-.36.56-.58s.25-.44.25-.65c0-.13-.03-.24-.1-.32s-.16-.12-.3-.12c-.29,0-.45.21-.48.63l-.74-.06c0-.21.05-.42.15-.62.1-.2.24-.37.43-.49s.41-.19.67-.19c.22,0,.41.05.58.14.17.09.3.23.4.4s.15.37.15.6c0,.32-.09.63-.28.92-.19.29-.46.54-.81.76h1.23v.7H.11v-.55s.05-.04.07-.05Z"/>
  <path d="M.64,13.72c-.2-.1-.36-.24-.47-.42-.11-.18-.17-.39-.17-.62l.75-.04c0,.1.02.19.07.27.05.08.12.14.21.18.09.04.2.06.32.06.18,0,.31-.04.41-.11s.15-.18.15-.32c0-.15-.06-.25-.18-.32s-.31-.1-.57-.1v-.59c.18,0,.31-.03.4-.09.09-.06.14-.15.14-.28,0-.11-.03-.19-.1-.25-.07-.06-.16-.09-.28-.09-.14,0-.24.04-.32.11-.08.07-.12.17-.12.29l-.75-.05c0-.2.05-.39.15-.55.1-.16.25-.29.43-.38.18-.09.39-.14.62-.14.21,0,.41.04.57.12.17.08.3.2.39.34s.14.32.14.51c0,.14-.03.27-.09.38-.06.11-.14.21-.25.28.17.07.31.18.4.32.09.14.14.3.14.49,0,.22-.06.42-.17.6-.11.17-.27.31-.47.4-.2.1-.43.14-.7.14s-.5-.05-.7-.15Z"/>
</svg>
