<?xml version="1.0" encoding="UTF-8"?>
<svg xmlns="http://www.w3.org/2000/svg" viewBox="0 0 17 15" width="18" height="18">
  <path d="M5.52,2.5h12v2.09H5.52v-2.09ZM5.52,7.95h12v2.09H5.52v-2.09ZM5.52,13.41h12v2.09H5.52v-2.09Z"/>
  <rect style="fill:none;" x=".02" width="18" height="18"/>
  <path d="M1.32,2.67H.28v-.58h.63c.14,0,.25-.03.31-.09.07-.06.1-.16.1-.31v-.24h.73v4.09h-.73v-2.88Z"/>
  <path d="M.31,10.39c.33-.23.61-.45.85-.65s.45-.43.63-.69c.19-.26.28-.52.28-.78,0-.19-.05-.34-.15-.45-.1-.11-.24-.17-.44-.17-.22,0-.39.08-.5.24-.11.16-.17.36-.18.6l-.72-.06c0-.25.06-.49.17-.72.11-.23.27-.41.49-.55s.47-.21.76-.21c.25,0,.47.05.66.16.19.11.35.26.46.46.11.2.16.43.16.68,0,.41-.14.8-.41,1.17s-.65.7-1.12.98h1.69v.68H.13v-.55l.18-.13Z"/>
  <path d="M.73,16.49c-.23-.11-.41-.27-.54-.47-.13-.2-.19-.44-.19-.71l.72-.04c0,.14.03.26.1.37s.16.19.29.24c.12.06.27.09.43.09.24,0,.43-.05.57-.16s.2-.26.2-.45c0-.21-.08-.36-.25-.45-.17-.09-.42-.14-.75-.14v-.57c.24,0,.43-.04.56-.13.14-.08.2-.22.2-.4,0-.15-.05-.27-.15-.36-.1-.09-.24-.13-.41-.13-.19,0-.34.05-.45.15-.11.1-.17.24-.17.41l-.72-.05c0-.23.06-.44.17-.63.12-.19.28-.33.49-.43.21-.1.44-.16.7-.16.25,0,.47.05.66.14.19.09.34.23.45.39.11.17.16.36.16.58,0,.18-.05.34-.14.48s-.22.24-.38.32c.23.08.41.2.55.36s.2.37.2.61c0,.26-.06.48-.19.68-.13.2-.31.35-.54.46-.23.11-.49.16-.79.16s-.57-.06-.8-.17Z"/>
</svg>
