<svg xmlns="http://www.w3.org/2000/svg" viewbox="0 0 32 32" width="32" height="32"><path d="M15.953 29.329l-12.6-12.7c-3.2-3.2-3.2-8.4 0-11.7 1.5-1.6 3.6-2.4 5.8-2.4 2.2 0 4.3.8 5.8 2.4l.9.9.9-.9c3.2-3.2 8.5-3.2 11.7 0 3.2 3.2 3.2 8.5 0 11.7l-12.5 12.7zm-6.8-24.6c-1.6 0-3.2.6-4.4 1.8-2.4 2.4-2.4 6.3 0 8.8l11.1 11.1 11.1-11.1c2.4-2.4 2.4-6.3 0-8.8-2.4-2.4-6.3-2.4-8.8 0l-2.4 2.4-2.4-2.4c-.9-1.2-2.6-1.8-4.2-1.8z"/><path d="M15.953 29.329l-12.6-12.7c-3.2-3.2-3.2-8.4 0-11.7 1.5-1.6 3.6-2.4 5.8-2.4 2.2 0 4.3.8 5.8 2.4l.9.9.9-.9c3.2-3.2 8.5-3.2 11.7 0 3.2 3.2 3.2 8.5 0 11.7l-12.5 12.7zm-6.8-24.6c-1.6 0-3.2.6-4.4 1.8-2.4 2.4-2.4 6.3 0 8.8l11.1 11.1 11.1-11.1c2.4-2.4 2.4-6.3 0-8.8-2.4-2.4-6.3-2.4-8.8 0l-2.4 2.4-2.4-2.4c-.9-1.2-2.6-1.8-4.2-1.8z"/></svg>
