<svg xmlns="http://www.w3.org/2000/svg" viewBox="0 0 32 32" width="32" height="32" id="icon-search-domain"><path d="m24 21.8 8 8-2.1 2.2-8-8c-5.9 4.6-14.3 3.6-19-2.2S-.7 7.6 5.1 2.9C10.9-1.8 19.3-.7 24 5.1c3.9 4.9 3.9 11.8 0 16.7Zm-10.6 2.1c5.8 0 10.5-4.7 10.5-10.5S19.2 3 13.4 3 3 7.7 3 13.4s4.7 10.5 10.4 10.5Z"/><path d="M6 15.2h1.8V17H6v-1.8ZM9.7 16.7c-.5-.3-.9-.6-1.2-1l1.2-1c.2.3.4.5.7.7.3.2.6.3 1 .3s.6 0 .8-.2c.2-.1.3-.3.3-.5s0-.3-.2-.4c-.1-.1-.3-.2-.4-.3s-.4-.1-.7-.2c-.5-.1-.9-.3-1.2-.4-.3-.1-.6-.4-.8-.6-.2-.3-.3-.6-.3-1.1s.1-.8.3-1.1.5-.5.9-.7c.4-.2.8-.3 1.3-.3s1 .1 1.5.3.8.5 1 .9l-1.1.8-.6-.6c-.3-.1-.5-.2-.8-.2s-.5 0-.6.2c-.2.1-.3.2-.3.4s0 .2.1.3.2.2.4.2.4.1.7.2c.5.1.9.3 1.3.4.3.1.6.3.9.6.3.3.4.7.4 1.2s-.1.8-.3 1.2c-.2.3-.6.6-1 .8-.4.2-.9.3-1.5.3s-1.3-.1-1.8-.4ZM16.2 16.7c-.5-.3-.9-.7-1.1-1.3-.2-.5-.4-1.1-.4-1.7s.1-1.2.3-1.8c.2-.5.6-1 1.1-1.3.5-.3 1.1-.5 1.8-.5s1.3.2 1.7.5c.5.3.8.7 1.1 1.2.2.5.4 1.1.4 1.8v.6h-4.6c0 .4.2.8.5 1 .3.3.7.4 1.2.4s1.2-.2 1.6-.7l1.2 1c-.4.4-.8.7-1.2.9-.5.2-1 .3-1.6.3s-1.4-.2-1.9-.5Zm3.3-3.8c0-.3 0-.5-.2-.7-.1-.2-.3-.4-.5-.5-.2-.1-.5-.2-.8-.2-.5 0-.9.1-1.1.4-.3.3-.4.6-.5 1h3.1Z"/></svg>
