<svg xmlns="http://www.w3.org/2000/svg" id="Layer_1" viewBox="0 0 32 32" width="32" height="32"><defs><style>.st0{fill:#fff}</style></defs><path d="M27.7 4.3c-.3-.1-5.9-2.5-11.7-2.5S4.7 4.2 4.4 4.3l-.5.2v14.1c0 5.08 4.33 8.27 7.8 10.02.01 0 .02.01.03.02a28.129 28.129 0 0 0 3.47 1.46c.3.1.5.1.8.1h.1c.3 0 .5 0 .8-.1.76-.26 2.04-.75 3.47-1.47.01 0 .02-.01.03-.02 3.46-1.75 7.8-4.93 7.8-10.02V4.5z"/><path d="M21.07 12.58v-2.22a2.83 2.83 0 0 0-2.85-2.85h-4.44a2.83 2.83 0 0 0-2.85 2.85v2.22H9.72v8.69h12.56v-8.69zm-8.69-2.22c0-.77.63-1.4 1.4-1.4h4.44c.77 0 1.4.63 1.4 1.4v2.22h-7.24zm8.45 9.46h-9.66v-5.8h9.66z" class="st0"/><path d="M16.92 16.15c0-.53-.43-.92-.92-.92s-.92.43-.92.92c0 .29.1.53.29.68v1.79h1.21v-1.79c.24-.14.34-.39.34-.68" class="st0"/></svg>
