<svg id="icon-share" viewbox="0 0 32 32">
	<path d="M17.4 19.6c.5-.4 1.1-.6 1.7-.6 1.6.1 2.8 1.4 2.8 3 .1 1.6-1.2 3-2.8 3-1.6-.1-2.8-1.4-2.8-3v-.5l-4.9-3.2c-.5.4-1.1.6-1.7.6-1.6-.1-2.9-1.4-2.8-3 0-1.6 1.2-2.9 2.8-3 .6 0 1.2.2 1.7.6l4.9-3.2v-.5c-.1-1.6 1.2-3 2.8-3 1.6.1 2.9 1.4 2.8 3 0 1.6-1.2 2.9-2.8 3-.6 0-1.2-.2-1.7-.6l-4.9 3.2v1l4.9 3.2z"/><g transform="translate(-624 -576)"><path class="st0" d="M640 604.5c6.9 0 12.5-5.6 12.5-12.5s-5.6-12.5-12.5-12.5-12.5 5.6-12.5 12.5 5.6 12.5 12.5 12.5m0 3c-8.6 0-15.5-6.9-15.5-15.5s6.9-15.5 15.5-15.5 15.5 6.9 15.5 15.5-6.9 15.5-15.5 15.5"/></g>
</svg>
