<svg id="icon-wifi" xmlns="http://www.w3.org/2000/svg" viewbox="0 0 28 20"><style>.st1{display:inline}</style><path d="M25.967 9.989a11.93 11.93 0 0 1-3.49 8.438l1.436 1.436A13.97 13.97 0 0 0 28 9.98c-.032-3.804-1.603-7.267-4.113-9.797l-1.433 1.433c2.144 2.165 3.486 5.124 3.513 8.373zM2.031 9.989c0-3.279 1.327-6.252 3.471-8.416L4.066.137A13.953 13.953 0 0 0 0 9.989c0 3.85 1.563 7.341 4.086 9.874l1.436-1.436a11.93 11.93 0 0 1-3.491-8.438z"/><path d="M20.772 9.989a6.75 6.75 0 0 1-1.967 4.766L20.4 16.35a9.014 9.014 0 0 0 2.63-6.371c-.021-2.445-1.029-4.67-2.638-6.3l-1.593 1.593a6.798 6.798 0 0 1 1.973 4.717zM7.228 9.989c0-1.846.745-3.521 1.947-4.744L7.579 3.65A8.998 8.998 0 0 0 4.97 9.989a8.997 8.997 0 0 0 2.629 6.361l1.595-1.595a6.753 6.753 0 0 1-1.966-4.766z"/><path id="Path_68" d="M14 6.885a3.104 3.104 0 1 0 3.104 3.104A3.132 3.132 0 0 0 14 6.885z"/></svg>
