<svg xmlns="http://www.w3.org/2000/svg" viewBox="0 0 32 32" width="32" height="32"><path d="M27.7 4.3c-.3-.1-5.9-2.5-11.7-2.5S4.7 4.2 4.4 4.3l-.5.2v14.1c0 5.08 4.33 8.27 7.8 10.02.01 0 .02.01.03.02 1.12.56 2.28 1.05 3.47 1.46.3.1.5.1.8.1h.1c.3 0 .5 0 .8-.1.76-.26 2.04-.75 3.47-1.47.01 0 .02-.01.03-.02 3.46-1.75 7.8-4.93 7.8-10.02V4.5zm-1.3 14.3c0 6.1-8.4 9.2-10.1 9.8-.08.04-.16.06-.25.07-.09 0-.17-.03-.25-.07-1.7-.6-10.1-3.7-10.1-9.8v-13c1.49-.6 5.95-2.08 10.32-2.1l2.9.2c-.94-.12-1.91-.2-2.87-.2h.05c1.02 0 2.05.08 3.04.21h-.22c3.33.41 6.31 1.42 7.48 1.89z"/><path d="m22.26 10.15-.18-.18-1.23-1.23L16 13.59l-4.85-4.85-1.41 1.41L14.59 15l-4.85 4.85 1.41 1.41L16 16.41l4.85 4.85 1.41-1.41L17.41 15z"/></svg>
