<svg xmlns="http://www.w3.org/2000/svg" viewBox="0 0 32 32" width="32" height="32"><path d="M27.7 4.3c-.3-.1-5.9-2.5-11.7-2.5S4.7 4.2 4.4 4.3l-.5.2v14.1c0 5.08 4.33 8.27 7.8 10.02.01 0 .02.01.03.02a28.129 28.129 0 0 0 3.47 1.46c.3.1.5.1.8.1h.1c.3 0 .5 0 .8-.1.76-.26 2.04-.75 3.47-1.47.01 0 .02-.01.03-.02 3.46-1.75 7.8-4.93 7.8-10.02V4.5z"/><path d="m22.26 10.15-.18-.18-1.23-1.23L16 13.59l-4.85-4.85-1.41 1.41L14.59 15l-4.85 4.85 1.41 1.41L16 16.41l4.85 4.85 1.41-1.41L17.41 15z" style="fill:#fff"/></svg>
