<svg id="icon-user" viewbox="0 0 32 32">
	<path d="M16 22c-1.3 0-2.6-.5-3.7-1.4l-.1-.1c-2.2-1.8-3.7-4.9-3.7-7.7 0-4.2 3.4-7.6 7.6-7.6s7.6 3.4 7.6 7.6c0 2.8-1.5 6-3.7 7.7l-.1.1c-1.3.9-2.6 1.4-3.9 1.4zm1.9-3.8l1 1.1-1-1.1c1.6-1.2 2.7-3.6 2.7-5.4 0-2.5-2-4.6-4.6-4.6-2.5 0-4.6 2-4.6 4.6 0 1.9 1.1 4.2 2.6 5.4 1.4 1.1 2.6 1 3.9 0z"/><path d="M16 31.5c-3.6 0-7.1-1.3-9.9-3.5-.3-.3-.5-.7-.5-1.2 0-4.5 2.8-7.4 7-8.9.4-.2.9-.1 1.3.2.1 0 .1.1.2.2 1.2.9 2.5.9 3.7 0 .1-.1.2-.1.2-.2.4-.3.9-.3 1.3-.2 4.2 1.4 7 4.4 7 8.8 0 .4-.2.9-.5 1.2-2.7 2.3-6.2 3.6-9.8 3.6zm-7.4-5.4c2.1 1.6 4.7 2.4 7.4 2.4s5.2-.8 7.4-2.4c-.2-2.6-1.9-3.9-4.3-5-2 1.2-4.2 1.2-6.2 0-2.4 1.1-4 2.4-4.3 5zm16.3.7zm-12.8-6.3z"/><g transform="translate(-624 -576)"><path class="st0" d="M640 604.5c6.9 0 12.5-5.6 12.5-12.5s-5.6-12.5-12.5-12.5-12.5 5.6-12.5 12.5 5.6 12.5 12.5 12.5m0 3c-8.6 0-15.5-6.9-15.5-15.5s6.9-15.5 15.5-15.5 15.5 6.9 15.5 15.5-6.9 15.5-15.5 15.5"/></g>
</svg>
