<svg xmlns="http://www.w3.org/2000/svg" id="icon-world" width="32" height="32" viewbox="0 0 32 32">
  <path d="M16 .5C7.4.5.5 7.4.5 16S7.4 31.5 16 31.5 31.5 24.6 31.5 16 24.6.5 16 .5zM7.1 7.2c.8-.8 1.6-1.4 2.5-2l-.8 2.5h2.4l2.4-2.4V4.1h-1.2l-1.2 1.2v-.9c1.5-.6 3.1-.9 4.8-.9 2.4 0 4.7.7 6.6 1.9v.1L24 6.9l-1.3 1.3-1.9-1.8h-2.4l-2.4 3 1.2 2.6 1.2-.8V10h1.2l1.3 1.1-1.3 1.3-4.8 2.4h-1.2v2.4h1.2l2.4-1.2 1.2 1.2h2.4V16l1-1.4 2.6-1V16H22v1.2h2.4l2.4 3.6 1.2-1.2v-1.2h-1.2v-1.2H28l.5-.1c-.2 2.2-1 4.3-2.2 6.1h-.8l-2.9-4.8-3 1.2-3.6-1.2-3.6 1.2-1.2 3.6 1.2 2.4h2.4l1.2-1.2 1.2 1.2v2.9c-.4 0-.8.1-1.2.1C9.1 28.5 3.5 22.9 3.5 16c0-1.2.2-2.4.5-3.6h1.2V9.6c.4-.7.9-1.4 1.4-2l.5-.4z"/>
  <path d="M13.6 10h1.2v2.4h-1.2z"/>
</svg>
